<svg width="16" height="16" viewBox="0 0 16 16" fill="none" xmlns="http://www.w3.org/2000/svg">
<path fill-rule="evenodd" clip-rule="evenodd" d="M14.8538 7.14747C14.9474 7.241 15 7.3678 15 7.5C15 7.6322 14.9474 7.759 14.8538 7.85253L9.8536 12.8412C9.80782 12.8902 9.75262 12.9295 9.69129 12.9568C9.62995 12.9841 9.56374 12.9987 9.4966 12.9999C9.42946 13.0011 9.36278 12.9888 9.30052 12.9637C9.23825 12.9386 9.1817 12.9013 9.13422 12.8539C9.08674 12.8065 9.0493 12.7501 9.02416 12.688C8.99901 12.6259 8.98666 12.5593 8.98784 12.4923C8.98903 12.4253 9.00372 12.3593 9.03105 12.2981C9.05838 12.2369 9.09778 12.1818 9.14691 12.1362L13.2937 7.99887L2.50002 7.99887C2.36741 7.99887 2.24022 7.94631 2.14645 7.85275C2.05268 7.7592 2 7.63231 2 7.5C2 7.36769 2.05268 7.2408 2.14645 7.14725C2.24022 7.05369 2.36741 7.00113 2.50002 7.00113L13.2937 7.00113L9.14691 2.86385C9.09778 2.81818 9.05838 2.7631 9.03105 2.70191C9.00372 2.64071 8.98903 2.57465 8.98784 2.50767C8.98666 2.44069 8.99901 2.37415 9.02416 2.31203C9.0493 2.24991 9.08674 2.19349 9.13422 2.14612C9.1817 2.09874 9.23826 2.0614 9.30052 2.03631C9.36278 2.01122 9.42946 1.9989 9.4966 2.00008C9.56374 2.00126 9.62995 2.01592 9.69129 2.04319C9.75262 2.07045 9.80782 2.10977 9.8536 2.15878L14.8538 7.14747Z" fill="#F1F1F1"/>
</svg>
