<svg width="311" height="262" viewBox="0 0 311 262" fill="none" xmlns="http://www.w3.org/2000/svg">
<path d="M303.858 198.515L303.824 210.435L222.391 257.758L222.425 245.836L303.858 198.515Z" fill="#C6D5FA"/>
<path d="M310.229 189.594L310.195 201.514C310.186 204.744 308.064 207.97 303.822 210.433L303.856 198.513C308.098 196.048 310.22 192.823 310.229 189.594Z" fill="#C6D5FA"/>
<path d="M191.399 245.834L191.365 257.754L14.4722 155.625L14.5065 143.703L191.399 245.834Z" fill="#D4E2FC"/>
<path d="M8.00003 146.579L8.03428 134.657C8.02526 137.931 10.1834 141.209 14.5068 143.705L14.4743 155.627C10.1509 153.129 7.99101 149.852 8.00003 146.579Z" fill="#D4E2FC"/>
<path d="M222.425 245.836L222.393 257.758C213.858 262.719 199.964 262.719 191.367 257.755L191.401 245.835C199.994 250.797 213.89 250.797 222.425 245.836Z" fill="#CDDCFB"/>
<path d="M303.75 180.542C312.344 185.505 312.395 193.551 303.856 198.515L222.424 245.836C213.89 250.796 199.994 250.796 191.398 245.834L14.5051 143.705C5.91416 138.746 5.86905 130.697 14.404 125.736L95.8349 78.4129C104.373 73.4507 118.264 73.4543 126.855 78.4129L303.75 180.542Z" fill="#D4E2FC"/>
<path d="M303.749 180.542L288.198 171.564L175.482 236.642L191.399 245.832C199.994 250.795 213.89 250.795 222.425 245.834L303.855 198.511C312.396 193.551 312.345 185.505 303.749 180.542Z" fill="#F1F1F1"/>
<path d="M126.857 78.4129C118.266 73.4543 104.375 73.4507 95.8366 78.4129L14.404 125.736C5.86905 130.697 5.91416 138.744 14.5051 143.705L19.9328 146.837L132.651 81.7584L126.857 78.4129Z" fill="#F1F1F1"/>
<path d="M290.871 171.567L178.157 236.639L58.1018 167.325L42.5926 158.375L34.8119 153.878L22.6067 146.836L51.0753 130.397L73.158 117.652L135.328 81.7567L147.524 88.7976L290.871 171.567Z" fill="url(#paint0_linear_332_30328)"/>
<path d="M144.85 88.7976L32.1379 153.878L19.9326 146.836L48.4013 130.397L70.484 117.652L132.654 81.7567L144.85 88.7976Z" fill="#3C6FF7"/>
<path d="M57.7069 133.09L56.2507 133.315C56.1587 133.248 56.0612 133.183 55.9529 133.122C55.8122 133.041 55.6642 132.969 55.509 132.904L55.9043 132.052C55.9584 131.935 55.8375 131.816 55.6372 131.785L53.683 131.482C53.4827 131.451 53.2734 131.52 53.2192 131.637L52.8114 132.518C52.4938 132.543 52.1816 132.593 51.8839 132.667L50.7598 132.02C50.6136 131.933 50.3718 131.933 50.2257 132.02L48.7965 132.846C48.6504 132.931 48.6504 133.07 48.7965 133.154L49.9207 133.804C49.7944 133.977 49.7078 134.158 49.6627 134.34L48.1379 134.576C47.9376 134.607 47.8167 134.728 47.8708 134.843L48.3941 135.971C48.4483 136.087 48.6576 136.157 48.8579 136.125L50.3339 135.897C50.4476 135.987 50.5739 136.072 50.7129 136.153C50.8193 136.217 50.9312 136.273 51.0485 136.325L50.6587 137.164C50.6046 137.281 50.7255 137.4 50.9276 137.433L52.8818 137.734C53.0821 137.765 53.2896 137.696 53.3437 137.581L53.7208 136.769C54.0853 136.747 54.4427 136.695 54.7837 136.61L55.805 137.198C55.9511 137.285 56.193 137.285 56.3391 137.198L57.77 136.372C57.9162 136.287 57.9162 136.148 57.77 136.063L56.7487 135.473C56.8949 135.277 56.9851 135.069 57.023 134.86L58.4286 134.643C58.6289 134.612 58.7499 134.492 58.6957 134.376L58.1724 133.248C58.1165 133.127 57.9072 133.057 57.7069 133.09ZM54.5581 135.341C53.8833 135.731 52.7861 135.731 52.1095 135.341C51.4346 134.952 51.4346 134.318 52.1095 133.929C52.7843 133.539 53.8815 133.539 54.5581 133.929C55.233 134.318 55.233 134.95 54.5581 135.341Z" fill="#F1F1F1"/>
<path d="M83.8772 111.855C81.0785 113.472 80.1582 115.765 81.1092 117.831L82.1972 117.663C81.3455 115.816 82.1702 113.762 84.6748 112.315C87.1811 110.868 90.7394 110.391 93.9387 110.884L94.2311 110.256C90.6528 109.706 86.6777 110.238 83.8772 111.855Z" fill="#F1F1F1"/>
<path d="M86.2697 113.237C84.3534 114.343 83.7236 115.913 84.375 117.326L85.4613 117.158C84.9109 115.962 85.4433 114.632 87.0654 113.697C88.6858 112.761 90.9901 112.452 93.0598 112.772L93.3521 112.144C90.9053 111.767 88.186 112.131 86.2697 113.237Z" fill="#F1F1F1"/>
<path d="M88.6638 114.617C87.6317 115.213 87.296 116.059 87.6461 116.819L88.7324 116.651C88.4815 116.108 88.7215 115.503 89.4595 115.078C90.1975 114.652 91.2423 114.513 92.1861 114.657L92.4765 114.031C91.1575 113.829 89.6941 114.022 88.6638 114.617Z" fill="#F1F1F1"/>
<path d="M92.6877 116.942C92.1157 117.272 91.1847 117.272 90.6127 116.942C90.425 116.832 90.2987 116.7 90.2337 116.561C90.1038 116.278 90.2301 115.965 90.6127 115.743C90.9952 115.522 91.5401 115.449 92.0291 115.525C92.2709 115.561 92.4983 115.633 92.6877 115.743C93.2579 116.074 93.2579 116.611 92.6877 116.942Z" fill="#F1F1F1"/>
<path d="M28.0243 146.45C27.9233 146.693 27.705 146.957 27.3549 147.182L26.7144 146.812C27.4452 146.356 27.2936 145.97 26.985 145.584L27.5245 145.271L34.5185 149.31L33.7498 149.754L28.0243 146.45Z" fill="#F1F1F1"/>
<path d="M30.3325 145.602C29.2642 144.985 29.1037 144.281 30.1737 143.664C31.251 143.041 32.4707 143.133 33.5408 143.75L37.146 145.833C38.2161 146.45 38.3857 147.159 37.3067 147.781C36.2366 148.398 35.0096 148.301 33.9396 147.684L30.3325 145.602ZM34.7588 147.269C35.3885 147.632 36.0381 147.697 36.5975 147.372C37.1677 147.043 37.0486 146.673 36.417 146.311L32.7215 144.176C32.0828 143.806 31.4422 143.738 30.872 144.066C30.3126 144.391 30.4227 144.764 31.0615 145.132L34.7588 147.269Z" fill="#F1F1F1"/>
<path d="M35.5579 143.196L36.5287 143.756L35.778 144.187L34.8091 143.629L35.5579 143.196ZM39.3653 145.392L40.3361 145.952L39.5854 146.385L38.6164 145.825L39.3653 145.392Z" fill="#F1F1F1"/>
<path d="M38.9862 140.616C41.0938 141.834 39.486 143.638 41.083 144.573L41.193 144.636L43.4919 143.308L44.201 143.718L41.1335 145.49L40.5344 145.143C38.2789 143.839 40.206 142.218 38.2374 141.081C37.5192 140.665 36.8985 140.585 36.3193 140.921C35.7491 141.249 35.9097 141.63 36.5304 141.987L37.1493 142.346L36.4203 142.767L35.8519 142.437C34.7819 141.82 34.5617 141.127 35.6408 140.506C36.727 139.878 37.918 139.999 38.9862 140.616Z" fill="#F1F1F1"/>
<path d="M42.8238 138.379L42.9537 138.452L42.2247 138.875L42.0443 138.772C41.4146 138.407 40.7866 138.344 40.2164 138.673C39.6263 139.014 39.7472 139.382 40.4961 139.815L42.0641 140.721C41.7754 140.335 41.8855 139.959 42.443 139.636C43.3435 139.115 44.3919 139.261 45.4023 139.844L46.4616 140.455C47.5298 141.073 47.6994 141.783 46.6294 142.399C45.5503 143.021 44.3215 142.924 43.2532 142.309L39.6859 140.25C38.578 139.609 38.3885 138.922 39.4964 138.283C40.5755 137.657 41.7537 137.76 42.8238 138.379ZM43.0331 141.28L44.0815 141.886C44.7113 142.249 45.3518 142.319 45.9202 141.991C46.4796 141.668 46.3695 141.293 45.7397 140.928L44.6896 140.322C44.0598 139.957 43.412 139.894 42.8509 140.219C42.2843 140.546 42.4033 140.916 43.0331 141.28Z" fill="#F1F1F1"/>
<path d="M115.068 101.176L116.477 101.99L115.718 102.428L114.308 101.615L112.049 102.919L111.34 102.51L108.634 98.4424L109.482 97.9534L114.357 100.768L114.917 100.445L115.626 100.855L115.068 101.176ZM112.062 102.093L113.599 101.205L110.182 99.2327L112.062 102.093Z" fill="#F1F1F1"/>
<path d="M113.671 96.3418L111.293 97.7149L110.595 97.3107L113.762 95.4828L114.442 95.8744L118.958 100.559L118.179 101.008L113.671 96.3418Z" fill="#F1F1F1"/>
<path d="M117.558 94.5465L119.765 95.8222C120.445 96.2138 120.575 96.6577 119.895 97.051C119.217 97.4444 118.446 97.3686 117.766 96.9752L115.559 95.7013C114.89 95.3152 114.751 94.8641 115.429 94.4725C116.109 94.0791 116.889 94.1603 117.558 94.5465ZM116.03 95.3946L118.309 96.71C118.688 96.9283 119.078 96.9933 119.437 96.7858C119.787 96.5837 119.686 96.3527 119.307 96.1344L117.03 94.8189C116.651 94.6006 116.241 94.5357 115.891 94.7377C115.53 94.9453 115.651 95.1762 116.03 95.3946ZM118.778 92.5869L123.015 98.2149L122.546 98.4856L118.309 92.8557L118.778 92.5869ZM123.603 94.0683L125.801 95.3368C126.48 95.7302 126.62 96.1687 125.931 96.5656C125.251 96.9572 124.482 96.8832 123.804 96.4899L121.604 95.2195C120.934 94.8334 120.805 94.3895 121.483 93.9961C122.176 93.6009 122.934 93.6803 123.603 94.0683ZM122.075 94.9164L124.343 96.2264C124.722 96.4447 125.133 96.5097 125.482 96.3058C125.832 96.1037 125.722 95.8691 125.341 95.649L123.073 94.339C122.692 94.1206 122.293 94.0611 121.943 94.265C121.595 94.4653 121.694 94.698 122.075 94.9164Z" fill="#F1F1F1"/>
<path d="M132.564 95.1295L123.067 89.6458L128.446 86.5386L137.945 92.0223L132.564 95.1295ZM124.529 89.6458L132.564 94.285L136.481 92.0223L128.446 87.3831L124.529 89.6458Z" fill="#F1F1F1"/>
<path d="M137.212 92.0241L132.563 94.7073L128.65 92.4482L133.3 89.7632L137.212 92.0241Z" fill="#F1F1F1"/>
<path d="M127.374 87.6339L124.962 89.027L123.502 88.1843L125.914 86.7913L127.374 87.6339Z" fill="#F1F1F1"/>
<path d="M104.51 110.563L102.045 111.986L97.3179 109.258L99.7845 107.834L104.51 110.563Z" fill="#F1F1F1"/>
<path d="M108.071 108.507L105.607 109.931L99.0989 106.174L101.566 104.751L108.071 108.507Z" fill="#F1F1F1"/>
<path d="M111.633 106.45L109.168 107.874L99.5789 102.338L102.046 100.914L111.633 106.45Z" fill="#F1F1F1"/>
<path d="M82.1031 100.803L61.9782 112.422C60.5797 113.23 58.3115 113.23 56.9131 112.422C55.5146 111.613 55.5146 110.303 56.9131 109.497L77.038 97.8777C78.4364 97.0693 80.7046 97.0693 82.1031 97.8777C83.5015 98.6843 83.5015 99.9943 82.1031 100.803Z" fill="#372B3D"/>
<path d="M92.0412 92.1378C90.0599 90.9956 86.848 90.9956 84.8685 92.1378C82.8872 93.2819 82.8872 95.1368 84.8685 96.2808C86.8498 97.4231 90.0599 97.4231 92.0412 96.2808C94.0207 95.1368 94.0207 93.2819 92.0412 92.1378Z" fill="#372B3D"/>
<path d="M52.9147 114.728C51.8915 114.138 50.2315 114.138 49.2065 114.728C48.1834 115.318 48.1834 116.278 49.2065 116.868C50.2297 117.458 51.8897 117.458 52.9147 116.868C53.9396 116.278 53.9396 115.319 52.9147 114.728Z" fill="#372B3D"/>
<path d="M46.5433 118.409C45.5202 117.819 43.8601 117.819 42.8352 118.409C41.8121 118.999 41.8121 119.957 42.8352 120.549C43.8583 121.139 45.5184 121.139 46.5433 120.549C47.5664 119.957 47.5664 118.999 46.5433 118.409Z" fill="#372B3D"/>
<path d="M240.088 225.235C239.274 225.235 238.458 225.051 237.823 224.684L227.254 218.582C226.524 218.16 226.105 217.53 226.105 216.853C226.105 216.175 226.524 215.543 227.254 215.123L251.277 201.252C252.547 200.519 254.539 200.519 255.808 201.254L266.376 207.356C267.107 207.779 267.526 208.408 267.526 209.087C267.526 209.765 267.107 210.395 266.376 210.817L242.354 224.686C241.719 225.051 240.903 225.235 240.088 225.235ZM253.543 202.165C252.98 202.165 252.419 202.282 252.009 202.517L227.987 216.388C227.678 216.566 227.568 216.749 227.568 216.851C227.568 216.954 227.678 217.136 227.987 217.315L238.556 223.418C239.373 223.889 240.806 223.889 241.623 223.418L265.646 209.547C265.954 209.368 266.062 209.186 266.062 209.083C266.062 208.98 265.954 208.798 265.646 208.62L255.077 202.517C254.669 202.282 254.106 202.165 253.543 202.165Z" fill="#CDDCFB"/>
<path d="M269.245 221.027L263.662 224.248L270.481 227.519V220.309L269.245 221.027Z" fill="#D4E2FC"/>
<path d="M259.959 226.386V233.604L270.481 227.519L263.662 224.248L259.959 226.386Z" fill="#F1F1F1"/>
<path d="M269.245 221.027V226.926L259.959 232.287V226.386L269.245 221.027Z" fill="#10191B"/>
<path d="M45.2667 171.338L25.0515 159.667V152.911L45.2667 164.58V171.338Z" fill="#BCC5DF"/>
<path d="M93.4348 104.399L71.5361 176.629L97.8683 191.833L130.944 82.7436L93.4348 104.399Z" fill="#251B29"/>
<path d="M55.4276 167.325L70.4839 117.652L48.4011 130.397L39.9185 158.375L55.4276 167.325Z" fill="#251B29"/>
<g opacity="0.5">
<path d="M247 179.484L211.696 200.11L186.976 185.838V180.963L222.28 165.212L247 179.484Z" fill="#BCC5DF"/>
</g>
<g opacity="0.5">
<path d="M217.944 162.685L182.641 183.31L157.921 169.038V164.163L193.224 148.412L217.944 162.685Z" fill="#BCC5DF"/>
</g>
<g opacity="0.5">
<path d="M188.941 145.887L153.638 166.512L128.918 152.24V147.365L164.221 131.614L188.941 145.887Z" fill="#BCC5DF"/>
</g>
<g opacity="0.5">
<path d="M160.025 129.393L124.72 150.017L100 135.745V130.87L135.303 115.121L160.025 129.393Z" fill="#BCC5DF"/>
</g>
<path d="M145.964 13.2142L145.631 130.745L122.888 143.961L123.222 26.4297L145.964 13.2142Z" fill="#F2B22A"/>
<path d="M123.222 26.4297L122.888 143.961L100 130.746L100.334 13.2154L123.222 26.4297Z" fill="#FFC400"/>
<path d="M145.963 13.2142L123.222 26.4297L100.334 13.2155L123.075 -3.05176e-05L145.963 13.2142Z" fill="#FFDE23"/>
<path d="M174.958 86.1152L174.625 147.485L151.882 160.7L152.215 99.3307L174.958 86.1152Z" fill="#BCC5DF"/>
<path d="M152.215 99.3307L151.882 160.7L128.992 147.485L129.326 86.1152L152.215 99.3307Z" fill="#DDE3F4"/>
<path d="M174.958 86.1151L152.216 99.3306L129.326 86.1151L152.068 72.8996L174.958 86.1151Z" fill="#E9ECF5"/>
<path d="M203.949 72.8994L203.616 164.223L180.875 177.438L181.208 86.1149L203.949 72.8994Z" fill="#F69524"/>
<path d="M181.208 86.1149L180.875 177.438L157.985 164.223L158.318 72.8994L181.208 86.1149Z" fill="#FFC400"/>
<path d="M203.95 72.8995L181.208 86.115L158.318 72.8995L181.059 59.684L203.95 72.8995Z" fill="#FFDE23"/>
<path d="M232.941 143.896L232.608 180.961L209.867 194.177L210.2 157.113L232.941 143.896Z" fill="#BCC5DF"/>
<path d="M210.2 157.113L209.867 194.177L186.976 180.962L187.309 143.897L210.2 157.113Z" fill="#DDE3F4"/>
<path d="M232.941 143.896L210.2 157.113L187.31 143.897L210.051 130.682L232.941 143.896Z" fill="#E9ECF5"/>
<path d="M12.5921 170.171C9.5554 171.65 6.68631 173.446 3.82349 175.239C3.00599 175.753 2.21198 175.898 1.48374 176.534C0.888626 177.053 0.0648617 178.132 0.00221789 178.957C-0.079219 180.041 2.10392 180.85 2.94021 181.11C4.11008 181.474 5.23454 181.555 6.43574 181.355C7.60561 181.16 8.37613 180.603 9.15135 179.71C9.84513 178.91 10.5295 178.016 11.5271 177.654C12.4605 177.316 13.6178 177.466 14.332 176.775C14.6985 176.421 14.8645 175.912 14.9897 175.421C15.2231 174.492 15.1824 173.508 15.4095 172.595C15.577 171.925 15.8981 171.219 15.8495 170.509C15.8088 169.903 15.1745 169.388 14.6201 169.227C14.0015 169.048 13.3218 169.175 12.7534 169.477L12.5921 170.171Z" fill="#10191B"/>
<path d="M34.1606 120.241C35.5215 117.073 36.8073 112.896 38.5926 107.695C39.075 106.295 39.3475 104.799 39.3694 103.308C39.3898 101.803 38.9153 100.533 38.2121 99.1737C37.8926 98.5583 37.4494 97.8974 36.7556 97.7564C36.1245 97.6264 35.5184 97.9804 35.0219 98.3562C32.0291 100.619 30.38 104.386 29.6925 107.96C29.052 111.283 29.2164 115.234 28.9486 118.629C28.8969 119.273 29.1741 124.82 31.2664 123.877C32.2891 123.415 33.4214 121.962 34.1606 120.241Z" fill="#1499FC"/>
<path d="M33.4837 117.066C32.7617 116.51 30.1448 115.369 29.6953 116.063C29.3852 116.542 27.6422 120.045 26.1794 122.062C28.1167 123.411 29.8284 124.985 31.4603 126.64C33.6466 123.992 35.6136 121.071 35.587 119.226C35.5744 118.291 34.4406 117.804 33.4837 117.066Z" fill="#1499FC"/>
<path d="M25.6081 176.664C23.0146 178.76 20.6498 181.124 18.2944 183.483C17.6194 184.158 16.9445 184.839 16.3838 185.614C15.9265 186.245 15.3173 187.101 15.4394 187.909C15.5992 188.969 17.8763 189.266 18.7376 189.331C19.942 189.421 21.0414 189.251 22.1502 188.793C23.2323 188.347 23.8509 187.639 24.3991 186.609C24.8908 185.685 25.3513 184.672 26.2298 184.105C27.0536 183.572 28.1984 183.461 28.7325 182.639C29.0065 182.216 29.0551 181.69 29.066 181.187C29.0864 180.243 28.8311 179.303 28.8483 178.374C28.8609 177.693 29.0144 176.943 28.8108 176.269C28.6385 175.695 27.9165 175.339 27.3465 175.308C26.7122 175.272 26.0873 175.547 25.6081 175.962V176.664Z" fill="#10191B"/>
<path d="M52.3207 125.855L52.305 125.871C52.1516 127.064 52.0513 128.264 52.009 129.465C52.0654 128.259 52.1688 127.055 52.3207 125.855Z" fill="#F3A984"/>
<path d="M52.0093 129.467C51.9748 130.198 51.9561 130.933 51.9561 131.667C51.9701 131.661 51.9842 131.655 51.9983 131.647C51.978 130.92 51.9827 130.194 52.0093 129.467Z" fill="#F3A984"/>
<path d="M10.0281 143.616C8.27721 144.76 6.31333 152.394 13.0757 152.676C16.5697 152.824 19.7426 150.858 22.8826 149.319C27.2066 147.197 31.8485 145.792 36.2257 143.781C37.5679 143.164 38.8944 142.486 40.0454 141.56C42.8488 139.31 44.4117 135.6 44.0609 132.021C44.0124 131.517 43.9231 131.003 43.6757 130.561C42.5042 128.466 35.1029 129.168 33.377 130.023C27.0046 133.177 11.8385 142.434 10.0281 143.616Z" fill="#404B63"/>
<path d="M7.96394 148.027C8.0626 149.895 8.23331 151.73 8.50737 153.591C8.8112 155.65 9.14164 157.71 9.24657 159.793C9.35776 162.032 9.20742 164.273 9.24344 166.513C9.26537 167.91 9.22308 169.343 9.58955 170.704C9.76339 171.347 9.98107 172.051 10.5652 172.409C11.2496 172.83 12.0796 173.079 12.8721 173.186C13.4218 173.261 13.9918 173.263 14.5196 173.092C16.2956 172.516 16.3613 170.033 16.7215 168.505C17.0536 167.094 17.2963 165.664 17.4842 164.226C17.8523 161.406 17.9869 158.568 18.1451 155.73C18.2407 153.846 18.3378 151.958 18.2688 150.07C18.2078 148.346 18.1483 146.57 17.3464 145.034C16.5587 143.521 14.7874 142.423 13.1524 142.091C11.2982 141.714 9.5363 142.431 8.61387 144.121C8.0673 145.122 7.88407 146.291 7.93419 147.432C7.94358 147.63 7.95298 147.828 7.96394 148.027Z" fill="#404B63"/>
<path d="M21.5971 150.163C20.0106 151.467 18.6372 159.506 25.0644 159.326C28.3845 159.232 31.2677 156.978 34.1446 155.166C43.3736 149.351 54.8688 147.323 53.1116 135.789C52.9503 134.73 52.6715 130.24 51.8509 129.73C51.2589 129.362 47.9404 130.535 47.1949 130.659C40.0128 131.849 39.0825 131.88 37.897 132.693C37.6997 138.08 36.8336 139.018 33.8847 140.79C32.5253 141.609 22.792 149.181 21.5971 150.163Z" fill="#546282"/>
<path d="M20.2098 155.52C20.4338 157.376 20.7282 159.197 21.1275 161.036C21.5692 163.069 22.0374 165.103 22.2817 167.172C22.5433 169.399 22.5449 171.645 22.7312 173.878C22.8487 175.27 22.9019 176.703 23.3592 178.036C23.5769 178.666 23.8416 179.355 24.4461 179.671C25.1587 180.045 26.0044 180.238 26.8015 180.293C27.3543 180.33 27.9244 180.294 28.4396 180.088C30.1717 179.394 30.0715 176.912 30.3268 175.363C30.5617 173.933 30.7105 172.489 30.7997 171.043C30.9767 168.204 30.9188 165.363 30.8859 162.522C30.8546 160.635 30.8232 158.745 30.629 156.867C30.4521 155.151 30.272 153.383 29.3699 151.904C28.4819 150.449 26.6418 149.472 24.9864 149.251C23.1102 148.999 21.4016 149.832 20.5951 151.582C20.1174 152.617 20.0125 153.796 20.1393 154.93C20.1628 155.127 20.1863 155.325 20.2098 155.52Z" fill="#546282"/>
<path d="M52.321 102.644C50.1927 101.203 45.9438 99.3085 41.789 98.0071C35.9694 96.1857 35.1519 98.3078 33.4777 102.95C31.9195 107.271 32.3705 114.396 33.069 118.996C33.4386 121.433 33.6657 123.888 33.7487 126.352C33.78 127.245 33.5905 128.161 33.4824 129.044C33.4354 129.435 33.3086 129.861 33.4605 130.219C33.6563 130.681 34.3453 131.168 34.7259 131.482C36.5269 132.97 38.8338 133.799 41.1516 133.977C44.4059 134.22 47.9203 133.623 51.0133 132.63C51.6648 132.422 52.3445 132.162 52.7626 131.622C53.1307 131.146 53.2387 130.527 53.3233 129.932C53.5973 128.017 53.7508 126.082 53.779 124.148C53.7915 123.279 53.7806 122.408 53.8479 121.542C53.9466 120.269 54.2144 119.015 54.4885 117.767C54.8628 116.053 55.2496 114.343 55.6474 112.636C55.8463 111.782 56.0483 110.929 56.2519 110.077C56.4038 109.446 56.6606 108.909 56.6262 108.252C56.4931 105.712 54.2535 103.954 52.321 102.644Z" fill="#13B7FD"/>
<path d="M44.7141 115.539C43.4643 121.613 42.213 127.868 36.3183 130.904C35.8531 131.142 35.4177 131.413 35.0059 131.703C36.763 133.051 38.9509 133.808 41.1497 133.975C44.404 134.218 47.9183 133.622 51.0113 132.629C51.6628 132.42 52.3425 132.16 52.7607 131.62C53.1287 131.144 53.2368 130.525 53.3213 129.93C53.5954 128.015 53.7489 126.081 53.7771 124.147C53.7896 123.278 53.7786 122.407 53.846 121.541C53.9447 120.267 54.2124 119.013 54.4865 117.765C54.8608 116.052 55.2476 114.341 55.6454 112.634C55.8443 111.781 56.0463 110.927 56.2499 110.075C56.4018 109.444 56.6587 108.907 56.6242 108.251C56.607 107.894 56.5444 107.554 56.4504 107.228C55.4638 107.64 54.4583 108.01 53.4701 108.393C49.8963 109.822 45.4282 111.787 44.7141 115.539Z" fill="#1499FC"/>
<path d="M55.55 127.938C56.5679 124.645 57.4058 120.354 58.6336 114.996C58.9656 113.552 59.08 112.036 58.9437 110.553C58.8059 109.056 58.1998 107.841 57.3557 106.564C56.9736 105.986 56.4614 105.376 55.7583 105.308C55.1162 105.246 54.5508 105.662 54.0966 106.088C51.3591 108.655 50.1156 112.573 49.8087 116.199C49.5237 119.572 48.7657 122.895 48.5073 126.284C48.4587 126.928 48.3632 127.616 48.4477 128.264C48.8487 131.345 51.0694 133.02 53.0505 131.861C54.0215 131.294 54.9956 129.73 55.55 127.938Z" fill="#13B7FD"/>
<path d="M41.6416 129.085C41.0246 129.609 40.2948 130.237 39.6887 130.759C38.8101 129.381 38.7866 129.265 37.9707 127.88C37.9456 119.669 38.298 111.975 40.2588 104.113C41.0183 104.652 41.3989 104.923 42.1663 105.463C41.1702 112.984 40.5532 120.809 41.6416 129.085Z" fill="#372B3D"/>
<path d="M39.443 103.927C39.4336 103.961 39.4305 103.997 39.432 104.043C39.4383 104.275 39.5808 104.564 39.6607 104.78C39.8314 105.25 40.0444 105.704 40.2996 106.134C40.439 106.368 40.605 106.61 40.8587 106.713C41.1422 106.829 41.4726 106.744 41.7404 106.594C42.0458 106.422 42.6049 106.17 42.536 105.787C42.4765 105.455 42.3575 105.12 42.2479 104.801C42.0239 104.148 41.7232 103.338 41.1187 102.939C40.4422 102.489 39.9598 103.163 39.6027 103.664C39.526 103.769 39.4665 103.833 39.443 103.927Z" fill="#283032"/>
<path d="M48.0155 100.601C47.9638 98.9514 46.8456 98.516 47.1792 95.3776C47.2919 94.3189 48.4493 92.8013 45.4612 92.8577C44.6421 92.8718 43.8309 93.0692 43.0557 93.3244C40.2649 94.2437 39.8702 94.9297 39.6948 100.707C42.0737 100.478 44.1754 97.8551 46.5997 99.4134C47.245 99.8973 47.6803 100.521 47.9826 101.208C48.0108 101.017 48.0233 100.813 48.0155 100.601Z" fill="#EE9C76"/>
<path d="M46.5983 99.4133C44.174 97.8551 42.0723 100.48 39.6934 100.707C39.6902 100.788 39.6887 100.868 39.6871 100.951C39.5696 105.061 47.3829 105.181 47.9811 101.208C47.6789 100.521 47.2451 99.8973 46.5983 99.4133Z" fill="#F5A783"/>
<path d="M41.0967 103.427C40.9448 103.917 40.2964 104.088 39.8689 104.373C39.681 104.498 39.3536 104.741 39.1093 104.69C38.8619 104.638 38.7131 104.307 38.6285 104.104C38.0209 102.625 37.6748 101.012 37.6591 99.4118C37.6544 98.9044 37.7359 98.3374 38.1337 97.9804C38.4907 97.6593 39.1062 97.5904 39.5431 97.783C40.0145 97.9882 40.1273 98.9137 39.9597 99.3413C39.3583 100.876 40.0427 102.641 41.0967 103.427Z" fill="white"/>
<path d="M41.0293 103.448C41.0293 103.448 41.7748 104.629 42.6862 105.44C42.9117 105.64 43.0934 105.888 43.3957 105.791C44.8709 105.316 47.9796 102.707 48.5967 101.056C48.8206 100.46 48.3884 99.7188 48.0485 99.2506C47.989 99.1691 47.5129 98.5223 47.4221 98.4612C47.361 98.5536 47.04 99.7376 46.5216 100.502C45.3282 102.264 43.1467 103.158 41.0293 103.448Z" fill="white"/>
<path d="M36.7301 86.1987C36.135 87.1493 35.7857 88.2471 35.7982 89.4139C35.8045 89.915 35.8859 90.4161 36.0535 90.8891C36.2117 91.3386 36.4952 91.7615 36.4998 92.2517C36.5061 92.8248 36.0927 93.4669 35.9047 94.0072C35.7356 94.4959 35.6401 95.044 35.8327 95.5248C35.9439 95.8004 36.1412 96.0306 36.2994 96.2812C37.0574 97.4746 36.3417 99.2317 37.665 100.09C37.9955 100.304 38.3854 100.345 38.7754 100.367C39.264 100.392 41.4691 99.7752 42.3226 99.3977C43.2654 98.9811 44.1847 97.9099 44.8644 97.1363C45.3968 96.5302 46.2911 95.7519 46.6309 95.0252C46.7343 94.8028 46.4837 94.7605 46.7108 94.6509C46.8486 94.5851 47.0162 93.7065 47.1681 93.6909C47.3498 93.6721 47.5956 93.47 47.7507 93.3682C48.0467 93.1709 48.186 93.8898 48.2847 93.5468C48.6982 92.095 49.2244 90.6135 49.1617 89.0818C49.1053 87.6802 49.1351 86.4759 48.233 85.2825C47.5549 84.3867 46.5855 83.7352 45.5362 83.3358C43.9325 82.7251 42.1143 82.6938 40.4903 83.2466C38.9539 83.7666 37.5867 84.8315 36.7301 86.1987Z" fill="#FFBFA2"/>
<path d="M49.1649 89.0787C49.1085 87.6771 49.1382 86.4727 48.2362 85.2794C47.5581 84.3835 46.5886 83.7321 45.5394 83.3327C44.5825 82.9678 43.5488 82.8128 42.5262 82.8629C40.9945 85.9215 43.2121 89.8398 41.5411 93.0112C40.982 93.7566 39.8654 94.3142 39.8654 95.246C39.4942 96.9186 41.1621 98.4064 40.2428 100.079C41.0086 99.8738 41.8637 99.6013 42.3242 99.3977C43.267 98.9811 44.1863 97.9099 44.8659 97.1363C45.3984 96.5302 46.2926 95.7519 46.6325 95.0252C46.7359 94.8028 46.4853 94.7621 46.7124 94.6509C46.8502 94.5851 47.0178 93.7065 47.1697 93.6909C47.3513 93.6721 47.5972 93.47 47.7522 93.3682C48.0482 93.1709 48.1876 93.8882 48.2863 93.5468C48.7029 92.0919 49.2275 90.6088 49.1649 89.0787Z" fill="#F8B495"/>
<path d="M50.1454 88.8595C50.2503 84.7704 47.4141 84.0093 47.4141 84.0093C47.4141 84.0093 46.1644 81.892 42.8709 82.0486C41.1388 82.1316 39.4443 82.6954 37.9815 83.6084C37.9236 83.6444 37.8641 83.682 37.8061 83.7196C37.0967 84.1816 36.4233 84.7313 35.9644 85.4423C34.7006 87.3968 36.4029 88.9629 38.4514 88.6355C39.4161 88.4805 40.3056 88.0342 41.2281 87.71C41.867 87.486 42.589 87.3232 43.206 87.6019C43.8215 87.8791 44.1895 88.5463 44.2866 89.215C44.5028 90.6856 43.9969 92.1562 43.9546 93.6142C43.9484 93.8334 43.9609 94.0621 44.0705 94.2531C44.3649 94.7731 44.9146 94.4896 45.2263 94.1592C45.4252 93.9478 45.5818 93.7003 45.7729 93.4826C45.9639 93.2634 46.2051 93.0692 46.4901 93.0175C46.9459 92.9345 47.2982 93.2931 47.3703 93.716C47.4361 94.1012 47.364 94.4881 47.2622 94.8624C47.2387 94.9501 47.0461 95.6235 47.3217 95.625C47.6005 95.6297 50.0358 93.1208 50.1454 88.8595Z" fill="#372B3D"/>
<path d="M42.0486 87.4907C42.4448 87.4265 42.8426 87.439 43.2059 87.6019C43.8214 87.8791 44.1894 88.5462 44.2865 89.2149C44.5027 90.6855 43.9968 92.1561 43.9545 93.6141C43.9483 93.8334 43.9608 94.062 44.0704 94.2531C44.3648 94.773 44.9145 94.4896 45.2262 94.1591C45.4251 93.9477 45.5817 93.7002 45.7728 93.4825C45.9638 93.2633 46.205 93.0691 46.49 93.0174C46.9458 92.9344 47.2981 93.2931 47.3702 93.7159C47.436 94.1012 47.3639 94.488 47.2621 94.8623C47.2386 94.95 47.046 95.6234 47.3216 95.625C47.5988 95.6281 50.0341 93.1192 50.1437 88.8579C50.2487 84.7688 47.4125 84.0077 47.4125 84.0077C47.4125 84.0077 46.2144 84.2113 44.7313 85.1995C43.173 86.2409 42.0486 87.4907 42.0486 87.4907Z" fill="#251B29"/>
<path d="M47.4674 94.8106C46.9036 95.5968 46.0015 95.9147 45.4518 95.5216C44.9021 95.1285 44.9115 94.17 45.4753 93.3839C46.0391 92.5961 46.9412 92.2782 47.4909 92.6728C48.0405 93.0659 48.0296 94.0244 47.4674 94.8106Z" fill="#FFBFA2"/>
<path d="M46.9522 93.514C47.1167 93.7113 47.1057 94.0308 46.9287 94.2156C46.7111 94.4442 46.3007 94.4693 46.1723 94.759C46.1238 94.8671 46.1144 95.0111 46.0079 95.0644C45.892 95.1192 45.7526 95.0002 45.7432 94.8717C45.7338 94.7433 45.8121 94.6259 45.8967 94.5288C45.9812 94.4317 46.0783 94.3408 46.1222 94.2187C46.1692 94.0903 46.1488 93.9493 46.141 93.8131C46.1144 93.3401 46.6437 93.1444 46.9522 93.514Z" fill="#F3A984"/>
<path d="M7.36426 139.675L7.36895 141.639L30.0711 154.831L30.0664 152.867L7.36426 139.675Z" fill="#10191B"/>
<path d="M30.0667 152.867L30.0714 154.831L44.1584 146.699L44.1521 144.735L30.0667 152.867Z" fill="#251B29"/>
<path d="M7.36426 139.675L30.0664 152.867L44.1518 144.735L21.4497 131.542L7.36426 139.675Z" fill="#372B3D"/>
<path d="M25.0862 138.417L31.2535 141.977L34.619 140.035L28.4502 136.474L25.0862 138.417Z" fill="#0D1315"/>
<path d="M37.972 146.921L17.2369 134.87L9.83081 139.156L30.5659 151.204L37.972 146.921Z" fill="#0D1315"/>
<path d="M23.7706 134.564C23.5905 134.936 22.925 135.914 22.6321 136.204C22.3392 136.495 22.5428 135.277 22.1309 135.293C21.5029 135.316 20.8217 135.717 20.3472 135.305C19.9682 134.976 19.5939 134.635 19.3104 134.22C19.0269 133.806 18.839 133.308 18.8766 132.809C18.8907 132.615 18.9392 132.419 19.0504 132.259C19.1256 132.151 19.2258 132.062 19.3261 131.974C19.8836 131.481 20.4411 130.986 20.9987 130.493C21.1192 130.386 21.243 130.276 21.3855 130.198C21.5781 130.092 21.7974 130.046 22.0166 130.034C22.7934 129.988 23.5342 130.372 24.0541 130.933C24.3047 131.202 24.596 131.581 24.679 131.949C24.7479 132.258 24.5318 132.602 24.4347 132.892C24.2405 133.46 24.0322 134.024 23.7706 134.564Z" fill="#F8B495"/>
<path d="M24.5022 133.066C24.5429 133.881 24.5836 134.696 24.6228 135.512C24.6384 135.827 24.6541 136.145 24.5789 136.451C24.5225 136.688 24.4129 136.909 24.3299 137.139C24.2547 137.349 24.203 137.568 24.1106 137.77C23.8319 138.382 23.2305 138.774 22.6605 139.129C22.4271 139.277 22.1875 139.424 21.9166 139.472C21.7443 139.504 21.5266 139.466 21.464 139.302C21.4342 139.223 21.4483 139.136 21.464 139.054C21.5078 138.818 21.5595 138.574 21.7036 138.379C21.8774 138.146 22.1609 138.019 22.3551 137.801C22.6871 137.427 22.6902 136.854 22.5367 136.376C22.3817 135.9 22.0951 135.479 21.8962 135.018C21.6973 134.56 21.5908 134.018 21.8054 133.565C21.8821 133.405 21.9949 133.266 22.1123 133.133C22.3848 132.824 22.6918 132.538 23.0661 132.369C23.384 132.225 23.7567 132.171 24.0966 132.27C24.4756 132.378 24.4849 132.708 24.5022 133.066Z" fill="#F8B495"/>
<path d="M20.7262 134.076C21.182 133.863 22.1138 134.863 22.1952 135.128C22.3925 135.772 21.7332 135.231 20.8969 136.524C20.6542 136.898 20.4068 137.285 20.3065 137.72C20.2329 138.036 20.1985 138.433 19.9009 138.566C19.6722 138.668 19.3951 138.533 19.2619 138.32C19.1915 138.772 18.5071 138.408 18.3724 137.95C18.1109 137.069 17.439 137.872 17.3372 136.326C17.2526 136.362 17.1681 136.4 17.0835 136.436C16.0467 135.584 18.2095 133.105 19.1492 132.138C20.8061 130.433 21.1867 133.111 20.7262 134.076Z" fill="#F8B495"/>
<path d="M31.4604 126.477C29.8677 124.862 28.9468 121.899 27.055 120.582C25.3479 122.936 22.2925 127.658 21.3779 129.678C20.5291 131.554 24.1514 133.305 25.0222 132.339C25.7394 131.546 29.5247 128.823 31.4604 126.477Z" fill="#1499FC"/>
<path d="M34.6677 141.568C34.2605 141.782 33.1987 142.562 32.887 142.899C32.5738 143.236 33.9222 142.962 33.9207 143.421C33.9191 144.121 33.4994 144.894 33.9755 145.406C34.356 145.817 34.7507 146.219 35.2236 146.52C35.695 146.819 36.2557 147.009 36.8117 146.949C37.0262 146.926 37.2423 146.863 37.4162 146.734C37.5336 146.647 37.6292 146.531 37.7247 146.418C38.2525 145.778 38.7803 145.137 39.308 144.498C39.4239 144.359 39.5398 144.218 39.6213 144.055C39.7309 143.837 39.7732 143.59 39.7794 143.345C39.7998 142.478 39.344 141.668 38.7004 141.112C38.3903 140.843 37.9581 140.534 37.5446 140.458C37.1969 140.392 36.8226 140.646 36.5047 140.766C35.8798 141.001 35.2597 141.255 34.6677 141.568Z" fill="#FFBFA2"/>
<path d="M36.3088 140.694C35.3989 140.681 34.4906 140.669 33.5807 140.655C33.2299 140.65 32.8744 140.645 32.5361 140.741C32.2746 140.815 32.0334 140.945 31.7813 141.045C31.5495 141.136 31.3099 141.201 31.0859 141.314C30.4156 141.649 30.0038 142.334 29.6295 142.982C29.476 143.247 29.3194 143.521 29.2771 143.823C29.2489 144.017 29.299 144.257 29.4838 144.321C29.5715 144.351 29.667 144.332 29.7594 144.312C30.021 144.252 30.2903 144.186 30.5002 144.019C30.7539 143.817 30.8839 143.496 31.1188 143.27C31.5229 142.885 32.1603 142.86 32.6974 143.013C33.233 143.167 33.7154 143.469 34.2353 143.673C34.7553 143.876 35.3629 143.973 35.8562 143.717C36.0316 143.626 36.1836 143.494 36.3276 143.36C36.6597 143.046 36.9666 142.691 37.1405 142.268C37.2892 141.908 37.3331 141.491 37.2109 141.117C37.0762 140.697 36.7051 140.7 36.3088 140.694Z" fill="#FFBFA2"/>
<path d="M39.1626 143.361C40.2996 143.601 41.46 142.843 42.3402 142.191C44.4575 140.622 54.8016 132.041 55.4969 128.046C55.6723 127.038 54.5307 126.502 53.6349 125.695C52.9567 125.086 49.4268 125.813 48.7925 126.555C47.7996 127.722 40.1852 135.432 37.5683 139.297C37.2222 139.808 36.887 140.37 36.8964 140.979C36.9074 141.953 38.2824 143.176 39.1626 143.361Z" fill="#13B7FD"/>
<path d="M35.3302 144.938C35.5494 144.423 34.3999 143.424 34.1008 143.344C33.3772 143.15 34.0021 143.862 32.5973 144.844C32.1902 145.129 31.7704 145.421 31.2896 145.549C30.9388 145.643 30.5003 145.698 30.3641 146.034C30.2592 146.293 30.4189 146.597 30.6616 146.736C30.1605 146.832 30.5943 147.58 31.108 147.712C32.0993 147.967 31.2317 148.749 32.9544 148.8C32.9168 148.896 32.8808 148.991 32.8432 149.088C33.8298 150.208 36.5063 147.705 37.5462 146.622C39.3832 144.708 36.3873 144.389 35.3302 144.938Z" fill="#FFBFA2"/>
<path d="M4.09755 126.104L2.3999 127.091C2.51736 127.024 2.67867 127.033 2.86033 127.138L4.55798 126.151C4.37788 126.046 4.21501 126.037 4.09755 126.104Z" fill="#372B3D"/>
<mask id="mask0_332_30328" style="mask-type:luminance" maskUnits="userSpaceOnUse" x="2" y="126" width="3" height="2">
<path d="M4.09755 126.104L2.3999 127.091C2.51736 127.024 2.67867 127.033 2.86033 127.138L4.55798 126.151C4.37788 126.046 4.21501 126.037 4.09755 126.104Z" fill="white"/>
</mask>
<g mask="url(#mask0_332_30328)">
<path d="M2.85885 127.136L4.55649 126.15C4.48758 126.111 4.42181 126.084 4.36073 126.07L2.66309 127.057C2.72416 127.071 2.79151 127.097 2.85885 127.136Z" fill="#372B3D"/>
<path d="M2.66327 127.058L4.36092 126.072C4.26539 126.051 4.17925 126.062 4.10878 126.098L2.41113 127.085C2.48161 127.049 2.56618 127.038 2.66327 127.058Z" fill="#372B3D"/>
<path d="M2.41086 127.085L4.10851 126.098L4.09755 126.104L2.3999 127.091L2.40773 127.086L2.41086 127.085Z" fill="#372B3D"/>
</g>
<path d="M24.2705 139.582L25.9697 138.594L4.55653 126.15L2.85889 127.136L24.2705 139.582Z" fill="#372B3D"/>
<path d="M24.9189 140.699L26.6165 139.712C26.6181 139.3 26.3268 138.801 25.9682 138.594L24.2705 139.581C24.6291 139.789 24.9204 140.288 24.9189 140.699Z" fill="#372B3D"/>
<mask id="mask1_332_30328" style="mask-type:luminance" maskUnits="userSpaceOnUse" x="24" y="138" width="3" height="3">
<path d="M24.9189 140.699L26.6165 139.712C26.6181 139.3 26.3268 138.801 25.9682 138.594L24.2705 139.581C24.6291 139.789 24.9204 140.288 24.9189 140.699Z" fill="white"/>
</mask>
<g mask="url(#mask1_332_30328)">
<path d="M24.5869 139.858L26.2845 138.871C26.1905 138.757 26.0825 138.661 25.9682 138.594L24.2705 139.581C24.3864 139.648 24.4929 139.745 24.5869 139.858Z" fill="#372B3D"/>
<path d="M24.8057 140.212L26.5033 139.225C26.4469 139.098 26.3733 138.976 26.2841 138.871L24.5864 139.858C24.6741 139.964 24.7493 140.085 24.8057 140.212Z" fill="#372B3D"/>
</g>
<path d="M2.85881 127.136C2.50175 126.93 2.21202 127.094 2.21045 127.506L7.36291 139.675L30.0713 152.867L25.0003 140.68C25.0003 140.68 24.8577 139.927 24.2705 139.582L2.85881 127.136Z" fill="#10191B"/>
<path d="M30.0711 152.867L31.7688 151.881L26.5036 139.225L24.8059 140.212L30.0711 152.867Z" fill="#251B29"/>
<defs>
<linearGradient id="paint0_linear_332_30328" x1="203.068" y1="82.1559" x2="203.068" y2="251.973" gradientUnits="userSpaceOnUse">
<stop stop-color="#555C8B"/>
<stop offset="1" stop-color="#6C86DD"/>
</linearGradient>
</defs>
</svg>
