<svg width="50" height="51" viewBox="0 0 50 51" fill="none" xmlns="http://www.w3.org/2000/svg">
<path d="M40.0385 5.18498C40.0366 4.46774 39.7843 3.96314 39.3752 3.72527L38.9786 3.49467C38.9045 3.60863 38.7619 3.67446 38.6126 3.58197C37.9752 3.18715 37.448 2.62175 36.792 2.26002C36.7094 2.21447 36.6274 2.17784 36.5456 2.14648C35.2607 2.74313 33.8701 3.1144 32.594 3.73882C32.2305 3.91667 31.876 4.10682 31.5285 4.30694C31.2232 4.49615 30.9161 4.68248 30.6093 4.86925C29.9191 5.31398 29.2509 5.7932 28.5896 6.29163C27.2799 7.27877 25.9543 8.27467 24.4336 8.91681C23.568 9.28236 22.6519 9.54871 21.7894 9.92197C21.6216 10.0638 21.4759 10.2197 21.3562 10.3911C21.3832 10.5227 21.3323 10.6738 21.1697 10.7289C20.7751 10.8624 20.4318 10.9344 20.0133 10.9192C20.0082 10.919 20.0035 10.9167 19.9984 10.9162C19.7618 11.0563 19.5244 11.1954 19.2887 11.3372C18.0817 12.0632 16.9063 12.8902 15.6527 13.5322C15.1702 13.7793 14.6807 14.0109 14.1951 14.2507L13.971 14.3801C13.6225 14.83 13.1761 15.173 12.7536 15.5607C12.2394 16.0325 11.8381 16.5479 11.2355 16.9177C11.1803 16.9515 11.1202 16.9609 11.0627 16.9534V47.485L13.3887 48.836C13.3922 48.8378 13.3941 48.8396 13.3977 48.8414C13.8121 49.0955 14.3942 49.0667 15.0376 48.6954L24.479 43.2422C24.5889 43.1809 24.6952 43.1557 24.7853 43.1719C25.3584 43.2819 25.9026 43.4242 26.418 43.6026C26.4198 43.6026 26.4198 43.6026 26.4198 43.6044C26.4651 43.6464 26.5073 43.6919 26.5515 43.7353C26.6341 43.7143 26.7262 43.73 26.806 43.8058C26.8856 43.8814 27.66 44.6084 27.8666 44.9303C27.9929 44.8172 28.2047 44.8007 28.2918 44.9893C28.3132 45.0355 28.3345 45.0816 28.3558 45.1278C28.364 45.1454 28.3673 45.1622 28.3726 45.1793C28.5253 45.4402 28.9236 45.6703 29.1312 45.8557C29.5039 46.1884 29.9026 46.4336 30.338 46.675C30.4184 46.7195 30.4601 46.7839 30.4728 46.8525L30.5431 46.8933C30.5953 46.9257 30.6656 46.9131 30.7341 46.8735C30.8747 46.7924 31.0134 46.5924 31.0134 46.3923L30.9954 40.1083C30.9936 39.7623 31.2387 39.3406 31.5396 39.1676L37.8471 35.5255C39.1032 34.8011 40.1177 33.0422 40.1141 31.5987L40.0385 5.18498Z" fill="#EDEEF2"/>
<path d="M30.4877 46.8355C29.8567 45.7345 28.9957 44.9057 27.9503 44.2982L25.156 42.6743C26.2015 43.2819 27.0624 44.1106 27.6934 45.2117C27.7085 45.2381 27.7271 45.257 27.7482 45.2693L30.5425 46.8932C30.5214 46.8809 30.5027 46.862 30.4877 46.8355Z" fill="url(#paint0_linear_332_30523)"/>
<path d="M36.5812 2.10218C36.1677 1.86191 35.5952 1.89566 34.9635 2.26037L12.153 15.43C10.8965 16.1554 9.88162 17.9134 9.88575 19.3571L9.96055 45.7705C9.96266 46.4877 10.2157 46.9923 10.6241 47.2296L13.4184 48.8535C13.0101 48.6162 12.7569 48.1116 12.7549 47.3943L12.68 20.981C12.6759 19.5373 13.6908 17.7793 14.9473 17.0539L37.7578 3.88423C38.3895 3.51952 38.962 3.48577 39.3755 3.72604L36.5812 2.10218Z" fill="url(#paint1_linear_332_30523)"/>
<path d="M37.7577 3.88433C39.013 3.15959 40.0347 3.74174 40.0387 5.18418L40.1136 31.5988C40.1177 33.0426 39.1027 34.8006 37.8463 35.526L31.5399 39.167C31.2385 39.341 30.9942 39.7628 30.9952 40.1092L31.013 46.3919C31.0135 46.5927 30.8746 46.792 30.734 46.8732C30.6378 46.9287 30.5407 46.9288 30.4875 46.8357C29.3003 44.7639 27.2988 43.6563 24.7862 43.1722C24.6951 43.1559 24.588 43.1806 24.4799 43.2431L15.037 48.695C13.7805 49.4204 12.7589 48.8382 12.7548 47.3944L12.6799 20.9811C12.6759 19.5374 13.6908 17.7794 14.9473 17.054L37.7577 3.88433Z" fill="#EDEEF2"/>
<path d="M40.1143 31.5987C40.1179 33.0422 39.1033 34.801 37.8472 35.5255L31.5397 39.1676C31.2388 39.3406 30.9937 39.7623 30.9955 40.1083L31.0135 46.3923C31.0135 46.5923 30.8748 46.7924 30.7343 46.8735C30.6387 46.9293 30.5414 46.9293 30.4873 46.8356C29.2998 44.7632 27.2994 43.6567 24.7854 43.1719C24.6953 43.1557 24.589 43.1809 24.4791 43.2422L15.0377 48.6954C13.7799 49.4199 12.7598 48.8378 12.7544 47.3943L12.7058 29.8596C18.442 29.847 23.0878 25.3327 23.0878 19.7677C23.0878 17.4466 22.2805 15.3093 20.9217 13.6045L37.7571 3.88383C39.0132 3.15937 40.035 3.74146 40.0386 5.18496L40.1143 31.5987Z" fill="#E0E1EC"/>
<path d="M29.2155 13.4279C28.9889 13.5587 28.7654 13.8045 28.6175 14.112C27.9005 15.6032 27.1579 17.0839 26.3904 18.5537C26.1948 18.9281 26.1513 19.3218 26.2803 19.56C26.6405 20.2272 26.9911 20.9075 27.3311 21.6027C27.4524 21.8501 27.3959 22.2527 27.1915 22.6241C26.137 24.5408 25.0421 26.4365 23.9098 28.3088C23.7665 28.5454 23.5805 28.7345 23.3917 28.8435C23.2906 28.9019 23.1888 28.9372 23.0923 28.9446C22.3166 29.0034 21.5485 29.0468 20.7876 29.0738C20.6842 29.0777 20.5738 29.1142 20.4642 29.1774C20.2854 29.2807 20.1087 29.4553 19.9683 29.6765C19.0787 31.0776 18.1672 32.462 17.2342 33.8294C16.907 34.3084 16.8444 34.8838 17.094 35.1206C18.1627 36.1352 19.232 37.1494 20.3007 38.1639C20.4499 38.3054 20.6773 38.2939 20.907 38.1613C21.0678 38.0684 21.2298 37.9162 21.367 37.7155C26.1433 30.7241 30.4175 23.3208 34.0805 15.6942C34.3362 15.1629 34.2688 14.6502 33.9317 14.554C32.5107 14.1491 31.0897 13.7448 29.6692 13.3402C29.5329 13.3014 29.3734 13.3367 29.2155 13.4279Z" fill="#D3D3DD"/>
<path d="M30.0241 14.2901C29.7975 14.421 29.574 14.6668 29.4261 14.9742C28.7091 16.4654 27.9665 17.9461 27.199 19.416C27.0034 19.7903 26.9599 20.1841 27.0889 20.4223C27.4491 21.0895 27.7997 21.7697 28.1397 22.465C28.261 22.7124 28.2045 23.115 28 23.4863C26.9456 25.403 25.8507 27.2988 24.7184 29.1711C24.5751 29.4076 24.3891 29.5968 24.2003 29.7058C24.0992 29.7641 23.9974 29.7995 23.9009 29.8069C23.1252 29.8656 22.3571 29.909 21.5962 29.936C21.4928 29.94 21.3824 29.9764 21.2728 30.0397C21.094 30.1429 20.9173 30.3176 20.7769 30.5388C19.8873 31.9398 18.9757 33.3242 18.0428 34.6916C17.7156 35.1706 17.653 35.7461 17.9026 35.9829C18.9713 36.9974 20.0406 38.0116 21.1093 39.0262C21.2585 39.1676 21.4859 39.1561 21.7156 39.0235C21.8764 38.9306 22.0384 38.7785 22.1756 38.5778C26.9519 31.5864 31.2261 24.183 34.8891 16.5564C35.1448 16.0251 35.0774 15.5124 34.7403 15.4163C33.3193 15.0113 31.8983 14.6071 30.4778 14.2025C30.3415 14.1637 30.182 14.199 30.0241 14.2901Z" fill="#F69524"/>
<path d="M34.8909 16.5548C31.2292 24.1798 26.9497 31.5843 22.1777 38.5769C22.038 38.7755 21.8761 38.9298 21.7143 39.0254C21.4865 39.1578 21.2586 39.1651 21.1114 39.0254C20.0379 38.0107 18.9717 36.996 17.9056 35.9813C17.6555 35.746 17.7144 35.1725 18.0452 34.6945C18.8907 33.4592 19.7144 32.2019 20.5233 30.9372C20.7437 31.3269 21.0379 31.6284 21.4056 31.8122C23.2806 32.7681 26.3467 30.4813 28.2586 26.7093C30.1776 22.9445 30.2144 19.121 28.3394 18.1651C28.207 18.099 28.0674 18.0475 27.9204 18.0107C28.435 17.0034 28.935 15.996 29.4276 14.974C29.5748 14.6651 29.7952 14.4225 30.0232 14.2901C30.1849 14.2019 30.3393 14.1651 30.4792 14.2019C31.8982 14.6063 33.3173 15.0107 34.7437 15.4151C35.0748 15.5107 35.1482 16.0255 34.8909 16.5548Z" fill="#F69524"/>
<defs>
<linearGradient id="paint0_linear_332_30523" x1="28.7795" y1="42.6852" x2="28.7795" y2="47.3108" gradientUnits="userSpaceOnUse">
<stop stop-color="#555C8B"/>
<stop offset="1" stop-color="#6C86DD"/>
</linearGradient>
<linearGradient id="paint1_linear_332_30523" x1="29.7234" y1="2.06956" x2="29.7234" y2="53.4972" gradientUnits="userSpaceOnUse">
<stop stop-color="#555C8B"/>
<stop offset="1" stop-color="#6C86DD"/>
</linearGradient>
</defs>
</svg>
