<svg width="430" height="550" viewBox="0 0 430 550" fill="none" xmlns="http://www.w3.org/2000/svg">
<circle cx="155" cy="275" r="275" fill="url(#paint0_linear_278_25306)" fill-opacity="0.4"/>
<circle cx="127.5" cy="311.5" r="217.5" fill="url(#paint1_linear_278_25306)" fill-opacity="0.5"/>
<path d="M90 327.059V335.841C90 338.599 91.3281 341.356 93.9844 342.933L169.416 387.482C176.62 391.757 185.497 391.757 192.703 387.482L272.016 340.038C274.625 338.49 275.946 335.8 275.992 333.09L276 333.087V324.185L90 327.059Z" fill="url(#paint2_linear_278_25306)"/>
<path d="M93.9844 334.15L169.416 378.7C176.62 382.974 185.497 382.974 192.703 378.7L272.016 331.255C277.328 328.103 277.328 320.223 272.016 317.072L196.584 272.522C189.38 268.248 180.503 268.248 173.297 272.522L93.9844 319.967C88.6719 323.118 88.6719 330.997 93.9844 334.15Z" fill="url(#paint3_linear_278_25306)"/>
<path d="M208.108 251.6L203.635 249L189.947 260.314L194.42 262.913L208.108 251.6Z" fill="#5F9CD9"/>
<path d="M194.42 262.914L189.947 260.314L175.984 256.832L180.457 259.432L194.42 262.914Z" fill="#90C0F0"/>
<path d="M180.458 259.432L175.985 256.832L162.346 269.604L166.82 272.204L180.458 259.432Z" fill="#5F9CD9"/>
<path d="M157.88 260.029L153.406 257.43L135.667 270.75L140.141 273.35L157.88 260.029Z" fill="#5F9CD9"/>
<path d="M125.474 270.735L121.001 268.135L121.212 342.701L125.686 345.301L125.474 270.735Z" fill="#5F9CD9"/>
<path d="M125.474 270.735L125.686 345.301L208.239 297.639L208.108 251.599L194.42 262.913L180.458 259.432L166.82 272.203L157.88 260.029L140.141 273.349L125.474 270.735Z" fill="url(#paint4_linear_278_25306)"/>
<path d="M140.141 273.35L135.667 270.75L121.001 268.135L125.474 270.735L140.141 273.35Z" fill="#90C0F0"/>
<path d="M157.88 260.094V326.11" stroke="white" stroke-width="0.4948" stroke-miterlimit="10" stroke-linecap="round" stroke-linejoin="round"/>
<path d="M180.458 259.496V313.727" stroke="white" stroke-width="0.4948" stroke-miterlimit="10" stroke-linecap="round" stroke-linejoin="round"/>
<path d="M140.141 273.413V336.593" stroke="white" stroke-width="0.4948" stroke-miterlimit="10" stroke-linecap="round" stroke-linejoin="round"/>
<path d="M194.42 262.978V305.543" stroke="white" stroke-width="0.4948" stroke-miterlimit="10" stroke-linecap="round" stroke-linejoin="round"/>
<path d="M140.878 272.988C140.878 272.517 140.548 272.327 140.14 272.562C139.733 272.797 139.403 273.369 139.403 273.839C139.403 274.31 139.733 274.5 140.14 274.265C140.548 274.03 140.878 273.458 140.878 272.988Z" fill="white"/>
<path d="M158.617 259.668C158.617 259.197 158.287 259.007 157.88 259.242C157.472 259.477 157.142 260.049 157.142 260.519C157.142 260.989 157.472 261.18 157.88 260.945C158.287 260.71 158.617 260.138 158.617 259.668Z" fill="white"/>
<path d="M181.195 259.071C181.195 258.6 180.865 258.41 180.458 258.645C180.051 258.88 179.72 259.452 179.72 259.922C179.72 260.393 180.051 260.583 180.458 260.348C180.865 260.113 181.195 259.541 181.195 259.071Z" fill="white"/>
<path d="M195.158 262.551C195.158 262.081 194.828 261.891 194.421 262.126C194.013 262.361 193.683 262.933 193.683 263.403C193.683 263.873 194.013 264.063 194.421 263.828C194.828 263.593 195.158 263.022 195.158 262.551Z" fill="white"/>
<path d="M140.331 286.549L149.077 271.104L157.822 276.451L153.038 279.213V315.471L145.116 320.045V283.787L140.331 286.549Z" fill="url(#paint5_linear_278_25306)"/>
<path d="M215.75 261.484L211.276 258.885L199.28 276.103L203.754 278.703L215.75 261.484Z" fill="#F69524"/>
<path d="M203.754 278.703L199.281 276.103L183.672 279.213L188.146 281.812L203.754 278.703Z" fill="url(#paint6_linear_278_25306)"/>
<path d="M188.146 281.812L183.672 279.212L161.495 304.828L165.968 307.427L188.146 281.812Z" fill="#F69524"/>
<path d="M165.969 307.428L161.495 304.828L148.255 301.501L152.729 304.101L165.969 307.428Z" fill="url(#paint7_linear_278_25306)"/>
<path d="M215.75 261.485L203.754 278.703L188.145 281.813L165.968 307.428L152.728 304.101L133.525 318.124L133.617 350.637L215.868 303.15L215.75 261.485Z" fill="#EBAA5D"/>
<path d="M152.729 304.101L148.255 301.501L129.051 315.524L133.525 318.124L152.729 304.101Z" fill="#F69524"/>
<path d="M133.525 318.124L129.051 315.524L129.143 348.037L133.617 350.637L133.525 318.124Z" fill="#F69524"/>
<path d="M188.146 281.876V319.022" stroke="white" stroke-width="0.4948" stroke-miterlimit="10" stroke-linecap="round" stroke-linejoin="round"/>
<path d="M152.729 304.165V340.12" stroke="white" stroke-width="0.4948" stroke-miterlimit="10" stroke-linecap="round" stroke-linejoin="round"/>
<path d="M203.754 278.767V310.477" stroke="white" stroke-width="0.4948" stroke-miterlimit="10" stroke-linecap="round" stroke-linejoin="round"/>
<path d="M165.969 307.492V331.538" stroke="white" stroke-width="0.4948" stroke-miterlimit="10" stroke-linecap="round" stroke-linejoin="round"/>
<path d="M204.491 278.341C204.491 277.87 204.161 277.68 203.754 277.915C203.347 278.15 203.016 278.722 203.016 279.192C203.016 279.662 203.347 279.853 203.754 279.618C204.161 279.383 204.491 278.811 204.491 278.341Z" fill="white"/>
<path d="M188.882 281.45C188.882 280.98 188.552 280.79 188.144 281.025C187.737 281.26 187.407 281.832 187.407 282.302C187.407 282.772 187.737 282.962 188.144 282.727C188.552 282.492 188.882 281.921 188.882 281.45Z" fill="white"/>
<path d="M166.705 307.066C166.705 306.596 166.375 306.405 165.968 306.64C165.56 306.875 165.23 307.448 165.23 307.917C165.23 308.387 165.56 308.578 165.968 308.343C166.375 308.108 166.705 307.536 166.705 307.066Z" fill="white"/>
<path d="M153.466 303.74C153.466 303.269 153.135 303.079 152.728 303.314C152.321 303.549 151.991 304.121 151.991 304.591C151.991 305.061 152.321 305.252 152.728 305.017C153.135 304.782 153.466 304.21 153.466 303.74Z" fill="white"/>
<path d="M225.957 293.853L221.483 291.253L210.723 291.983L215.197 294.583L225.957 293.853Z" fill="#4264C2"/>
<path d="M215.196 294.583L210.723 291.983L197.332 306.994L201.806 309.594L215.196 294.583Z" fill="url(#paint8_linear_278_25306)"/>
<path d="M201.806 309.594L197.332 306.994L183.365 308.804L187.839 311.404L201.806 309.594Z" fill="#4264C2"/>
<path d="M187.839 311.404L183.365 308.804L170.785 318.654L175.259 321.254L187.839 311.404Z" fill="url(#paint9_linear_278_25306)"/>
<path d="M175.259 321.254L170.785 318.655L154.287 319.865L158.76 322.465L175.259 321.254Z" fill="#4264C2"/>
<path d="M143.687 334.936L139.213 332.337L139.275 354.099L143.749 356.699L143.687 334.936Z" fill="url(#paint10_linear_278_25306)"/>
<path d="M158.761 322.465L154.287 319.865L139.214 332.336L143.688 334.936L158.761 322.465Z" fill="url(#paint11_linear_278_25306)"/>
<path d="M158.761 322.465L143.688 334.936L143.749 356.699L226 309.211L225.957 293.853L215.196 294.583L201.806 309.594L187.839 311.404L175.259 321.254L158.761 322.465Z" fill="url(#paint12_linear_278_25306)"/>
<path d="M215.196 294.647V315.093" stroke="white" stroke-width="0.4948" stroke-miterlimit="10" stroke-linecap="round" stroke-linejoin="round"/>
<path d="M187.839 311.468V331.024" stroke="white" stroke-width="0.4948" stroke-miterlimit="10" stroke-linecap="round" stroke-linejoin="round"/>
<path d="M158.761 322.529V347.768" stroke="white" stroke-width="0.4948" stroke-miterlimit="10" stroke-linecap="round" stroke-linejoin="round"/>
<path d="M175.259 321.318V338.272" stroke="white" stroke-width="0.4948" stroke-miterlimit="10" stroke-linecap="round" stroke-linejoin="round"/>
<path d="M201.806 309.658V323.244" stroke="white" stroke-width="0.4948" stroke-miterlimit="10" stroke-linecap="round" stroke-linejoin="round"/>
<path d="M159.497 321.902C159.497 321.432 159.167 321.241 158.76 321.476C158.352 321.711 158.022 322.283 158.022 322.753C158.022 323.223 158.352 323.414 158.76 323.179C159.167 322.944 159.497 322.372 159.497 321.902Z" fill="white"/>
<path d="M188.576 311.042C188.576 310.572 188.246 310.382 187.839 310.617C187.431 310.852 187.101 311.424 187.101 311.894C187.101 312.364 187.431 312.554 187.839 312.319C188.246 312.084 188.576 311.513 188.576 311.042Z" fill="white"/>
<path d="M214.681 295.521C214.393 295.354 214.393 294.815 214.681 294.316C214.969 293.817 215.436 293.548 215.725 293.714C216.013 293.88 216.013 294.42 215.725 294.918C215.437 295.417 214.97 295.687 214.681 295.521Z" fill="white"/>
<path d="M174.745 322.273C174.457 322.107 174.457 321.568 174.745 321.069C175.033 320.57 175.5 320.3 175.788 320.467C176.076 320.633 176.076 321.172 175.788 321.671C175.5 322.17 175.033 322.439 174.745 322.273Z" fill="white"/>
<path d="M202.543 309.232C202.543 308.761 202.213 308.571 201.805 308.806C201.398 309.041 201.068 309.613 201.068 310.083C201.068 310.554 201.398 310.744 201.805 310.509C202.213 310.274 202.543 309.702 202.543 309.232Z" fill="white"/>
<defs>
<linearGradient id="paint0_linear_278_25306" x1="247.755" y1="-17.0103" x2="260.148" y2="604.249" gradientUnits="userSpaceOnUse">
<stop stop-color="#FFB244"/>
<stop offset="0.692155" stop-color="#F7D379" stop-opacity="0.8"/>
</linearGradient>
<linearGradient id="paint1_linear_278_25306" x1="200.86" y1="80.5464" x2="210.662" y2="571.906" gradientUnits="userSpaceOnUse">
<stop stop-color="#FFB244"/>
<stop offset="0.692155" stop-color="#F7D379" stop-opacity="0.8"/>
</linearGradient>
<linearGradient id="paint2_linear_278_25306" x1="215.122" y1="324.357" x2="215.122" y2="397.272" gradientUnits="userSpaceOnUse">
<stop stop-color="#E3E3E3"/>
<stop offset="1" stop-color="#6C86DD"/>
</linearGradient>
<linearGradient id="paint3_linear_278_25306" x1="131.883" y1="290.263" x2="250.481" y2="367.931" gradientUnits="userSpaceOnUse">
<stop stop-color="#DFDAEF"/>
<stop offset="1" stop-color="#F2EFFA"/>
</linearGradient>
<linearGradient id="paint4_linear_278_25306" x1="208.239" y1="298.45" x2="125.474" y2="298.45" gradientUnits="userSpaceOnUse">
<stop stop-color="white"/>
<stop offset="1" stop-color="#77B2ED"/>
</linearGradient>
<linearGradient id="paint5_linear_278_25306" x1="149.077" y1="320.045" x2="149.077" y2="271.104" gradientUnits="userSpaceOnUse">
<stop stop-color="#999999"/>
<stop offset="1" stop-color="white"/>
</linearGradient>
<linearGradient id="paint6_linear_278_25306" x1="190.326" y1="275.926" x2="190.29" y2="282.378" gradientUnits="userSpaceOnUse">
<stop stop-color="#FFB244"/>
<stop offset="0.692155" stop-color="#F7D379" stop-opacity="0.8"/>
</linearGradient>
<linearGradient id="paint7_linear_278_25306" x1="154.125" y1="301.318" x2="154.08" y2="308.015" gradientUnits="userSpaceOnUse">
<stop stop-color="#FFB244"/>
<stop offset="0.692155" stop-color="#F7D379" stop-opacity="0.8"/>
</linearGradient>
<linearGradient id="paint8_linear_278_25306" x1="203.179" y1="292.029" x2="203.179" y2="311.337" gradientUnits="userSpaceOnUse">
<stop stop-color="#555C8B"/>
<stop offset="1" stop-color="#6C86DD"/>
</linearGradient>
<linearGradient id="paint9_linear_278_25306" x1="176.367" y1="308.836" x2="176.367" y2="322.487" gradientUnits="userSpaceOnUse">
<stop stop-color="#555C8B"/>
<stop offset="1" stop-color="#6C86DD"/>
</linearGradient>
<linearGradient id="paint10_linear_278_25306" x1="140.698" y1="332.399" x2="140.698" y2="359.111" gradientUnits="userSpaceOnUse">
<stop stop-color="#555C8B"/>
<stop offset="1" stop-color="#6C86DD"/>
</linearGradient>
<linearGradient id="paint11_linear_278_25306" x1="145.612" y1="319.904" x2="145.612" y2="336.428" gradientUnits="userSpaceOnUse">
<stop stop-color="#555C8B"/>
<stop offset="1" stop-color="#6C86DD"/>
</linearGradient>
<linearGradient id="paint12_linear_278_25306" x1="170.629" y1="294.015" x2="170.629" y2="362.92" gradientUnits="userSpaceOnUse">
<stop stop-color="#555C8B"/>
<stop offset="1" stop-color="#6C86DD"/>
</linearGradient>
</defs>
</svg>
