<svg width="311" height="303" viewBox="0 0 311 303" fill="none" xmlns="http://www.w3.org/2000/svg">
<path d="M0 185.296V192.965C0 195.374 1.15675 197.782 3.47025 199.159L69.1684 238.066C75.4433 241.8 83.1749 241.8 89.451 238.066L158.53 196.631C160.803 195.279 161.953 192.93 161.993 190.563L162 190.561V182.786L0 185.296Z" fill="url(#paint0_linear_613_2086)"/>
<path d="M3.47025 191.489L69.1684 230.396C75.4433 234.129 83.1749 234.129 89.451 230.396L158.53 188.961C163.157 186.208 163.157 179.326 158.53 176.574L92.8316 137.666C86.5567 133.933 78.8251 133.933 72.549 137.666L3.47025 179.102C-1.15675 181.854 -1.15675 188.736 3.47025 191.489Z" fill="url(#paint1_linear_613_2086)"/>
<path d="M67.3752 175.111L82.1497 146.141L98.2351 139.523L105 118.799L107.473 121.915L107.747 107L97.6923 116.818L102.07 117.772L95.282 136.769L79.5296 143.48L65.5024 171.64L67.3752 175.111Z" fill="url(#paint2_linear_613_2086)"/>
<path d="M69.6418 176.436L84.4163 147.466L100.502 140.848L107.266 120.125L109.739 123.24L110.014 108.325L99.9588 118.143L104.337 119.097L97.5484 138.094L81.7962 144.805L67.769 172.966L69.6418 176.436Z" fill="#FABB02"/>
<path d="M107.748 107L110.014 108.36L99.9597 118.178L97.6934 116.818L107.748 107Z" fill="#E38D06"/>
<path d="M107.472 121.915L109.739 123.276L107.266 120.16L106.92 121.22L107.472 121.915Z" fill="#F69524"/>
<path d="M65.5024 171.641L67.7689 173.001L69.6418 176.471L67.3752 175.111L65.5024 171.641Z" fill="#F69524"/>
<path d="M95.2821 136.77L97.5485 138.13L81.7963 144.84L79.5298 143.48L95.2821 136.77Z" fill="#F69524"/>
<path d="M65.0073 140.028V201.824L117.786 170.529V174.908L61.417 208.894V141.725L65.0073 140.028Z" fill="url(#paint3_linear_613_2086)"/>
<path d="M57.3271 139.084L61.4173 141.726V208.895L57.3271 206.253V139.084Z" fill="url(#paint4_linear_613_2086)"/>
<path d="M60.9176 137.388L65.0076 140.029L61.4173 141.726L57.3271 139.085L60.9176 137.388Z" fill="url(#paint5_linear_613_2086)"/>
<path d="M113.696 167.887L117.786 170.529L65.0073 201.824L65.0996 196.703L113.696 167.887Z" fill="url(#paint6_linear_613_2086)" fill-opacity="0.8"/>
<path d="M105.704 145.528L98.3096 140.923V170.491L105.704 175.096V145.528Z" fill="url(#paint7_linear_613_2086)"/>
<path d="M105.705 145.583L112.291 141.599V171.167L105.705 175.151V145.583Z" fill="url(#paint8_linear_613_2086)"/>
<path d="M105.704 145.583L98.3096 140.923L104.896 136.952L112.291 141.612L105.704 145.583Z" fill="#D0D5E2"/>
<path d="M94.6341 160.145L87.2393 155.54V177.086L94.6341 181.691V160.145Z" fill="url(#paint9_linear_613_2086)"/>
<path d="M94.6338 160.2L101.22 156.216V177.762L94.6338 181.746V160.2Z" fill="url(#paint10_linear_613_2086)"/>
<path d="M94.6341 160.2L87.2393 155.539L93.8255 151.568L101.22 156.229L94.6341 160.2Z" fill="#D0D5E2"/>
<path d="M83.5633 173.356L76.1685 168.751V183.679L83.5633 188.284V173.356Z" fill="url(#paint11_linear_613_2086)"/>
<path d="M83.564 173.411L90.1504 169.427V184.355L83.564 188.339V173.411Z" fill="url(#paint12_linear_613_2086)"/>
<path d="M83.5633 173.411L76.1685 168.75L82.7547 164.779L90.1497 169.44L83.5633 173.411Z" fill="#D0D5E2"/>
<path d="M72.4939 185.585L65.0991 180.979V190.273L72.4939 194.878V185.585Z" fill="url(#paint13_linear_613_2086)"/>
<path d="M72.4946 185.64L79.0809 181.656V190.949L72.4946 194.933V185.64Z" fill="url(#paint14_linear_613_2086)"/>
<path d="M72.4939 185.64L65.0991 180.979L71.6854 177.008L79.0802 181.669L72.4939 185.64Z" fill="#D0D5E2"/>
<path d="M149 247.317V255.003C149 257.416 150.157 259.829 152.47 261.208L218.168 300.193C224.443 303.934 232.175 303.934 238.451 300.193L307.53 258.675C309.803 257.321 310.953 254.967 310.993 252.595L311 252.593V244.803L149 247.317Z" fill="url(#paint15_linear_613_2086)"/>
<path d="M152.47 253.523L218.168 292.507C224.443 296.248 232.175 296.248 238.451 292.507L307.53 250.99C312.157 248.231 312.157 241.336 307.53 238.578L241.832 199.594C235.557 195.853 227.825 195.853 221.549 199.594L152.47 241.111C147.843 243.869 147.843 250.764 152.47 253.523Z" fill="url(#paint16_linear_613_2086)"/>
<g opacity="0.1">
<path d="M219.894 254.067L207.772 247.068L230.36 234.725L242.008 241.817L219.894 254.067Z" fill="black"/>
</g>
<g opacity="0.1">
<path d="M242.87 255.734L230.75 248.735L252.088 236.448L264.986 243.483L242.87 255.734Z" fill="black"/>
</g>
<g opacity="0.1">
<path d="M265.262 260.957L253.142 253.959L267.893 245.444L281.184 252.137L265.262 260.957Z" fill="black"/>
</g>
<path d="M264.833 238.827L267.893 237.05L267.812 259.077L264.75 260.857L264.833 238.827Z" fill="#817D7F"/>
<path d="M252.71 231.831L255.77 230.052L267.893 237.05L264.833 238.827L252.71 231.831Z" fill="#DC9B1C"/>
<path d="M259.408 218.772L262.467 216.993L270.259 238.417L267.201 240.197L259.408 218.772Z" fill="#ACACAC"/>
<path d="M259.408 218.772L250.604 230.615L252.71 231.83L252.63 253.858L264.751 260.857L264.833 238.827L267.201 240.197L259.408 218.772Z" fill="#C8C3C5"/>
<path d="M219.975 211.836L223.035 210.057L222.954 252.289L219.893 254.067L219.975 211.836Z" fill="#2B54A5"/>
<path d="M207.853 204.838L210.912 203.06L223.035 210.058L219.976 211.836L207.853 204.838Z" fill="#DC9B1C"/>
<path d="M214.549 191.779L217.609 190L225.4 211.424L222.342 213.203L214.549 191.779Z" fill="#2B54A5"/>
<path d="M214.55 191.779L205.747 203.622L207.852 204.838L207.772 247.068L219.893 254.067L219.975 211.836L222.343 213.203L214.55 191.779Z" fill="#4267C5"/>
<path d="M242.441 227.145L245.5 225.368L245.42 253.824L242.358 255.601L242.441 227.145Z" fill="#D17700"/>
<path d="M230.319 220.148L233.379 218.37L245.501 225.368L242.441 227.145L230.319 220.148Z" fill="#DC9B1C"/>
<path d="M237.016 207.089L240.075 205.31L247.867 226.734L244.808 228.513L237.016 207.089Z" fill="#E58B0A"/>
<path d="M237.016 207.089L228.212 218.932L230.319 220.147L230.238 248.602L242.358 255.602L242.441 227.145L244.809 228.513L237.016 207.089Z" fill="#FABB02"/>
<path d="M195.602 236.456C195.602 236.456 196.595 238.029 197.597 237.834C198.599 237.642 198.735 237.425 198.309 237.156C197.885 236.885 196.766 236.118 196.979 236.049C197.192 235.976 197.663 236.081 197.613 235.877C197.563 235.669 196.148 235.4 196.148 235.4L195.162 235.879L195.602 236.456Z" fill="#FFAA83"/>
<path d="M195.262 225.291C195.262 225.291 195.453 223.519 193.742 223.488C191.931 223.455 192.337 227.234 192.337 227.234C192.337 227.234 192.426 230.503 192.752 231.515C193.185 232.865 195.583 236.355 195.583 236.355C195.583 236.355 196.651 236.105 196.962 235.344C196.962 235.344 195.07 232.049 194.902 230.796C194.719 229.43 195.306 225.59 195.262 225.291Z" fill="url(#paint17_linear_613_2086)"/>
<path d="M195.583 236.355C195.583 236.355 193.185 232.865 192.751 231.515C192.426 230.503 192.337 227.234 192.337 227.234C192.337 227.234 191.694 223.35 193.739 223.182C194.567 223.114 194.703 223.708 194.902 223.977C193.585 224.054 193.455 224.935 193.576 226.895C193.712 229.022 193.434 229.624 193.554 231.443C193.674 233.26 195.596 235.028 195.888 235.457C196.083 235.74 196.545 235.395 196.843 235.126C196.919 235.264 196.962 235.344 196.962 235.344C196.651 236.104 195.583 236.355 195.583 236.355Z" fill="url(#paint18_linear_613_2086)"/>
<path d="M193.157 233.987L193.41 233.597C193.885 232.293 193.643 231.657 193.429 229.999C193.323 229.154 192.668 226.631 192.66 224.762C192.651 222.543 194.822 222.813 198.025 224.232C202.131 226.05 200.795 227.53 200.795 227.53C200.392 229.529 199.611 229.853 200.254 234.866C200.318 235.124 200.318 235.124 200.609 237.161C201.107 240.64 193.157 233.987 193.157 233.987Z" fill="url(#paint19_linear_613_2086)"/>
<path d="M197.768 222.036C197.768 222.036 197.306 223.424 197.976 224.338C198.34 224.836 194.762 225.609 195.113 224.151C195.398 222.951 194.913 221.864 194.03 220.948L197.768 222.036Z" fill="#FFAA83"/>
<path d="M197.614 223.045C197.614 223.045 196.73 222.843 196.224 222.542L196.165 222.574L195.829 222.657L195.703 222.704C195.703 222.704 195.892 224.197 197.796 224.027C197.796 224.027 197.631 223.624 197.614 223.045Z" fill="#F79F7C"/>
<path d="M197.802 216.336C197.802 216.336 198.381 217.281 199.167 218.878C199.854 220.283 199.973 221.914 199.077 222.651C198.656 222.998 195.678 223.695 194.337 220.236C193.478 218.034 194.976 215.133 197.802 216.336Z" fill="#FFAA83"/>
<path d="M199.02 216.59C199.379 216.903 199.204 217.113 198.282 217.513C196.972 218.083 198.236 220.375 197.796 220.716C197.549 220.908 197.401 221.05 196.747 220.582C196.489 220.396 196.078 220.218 196.015 220.96C195.958 221.657 196.43 221.538 196.645 222.543C196.731 222.942 195.551 223.083 195.112 222.793C193.799 221.924 192.07 219.693 193.842 217.179C195.187 215.273 198.404 216.048 199.02 216.59Z" fill="#723E24"/>
<mask id="mask0_613_2086" style="mask-type:luminance" maskUnits="userSpaceOnUse" x="204" y="222" width="1" height="1">
<path d="M204.662 222.508L204.96 222.337C204.902 222.303 204.856 222.222 204.856 222.155L204.558 222.329C204.558 222.395 204.604 222.475 204.662 222.508Z" fill="white"/>
</mask>
<g mask="url(#mask0_613_2086)">
<path d="M204.663 222.508L204.96 222.337C204.948 222.33 204.936 222.319 204.925 222.309L204.628 222.483C204.639 222.494 204.65 222.503 204.663 222.508Z" fill="#6D91BB"/>
<path d="M204.628 222.482L204.925 222.309C204.922 222.306 204.918 222.3 204.914 222.296L204.616 222.469C204.62 222.474 204.624 222.478 204.628 222.482Z" fill="#6A8DB7"/>
<path d="M204.616 222.469L204.914 222.296C204.91 222.294 204.908 222.292 204.905 222.287L204.606 222.46C204.611 222.463 204.612 222.466 204.616 222.469Z" fill="#678AB2"/>
<path d="M204.607 222.46L204.905 222.288C204.902 222.283 204.901 222.28 204.899 222.276L204.601 222.451C204.602 222.453 204.605 222.457 204.607 222.46Z" fill="#6586AD"/>
<path d="M204.6 222.451L204.899 222.276L204.892 222.268L204.594 222.442L204.6 222.451Z" fill="#6282A8"/>
<path d="M204.595 222.442L204.892 222.267L204.887 222.26L204.59 222.433L204.595 222.442Z" fill="#5F7FA4"/>
<path d="M204.59 222.433L204.888 222.26C204.886 222.258 204.884 222.254 204.883 222.249L204.586 222.424C204.586 222.427 204.589 222.429 204.59 222.433Z" fill="#5C7B9F"/>
<path d="M204.585 222.424L204.882 222.25L204.877 222.242L204.58 222.415L204.585 222.424Z" fill="#5A779A"/>
<path d="M204.58 222.415L204.878 222.242C204.877 222.239 204.875 222.237 204.874 222.232L204.577 222.405C204.577 222.409 204.578 222.412 204.58 222.415Z" fill="#577496"/>
<path d="M204.575 222.406L204.873 222.233L204.869 222.225L204.572 222.396L204.575 222.406Z" fill="#547091"/>
<path d="M204.573 222.396L204.869 222.224C204.868 222.22 204.866 222.217 204.865 222.213L204.569 222.387C204.57 222.389 204.572 222.393 204.573 222.396Z" fill="#526D8C"/>
<path d="M204.569 222.387L204.865 222.213C204.864 222.211 204.862 222.206 204.862 222.201L204.565 222.376C204.566 222.38 204.567 222.384 204.569 222.387Z" fill="#4F6988"/>
<path d="M204.565 222.376L204.862 222.202C204.861 222.197 204.86 222.194 204.86 222.192L204.561 222.362C204.562 222.369 204.564 222.371 204.565 222.376Z" fill="#4C6583"/>
<path d="M204.562 222.363L204.86 222.193C204.859 222.188 204.858 222.181 204.858 222.177L204.56 222.349C204.56 222.355 204.56 222.36 204.562 222.363Z" fill="#49627E"/>
<path d="M204.559 222.35L204.857 222.177C204.856 222.17 204.856 222.163 204.856 222.156L204.558 222.33C204.558 222.337 204.559 222.342 204.559 222.35Z" fill="#475E7A"/>
</g>
<mask id="mask1_613_2086" style="mask-type:luminance" maskUnits="userSpaceOnUse" x="205" y="223" width="2" height="1">
<path d="M206.163 223.424C206.133 223.442 206.091 223.44 206.045 223.413L205.747 223.585C205.793 223.611 205.835 223.614 205.866 223.596C205.955 223.547 206.074 223.476 206.163 223.424Z" fill="white"/>
</mask>
<g mask="url(#mask1_613_2086)">
<path d="M205.865 223.596L206.163 223.424H206.162L205.864 223.599L205.865 223.596Z" fill="#547091"/>
<path d="M205.864 223.599L206.162 223.424L206.154 223.43L205.855 223.602L205.864 223.599Z" fill="#577496"/>
<path d="M205.855 223.602L206.154 223.43L206.145 223.433L205.847 223.605L205.855 223.602Z" fill="#5A779A"/>
<path d="M205.847 223.605L206.145 223.433L206.136 223.434L205.837 223.609L205.847 223.605Z" fill="#5C7B9F"/>
<path d="M205.837 223.609L206.136 223.434C206.132 223.435 206.129 223.435 206.125 223.437L205.828 223.611C205.831 223.611 205.835 223.611 205.837 223.609Z" fill="#5F7FA4"/>
<path d="M205.829 223.611L206.125 223.437C206.123 223.437 206.119 223.437 206.114 223.437L205.817 223.611C205.821 223.611 205.824 223.611 205.829 223.611Z" fill="#6282A8"/>
<path d="M205.818 223.61L206.115 223.437C206.111 223.435 206.107 223.435 206.103 223.435L205.806 223.609C205.808 223.61 205.813 223.61 205.818 223.61Z" fill="#6586AD"/>
<path d="M205.805 223.609L206.102 223.435C206.098 223.434 206.092 223.434 206.087 223.433L205.79 223.605C205.795 223.607 205.799 223.609 205.805 223.609Z" fill="#678AB2"/>
<path d="M205.79 223.605L206.086 223.433C206.082 223.431 206.074 223.428 206.067 223.424L205.77 223.596C205.777 223.6 205.783 223.602 205.79 223.605Z" fill="#6A8DB7"/>
<path d="M205.771 223.596L206.068 223.424C206.062 223.421 206.052 223.418 206.045 223.413L205.748 223.585C205.755 223.59 205.762 223.595 205.771 223.596Z" fill="#6D91BB"/>
</g>
<mask id="mask2_613_2086" style="mask-type:luminance" maskUnits="userSpaceOnUse" x="205" y="223" width="2" height="1">
<path d="M205.879 223.125C205.879 223.073 205.897 223.036 205.927 223.019L205.63 223.191C205.599 223.21 205.581 223.247 205.581 223.298C205.58 223.404 205.655 223.532 205.747 223.585L206.045 223.414C205.952 223.36 205.878 223.231 205.879 223.125Z" fill="white"/>
</mask>
<g mask="url(#mask2_613_2086)">
<path d="M205.746 223.585L206.043 223.414C206.025 223.401 206.006 223.388 205.987 223.37L205.69 223.544C205.707 223.56 205.726 223.575 205.746 223.585Z" fill="#6D91BB"/>
<path d="M205.691 223.543L205.988 223.369C205.983 223.364 205.976 223.357 205.97 223.35L205.672 223.522C205.678 223.531 205.684 223.537 205.691 223.543Z" fill="#6A8DB7"/>
<path d="M205.672 223.523L205.97 223.351C205.965 223.346 205.961 223.34 205.956 223.335L205.658 223.508C205.662 223.513 205.667 223.517 205.672 223.523Z" fill="#678AB2"/>
<path d="M205.658 223.507L205.957 223.335C205.953 223.329 205.948 223.324 205.945 223.32L205.648 223.492C205.652 223.497 205.653 223.501 205.658 223.507Z" fill="#6586AD"/>
<path d="M205.648 223.492L205.944 223.32C205.941 223.316 205.939 223.31 205.934 223.305L205.637 223.478C205.641 223.483 205.644 223.487 205.648 223.492Z" fill="#6282A8"/>
<path d="M205.637 223.478L205.935 223.305C205.932 223.3 205.929 223.296 205.927 223.292L205.63 223.466C205.632 223.468 205.634 223.473 205.637 223.478Z" fill="#5F7FA4"/>
<path d="M205.629 223.466L205.927 223.292C205.924 223.286 205.921 223.282 205.919 223.278L205.621 223.45C205.624 223.454 205.627 223.46 205.629 223.466Z" fill="#5C7B9F"/>
<path d="M205.622 223.449L205.92 223.277C205.918 223.272 205.915 223.267 205.913 223.263L205.616 223.434C205.618 223.44 205.619 223.445 205.622 223.449Z" fill="#5A779A"/>
<path d="M205.614 223.435L205.912 223.264C205.909 223.259 205.907 223.253 205.905 223.248L205.607 223.421C205.61 223.427 205.612 223.43 205.614 223.435Z" fill="#577496"/>
<path d="M205.607 223.421L205.906 223.247C205.904 223.243 205.901 223.237 205.9 223.233L205.602 223.405C205.604 223.412 205.606 223.417 205.607 223.421Z" fill="#547091"/>
<path d="M205.601 223.405L205.9 223.232C205.898 223.228 205.895 223.222 205.893 223.218L205.597 223.39C205.599 223.394 205.6 223.401 205.601 223.405Z" fill="#526D8C"/>
<path d="M205.596 223.39L205.892 223.218C205.891 223.213 205.889 223.206 205.888 223.202L205.589 223.373C205.592 223.378 205.594 223.384 205.596 223.39Z" fill="#4F6988"/>
<path d="M205.591 223.373L205.889 223.202C205.886 223.195 205.885 223.188 205.884 223.182L205.587 223.356C205.588 223.36 205.589 223.368 205.591 223.373Z" fill="#4C6583"/>
<path d="M205.587 223.355L205.885 223.181C205.883 223.173 205.881 223.167 205.88 223.157L205.583 223.33C205.583 223.338 205.584 223.345 205.587 223.355Z" fill="#49627E"/>
<path d="M205.582 223.33L205.88 223.157C205.879 223.147 205.878 223.134 205.878 223.124C205.878 223.072 205.896 223.035 205.927 223.018L205.629 223.19C205.599 223.209 205.58 223.246 205.58 223.297C205.58 223.31 205.58 223.32 205.582 223.33Z" fill="#475E7A"/>
</g>
<mask id="mask3_613_2086" style="mask-type:luminance" maskUnits="userSpaceOnUse" x="205" y="223" width="2" height="1">
<path d="M205.928 223.019C205.83 223.077 205.729 223.134 205.63 223.192C205.66 223.173 205.703 223.177 205.749 223.204L206.046 223.031C206 223.005 205.957 223.003 205.928 223.019Z" fill="white"/>
</mask>
<g mask="url(#mask3_613_2086)">
<path d="M205.749 223.204L206.046 223.031C206.038 223.026 206.03 223.022 206.023 223.019L205.726 223.192C205.732 223.197 205.739 223.2 205.749 223.204Z" fill="#ACBACC"/>
<path d="M205.725 223.192L206.023 223.019C206.015 223.016 206.009 223.014 206.004 223.011L205.705 223.184C205.712 223.186 205.718 223.189 205.725 223.192Z" fill="#A8B6C7"/>
<path d="M205.705 223.185L206.003 223.012C205.998 223.011 205.993 223.01 205.987 223.01L205.69 223.183C205.695 223.182 205.701 223.184 205.705 223.185Z" fill="#A3B1C2"/>
<path d="M205.69 223.182L205.987 223.009C205.983 223.008 205.979 223.008 205.974 223.008L205.677 223.18C205.681 223.182 205.687 223.182 205.69 223.182Z" fill="#9FACBD"/>
<path d="M205.678 223.18L205.976 223.008C205.973 223.008 205.968 223.008 205.965 223.008L205.667 223.18C205.672 223.18 205.674 223.18 205.678 223.18Z" fill="#9BA8B8"/>
<path d="M205.667 223.18L205.965 223.008C205.961 223.008 205.958 223.008 205.955 223.009L205.658 223.182C205.66 223.182 205.663 223.182 205.667 223.18Z" fill="#97A3B3"/>
<path d="M205.657 223.182L205.955 223.009L205.945 223.011L205.648 223.184L205.657 223.182Z" fill="#929EAD"/>
<path d="M205.647 223.183L205.945 223.011L205.936 223.014L205.638 223.188L205.647 223.183Z" fill="#8E9AA8"/>
<path d="M205.639 223.188L205.936 223.014L205.929 223.018L205.63 223.192L205.639 223.188Z" fill="#8A95A3"/>
<path d="M205.63 223.192L205.929 223.019L205.928 223.019L205.629 223.192H205.63Z" fill="#85909E"/>
</g>
<mask id="mask4_613_2086" style="mask-type:luminance" maskUnits="userSpaceOnUse" x="205" y="223" width="2" height="1">
<path d="M205.865 223.596L206.163 223.424C206.193 223.408 206.211 223.37 206.211 223.318C206.211 223.213 206.137 223.084 206.046 223.03L205.749 223.203C205.839 223.256 205.915 223.385 205.914 223.489C205.914 223.544 205.895 223.581 205.865 223.596Z" fill="white"/>
</mask>
<g mask="url(#mask4_613_2086)">
<path d="M205.865 223.596L206.163 223.424C206.193 223.407 206.211 223.37 206.211 223.317C206.211 223.307 206.211 223.295 206.21 223.284L205.911 223.457C205.913 223.468 205.914 223.48 205.914 223.488C205.914 223.543 205.895 223.581 205.865 223.596Z" fill="#707985"/>
<path d="M205.911 223.458L206.21 223.285C206.209 223.277 206.207 223.271 206.206 223.261L205.909 223.435C205.91 223.442 205.911 223.45 205.911 223.458Z" fill="#747E8A"/>
<path d="M205.907 223.435L206.205 223.262C206.204 223.256 206.201 223.25 206.2 223.243L205.903 223.418C205.906 223.422 205.906 223.43 205.907 223.435Z" fill="#78828F"/>
<path d="M205.904 223.418L206.202 223.243C206.2 223.238 206.198 223.231 206.196 223.227L205.899 223.399C205.9 223.406 205.903 223.41 205.904 223.418Z" fill="#7D8794"/>
<path d="M205.899 223.399L206.196 223.226C206.194 223.221 206.193 223.215 206.191 223.211L205.894 223.384C205.895 223.389 205.896 223.393 205.899 223.399Z" fill="#818C99"/>
<path d="M205.893 223.384L206.19 223.21C206.189 223.205 206.186 223.201 206.184 223.197L205.886 223.369C205.888 223.374 205.89 223.378 205.893 223.384Z" fill="#85909E"/>
<path d="M205.885 223.369L206.184 223.196C206.182 223.191 206.18 223.184 206.177 223.182L205.88 223.355C205.882 223.359 205.884 223.364 205.885 223.369Z" fill="#8A95A3"/>
<path d="M205.878 223.355L206.176 223.182C206.173 223.177 206.171 223.171 206.169 223.167L205.87 223.341C205.874 223.345 205.877 223.35 205.878 223.355Z" fill="#8E9AA8"/>
<path d="M205.872 223.34L206.17 223.167C206.167 223.163 206.165 223.158 206.163 223.153L205.864 223.326C205.868 223.33 205.87 223.335 205.872 223.34Z" fill="#929EAD"/>
<path d="M205.865 223.326L206.163 223.153C206.16 223.151 206.158 223.144 206.155 223.139L205.856 223.313C205.859 223.317 205.862 223.322 205.865 223.326Z" fill="#97A3B3"/>
<path d="M205.855 223.313L206.153 223.139C206.15 223.134 206.146 223.128 206.143 223.126L205.846 223.297C205.85 223.302 205.853 223.308 205.855 223.313Z" fill="#9BA8B8"/>
<path d="M205.847 223.297L206.144 223.125C206.142 223.12 206.138 223.115 206.133 223.11L205.835 223.282C205.839 223.286 205.843 223.292 205.847 223.297Z" fill="#9FACBD"/>
<path d="M205.835 223.282L206.134 223.11C206.13 223.104 206.124 223.099 206.12 223.093L205.822 223.267C205.827 223.272 205.831 223.277 205.835 223.282Z" fill="#A3B1C2"/>
<path d="M205.823 223.267L206.12 223.094C206.114 223.086 206.108 223.081 206.102 223.074L205.804 223.248C205.811 223.252 205.816 223.26 205.823 223.267Z" fill="#A8B6C7"/>
<path d="M205.803 223.247L206.1 223.073C206.084 223.058 206.064 223.041 206.045 223.031L205.748 223.204C205.767 223.216 205.786 223.23 205.803 223.247Z" fill="#ACBACC"/>
</g>
<path d="M206.833 223.763L207.132 223.589L204.96 222.336L204.662 222.508L206.833 223.763Z" fill="#759CC9"/>
<mask id="mask5_613_2086" style="mask-type:luminance" maskUnits="userSpaceOnUse" x="206" y="223" width="2" height="1">
<path d="M206.909 223.771C207.009 223.713 207.107 223.656 207.206 223.597C207.188 223.61 207.161 223.608 207.132 223.59L206.833 223.764C206.864 223.779 206.89 223.783 206.909 223.771Z" fill="white"/>
</mask>
<g mask="url(#mask5_613_2086)">
<path d="M206.909 223.771L207.206 223.595L207.205 223.598L206.908 223.771H206.909Z" fill="#547091"/>
<path d="M206.908 223.771L207.205 223.598L207.201 223.601L206.903 223.775L206.908 223.771Z" fill="#577496"/>
<path d="M206.903 223.776L207.201 223.601L207.195 223.602L206.898 223.777L206.903 223.776Z" fill="#5A779A"/>
<path d="M206.898 223.777L207.196 223.602L207.19 223.604L206.892 223.777L206.898 223.777Z" fill="#5C7B9F"/>
<path d="M206.891 223.778L207.19 223.604L207.183 223.605L206.886 223.778L206.891 223.778Z" fill="#5F7FA4"/>
<path d="M206.886 223.779L207.183 223.605H207.176L206.879 223.779H206.886Z" fill="#6282A8"/>
<path d="M206.879 223.778L207.176 223.605L207.169 223.604L206.87 223.778L206.879 223.778Z" fill="#6586AD"/>
<path d="M206.871 223.777L207.169 223.604L207.16 223.602L206.861 223.776L206.871 223.777Z" fill="#678AB2"/>
<path d="M206.861 223.776L207.16 223.602C207.155 223.601 207.151 223.599 207.147 223.596L206.849 223.771C206.854 223.773 206.856 223.776 206.861 223.776Z" fill="#6A8DB7"/>
<path d="M206.849 223.771L207.147 223.597C207.141 223.596 207.137 223.594 207.132 223.59L206.833 223.764C206.84 223.765 206.844 223.771 206.849 223.771Z" fill="#6D91BB"/>
</g>
<mask id="mask6_613_2086" style="mask-type:luminance" maskUnits="userSpaceOnUse" x="207" y="223" width="1" height="2">
<path d="M207.046 224.328C207.146 224.27 207.245 224.213 207.344 224.157C207.405 224.121 207.441 224.047 207.441 223.943L207.143 224.115C207.144 224.221 207.106 224.295 207.046 224.328Z" fill="white"/>
</mask>
<g mask="url(#mask6_613_2086)">
<path d="M207.046 224.328L207.344 224.157C207.405 224.121 207.441 224.047 207.441 223.943L207.143 224.115C207.144 224.221 207.106 224.295 207.046 224.328Z" fill="#85A9FF"/>
</g>
<mask id="mask7_613_2086" style="mask-type:luminance" maskUnits="userSpaceOnUse" x="206" y="223" width="2" height="1">
<path d="M206.908 223.771C206.933 223.755 206.959 223.743 206.983 223.728C207.058 223.684 207.131 223.642 207.206 223.597C207.224 223.588 207.236 223.564 207.237 223.531L206.938 223.705C206.938 223.737 206.927 223.759 206.908 223.771Z" fill="white"/>
</mask>
<g mask="url(#mask7_613_2086)">
<path d="M206.908 223.771L207.206 223.597C207.224 223.588 207.236 223.564 207.237 223.531L206.938 223.705C206.938 223.737 206.927 223.759 206.908 223.771Z" fill="#707985"/>
</g>
<path d="M204.558 222.33L204.856 222.156L204.867 218.016L204.57 218.192L204.558 222.33Z" fill="#49617D"/>
<mask id="mask8_613_2086" style="mask-type:luminance" maskUnits="userSpaceOnUse" x="204" y="217" width="1" height="2">
<path d="M204.867 218.016C204.868 217.984 204.88 217.961 204.899 217.95L204.601 218.121C204.582 218.133 204.571 218.157 204.571 218.19C204.659 218.139 204.779 218.068 204.867 218.016Z" fill="white"/>
</mask>
<g mask="url(#mask8_613_2086)">
<path d="M204.57 218.191L204.867 218.016C204.868 217.984 204.88 217.961 204.899 217.951L204.601 218.122C204.581 218.133 204.57 218.157 204.57 218.191Z" fill="#475E7A"/>
</g>
<mask id="mask9_613_2086" style="mask-type:luminance" maskUnits="userSpaceOnUse" x="204" y="217" width="1" height="2">
<path d="M204.899 217.951C204.894 217.951 204.888 217.954 204.883 217.959C204.838 217.984 204.793 218.01 204.749 218.035C204.7 218.064 204.65 218.093 204.601 218.121C204.62 218.112 204.646 218.113 204.675 218.13L204.973 217.956C204.943 217.94 204.916 217.94 204.899 217.951Z" fill="white"/>
</mask>
<g mask="url(#mask9_613_2086)">
<path d="M204.674 218.13L204.972 217.956C204.966 217.953 204.961 217.953 204.958 217.952L204.66 218.122C204.665 218.125 204.67 218.127 204.674 218.13Z" fill="#ACBACC"/>
<path d="M204.661 218.122L204.959 217.951C204.955 217.948 204.95 217.947 204.946 217.945L204.649 218.12C204.652 218.121 204.655 218.121 204.661 218.122Z" fill="#A8B6C7"/>
<path d="M204.648 218.121L204.946 217.946C204.941 217.945 204.939 217.945 204.936 217.945L204.638 218.118C204.642 218.118 204.646 218.118 204.648 218.121Z" fill="#A3B1C2"/>
<path d="M204.639 218.117L204.937 217.944L204.929 217.943L204.631 218.117H204.639Z" fill="#9FACBD"/>
<path d="M204.63 218.117L204.928 217.943H204.921L204.624 218.117H204.63Z" fill="#9BA8B8"/>
<path d="M204.624 218.117L204.922 217.943L204.915 217.944L204.619 218.117H204.624Z" fill="#97A3B3"/>
<path d="M204.619 218.117L204.915 217.944L204.91 217.945L204.611 218.118L204.619 218.117Z" fill="#929EAD"/>
<path d="M204.611 218.118L204.909 217.945L204.904 217.947L204.606 218.121L204.611 218.118Z" fill="#8E9AA8"/>
<path d="M204.606 218.121L204.904 217.947L204.899 217.95L204.601 218.122L204.606 218.121Z" fill="#8A95A3"/>
<path d="M204.601 218.121L204.899 217.95V217.951L204.6 218.121H204.601Z" fill="#85909E"/>
</g>
<path d="M206.846 219.383L207.144 219.211L204.973 217.956L204.674 218.13L206.846 219.383Z" fill="#B9C8DB"/>
<mask id="mask10_613_2086" style="mask-type:luminance" maskUnits="userSpaceOnUse" x="205" y="218" width="1" height="1">
<path d="M205.625 218.16C205.625 218.142 205.631 218.133 205.64 218.128L205.343 218.3C205.333 218.307 205.329 218.317 205.329 218.332C205.427 218.276 205.526 218.217 205.625 218.16C205.527 218.217 205.427 218.276 205.329 218.332C205.329 218.363 205.35 218.401 205.377 218.417L205.675 218.243C205.647 218.231 205.625 218.191 205.625 218.16Z" fill="white"/>
</mask>
<g mask="url(#mask10_613_2086)">
<path d="M205.377 218.417L205.674 218.244C205.669 218.241 205.663 218.236 205.658 218.232L205.36 218.404C205.367 218.409 205.371 218.412 205.377 218.417Z" fill="#6D91BB"/>
<path d="M205.36 218.404L205.659 218.232L205.653 218.226L205.355 218.398L205.36 218.404Z" fill="#6A8DB7"/>
<path d="M205.355 218.398L205.653 218.226L205.649 218.221L205.352 218.394L205.355 218.398Z" fill="#678AB2"/>
<path d="M205.352 218.394L205.649 218.221L205.646 218.217L205.348 218.391L205.352 218.394Z" fill="#6586AD"/>
<path d="M205.348 218.391L205.646 218.216L205.643 218.212L205.345 218.386L205.348 218.391Z" fill="#6282A8"/>
<path d="M205.344 218.386L205.643 218.212L205.64 218.207L205.342 218.381L205.344 218.386Z" fill="#5F7FA4"/>
<path d="M205.343 218.381L205.64 218.207L205.638 218.204L205.34 218.378L205.343 218.381Z" fill="#5C7B9F"/>
<path d="M205.34 218.378L205.639 218.204L205.636 218.199L205.338 218.372L205.34 218.378Z" fill="#5A779A"/>
<path d="M205.338 218.371L205.635 218.199L205.634 218.194L205.337 218.368L205.338 218.371Z" fill="#577496"/>
<path d="M205.337 218.368L205.633 218.194L205.632 218.192L205.334 218.364L205.337 218.368Z" fill="#547091"/>
<path d="M205.334 218.364L205.632 218.193L205.63 218.187L205.333 218.36L205.334 218.364Z" fill="#526D8C"/>
<path d="M205.333 218.36L205.63 218.187L205.63 218.182L205.331 218.354L205.333 218.36Z" fill="#4F6988"/>
<path d="M205.331 218.354L205.629 218.181L205.627 218.176L205.33 218.349L205.331 218.354Z" fill="#4C6583"/>
<path d="M205.33 218.35L205.627 218.176L205.625 218.168L205.329 218.342L205.33 218.35Z" fill="#49627E"/>
<path d="M205.329 218.342L205.625 218.168C205.625 218.166 205.624 218.162 205.624 218.161C205.624 218.143 205.63 218.134 205.639 218.128L205.342 218.301C205.332 218.307 205.328 218.318 205.328 218.333C205.328 218.337 205.328 218.339 205.329 218.342Z" fill="#475E7A"/>
</g>
<mask id="mask11_613_2086" style="mask-type:luminance" maskUnits="userSpaceOnUse" x="205" y="218" width="1" height="1">
<path d="M205.639 218.129C205.54 218.187 205.441 218.244 205.342 218.301C205.351 218.297 205.363 218.298 205.376 218.304L205.675 218.132C205.662 218.123 205.648 218.123 205.639 218.129Z" fill="white"/>
</mask>
<g mask="url(#mask11_613_2086)">
<path d="M205.376 218.304L205.674 218.131L205.667 218.129L205.369 218.301L205.376 218.304Z" fill="#ACBACC"/>
<path d="M205.369 218.301L205.667 218.129L205.663 218.127L205.364 218.3L205.369 218.301Z" fill="#A8B6C7"/>
<path d="M205.364 218.3L205.662 218.127L205.657 218.125L205.359 218.3H205.364Z" fill="#A3B1C2"/>
<path d="M205.36 218.3L205.657 218.125H205.654L205.356 218.3H205.36Z" fill="#9FACBD"/>
<path d="M205.357 218.3L205.655 218.125H205.652L205.354 218.3H205.356H205.357Z" fill="#9BA8B8"/>
<path d="M205.353 218.3L205.651 218.125H205.647L205.35 218.3H205.353Z" fill="#97A3B3"/>
<path d="M205.349 218.3L205.647 218.125L205.646 218.127L205.347 218.3H205.349Z" fill="#929EAD"/>
<path d="M205.346 218.3L205.645 218.127H205.643L205.344 218.3H205.346Z" fill="#8E9AA8"/>
<path d="M205.344 218.3L205.643 218.127L205.64 218.129L205.342 218.301L205.344 218.3Z" fill="#8A95A3"/>
<path d="M205.342 218.301L205.64 218.129H205.639L205.342 218.301Z" fill="#85909E"/>
</g>
<path d="M206.145 218.862L206.442 218.688L205.675 218.245L205.377 218.418L206.145 218.862Z" fill="#759CC9"/>
<mask id="mask12_613_2086" style="mask-type:luminance" maskUnits="userSpaceOnUse" x="206" y="218" width="1" height="1">
<path d="M206.477 218.693C206.47 218.697 206.456 218.697 206.442 218.689L206.145 218.863C206.158 218.87 206.171 218.87 206.179 218.866C206.269 218.812 206.388 218.743 206.477 218.693Z" fill="white"/>
</mask>
<g mask="url(#mask12_613_2086)">
<path d="M206.18 218.865L206.477 218.693L206.18 218.865Z" fill="#547091"/>
<path d="M206.18 218.865L206.478 218.693L206.475 218.695L206.178 218.865H206.18Z" fill="#577496"/>
<path d="M206.178 218.864L206.474 218.695H206.471L206.175 218.866L206.178 218.864Z" fill="#5A779A"/>
<path d="M206.175 218.867L206.471 218.695H206.47L206.171 218.867L206.175 218.867Z" fill="#5C7B9F"/>
<path d="M206.171 218.867L206.47 218.695H206.467L206.168 218.867H206.171Z" fill="#5F7FA4"/>
<path d="M206.169 218.867L206.467 218.695H206.464L206.165 218.867H206.169Z" fill="#6282A8"/>
<path d="M206.164 218.867L206.463 218.695H206.459L206.162 218.867H206.164Z" fill="#6586AD"/>
<path d="M206.162 218.867L206.46 218.695H206.455L206.158 218.866L206.162 218.867Z" fill="#678AB2"/>
<path d="M206.158 218.866L206.455 218.695L206.45 218.693L206.151 218.865L206.158 218.866Z" fill="#6A8DB7"/>
<path d="M206.151 218.865L206.449 218.693L206.442 218.688L206.145 218.862L206.151 218.865Z" fill="#6D91BB"/>
</g>
<path d="M206.146 218.748L206.443 218.576L205.675 218.132L205.377 218.304L206.146 218.748Z" fill="#B9C8DB"/>
<mask id="mask13_613_2086" style="mask-type:luminance" maskUnits="userSpaceOnUse" x="206" y="218" width="1" height="1">
<path d="M206.179 218.865C206.183 218.862 206.19 218.86 206.194 218.858C206.239 218.83 206.283 218.805 206.328 218.778C206.378 218.75 206.427 218.72 206.477 218.693C206.486 218.685 206.492 218.674 206.492 218.659C206.493 218.629 206.471 218.592 206.443 218.576L206.146 218.748C206.172 218.764 206.194 218.802 206.194 218.832C206.194 218.849 206.189 218.859 206.179 218.865Z" fill="white"/>
</mask>
<g mask="url(#mask13_613_2086)">
<path d="M206.18 218.864L206.477 218.693C206.486 218.685 206.492 218.674 206.492 218.659C206.492 218.657 206.492 218.653 206.492 218.65L206.194 218.823C206.194 218.826 206.194 218.829 206.194 218.832C206.194 218.849 206.189 218.859 206.18 218.864Z" fill="#707985"/>
<path d="M206.194 218.823L206.492 218.651L206.49 218.643L206.192 218.816L206.194 218.823Z" fill="#747E8A"/>
<path d="M206.192 218.816L206.49 218.643L206.489 218.637L206.19 218.811L206.192 218.816Z" fill="#78828F"/>
<path d="M206.191 218.811L206.489 218.638L206.487 218.633L206.189 218.807L206.191 218.811Z" fill="#7D8794"/>
<path d="M206.189 218.807L206.487 218.633L206.486 218.627L206.188 218.802L206.189 218.807Z" fill="#818C99"/>
<path d="M206.187 218.802L206.485 218.627L206.484 218.624L206.186 218.795L206.187 218.802Z" fill="#85909E"/>
<path d="M206.186 218.795L206.484 218.624L206.482 218.62L206.183 218.792L206.186 218.795Z" fill="#8A95A3"/>
<path d="M206.183 218.792L206.481 218.62L206.48 218.615L206.181 218.789L206.183 218.792Z" fill="#8E9AA8"/>
<path d="M206.182 218.789L206.48 218.616L206.477 218.611L206.18 218.783L206.182 218.788V218.789Z" fill="#929EAD"/>
<path d="M206.18 218.783L206.478 218.611L206.475 218.607L206.178 218.779L206.18 218.783Z" fill="#97A3B3"/>
<path d="M206.177 218.779L206.474 218.607L206.472 218.603L206.174 218.776L206.177 218.779Z" fill="#9BA8B8"/>
<path d="M206.174 218.776L206.471 218.603L206.469 218.599L206.171 218.772L206.174 218.776Z" fill="#9FACBD"/>
<path d="M206.171 218.772L206.47 218.599L206.465 218.594L206.167 218.766L206.171 218.772Z" fill="#A3B1C2"/>
<path d="M206.167 218.766L206.465 218.594L206.46 218.588L206.162 218.762L206.167 218.766Z" fill="#A8B6C7"/>
<path d="M206.162 218.762L206.46 218.588C206.455 218.584 206.449 218.579 206.444 218.576L206.146 218.748C206.151 218.751 206.157 218.756 206.162 218.762Z" fill="#ACBACC"/>
</g>
<path d="M206.938 223.705L207.237 223.532L207.249 219.392L206.95 219.564L206.938 223.705Z" fill="#737D88"/>
<path d="M204.674 218.13C204.616 218.096 204.57 218.123 204.57 218.19L204.558 222.329C204.558 222.395 204.604 222.474 204.662 222.508L206.833 223.762C206.892 223.797 206.939 223.77 206.939 223.704L206.951 219.564C206.951 219.498 206.904 219.417 206.846 219.383L204.674 218.13Z" fill="#5C8FC6"/>
<path d="M204.674 218.13L206.846 219.383C206.905 219.417 206.951 219.498 206.951 219.564L206.939 223.704C206.939 223.715 206.937 223.727 206.934 223.734C206.92 223.733 206.906 223.73 206.892 223.722L204.72 222.466C204.661 222.433 204.615 222.351 204.615 222.286L204.627 218.145C204.627 218.135 204.629 218.124 204.632 218.116C204.646 218.118 204.66 218.121 204.674 218.13Z" fill="#709DDA"/>
<mask id="mask14_613_2086" style="mask-type:luminance" maskUnits="userSpaceOnUse" x="206" y="219" width="2" height="1">
<path d="M206.951 219.564L207.248 219.392C207.248 219.324 207.202 219.246 207.144 219.21L206.846 219.383C206.905 219.417 206.951 219.498 206.951 219.564Z" fill="white"/>
</mask>
<g mask="url(#mask14_613_2086)">
<path d="M206.951 219.564L207.248 219.391C207.248 219.385 207.248 219.378 207.247 219.371L206.95 219.545C206.951 219.551 206.951 219.558 206.951 219.564Z" fill="#707985"/>
<path d="M206.95 219.545L207.248 219.371C207.247 219.368 207.246 219.362 207.245 219.358L206.947 219.53C206.948 219.535 206.949 219.539 206.95 219.545Z" fill="#747E8A"/>
<path d="M206.947 219.53L207.245 219.358C207.244 219.353 207.243 219.349 207.242 219.344L206.943 219.518C206.944 219.523 206.946 219.526 206.947 219.53Z" fill="#78828F"/>
<path d="M206.944 219.518L207.243 219.344C207.241 219.342 207.24 219.338 207.239 219.333L206.942 219.508C206.942 219.511 206.943 219.515 206.944 219.518Z" fill="#7D8794"/>
<path d="M206.942 219.508L207.239 219.334C207.238 219.33 207.238 219.327 207.236 219.323L206.938 219.496C206.938 219.501 206.94 219.504 206.942 219.508Z" fill="#818C99"/>
<path d="M206.938 219.496L207.236 219.324L207.231 219.317L206.934 219.487L206.938 219.496Z" fill="#85909E"/>
<path d="M206.933 219.487L207.231 219.316C207.23 219.312 207.228 219.308 207.227 219.305L206.929 219.478C206.931 219.481 206.932 219.484 206.933 219.487Z" fill="#8A95A3"/>
<path d="M206.929 219.479L207.227 219.306C207.226 219.303 207.225 219.3 207.223 219.296L206.925 219.469C206.927 219.475 206.928 219.477 206.929 219.479Z" fill="#8E9AA8"/>
<path d="M206.925 219.469L207.222 219.296L207.217 219.288L206.919 219.461L206.925 219.469Z" fill="#929EAD"/>
<path d="M206.92 219.461L207.219 219.288C207.217 219.284 207.215 219.283 207.214 219.28L206.916 219.451C206.917 219.456 206.919 219.46 206.92 219.461Z" fill="#97A3B3"/>
<path d="M206.914 219.452L207.212 219.28C207.209 219.276 207.208 219.273 207.206 219.271L206.908 219.443C206.911 219.446 206.913 219.449 206.914 219.452Z" fill="#9BA8B8"/>
<path d="M206.909 219.443L207.207 219.271C207.205 219.269 207.203 219.266 207.2 219.261L206.902 219.434C206.905 219.438 206.906 219.44 206.909 219.443Z" fill="#9FACBD"/>
<path d="M206.901 219.435L207.2 219.262C207.197 219.257 207.194 219.255 207.19 219.251L206.894 219.424C206.896 219.427 206.9 219.431 206.901 219.435Z" fill="#A3B1C2"/>
<path d="M206.894 219.423L207.189 219.25C207.189 219.245 207.184 219.243 207.179 219.238L206.881 219.412C206.885 219.415 206.889 219.42 206.894 219.423Z" fill="#A8B6C7"/>
<path d="M206.881 219.412L207.18 219.239C207.169 219.226 207.157 219.22 207.144 219.21L206.846 219.384C206.858 219.391 206.871 219.4 206.881 219.412Z" fill="#ACBACC"/>
</g>
<path d="M206.825 218.97C207.009 219.078 207.158 219.334 207.157 219.544L207.144 224.115C207.143 224.327 206.993 224.41 206.809 224.305L204.682 223.077C204.498 222.969 204.349 222.711 204.35 222.503L204.363 217.933C204.364 217.722 204.514 217.636 204.696 217.741L206.825 218.97ZM204.558 222.33C204.558 222.396 204.604 222.475 204.662 222.508L206.833 223.763C206.892 223.798 206.939 223.771 206.939 223.705L206.951 219.565C206.951 219.499 206.904 219.418 206.846 219.384L204.674 218.131C204.616 218.097 204.571 218.124 204.571 218.191L204.558 222.33ZM205.747 223.586C205.839 223.639 205.914 223.596 205.914 223.49C205.914 223.385 205.84 223.258 205.749 223.204C205.656 223.151 205.582 223.194 205.581 223.299C205.581 223.404 205.655 223.533 205.747 223.586ZM206.145 218.748L205.378 218.305C205.35 218.291 205.329 218.302 205.329 218.334C205.329 218.364 205.35 218.403 205.378 218.418L206.145 218.862C206.173 218.876 206.195 218.865 206.195 218.832C206.194 218.802 206.172 218.763 206.145 218.748Z" fill="#E3F1FE"/>
<path d="M205.748 223.204C205.655 223.151 205.581 223.193 205.58 223.299C205.579 223.405 205.654 223.533 205.746 223.587C205.838 223.64 205.913 223.597 205.913 223.491C205.913 223.385 205.839 223.257 205.748 223.204Z" fill="#5C8FC6"/>
<path d="M205.748 223.204C205.839 223.257 205.914 223.385 205.913 223.49C205.913 223.54 205.897 223.575 205.87 223.593C205.843 223.602 205.807 223.597 205.769 223.576C205.677 223.523 205.602 223.394 205.603 223.287C205.603 223.241 205.62 223.204 205.645 223.186C205.674 223.177 205.71 223.182 205.748 223.204Z" fill="#85A9FF"/>
<path d="M204.757 217.546C204.659 217.603 204.559 217.662 204.459 217.719C204.52 217.683 204.605 217.69 204.696 217.741L204.995 217.57C204.901 217.516 204.819 217.51 204.757 217.546Z" fill="#85A9FF"/>
<mask id="mask15_613_2086" style="mask-type:luminance" maskUnits="userSpaceOnUse" x="204" y="217" width="1" height="1">
<path d="M204.757 217.546C204.659 217.603 204.559 217.662 204.459 217.719C204.52 217.683 204.605 217.69 204.696 217.741L204.995 217.57C204.901 217.516 204.819 217.51 204.757 217.546Z" fill="white"/>
</mask>
<g mask="url(#mask15_613_2086)">
<path d="M204.697 217.741L204.995 217.569C204.98 217.559 204.963 217.553 204.948 217.545L204.65 217.719C204.666 217.726 204.681 217.734 204.697 217.741Z" fill="#85A9FF"/>
<path d="M204.65 217.719L204.948 217.545C204.935 217.54 204.922 217.536 204.909 217.531L204.611 217.705C204.624 217.709 204.637 217.713 204.65 217.719Z" fill="#85A9FF"/>
<path d="M204.61 217.705L204.908 217.532C204.899 217.53 204.889 217.527 204.879 217.526L204.581 217.699C204.591 217.7 204.6 217.702 204.61 217.705Z" fill="#85A9FF"/>
<path d="M204.581 217.699L204.879 217.526C204.871 217.525 204.862 217.525 204.854 217.523L204.556 217.697C204.565 217.697 204.573 217.698 204.581 217.699Z" fill="#85A9FF"/>
<path d="M204.557 217.697L204.855 217.523C204.848 217.523 204.841 217.523 204.833 217.524L204.536 217.696C204.542 217.697 204.55 217.697 204.557 217.697Z" fill="#85A9FF"/>
<path d="M204.535 217.697L204.833 217.524C204.827 217.524 204.819 217.524 204.814 217.526L204.516 217.699C204.522 217.698 204.529 217.698 204.535 217.697Z" fill="#85A9FF"/>
<path d="M204.516 217.699L204.813 217.526C204.807 217.527 204.801 217.529 204.794 217.531L204.497 217.702C204.503 217.702 204.509 217.7 204.516 217.699Z" fill="#85A9FF"/>
<path d="M204.497 217.702L204.794 217.531C204.789 217.532 204.782 217.534 204.777 217.537L204.479 217.709C204.485 217.706 204.491 217.705 204.497 217.702Z" fill="#85A9FF"/>
<path d="M204.478 217.709L204.776 217.537C204.77 217.538 204.764 217.541 204.759 217.545L204.462 217.718C204.467 217.716 204.472 217.714 204.478 217.709Z" fill="#85A9FF"/>
<path d="M204.462 217.718L204.759 217.545L204.758 217.546L204.459 217.719L204.462 217.718Z" fill="#85A9FF"/>
</g>
<path d="M205.377 218.304C205.349 218.29 205.328 218.302 205.328 218.333C205.328 218.363 205.349 218.402 205.377 218.417L206.145 218.861C206.172 218.875 206.194 218.864 206.194 218.831C206.194 218.801 206.172 218.763 206.145 218.747L205.377 218.304Z" fill="#5C8FC6"/>
<path d="M206.145 218.748C206.172 218.764 206.194 218.802 206.194 218.833C206.194 218.843 206.191 218.852 206.187 218.858C206.184 218.857 206.182 218.856 206.179 218.855L205.411 218.41C205.385 218.395 205.363 218.356 205.363 218.326C205.363 218.316 205.366 218.308 205.369 218.302C205.372 218.304 205.375 218.304 205.377 218.305L206.145 218.748Z" fill="#85A9FF"/>
<path d="M207.144 224.116L207.442 223.942L207.454 219.374L207.156 219.545L207.144 224.116Z" fill="#85A9FF"/>
<path d="M206.825 218.97L207.123 218.796L204.995 217.57L204.696 217.741L206.825 218.97Z" fill="#85A9FF"/>
<path d="M207.151 219.475C207.15 219.464 207.148 219.456 207.147 219.446C207.145 219.441 207.144 219.434 207.142 219.428C207.141 219.423 207.14 219.416 207.138 219.411C207.136 219.402 207.135 219.396 207.133 219.388C207.131 219.383 207.129 219.378 207.128 219.373C207.125 219.366 207.123 219.357 207.119 219.348C207.117 219.344 207.116 219.34 207.115 219.335C207.111 219.323 207.106 219.312 207.101 219.299L207.1 219.296C207.093 219.284 207.089 219.273 207.084 219.265C207.081 219.26 207.08 219.255 207.079 219.254C207.073 219.243 207.068 219.234 207.062 219.223C207.061 219.221 207.06 219.22 207.059 219.219C207.053 219.207 207.046 219.195 207.037 219.183C207.035 219.18 207.034 219.176 207.032 219.175C207.026 219.167 207.022 219.16 207.014 219.152C207.012 219.146 207.009 219.142 207.006 219.138C207.001 219.13 206.996 219.125 206.99 219.119C206.986 219.113 206.982 219.108 206.978 219.103C206.974 219.098 206.968 219.093 206.964 219.088C206.957 219.081 206.95 219.073 206.943 219.064C206.939 219.062 206.935 219.058 206.932 219.053C206.916 219.039 206.9 219.025 206.885 219.013C206.881 219.01 206.878 219.009 206.877 219.007C206.859 218.994 206.841 218.982 206.824 218.971L207.122 218.797C207.139 218.809 207.158 218.82 207.173 218.833C207.177 218.836 207.179 218.838 207.182 218.84C207.198 218.853 207.213 218.865 207.228 218.882C207.228 218.882 207.231 218.884 207.233 218.885C207.235 218.888 207.237 218.89 207.239 218.892C207.248 218.9 207.255 218.906 207.261 218.916C207.264 218.918 207.267 218.921 207.268 218.923C207.271 218.925 207.271 218.928 207.274 218.93C207.279 218.935 207.283 218.939 207.287 218.946C207.291 218.949 207.293 218.953 207.295 218.956C207.298 218.959 207.3 218.961 207.302 218.965C207.305 218.969 207.308 218.974 207.312 218.977C207.315 218.98 207.316 218.984 207.317 218.985C207.321 218.99 207.325 218.996 207.328 219.002C207.331 219.005 207.333 219.008 207.335 219.013L207.338 219.016C207.344 219.024 207.35 219.034 207.356 219.043C207.356 219.045 207.356 219.045 207.356 219.045C207.357 219.048 207.358 219.05 207.36 219.053C207.363 219.058 207.367 219.065 207.371 219.07C207.372 219.074 207.372 219.079 207.375 219.081C207.377 219.085 207.38 219.088 207.381 219.092C207.382 219.094 207.383 219.097 207.384 219.099C207.388 219.108 207.392 219.116 207.395 219.122C207.395 219.124 207.397 219.127 207.397 219.127L207.399 219.129C207.403 219.138 207.406 219.148 207.411 219.16C207.411 219.16 207.412 219.163 207.413 219.164C207.415 219.168 207.416 219.171 207.417 219.175C207.419 219.179 207.421 219.185 207.422 219.19C207.423 219.194 207.425 219.198 207.426 219.202C207.427 219.207 207.428 219.211 207.429 219.216C207.43 219.219 207.431 219.221 207.432 219.224C207.434 219.229 207.435 219.235 207.436 219.24C207.438 219.244 207.44 219.251 207.44 219.256C207.44 219.256 207.441 219.26 207.441 219.262C207.442 219.268 207.442 219.271 207.443 219.273C207.444 219.284 207.446 219.291 207.448 219.3C207.449 219.303 207.449 219.305 207.449 219.309C207.449 219.311 207.449 219.312 207.45 219.315C207.451 219.334 207.453 219.353 207.453 219.373L207.156 219.545C207.156 219.525 207.155 219.508 207.152 219.487C207.152 219.481 207.152 219.479 207.151 219.475Z" fill="#85A9FF"/>
<path d="M207.248 220.021C207.248 220.018 207.248 220.018 207.248 220.018C207.248 220.018 207.248 220.016 207.249 220.016C207.249 220.015 207.249 220.015 207.249 220.014C207.249 220.013 207.249 220.013 207.249 220.012C207.249 220.01 207.249 220.009 207.25 220.008C207.25 220.006 207.25 220.005 207.25 220.005C207.251 220.005 207.251 220.003 207.251 220.002L207.252 220C207.253 219.999 207.254 219.999 207.254 219.997C207.254 219.995 207.255 219.994 207.255 219.994C207.256 219.993 207.256 219.993 207.256 219.991H207.257C207.258 219.99 207.258 219.99 207.258 219.99C207.259 219.989 207.259 219.989 207.259 219.988L207.26 219.987C207.26 219.985 207.261 219.984 207.262 219.983C207.263 219.982 207.263 219.98 207.265 219.979C207.265 219.979 207.266 219.978 207.267 219.977C207.267 219.977 207.268 219.977 207.268 219.976C207.269 219.974 207.269 219.974 207.269 219.974C207.269 219.973 207.269 219.973 207.269 219.973L207.27 219.971C207.27 219.971 207.271 219.971 207.272 219.97L207.273 219.968L207.274 219.968C207.275 219.967 207.276 219.967 207.276 219.967C207.277 219.966 207.277 219.966 207.277 219.964C207.278 219.964 207.278 219.964 207.279 219.964C207.28 219.963 207.28 219.963 207.281 219.961H207.282C207.283 219.961 207.283 219.96 207.283 219.96L207.284 219.959C207.285 219.959 207.285 219.959 207.286 219.959L207.287 219.957C207.287 219.957 207.288 219.957 207.289 219.957H207.291H207.292C207.292 219.957 207.292 219.957 207.293 219.956H207.295H207.296H207.298C207.298 219.956 207.299 219.956 207.3 219.956H207.302C207.303 219.956 207.303 219.956 207.304 219.956C207.305 219.956 207.305 219.956 207.306 219.957C207.306 219.957 207.308 219.957 207.309 219.957L207.337 219.974C207.333 219.972 207.329 219.971 207.324 219.971C207.32 219.972 207.314 219.974 207.309 219.976C207.304 219.979 207.299 219.984 207.294 219.989C207.29 219.992 207.286 219.998 207.282 220.003C207.281 220.009 207.276 220.016 207.275 220.023C207.274 220.028 207.272 220.035 207.272 220.041L207.273 220.369C207.274 220.38 207.278 220.389 207.285 220.394L207.258 220.375C207.256 220.374 207.253 220.372 207.251 220.372C207.251 220.37 207.25 220.37 207.249 220.369C207.248 220.367 207.248 220.367 207.247 220.366V220.364C207.247 220.363 207.247 220.363 207.247 220.361C207.247 220.36 207.247 220.359 207.247 220.358V220.356V220.353L207.246 220.025C207.248 220.023 207.248 220.023 207.248 220.021Z" fill="#709DDA"/>
<path d="M207.312 219.974C207.291 219.987 207.274 220.015 207.274 220.039L207.275 220.367C207.276 220.39 207.293 220.4 207.313 220.388C207.334 220.374 207.35 220.347 207.35 220.323L207.349 219.996C207.349 219.971 207.333 219.962 207.312 219.974Z" fill="#E3F1FE"/>
<path d="M207.248 220.558C207.248 220.555 207.248 220.555 207.249 220.555V220.553C207.249 220.552 207.249 220.552 207.249 220.551V220.55C207.249 220.549 207.249 220.549 207.25 220.547C207.25 220.545 207.25 220.544 207.25 220.544C207.251 220.542 207.251 220.542 207.251 220.542L207.252 220.54C207.253 220.539 207.254 220.539 207.254 220.538C207.254 220.537 207.255 220.536 207.255 220.536C207.256 220.534 207.256 220.533 207.256 220.533C207.256 220.531 207.256 220.531 207.257 220.53C207.258 220.53 207.258 220.529 207.258 220.529C207.259 220.528 207.259 220.528 207.259 220.528C207.259 220.527 207.26 220.527 207.26 220.527C207.26 220.525 207.261 220.524 207.262 220.522C207.263 220.521 207.263 220.52 207.265 220.519C207.266 220.518 207.266 220.518 207.267 220.516L207.268 220.516C207.269 220.515 207.269 220.515 207.269 220.515C207.269 220.514 207.269 220.514 207.269 220.512H207.27C207.27 220.512 207.271 220.511 207.272 220.511L207.273 220.509C207.273 220.508 207.274 220.508 207.274 220.506C207.275 220.506 207.276 220.506 207.276 220.506C207.276 220.506 207.277 220.506 207.277 220.505C207.278 220.505 207.278 220.505 207.279 220.504C207.279 220.504 207.28 220.504 207.281 220.503C207.281 220.503 207.281 220.503 207.282 220.5L207.284 220.499C207.285 220.499 207.285 220.499 207.286 220.498C207.286 220.498 207.288 220.497 207.289 220.497H207.291C207.291 220.497 207.291 220.497 207.292 220.496C207.292 220.496 207.292 220.496 207.293 220.496H207.295H207.296H207.298L207.299 220.495C207.299 220.495 207.299 220.495 207.3 220.495C207.3 220.495 207.301 220.495 207.302 220.496C207.303 220.496 207.303 220.496 207.304 220.496C207.305 220.496 207.305 220.496 207.306 220.496C207.306 220.496 207.308 220.497 207.309 220.497L207.337 220.514C207.333 220.512 207.329 220.511 207.324 220.511C207.32 220.512 207.314 220.514 207.309 220.516C207.304 220.518 207.299 220.522 207.294 220.528C207.29 220.531 207.286 220.539 207.282 220.544C207.281 220.549 207.276 220.556 207.275 220.562C207.274 220.568 207.272 220.574 207.272 220.582L207.273 220.909C207.274 220.919 207.278 220.928 207.285 220.932L207.258 220.917C207.256 220.916 207.253 220.914 207.251 220.912C207.251 220.91 207.25 220.91 207.25 220.91H207.249V220.908C207.249 220.908 207.248 220.907 207.247 220.907C207.247 220.905 207.247 220.905 207.247 220.905L207.247 220.903V220.899V220.897C207.247 220.895 207.247 220.895 207.247 220.895L207.246 220.567V220.565C207.248 220.559 207.248 220.559 207.248 220.558Z" fill="#709DDA"/>
<path d="M207.312 220.513C207.291 220.525 207.274 220.555 207.274 220.578L207.275 220.905C207.276 220.928 207.293 220.939 207.313 220.924C207.334 220.912 207.35 220.883 207.35 220.862L207.349 220.535C207.349 220.511 207.333 220.502 207.312 220.513Z" fill="#E3F1FE"/>
<path d="M207.555 223.496C207.555 223.496 207.73 223.258 207.949 222.62C208.17 221.984 208.186 221.907 208.129 221.483C208.078 221.06 207.784 220.555 207.587 220.509C207.325 220.447 207.145 220.904 207.183 221.775C207.228 222.672 206.417 223.203 206.377 223.393C206.335 223.577 207.408 223.662 207.555 223.496Z" fill="#FFAA83"/>
<path d="M207.216 222.783C207.296 222.699 206.983 222.431 206.999 221.524C207.011 220.819 206.648 221.711 206.637 221.877C206.628 222.045 206.31 223.461 206.31 223.461C206.31 223.461 206.954 223.071 207.216 222.783Z" fill="#FFAA83"/>
<path d="M198.231 227.509C198.023 227.175 197.696 226.003 198.667 225.348C199.716 224.641 204.325 226.836 204.806 226.6C205.044 226.486 206.163 223.154 206.163 223.154C206.163 223.154 206.554 223.629 207.776 223.493C207.776 223.493 207.088 228.517 205.898 228.744C203.854 229.137 199.213 229.077 198.231 227.509Z" fill="url(#paint20_linear_613_2086)"/>
<g opacity="0.1">
<path d="M205.05 255.111C208.968 257.372 208.99 261.043 205.096 263.305C201.203 265.566 194.87 265.565 190.952 263.304C187.034 261.042 187.013 257.375 190.906 255.112C194.798 252.85 201.132 252.849 205.05 255.111Z" fill="black"/>
</g>
<path d="M194.978 256.887C195.039 256.9 198.175 256.792 197.472 257.967C197.022 258.726 196.393 258.859 195.923 258.874C195.456 258.887 194.597 258.611 194.386 258.751C194.173 258.887 193.112 259.622 192.502 258.883C192.378 258.734 192.296 258.301 192.378 258.023C192.461 257.748 194.631 256.82 194.978 256.887Z" fill="url(#paint21_linear_613_2086)"/>
<path d="M197.472 257.967C197.022 258.726 196.393 258.859 195.923 258.874C195.457 258.887 194.597 258.611 194.386 258.751C194.173 258.887 193.112 259.622 192.502 258.883C192.435 258.801 192.381 258.637 192.361 258.463C192.783 259.089 193.825 258.918 194.116 258.709C194.445 258.475 194.92 258.357 195.331 258.442C195.741 258.527 196.63 258.424 197.077 257.992C197.347 257.731 197.333 257.43 197.281 257.233C197.559 257.393 197.675 257.624 197.472 257.967Z" fill="url(#paint22_linear_613_2086)"/>
<path d="M193.541 233.178C193.541 233.178 190.8 235.636 192.714 241.266C193.132 242.492 193.958 245.103 193.685 246.384C193.352 247.925 192.87 247.49 192.519 252.588C192.209 257.092 192.265 256.115 192.163 257.94C192.133 258.461 194.047 259.004 194.335 258.198C195.596 254.671 197.348 247.274 196.994 243.198C196.636 239.121 197.04 234.017 197.04 234.017C197.04 234.017 195.162 233.946 193.541 233.178Z" fill="#223A7A"/>
<path d="M200.902 258.993C200.964 258.993 204.203 258.271 203.672 259.624C203.329 260.501 202.701 260.763 202.215 260.867C201.733 260.972 200.797 260.855 200.6 261.04C200.403 261.225 199.424 262.194 198.671 261.546C198.516 261.412 198.359 260.981 198.397 260.678C198.434 260.377 200.528 258.991 200.902 258.993Z" fill="url(#paint23_linear_613_2086)"/>
<path d="M203.672 259.624C203.329 260.501 202.701 260.763 202.215 260.867C201.733 260.972 200.797 260.855 200.6 261.04C200.403 261.225 199.424 262.194 198.671 261.546C198.587 261.475 198.502 261.314 198.449 261.137C198.996 261.699 200.049 261.321 200.313 261.048C200.617 260.744 201.087 260.527 201.528 260.535C201.97 260.544 202.876 260.264 203.263 259.726C203.499 259.404 203.434 259.094 203.347 258.902C203.66 259.012 203.827 259.23 203.672 259.624Z" fill="url(#paint24_linear_613_2086)"/>
<path d="M195.162 234.02C195.162 234.02 192.171 237.744 196.017 243.531C196.017 243.531 197.887 247.646 197.817 248.963C197.741 250.542 197.105 250.685 197.728 255.842C198.269 260.316 198.043 260.411 198.391 260.785C198.754 261.182 200.579 260.798 200.644 260.001C200.986 255.623 201.173 249.204 201.273 245.115C201.394 240.187 200.112 233.597 200.112 233.597C200.112 233.597 197.876 234.731 195.162 234.02Z" fill="#2C4481"/>
<path d="M201.273 245.114C201.267 249.205 200.985 255.622 200.644 260C200.618 260.31 200.323 260.555 199.954 260.72C199.996 259.208 200.225 250.285 200.24 248.201C200.259 245.923 200.342 238.581 198.716 237.491C196.738 236.165 196.963 234.355 196.963 234.355L194.978 233.686C198.538 234.429 200.112 233.596 200.112 233.596C200.112 233.596 201.281 239.923 201.273 245.114Z" fill="#223A7A"/>
<path d="M193.613 232.884C193.613 232.884 196.067 234.495 200.116 233.42C200.116 233.42 200.196 234.144 200.23 234.271C200.263 234.397 195.36 235.266 193.179 233.596L193.613 232.884Z" fill="#1A3166"/>
<path d="M122 107.804V115.422C122 117.814 123.157 120.206 125.47 121.574L191.168 160.219C197.443 163.927 205.175 163.927 211.451 160.219L280.53 119.063C282.803 117.72 283.953 115.386 283.993 113.036L284 113.033V105.311L122 107.804Z" fill="url(#paint25_linear_613_2086)"/>
<path d="M125.47 113.955L191.168 152.6C197.443 156.308 205.175 156.308 211.451 152.6L280.53 111.444C285.157 108.709 285.157 101.874 280.53 99.1405L214.832 60.4955C208.557 56.7873 200.825 56.7873 194.549 60.4955L125.47 101.651C120.843 104.385 120.843 111.22 125.47 113.955Z" fill="url(#paint26_linear_613_2086)"/>
<path d="M199.373 70.7064C198.721 70.3215 197.676 70.3215 197.029 70.7064L160.486 92.4534C159.839 92.8383 159.837 93.4617 160.488 93.8466L222.25 130.361C222.901 130.746 223.951 130.743 224.599 130.358L261.142 108.611C261.789 108.226 261.786 107.606 261.135 107.221L199.373 70.7064Z" fill="#E3EBF6"/>
<path d="M198.551 71.3047C197.92 70.9316 196.907 70.9316 196.28 71.3047L160.878 92.3725C160.251 92.7455 160.25 93.349 160.88 93.722L220.713 129.096C221.344 129.469 222.361 129.466 222.988 129.093L258.39 108.026C259.017 107.652 259.014 107.052 258.383 106.679L198.551 71.3047Z" fill="#96AAFF"/>
<path d="M198.572 68.3017C197.942 67.9291 196.931 67.9291 196.305 68.3017L160.96 89.3356C160.334 89.7078 160.332 90.3108 160.963 90.683L220.698 126C221.328 126.372 222.344 126.369 222.97 125.997L258.315 104.964C258.941 104.591 258.938 103.992 258.308 103.619L198.572 68.3017Z" fill="white"/>
<path d="M201.521 70.8771L253.924 101.859L254.752 101.327L202.349 70.3457L201.521 70.8771Z" fill="#F0F8FF"/>
<path d="M257.823 58.7239C258.765 59.2811 259.526 60.6303 259.523 61.7393L259.405 104.276L197.395 67.6148L197.512 25.0782C197.515 23.9692 198.281 23.5224 199.224 24.0797L257.823 58.7239Z" fill="white"/>
<path d="M160.491 90.0071C160.49 90.2514 160.647 90.4957 160.963 90.6825L220.699 126C221.328 126.372 222.344 126.369 222.971 125.997L258.316 104.963C258.352 104.941 258.38 104.916 258.413 104.892C258.453 104.864 258.495 104.835 258.529 104.804C258.579 104.758 258.621 104.71 258.656 104.661C258.662 104.652 258.668 104.643 258.674 104.634C258.706 104.584 258.733 104.533 258.751 104.481C258.753 104.475 258.753 104.47 258.756 104.464C258.772 104.408 258.783 104.352 258.783 104.295L258.776 106.974C258.776 106.978 258.776 106.983 258.775 106.988C258.775 107.019 258.771 107.051 258.765 107.082C258.761 107.102 258.754 107.122 258.748 107.143C258.746 107.149 258.745 107.154 258.743 107.16C258.741 107.165 258.741 107.169 258.739 107.174C258.728 107.205 258.714 107.236 258.697 107.267C258.688 107.282 258.677 107.298 258.667 107.313C258.661 107.322 258.655 107.331 258.649 107.34C258.643 107.348 258.639 107.356 258.633 107.365C258.604 107.403 258.571 107.439 258.533 107.475C258.53 107.478 258.525 107.48 258.522 107.483C258.488 107.514 258.446 107.542 258.406 107.571C258.379 107.591 258.358 107.611 258.328 107.63C258.322 107.633 258.315 107.638 258.309 107.641L222.963 128.675C222.337 129.048 221.322 129.051 220.692 128.678L160.956 93.3608C160.64 93.1741 160.483 92.9298 160.484 92.6854L160.491 90.0071Z" fill="#ADBBFE"/>
<path d="M195.008 96.9904C194.691 96.8028 194.185 96.8058 193.875 96.9904L186.461 101.402C186.15 101.587 186.147 101.887 186.465 102.075L199.777 109.922C200.089 110.107 200.6 110.107 200.911 109.922L208.325 105.51C208.635 105.326 208.634 105.023 208.321 104.838L195.008 96.9904ZM243.259 102.371C243.109 102.282 243.109 102.138 243.258 102.049L245.724 100.581C245.873 100.492 246.117 100.492 246.268 100.581L248.75 102.049C248.9 102.138 248.901 102.282 248.751 102.371L246.286 103.839C246.136 103.928 245.892 103.928 245.741 103.839L243.259 102.371ZM252.321 104.16C252.472 104.249 252.472 104.394 252.323 104.483L249.857 105.951C249.708 106.04 249.464 106.04 249.313 105.951L246.831 104.483C246.681 104.395 246.68 104.25 246.83 104.161L249.296 102.694C249.445 102.605 249.689 102.605 249.84 102.694L252.321 104.16ZM248.773 106.272C248.923 106.361 248.924 106.506 248.774 106.595L246.308 108.062C246.159 108.151 245.915 108.151 245.765 108.062L241.033 105.264C240.882 105.175 240.882 105.031 241.031 104.942L243.497 103.474C243.646 103.385 243.891 103.385 244.041 103.474L248.773 106.272ZM245.224 108.384C245.375 108.473 245.375 108.618 245.226 108.707L242.76 110.174C242.611 110.263 242.366 110.263 242.216 110.174L239.734 108.707C239.584 108.618 239.583 108.473 239.733 108.384L242.198 106.917C242.348 106.828 242.592 106.828 242.743 106.917L245.224 108.384ZM238.644 108.062L236.162 106.595C236.012 106.506 236.01 106.361 236.16 106.272L238.626 104.805C238.775 104.716 239.02 104.716 239.17 104.805L241.652 106.272C241.802 106.361 241.803 106.506 241.653 106.595L239.188 108.062C239.039 108.151 238.794 108.151 238.644 108.062ZM211.917 96.4708C211.767 96.3819 211.766 96.2371 211.915 96.1482L214.381 94.6809C214.53 94.592 214.775 94.592 214.925 94.6809L217.407 96.1482C217.557 96.2371 217.558 96.3819 217.409 96.4708L214.943 97.9381C214.794 98.027 214.549 98.027 214.399 97.9381L211.917 96.4708ZM189.466 88.0487C189.616 88.1377 189.619 88.2816 189.47 88.3706L187.002 89.8391C186.853 89.928 186.61 89.9272 186.46 89.8383L183.978 88.371C183.827 88.2821 183.825 88.1381 183.974 88.0492L186.442 86.5806C186.591 86.4917 186.834 86.4925 186.984 86.5815L189.466 88.0487ZM197.625 79.2798C197.476 79.3687 197.231 79.3687 197.081 79.2798L194.599 77.8125C194.449 77.7236 194.448 77.5788 194.598 77.4899L197.064 76.0226C197.213 75.9337 197.457 75.9337 197.608 76.0226L200.09 77.4899C200.24 77.5788 200.241 77.7236 200.091 77.8125L197.625 79.2798ZM191.027 75.7004C190.877 75.6114 190.876 75.4666 191.025 75.3777L193.491 73.9104C193.64 73.8215 193.885 73.8215 194.035 73.9104L196.517 75.3777C196.667 75.4666 196.668 75.6114 196.519 75.7004L194.053 77.1676C193.904 77.2565 193.659 77.2565 193.509 77.1676L191.027 75.7004ZM194.576 73.5886C194.426 73.4997 194.425 73.3548 194.574 73.2659L197.04 71.7986C197.189 71.7097 197.434 71.7097 197.584 71.7986L202.317 74.5973C202.468 74.6862 202.467 74.8301 202.317 74.9191L199.852 76.3863C199.702 76.4753 199.46 76.4761 199.309 76.3872L194.576 73.5886ZM200.398 77.0308C200.247 76.9419 200.248 76.7979 200.398 76.709L202.864 75.2417C203.013 75.1528 203.256 75.152 203.406 75.2409L205.888 76.7082C206.038 76.7971 206.039 76.9419 205.889 77.0308L203.424 78.4981C203.274 78.587 203.03 78.587 202.88 78.4981L200.398 77.0308ZM203.97 79.1426C203.819 79.0537 203.819 78.9089 203.968 78.82L206.434 77.3527C206.583 77.2637 206.828 77.2637 206.978 77.3527L209.46 78.82C209.61 78.9089 209.611 79.0537 209.462 79.1426L206.996 80.6099C206.847 80.6988 206.602 80.6988 206.452 80.6099L203.97 79.1426ZM203.661 79.6012C203.811 79.6902 203.812 79.835 203.663 79.9239L201.197 81.3912C201.047 81.4801 200.803 81.4801 200.653 81.3912L198.171 79.9239C198.02 79.835 198.02 79.6902 198.169 79.6012L200.635 78.134C200.784 78.045 201.028 78.045 201.179 78.134L203.661 79.6012ZM204.225 83.5034L201.743 82.0361C201.591 81.9463 201.592 81.8024 201.741 81.7134L204.207 80.2461C204.356 80.1572 204.599 80.1564 204.751 80.2461L207.233 81.7134C207.383 81.8024 207.382 81.9463 207.233 82.0352L204.767 83.5025C204.618 83.591 204.375 83.5923 204.225 83.5034ZM199.336 81.5758C199.486 81.4869 199.73 81.4869 199.881 81.5758L202.362 83.0431C202.513 83.132 202.514 83.2768 202.364 83.3657L199.898 84.833C199.749 84.9219 199.505 84.9219 199.354 84.833L196.872 83.3657C196.722 83.2768 196.721 83.132 196.871 83.0431L199.336 81.5758ZM207.541 81.2544C207.391 81.1655 207.39 81.0206 207.54 80.9317L210.006 79.4645C210.155 79.3755 210.399 79.3755 210.55 79.4645L213.032 80.9317C213.182 81.0206 213.183 81.1655 213.033 81.2544L210.568 82.7217C210.418 82.8106 210.174 82.8106 210.024 82.7217L207.541 81.2544ZM193.3 81.2544C193.15 81.1655 193.15 81.0215 193.3 80.9326L195.766 79.4653C195.915 79.3764 196.158 79.3755 196.308 79.4645L198.79 80.9317C198.94 81.0206 198.941 81.1655 198.792 81.2544L196.326 82.7217C196.177 82.8106 195.932 82.8106 195.782 82.7217L193.3 81.2544ZM187.478 77.8121C187.328 77.7232 187.327 77.5784 187.477 77.4894L189.942 76.0222C190.092 75.9332 190.336 75.9332 190.487 76.0222L195.22 78.8208C195.37 78.9097 195.37 79.0537 195.22 79.1426L192.754 80.6099C192.605 80.6988 192.362 80.6997 192.212 80.6107L187.478 77.8121ZM183.93 79.9243C183.779 79.8354 183.779 79.6906 183.928 79.6016L186.394 78.1344C186.543 78.0454 186.788 78.0454 186.938 78.1344L192.405 81.3666C192.555 81.4555 192.555 81.5995 192.405 81.6884L189.939 83.1557C189.79 83.2446 189.547 83.2455 189.396 83.1566L183.93 79.9243ZM190.485 83.7998C190.335 83.7109 190.336 83.5669 190.485 83.478L192.951 82.0107C193.1 81.9218 193.343 81.9209 193.494 82.0098L195.977 83.4784C196.128 83.5673 196.127 83.7113 195.977 83.8002L193.511 85.2675C193.362 85.3564 193.119 85.3573 192.969 85.2683L190.485 83.7998ZM182.322 83.8252C182.472 83.9141 182.475 84.0581 182.326 84.147L179.858 85.6156C179.709 85.7045 179.466 85.7036 179.316 85.6147L176.834 84.1474C176.684 84.0585 176.681 83.9145 176.83 83.8256L179.298 82.3571C179.447 82.2681 179.69 82.269 179.84 82.3579L182.322 83.8252ZM180.383 82.0348C180.232 81.9459 180.23 81.8019 180.379 81.713L182.845 80.2457C182.994 80.1568 183.239 80.1568 183.389 80.2457L190.672 84.5514C190.822 84.6404 190.821 84.7843 190.672 84.8732L188.206 86.3405C188.057 86.4294 187.816 86.4294 187.665 86.3405L180.383 82.0348ZM211.113 83.3662C210.963 83.2772 210.963 83.1324 211.112 83.0435L213.578 81.5762C213.727 81.4873 213.971 81.4873 214.122 81.5762L216.604 83.0435C216.754 83.1324 216.755 83.2772 216.605 83.3662L214.14 84.8339C213.99 84.9228 213.746 84.9228 213.595 84.8339L211.113 83.3662ZM210.805 83.8248C210.955 83.9137 210.954 84.0577 210.805 84.1466L208.339 85.6139C208.19 85.7028 207.947 85.7036 207.797 85.6147L205.313 84.1462C205.163 84.0573 205.164 83.9133 205.313 83.8243L207.779 82.3571C207.929 82.2681 208.171 82.2673 208.322 82.3562L210.805 83.8248ZM214.685 85.4779C214.535 85.389 214.534 85.2442 214.684 85.1553L217.15 83.6876C217.299 83.5986 217.543 83.5986 217.693 83.6876L220.175 85.1548C220.326 85.2438 220.326 85.3886 220.177 85.4775L217.711 86.9448C217.562 87.0337 217.318 87.0337 217.167 86.9448L214.685 85.4779ZM202.926 86.9452L200.444 85.4779C200.294 85.389 200.293 85.2442 200.443 85.1553L202.908 83.688C203.058 83.5991 203.302 83.5991 203.453 83.688L205.934 85.1553C206.085 85.2442 206.086 85.389 205.936 85.4779L203.47 86.9452C203.321 87.0341 203.077 87.0341 202.926 86.9452ZM197.083 87.3793C196.934 87.4682 196.691 87.469 196.539 87.3793L194.057 85.912C193.907 85.8231 193.908 85.6791 194.057 85.5902L196.523 84.1229C196.672 84.034 196.915 84.0331 197.065 84.122L199.547 85.5893C199.699 85.6791 199.699 85.8231 199.549 85.912L197.083 87.3793ZM214.377 85.9365C214.527 86.0255 214.527 86.1694 214.377 86.2584L211.911 87.7257C211.762 87.8146 211.519 87.8154 211.369 87.7265L208.885 86.258C208.735 86.169 208.736 86.025 208.885 85.9361L211.351 84.4688C211.501 84.3799 211.743 84.3791 211.894 84.468L214.377 85.9365ZM188.753 86.9842C188.603 86.8953 188.603 86.7525 188.752 86.6632L191.218 85.1959C191.367 85.107 191.61 85.1061 191.76 85.1951L194.243 86.6636C194.394 86.7525 194.393 86.8965 194.244 86.9854L191.778 88.4527C191.629 88.5416 191.388 88.5416 191.237 88.4527L188.753 86.9842ZM218.257 87.5897C218.107 87.5008 218.107 87.356 218.256 87.267L220.722 85.7993C220.871 85.7104 221.115 85.7104 221.266 85.7993L223.748 87.2666C223.898 87.3555 223.899 87.5004 223.749 87.5893L221.284 89.057C221.134 89.1459 220.89 89.1459 220.74 89.057L218.257 87.5897ZM197.629 88.0238C197.479 87.9348 197.478 87.79 197.628 87.7011L200.093 86.2334C200.243 86.1445 200.487 86.1445 200.637 86.2334L203.119 87.7007C203.269 87.7896 203.271 87.9344 203.121 88.0233L200.655 89.491C200.506 89.58 200.261 89.58 200.111 89.491L197.629 88.0238ZM217.947 88.0475C218.099 88.1372 218.098 88.2812 217.949 88.3701L215.483 89.8374C215.334 89.9263 215.091 89.9272 214.939 89.8374L212.457 88.3701C212.307 88.2812 212.308 88.1372 212.457 88.0483L214.923 86.581C215.072 86.4921 215.315 86.4913 215.465 86.5802L217.947 88.0475ZM197.816 88.775C197.966 88.8639 197.966 89.0079 197.816 89.0968L195.35 90.5645C195.201 90.6534 194.96 90.6534 194.809 90.5645L192.325 89.096C192.175 89.007 192.175 88.8643 192.324 88.7754L194.79 87.3081C194.939 87.2192 195.182 87.2183 195.332 87.3073L197.816 88.775ZM221.829 89.7015C221.679 89.6126 221.679 89.4677 221.828 89.3788L224.294 87.9115C224.443 87.8226 224.687 87.8226 224.837 87.9115L227.319 89.3788C227.47 89.4677 227.47 89.6126 227.321 89.7015L224.855 91.1688C224.706 91.2577 224.462 91.2577 224.311 91.1688L221.829 89.7015ZM210.052 87.9115C210.202 87.8226 210.446 87.8226 210.596 87.9115L213.078 89.3788C213.228 89.4677 213.229 89.6126 213.08 89.7015L210.614 91.1688C210.465 91.2577 210.22 91.2577 210.07 91.1688L207.588 89.7011C207.438 89.6121 207.437 89.4673 207.587 89.3784L210.052 87.9115ZM204.227 91.6028C204.078 91.6917 203.833 91.6917 203.683 91.6028L201.201 90.1355C201.05 90.0466 201.05 89.9018 201.199 89.8129L203.665 88.3456C203.814 88.2567 204.059 88.2567 204.209 88.3456L206.691 89.8129C206.841 89.9018 206.842 90.0466 206.692 90.1355L204.227 91.6028ZM218.511 91.9496L216.029 90.4823C215.879 90.3934 215.878 90.2486 216.027 90.1597L218.493 88.6924C218.642 88.6035 218.887 88.6035 219.037 88.6924L221.519 90.1597C221.671 90.2494 221.67 90.3934 221.521 90.4823L219.055 91.9496C218.905 92.0385 218.663 92.0394 218.511 91.9496ZM193.764 90.5895C193.914 90.6784 193.916 90.8224 193.767 90.9113L191.3 92.3799C191.15 92.4688 190.907 92.4679 190.757 92.379L187.549 90.4828C187.398 90.393 187.397 90.2499 187.546 90.1609L190.013 88.6924C190.163 88.6035 190.404 88.6035 190.556 88.6932L193.764 90.5895ZM195.897 91.2077C195.747 91.1188 195.746 90.9757 195.896 90.8867L198.362 89.4195C198.511 89.3305 198.754 89.3297 198.904 89.4186L201.386 90.8859C201.538 90.9757 201.537 91.1196 201.388 91.2086L198.922 92.6758C198.773 92.7648 198.532 92.7648 198.379 92.675L195.897 91.2077ZM225.401 91.8133C225.249 91.7235 225.25 91.5795 225.399 91.4906L227.865 90.0229C228.015 89.934 228.257 89.9331 228.409 90.0229L230.891 91.4902C231.042 91.5791 231.04 91.7231 230.891 91.812L228.425 93.2793C228.276 93.3682 228.033 93.369 227.883 93.2801L225.401 91.8133ZM213.624 90.0233C213.773 89.9344 214.018 89.9344 214.168 90.0233L216.65 91.4906C216.8 91.5795 216.801 91.7243 216.651 91.8133L214.186 93.2805C214.036 93.3695 213.792 93.3695 213.642 93.2805L211.16 91.8133C211.01 91.7243 211.008 91.5795 211.158 91.4906L213.624 90.0233ZM207.799 93.7146C207.65 93.8035 207.405 93.8035 207.255 93.7146L204.773 92.2473C204.623 92.1584 204.622 92.0136 204.771 91.9246L207.237 90.4574C207.386 90.3684 207.631 90.3684 207.781 90.4574L210.263 91.9246C210.414 92.0136 210.415 92.1584 210.265 92.2473L207.799 93.7146ZM225.091 92.271C225.241 92.3599 225.242 92.5048 225.093 92.5937L222.627 94.061C222.477 94.1499 222.233 94.1499 222.083 94.061L219.601 92.5937C219.45 92.5048 219.45 92.3599 219.599 92.271L222.065 90.8037C222.214 90.7148 222.459 90.7148 222.609 90.8037L225.091 92.271ZM199.469 93.3195C199.319 93.2306 199.317 93.0866 199.466 92.9977L201.932 91.5304C202.081 91.4415 202.326 91.4415 202.476 91.5304L204.958 92.9977C205.108 93.0866 205.109 93.2314 204.959 93.3203L202.494 94.7876C202.344 94.8765 202.102 94.8757 201.951 94.7868L199.469 93.3195ZM228.971 93.9242C228.821 93.8353 228.822 93.6913 228.971 93.6024L231.437 92.1351C231.587 92.0462 231.829 92.0453 231.979 92.1342L234.463 93.6028C234.613 93.6917 234.613 93.8357 234.463 93.9246L231.997 95.3923C231.848 95.4812 231.605 95.4821 231.455 95.3932L228.971 93.9242ZM217.214 95.3927L214.732 93.9255C214.582 93.8365 214.581 93.6917 214.731 93.6028L217.196 92.1355C217.346 92.0466 217.59 92.0466 217.741 92.1355L220.223 93.6028C220.373 93.6917 220.374 93.8365 220.224 93.9255L217.758 95.3927C217.609 95.4812 217.364 95.4812 217.214 95.3927ZM211.371 95.8263C211.222 95.9153 210.977 95.9153 210.827 95.8263L208.345 94.3591C208.194 94.2701 208.194 94.1253 208.343 94.0364L210.809 92.5691C210.958 92.4802 211.203 92.4802 211.353 92.5691L213.835 94.0364C213.985 94.1253 213.986 94.2701 213.837 94.3591L211.371 95.8263ZM209.638 99.0112C209.489 99.1001 209.244 99.1001 209.094 99.0112L206.612 97.5439C206.462 97.455 206.461 97.3101 206.61 97.2212L209.076 95.7539C209.225 95.665 209.47 95.665 209.62 95.7539L212.102 97.2212C212.252 97.3101 212.253 97.455 212.103 97.5439L209.638 99.0112ZM228.663 94.3828C228.813 94.4717 228.814 94.6165 228.665 94.7055L226.199 96.1727C226.049 96.2617 225.805 96.2617 225.655 96.1727L223.173 94.7055C223.023 94.6165 223.022 94.4717 223.171 94.3828L225.637 92.9151C225.786 92.8262 226.031 92.8262 226.181 92.9151L228.663 94.3828ZM203.041 95.4313C202.891 95.3423 202.888 95.1984 203.038 95.1094L205.504 93.6422C205.653 93.5532 205.897 93.5532 206.047 93.6422L208.529 95.1094C208.68 95.1984 208.68 95.3432 208.531 95.4321L206.065 96.8994C205.916 96.9883 205.673 96.9875 205.523 96.8985L203.041 95.4313ZM232.543 96.036C232.393 95.947 232.394 95.8031 232.543 95.7141L235.009 94.2469C235.159 94.1579 235.401 94.1571 235.552 94.246L238.035 95.7146C238.186 95.8035 238.185 95.9475 238.035 96.0364L235.57 97.5037C235.42 97.5926 235.178 97.5934 235.027 97.5045L232.543 96.036ZM220.768 94.2469C220.917 94.1579 221.16 94.1571 221.312 94.2469L223.794 95.7141C223.944 95.8031 223.943 95.947 223.794 96.036L221.328 97.5032C221.179 97.5922 220.936 97.593 220.786 97.5041L218.304 96.0368C218.152 95.947 218.152 95.8031 218.302 95.7141L220.768 94.2469ZM229.227 98.2849L226.745 96.8177C226.595 96.7287 226.594 96.5839 226.743 96.495L229.209 95.0277C229.358 94.9388 229.603 94.9388 229.753 95.0277L232.235 96.495C232.385 96.5839 232.386 96.7287 232.237 96.8177L229.771 98.2849C229.621 98.3739 229.377 98.3739 229.227 98.2849ZM236.115 98.1477C235.965 98.0588 235.966 97.9148 236.115 97.8259L238.581 96.3586C238.731 96.2697 238.973 96.2689 239.123 96.3578L241.605 97.8251C241.757 97.9148 241.757 98.0588 241.607 98.1477L239.141 99.615C238.992 99.7039 238.749 99.7048 238.597 99.615L236.115 98.1477ZM224.34 96.3586C224.489 96.2697 224.732 96.2689 224.882 96.3578L227.366 97.8263C227.516 97.9153 227.515 98.0592 227.366 98.1482L224.9 99.6154C224.751 99.7044 224.508 99.7052 224.357 99.6163L221.874 98.1477C221.723 98.0588 221.724 97.9148 221.874 97.8259L224.34 96.3586ZM218.515 100.05C218.365 100.139 218.121 100.139 217.971 100.05L215.489 98.5826C215.339 98.4937 215.338 98.3489 215.487 98.26L217.953 96.7927C218.102 96.7038 218.347 96.7038 218.497 96.7927L220.979 98.26C221.13 98.3489 221.131 98.4937 220.981 98.5826L218.515 100.05ZM232.799 100.397L230.317 98.9294C230.167 98.8405 230.166 98.6957 230.315 98.6068L232.781 97.1395C232.93 97.0506 233.174 97.0506 233.325 97.1395L235.807 98.6068C235.957 98.6957 235.957 98.8405 235.808 98.9294L233.342 100.397C233.194 100.486 232.949 100.486 232.799 100.397ZM210.185 99.6548C210.035 99.5659 210.033 99.4219 210.182 99.333L212.648 97.8657C212.797 97.7768 213.041 97.7768 213.191 97.8657L215.673 99.333C215.823 99.4219 215.825 99.5667 215.675 99.6557L213.209 101.123C213.06 101.212 212.817 101.211 212.667 101.122L210.185 99.6548ZM227.93 101.728L225.446 100.26C225.296 100.171 225.296 100.027 225.446 99.9377L227.912 98.47C228.061 98.3811 228.304 98.3802 228.455 98.4691L230.938 99.9377C231.089 100.027 231.088 100.171 230.938 100.26L228.472 101.727C228.323 101.816 228.08 101.817 227.93 101.728ZM222.085 102.161C221.936 102.25 221.693 102.251 221.543 102.162L219.061 100.694C218.91 100.605 218.91 100.461 219.059 100.372L221.525 98.9045C221.674 98.8155 221.918 98.8155 222.069 98.9045L224.55 100.372C224.701 100.461 224.7 100.605 224.55 100.694L222.085 102.161ZM213.757 101.767C213.607 101.678 213.605 101.534 213.754 101.445L216.22 99.9775C216.369 99.8886 216.613 99.8886 216.764 99.9775L219.246 101.445C219.396 101.534 219.397 101.679 219.247 101.767L216.782 103.235C216.632 103.324 216.39 103.323 216.239 103.234L213.757 101.767ZM222.631 102.805C222.48 102.716 222.481 102.572 222.631 102.483L225.097 101.016C225.246 100.927 225.489 100.926 225.639 101.015L228.122 102.483C228.273 102.572 228.272 102.716 228.122 102.805L225.657 104.273C225.507 104.362 225.265 104.362 225.115 104.273L222.631 102.805ZM214.426 102.805C214.576 102.894 214.578 103.038 214.429 103.127L211.962 104.595C211.812 104.684 211.57 104.683 211.419 104.594L191.847 93.0231C191.697 92.9341 191.694 92.7902 191.844 92.7013L194.311 91.2327C194.46 91.1438 194.703 91.1446 194.854 91.2336L214.426 102.805ZM222.819 103.879L220.354 105.346C220.204 105.435 219.962 105.435 219.811 105.346L217.329 103.878C217.179 103.789 217.177 103.645 217.326 103.557L219.792 102.089C219.941 102 220.185 102 220.335 102.089L222.817 103.557C222.968 103.645 222.969 103.791 222.819 103.879ZM242.951 102.83C243.101 102.919 243.102 103.064 242.952 103.153L240.486 104.62C240.337 104.709 240.093 104.709 239.943 104.62L237.461 103.153C237.311 103.064 237.31 102.919 237.459 102.83L239.925 101.363C240.074 101.274 240.319 101.274 240.469 101.363L242.951 102.83ZM231.5 103.839L229.018 102.371C228.868 102.282 228.868 102.138 229.018 102.049L231.484 100.582C231.633 100.493 231.876 100.492 232.027 100.581L234.509 102.049C234.661 102.138 234.66 102.282 234.51 102.371L232.044 103.839C231.895 103.927 231.652 103.929 231.5 103.839ZM232.59 104.483C232.44 104.394 232.439 104.249 232.588 104.16L235.054 102.693C235.203 102.604 235.448 102.604 235.598 102.693L238.08 104.16C238.231 104.25 238.231 104.394 238.081 104.483L235.616 105.95C235.466 106.039 235.223 106.04 235.072 105.95L232.59 104.483ZM228.669 103.128C228.818 103.039 229.061 103.038 229.211 103.127L231.694 104.595C231.845 104.684 231.844 104.828 231.694 104.917L229.229 106.385C229.079 106.474 228.837 106.475 228.686 106.386L226.202 104.917C226.052 104.828 226.053 104.684 226.202 104.595L228.669 103.128ZM232.783 105.239L235.266 106.707C235.417 106.796 235.416 106.94 235.266 107.029L232.801 108.496C232.651 108.585 232.409 108.586 232.258 108.497L229.774 107.028C229.624 106.94 229.625 106.796 229.774 106.707L232.24 105.239C232.39 105.15 232.633 105.15 232.783 105.239ZM241.675 110.496C241.826 110.585 241.826 110.729 241.677 110.818L239.211 112.286C239.062 112.375 238.817 112.375 238.667 112.286L233.347 109.14C233.197 109.051 233.197 108.907 233.347 108.818L235.813 107.351C235.962 107.262 236.205 107.261 236.355 107.35L241.675 110.496ZM238.126 112.607C238.277 112.696 238.277 112.841 238.128 112.93L235.677 114.389C235.527 114.478 235.283 114.478 235.133 114.389L228.056 110.205C227.906 110.116 227.907 109.972 228.056 109.883L230.507 108.424C230.657 108.335 230.899 108.334 231.05 108.423L238.126 112.607ZM222.277 107.447C222.427 107.536 222.428 107.679 222.279 107.768L219.811 109.236C219.662 109.325 219.421 109.325 219.27 109.236L216.806 107.78C216.655 107.691 216.655 107.548 216.804 107.459L219.272 105.991C219.421 105.902 219.662 105.902 219.813 105.991L222.277 107.447ZM226.389 105.668C226.54 105.757 226.539 105.901 226.389 105.99L223.938 107.449C223.789 107.538 223.546 107.539 223.396 107.45C223.365 107.432 223.332 107.418 223.298 107.407L220.901 105.99C220.75 105.901 220.748 105.757 220.897 105.668L223.363 104.201C223.513 104.112 223.757 104.112 223.907 104.201L226.389 105.668ZM229.961 107.78C230.112 107.869 230.111 108.013 229.961 108.102L227.51 109.561C227.361 109.65 227.118 109.65 226.968 109.562L224.484 108.093C224.334 108.004 224.335 107.86 224.484 107.771L226.936 106.312C227.085 106.223 227.328 106.223 227.478 106.312L229.961 107.78ZM226.346 109.881C226.496 109.97 226.497 110.115 226.348 110.204L223.926 111.645C223.776 111.734 223.534 111.733 223.384 111.645L220.418 109.891C220.267 109.802 220.265 109.658 220.414 109.569L222.836 108.128C222.986 108.039 223.23 108.039 223.38 108.128L226.346 109.881ZM228.754 113.306C228.904 113.395 228.904 113.539 228.754 113.628L228.019 114.066C227.869 114.155 227.628 114.155 227.478 114.066L224.512 112.312C224.361 112.223 224.359 112.079 224.509 111.991L225.244 111.553C225.393 111.464 225.638 111.464 225.788 111.553L228.754 113.306ZM230.441 112.302C230.591 112.391 230.59 112.535 230.441 112.624L229.705 113.061C229.556 113.15 229.315 113.15 229.165 113.061L226.199 111.308C226.048 111.219 226.046 111.075 226.195 110.986L226.931 110.549C227.08 110.46 227.324 110.46 227.475 110.549L230.441 112.302ZM234.534 114.722C234.684 114.811 234.685 114.956 234.535 115.045L232.113 116.486C231.964 116.575 231.721 116.574 231.571 116.485L228.605 114.732C228.455 114.643 228.454 114.5 228.604 114.411L231.026 112.97C231.175 112.881 231.418 112.88 231.568 112.969L234.534 114.722ZM218.725 105.347C218.875 105.436 218.876 105.579 218.726 105.667L216.259 107.136C216.11 107.225 215.869 107.225 215.718 107.136L212.509 105.239C212.359 105.15 212.356 105.006 212.505 104.917L214.973 103.448C215.122 103.359 215.365 103.36 215.515 103.449L218.725 105.347ZM185.894 85.937C186.044 86.0259 186.047 86.1699 185.898 86.2588L183.43 87.7273C183.281 87.8163 183.038 87.8154 182.888 87.7265L180.406 86.2592C180.255 86.1703 180.253 86.0263 180.402 85.9374L182.87 84.4688C183.019 84.3799 183.262 84.3808 183.412 84.4697L185.894 85.937ZM206.48 85.7998C206.63 85.7108 206.874 85.7108 207.024 85.7998L209.506 87.267C209.657 87.356 209.657 87.5008 209.508 87.5897L207.042 89.057C206.893 89.1459 206.648 89.1459 206.498 89.057L204.016 87.5897C203.866 87.5008 203.864 87.356 204.014 87.267L206.48 85.7998ZM239.687 100.26C239.537 100.171 239.537 100.026 239.686 99.9368L242.152 98.4696C242.301 98.3806 242.545 98.3806 242.695 98.4696L245.177 99.9368C245.33 100.027 245.329 100.171 245.179 100.26L242.713 101.727C242.564 101.816 242.321 101.817 242.169 101.727L239.687 100.26Z" fill="#DFE9F7"/>
<path d="M200.352 28.0964L200.247 65.9445L256.571 99.2446L256.676 61.3966L200.352 28.0964Z" fill="url(#paint27_linear_613_2086)"/>
<path d="M200.247 65.9438L200.25 65.3743L256.575 98.6744L256.571 99.2439L200.247 65.9438Z" fill="url(#paint28_linear_613_2086)"/>
<path d="M198.849 23.9094C198.753 23.878 198.659 23.856 198.569 23.8467C198.561 23.8458 198.552 23.845 198.544 23.8441C198.448 23.8365 198.356 23.8412 198.27 23.8585C198.265 23.8594 198.261 23.8607 198.256 23.8619C198.168 23.8814 198.085 23.9123 198.01 23.9572L199.384 23.1175C199.387 23.1154 199.39 23.1137 199.393 23.112C199.421 23.0959 199.45 23.0819 199.479 23.0692C199.508 23.0565 199.538 23.0459 199.569 23.0366C199.589 23.0307 199.61 23.0265 199.63 23.0222C199.635 23.0214 199.64 23.0197 199.644 23.0188C199.651 23.0176 199.658 23.0154 199.665 23.0142C199.698 23.0082 199.733 23.004 199.768 23.0019C199.805 22.9998 199.842 22.9994 199.881 23.001C199.893 23.0015 199.906 23.004 199.918 23.0049C199.927 23.0057 199.935 23.0066 199.943 23.0074C199.965 23.0095 199.986 23.0104 200.008 23.0142C200.057 23.0218 200.107 23.0328 200.158 23.0468C200.179 23.0527 200.202 23.0629 200.223 23.0701C200.243 23.0764 200.263 23.0836 200.283 23.0912C200.308 23.1006 200.333 23.1069 200.359 23.1179C200.437 23.1514 200.517 23.1916 200.598 23.2399L259.196 57.8845C259.306 57.9497 259.413 58.0272 259.517 58.1123C259.551 58.1398 259.583 58.1716 259.616 58.2008C259.666 58.2457 259.718 58.2876 259.767 58.3367C259.788 58.3588 259.809 58.3837 259.831 58.4066C259.85 58.4269 259.869 58.4477 259.888 58.4688C259.909 58.493 259.932 58.5154 259.953 58.54C260.001 58.5959 260.047 58.6535 260.091 58.7128C260.107 58.7331 260.121 58.7547 260.137 58.7754C260.145 58.7864 260.152 58.7975 260.16 58.8085C260.175 58.8292 260.19 58.8491 260.204 58.8703C260.238 58.9198 260.271 58.9702 260.303 59.021C260.334 59.0697 260.363 59.1189 260.391 59.1684C260.394 59.1726 260.396 59.1769 260.398 59.1811C260.401 59.1849 260.403 59.1887 260.405 59.1925C260.427 59.2332 260.45 59.2738 260.471 59.3153C260.497 59.3645 260.521 59.414 260.545 59.4635C260.566 59.5089 260.587 59.5546 260.606 59.6003C260.607 59.6029 260.608 59.605 260.609 59.6071C260.611 59.6096 260.612 59.6122 260.613 59.6147C260.635 59.6668 260.656 59.7189 260.675 59.7714C260.696 59.826 260.715 59.8811 260.733 59.9361C260.742 59.9641 260.75 59.9916 260.758 60.0195C260.762 60.0314 260.765 60.0433 260.769 60.0551C260.774 60.0746 260.781 60.0945 260.786 60.1144C260.805 60.1813 260.821 60.2482 260.834 60.3147C260.843 60.3553 260.848 60.3956 260.855 60.4362C260.858 60.4574 260.862 60.4781 260.865 60.4989C260.868 60.5184 260.872 60.5379 260.874 60.5569C260.889 60.6725 260.897 60.7873 260.896 60.8991L260.782 102.267C260.78 102.991 260.403 103.66 259.792 104.023L259.405 104.275L259.523 61.7384C259.523 61.6079 259.511 61.4737 259.491 61.3382C259.488 61.3174 259.484 61.2963 259.481 61.2755C259.46 61.1489 259.432 61.0214 259.395 60.894C259.392 60.8825 259.388 60.8707 259.384 60.8593C259.343 60.7208 259.294 60.5827 259.236 60.4468C259.235 60.4443 259.234 60.4422 259.233 60.4396C259.173 60.3007 259.106 60.1644 259.031 60.0318C259.029 60.028 259.027 60.0242 259.025 60.0204C258.952 59.8912 258.872 59.7667 258.787 59.6473C258.779 59.6367 258.772 59.6257 258.764 59.6151C258.685 59.5072 258.602 59.4051 258.514 59.3081C258.496 59.2874 258.477 59.2666 258.458 59.2463C258.389 59.1726 258.316 59.1061 258.243 59.0409C258.21 59.0113 258.178 58.9791 258.144 58.9516C258.04 58.8669 257.933 58.789 257.823 58.7238L199.224 24.0792C199.116 24.0152 199.012 23.9686 198.909 23.9305C198.889 23.9229 198.869 23.9157 198.849 23.9094Z" fill="#ADBBFE"/>
<path d="M224.271 62.9763L224.266 65.1037L221.982 63.7536L221.988 61.6262L224.271 62.9763Z" fill="#F9CC38"/>
<path d="M224.266 65.1037L224.256 68.5417L221.973 67.1916L221.982 63.7537L224.266 65.1037Z" fill="#474EB8"/>
<path d="M237.33 63.0462L237.316 68.0932L235.033 66.7436L235.046 61.6965L237.33 63.0462Z" fill="#F9CC38"/>
<path d="M237.315 68.0936L237.293 76.2495L235.01 74.8998L235.032 66.7439L237.315 68.0936Z" fill="#474EB8"/>
<path d="M222.508 49.8708L222.505 50.8829L220.318 49.59L220.321 48.5779L222.508 49.8708Z" fill="white"/>
<path d="M222.514 47.7226L222.511 48.7351L220.324 47.4418L220.327 46.4297L222.514 47.7226Z" fill="white"/>
<path d="M228.628 61.3521L228.617 65.0821L226.334 63.732L226.345 60.0024L228.628 61.3521Z" fill="#F9CC38"/>
<path d="M228.618 65.0822L228.601 71.1108L226.318 69.7607L226.334 63.7322L228.618 65.0822Z" fill="#474EB8"/>
<path d="M232.96 68.5011L232.945 73.6786L230.665 72.3306L230.679 67.1531L232.96 68.5011Z" fill="#474EB8"/>
<path d="M232.969 65.2965L232.96 68.5013L230.68 67.1533L230.689 63.9485L232.969 65.2965Z" fill="#F9CC38"/>
<path d="M228.204 51.1685C228.3 51.225 228.396 51.3221 228.466 51.4443L228.51 51.5318L228.542 51.6297L228.562 51.7209L228.57 51.8083C228.57 51.9216 228.529 52.0107 228.464 52.0486C228.394 52.0897 228.303 52.0841 228.204 52.0256C228.105 51.9668 228.014 51.8652 227.945 51.7414C227.875 51.6245 227.84 51.4903 227.84 51.377L227.846 51.2979L227.864 51.2294L227.902 51.173L227.946 51.1371C228.014 51.0964 228.108 51.1121 228.204 51.1685Z" fill="#7EC8FF"/>
<path d="M232.714 53.8293C232.915 53.9481 233.078 54.2369 233.078 54.4737C233.077 54.7138 232.913 54.8096 232.712 54.6904L229.329 52.6907C229.128 52.5719 228.965 52.2831 228.966 52.0426C228.967 51.8058 229.13 51.7103 229.332 51.8292L232.714 53.8293Z" fill="#7EC8FF"/>
<path d="M227.13 50.5275C227.334 50.6484 227.497 50.9367 227.496 51.1736C227.496 51.4136 227.332 51.5095 227.128 51.3886L224.308 49.7216C224.104 49.6008 223.941 49.3124 223.942 49.0719C223.943 48.8351 224.106 48.7397 224.31 48.8605L227.13 50.5275Z" fill="#7EC8FF"/>
<path d="M230.131 54.453C230.335 54.5738 230.498 54.8622 230.497 55.099C230.496 55.3391 230.333 55.435 230.128 55.3141L224.302 51.8697C224.098 51.7489 223.935 51.4605 223.936 51.22C223.937 50.9832 224.1 50.8878 224.305 51.0082L230.131 54.453Z" fill="#7EC8FF"/>
<path d="M232.708 55.9772C232.909 56.096 233.072 56.3848 233.071 56.6216C233.071 56.8617 232.907 56.9575 232.706 56.8383L231.364 56.0453C231.163 55.9264 231.001 55.6377 231.001 55.3976C231.002 55.1608 231.165 55.0653 231.367 55.1841L232.708 55.9772Z" fill="#7EC8FF"/>
<path d="M220.313 51.728C220.414 51.7884 220.496 51.9326 220.496 52.0494L220.451 68.0798L240.426 79.8888C240.525 79.9476 240.606 80.0918 240.606 80.2086C240.606 80.3286 240.524 80.3766 240.425 80.3178L220.267 68.4C220.167 68.3412 220.086 68.197 220.086 68.077L220.131 51.834C220.132 51.7176 220.213 51.6696 220.313 51.728Z" fill="#7EC8FF"/>
<path d="M206.207 136.145C207.585 136.96 207.592 138.278 206.226 139.091L197.322 144.389C195.956 145.203 193.732 145.204 192.354 144.389L183.394 139.093C182.019 138.279 182.012 136.959 183.378 136.145L192.282 130.847C193.648 130.034 195.872 130.035 197.248 130.848L206.207 136.145Z" fill="#E3EBF6"/>
<path d="M206.207 134.772C207.585 135.587 207.592 136.905 206.226 137.718L197.322 143.016C195.956 143.83 193.732 143.831 192.354 143.016L183.394 137.719C182.019 136.906 182.012 135.586 183.378 134.772L192.282 129.474C193.648 128.661 195.872 128.662 197.248 129.475L206.207 134.772Z" fill="url(#paint29_linear_613_2086)"/>
<path d="M195.432 133.071L197.707 137.962L189.452 136.629L195.432 133.071Z" fill="#FFFEFF"/>
<path d="M206.226 137.718L197.323 143.017C195.956 143.83 193.732 143.831 192.354 143.017L183.395 137.72C182.703 137.31 182.357 136.773 182.358 136.236L182.356 136.933C182.355 137.47 182.701 138.008 183.393 138.417L192.352 143.714C193.73 144.528 195.954 144.527 197.321 143.714L206.224 138.415C206.903 138.011 207.243 137.483 207.244 136.954L207.246 136.257C207.245 136.786 206.905 137.314 206.226 137.718Z" fill="#031BA1"/>
<defs>
<linearGradient id="paint0_linear_613_2086" x1="108.977" y1="182.936" x2="108.977" y2="246.616" gradientUnits="userSpaceOnUse">
<stop stop-color="#E3E3E3"/>
<stop offset="1" stop-color="#6C86DD"/>
</linearGradient>
<linearGradient id="paint1_linear_613_2086" x1="36.4784" y1="153.16" x2="139.943" y2="220.732" gradientUnits="userSpaceOnUse">
<stop stop-color="#DFDAEF"/>
<stop offset="1" stop-color="#F2EFFA"/>
</linearGradient>
<linearGradient id="paint2_linear_613_2086" x1="111.785" y1="103.414" x2="75.4559" y2="161.028" gradientUnits="userSpaceOnUse">
<stop stop-color="#FAA803"/>
<stop offset="1" stop-color="#FA8213"/>
</linearGradient>
<linearGradient id="paint3_linear_613_2086" x1="99.3367" y1="140.206" x2="99.3367" y2="215.712" gradientUnits="userSpaceOnUse">
<stop stop-color="#54597B"/>
<stop offset="1" stop-color="#6C86DD"/>
</linearGradient>
<linearGradient id="paint4_linear_613_2086" x1="60.0786" y1="139.264" x2="60.0786" y2="215.806" gradientUnits="userSpaceOnUse">
<stop stop-color="#555C8B"/>
<stop offset="1" stop-color="#6C86DD"/>
</linearGradient>
<linearGradient id="paint5_linear_613_2086" x1="62.4938" y1="137.399" x2="62.4938" y2="142.155" gradientUnits="userSpaceOnUse">
<stop stop-color="#555C8B"/>
<stop offset="1" stop-color="#6C86DD"/>
</linearGradient>
<linearGradient id="paint6_linear_613_2086" x1="100.512" y1="167.975" x2="100.512" y2="205.184" gradientUnits="userSpaceOnUse">
<stop stop-color="#555C8B"/>
<stop offset="1" stop-color="#6C86DD"/>
</linearGradient>
<linearGradient id="paint7_linear_613_2086" x1="107.826" y1="173.008" x2="102.443" y2="159.777" gradientUnits="userSpaceOnUse">
<stop stop-color="#606475"/>
<stop offset="1" stop-color="#9499A9"/>
</linearGradient>
<linearGradient id="paint8_linear_613_2086" x1="108.465" y1="157.011" x2="115.518" y2="174.228" gradientUnits="userSpaceOnUse">
<stop stop-color="#D0D5E2"/>
<stop offset="1" stop-color="#9499A9"/>
</linearGradient>
<linearGradient id="paint9_linear_613_2086" x1="94.7108" y1="178.344" x2="89.3282" y2="165.112" gradientUnits="userSpaceOnUse">
<stop stop-color="#606475"/>
<stop offset="1" stop-color="#9499A9"/>
</linearGradient>
<linearGradient id="paint10_linear_613_2086" x1="95.3498" y1="162.383" x2="102.402" y2="179.601" gradientUnits="userSpaceOnUse">
<stop stop-color="#D0D5E2"/>
<stop offset="1" stop-color="#9499A9"/>
</linearGradient>
<linearGradient id="paint11_linear_613_2086" x1="81.8309" y1="183.583" x2="76.4484" y2="170.351" gradientUnits="userSpaceOnUse">
<stop stop-color="#606475"/>
<stop offset="1" stop-color="#9499A9"/>
</linearGradient>
<linearGradient id="paint12_linear_613_2086" x1="82.4723" y1="167.657" x2="89.5247" y2="184.875" gradientUnits="userSpaceOnUse">
<stop stop-color="#D0D5E2"/>
<stop offset="1" stop-color="#9499A9"/>
</linearGradient>
<linearGradient id="paint13_linear_613_2086" x1="69.117" y1="188.755" x2="63.7344" y2="175.523" gradientUnits="userSpaceOnUse">
<stop stop-color="#606475"/>
<stop offset="1" stop-color="#9499A9"/>
</linearGradient>
<linearGradient id="paint14_linear_613_2086" x1="69.7606" y1="172.864" x2="76.813" y2="190.082" gradientUnits="userSpaceOnUse">
<stop stop-color="#D0D5E2"/>
<stop offset="1" stop-color="#9499A9"/>
</linearGradient>
<linearGradient id="paint15_linear_613_2086" x1="257.977" y1="244.953" x2="257.977" y2="308.76" gradientUnits="userSpaceOnUse">
<stop stop-color="#E3E3E3"/>
<stop offset="1" stop-color="#6C86DD"/>
</linearGradient>
<linearGradient id="paint16_linear_613_2086" x1="185.478" y1="215.118" x2="289.065" y2="282.636" gradientUnits="userSpaceOnUse">
<stop stop-color="#DFDAEF"/>
<stop offset="1" stop-color="#F2EFFA"/>
</linearGradient>
<linearGradient id="paint17_linear_613_2086" x1="195.436" y1="223.521" x2="195.436" y2="237.628" gradientUnits="userSpaceOnUse">
<stop stop-color="#555C8B"/>
<stop offset="1" stop-color="#6C86DD"/>
</linearGradient>
<linearGradient id="paint18_linear_613_2086" x1="195.417" y1="223.21" x2="195.417" y2="237.659" gradientUnits="userSpaceOnUse">
<stop stop-color="#555C8B"/>
<stop offset="1" stop-color="#6C86DD"/>
</linearGradient>
<linearGradient id="paint19_linear_613_2086" x1="198.272" y1="223.17" x2="198.272" y2="239.657" gradientUnits="userSpaceOnUse">
<stop stop-color="#555C8B"/>
<stop offset="1" stop-color="#6C86DD"/>
</linearGradient>
<linearGradient id="paint20_linear_613_2086" x1="204.578" y1="223.169" x2="204.578" y2="229.521" gradientUnits="userSpaceOnUse">
<stop stop-color="#555C8B"/>
<stop offset="1" stop-color="#6C86DD"/>
</linearGradient>
<linearGradient id="paint21_linear_613_2086" x1="195.863" y1="256.889" x2="195.863" y2="259.438" gradientUnits="userSpaceOnUse">
<stop stop-color="#555C8B"/>
<stop offset="1" stop-color="#6C86DD"/>
</linearGradient>
<linearGradient id="paint22_linear_613_2086" x1="195.868" y1="257.238" x2="195.868" y2="259.403" gradientUnits="userSpaceOnUse">
<stop stop-color="#555C8B"/>
<stop offset="1" stop-color="#6C86DD"/>
</linearGradient>
<linearGradient id="paint23_linear_613_2086" x1="201.983" y1="258.808" x2="201.983" y2="262.06" gradientUnits="userSpaceOnUse">
<stop stop-color="#555C8B"/>
<stop offset="1" stop-color="#6C86DD"/>
</linearGradient>
<linearGradient id="paint24_linear_613_2086" x1="202.002" y1="258.909" x2="202.002" y2="262.05" gradientUnits="userSpaceOnUse">
<stop stop-color="#555C8B"/>
<stop offset="1" stop-color="#6C86DD"/>
</linearGradient>
<linearGradient id="paint25_linear_613_2086" x1="230.977" y1="105.46" x2="230.977" y2="168.711" gradientUnits="userSpaceOnUse">
<stop stop-color="#E3E3E3"/>
<stop offset="1" stop-color="#6C86DD"/>
</linearGradient>
<linearGradient id="paint26_linear_613_2086" x1="158.478" y1="75.8843" x2="261.523" y2="143.64" gradientUnits="userSpaceOnUse">
<stop stop-color="#DFDAEF"/>
<stop offset="1" stop-color="#F2EFFA"/>
</linearGradient>
<linearGradient id="paint27_linear_613_2086" x1="238.207" y1="28.2798" x2="238.207" y2="106.289" gradientUnits="userSpaceOnUse">
<stop stop-color="#555C8B"/>
<stop offset="1" stop-color="#6C86DD"/>
</linearGradient>
<linearGradient id="paint28_linear_613_2086" x1="238.139" y1="65.4616" x2="238.139" y2="102.597" gradientUnits="userSpaceOnUse">
<stop stop-color="#555C8B"/>
<stop offset="1" stop-color="#6C86DD"/>
</linearGradient>
<linearGradient id="paint29_linear_613_2086" x1="198.999" y1="128.408" x2="199.196" y2="145.087" gradientUnits="userSpaceOnUse">
<stop stop-color="#FFB244"/>
<stop offset="0.692155" stop-color="#F7D379" stop-opacity="0.8"/>
</linearGradient>
</defs>
</svg>
