<svg width="430" height="550" viewBox="0 0 430 550" fill="none" xmlns="http://www.w3.org/2000/svg">
<circle cx="155" cy="275" r="275" fill="url(#paint0_linear_278_25809)" fill-opacity="0.4"/>
<circle cx="127.5" cy="311.5" r="217.5" fill="url(#paint1_linear_278_25809)" fill-opacity="0.5"/>
<path d="M98 343.059V351.841C98 354.599 99.3281 357.357 101.984 358.933L177.416 403.482C184.62 407.757 193.497 407.757 200.703 403.482L280.016 356.038C282.625 354.49 283.946 351.8 283.992 349.09L284 349.088V340.186L98 343.059Z" fill="url(#paint2_linear_278_25809)"/>
<path d="M101.984 350.15L177.416 394.7C184.62 398.975 193.497 398.975 200.703 394.7L280.016 347.256C285.328 344.103 285.328 336.223 280.016 333.072L204.584 288.523C197.38 284.248 188.503 284.248 181.297 288.523L101.984 335.967C96.6719 339.118 96.6719 346.998 101.984 350.15Z" fill="url(#paint3_linear_278_25809)"/>
<path d="M221.674 340.908L190.317 359.011L158.96 340.908L190.317 322.803L221.674 340.908Z" fill="#96AAFF"/>
<path d="M231.529 340.734L194.525 362.099L157.52 340.734L194.525 319.37L231.529 340.734Z" fill="#E3EBF6"/>
<path d="M221.674 311.817L190.317 329.921L158.96 311.817L190.317 293.714L221.674 311.817Z" fill="url(#paint4_linear_278_25809)"/>
<path d="M190.315 329.921V358.262L221.673 340.158V311.817L190.315 329.921Z" fill="url(#paint5_linear_278_25809)"/>
<path d="M193.549 349.633V353.474L203.552 347.698V343.858L193.549 349.633Z" fill="url(#paint6_linear_278_25809)"/>
<path d="M158.96 340.158L190.317 358.262V329.921L158.96 311.817V340.158Z" fill="url(#paint7_linear_278_25809)"/>
<path d="M199.275 340.267L230.633 322.162L221.673 311.817L190.315 329.921L199.275 340.267Z" fill="#ADBBFE"/>
<path d="M158.96 311.817L190.316 293.714L181.357 283.368L150 301.473L158.96 311.817Z" fill="white"/>
<path d="M181.357 340.267L150 322.162L158.96 311.817L190.316 329.921L181.357 340.267Z" fill="white"/>
<path d="M221.673 311.817L190.315 293.714L199.275 283.368L230.633 301.473L221.673 311.817Z" fill="#ADBBFE"/>
<path d="M198.931 308.773C198.931 308.77 198.931 308.767 198.931 308.765C198.931 308.745 198.928 308.724 198.927 308.704C198.926 308.663 198.926 308.623 198.924 308.583C198.921 308.549 198.919 308.515 198.917 308.481C198.915 308.455 198.912 308.429 198.908 308.403C198.905 308.378 198.903 308.353 198.9 308.327C198.898 308.313 198.896 308.3 198.894 308.286C198.893 308.276 198.892 308.268 198.89 308.258C198.889 308.249 198.886 308.241 198.885 308.233C198.878 308.194 198.869 308.155 198.861 308.116C198.853 308.08 198.845 308.043 198.837 308.007C198.832 307.992 198.831 307.976 198.828 307.961C198.826 307.952 198.822 307.943 198.819 307.935C198.815 307.918 198.811 307.902 198.806 307.887C198.802 307.871 198.797 307.855 198.792 307.839C198.785 307.815 198.776 307.792 198.768 307.769C198.766 307.762 198.764 307.756 198.762 307.748C198.754 307.725 198.75 307.701 198.741 307.679C198.74 307.675 198.74 307.672 198.738 307.67C198.732 307.651 198.722 307.633 198.715 307.616C198.708 307.596 198.702 307.576 198.695 307.556C198.694 307.552 198.691 307.547 198.69 307.543C198.673 307.5 198.65 307.456 198.631 307.412C198.622 307.391 198.617 307.371 198.607 307.35C198.608 307.354 198.609 307.36 198.609 307.365C198.592 307.328 198.577 307.291 198.558 307.255C198.549 307.237 198.542 307.22 198.533 307.204C198.529 307.196 198.526 307.188 198.521 307.182C198.511 307.165 198.501 307.147 198.491 307.13C198.477 307.104 198.46 307.079 198.445 307.054C198.427 307.022 198.409 306.991 198.391 306.96C198.38 306.941 198.37 306.923 198.36 306.905C198.352 306.893 198.343 306.883 198.336 306.871C198.324 306.852 198.311 306.834 198.299 306.815C198.275 306.781 198.249 306.746 198.224 306.711C198.188 306.661 198.155 306.611 198.117 306.563C198.116 306.56 198.114 306.558 198.112 306.556C198.11 306.553 198.108 306.55 198.106 306.547V306.548C198.099 306.54 198.092 306.532 198.085 306.525C198.067 306.502 198.046 306.478 198.028 306.455C198.001 306.423 197.972 306.39 197.944 306.358C197.906 306.314 197.868 306.271 197.828 306.227C197.813 306.211 197.8 306.194 197.784 306.178C197.76 306.153 197.733 306.129 197.709 306.104C197.681 306.076 197.654 306.046 197.624 306.018C197.611 306.006 197.6 305.993 197.588 305.981C197.59 305.983 197.592 305.987 197.593 305.99C197.582 305.98 197.57 305.97 197.56 305.961C197.518 305.922 197.48 305.88 197.437 305.842C197.411 305.819 197.38 305.797 197.353 305.773C197.35 305.77 197.347 305.768 197.343 305.764C197.288 305.717 197.231 305.67 197.172 305.623C197.135 305.594 197.102 305.564 197.064 305.534C197.065 305.536 197.066 305.538 197.067 305.54C197.018 305.502 196.966 305.466 196.915 305.429C196.843 305.377 196.77 305.326 196.694 305.275C196.649 305.245 196.609 305.213 196.562 305.184C196.566 305.187 196.569 305.193 196.572 305.197C196.489 305.143 196.411 305.088 196.323 305.036C196.225 304.977 196.127 304.921 196.026 304.865C196.029 304.869 196.032 304.873 196.036 304.877C195.946 304.827 195.86 304.776 195.768 304.729C195.757 304.723 195.746 304.718 195.735 304.713C195.722 304.707 195.709 304.699 195.696 304.693C195.688 304.688 195.681 304.685 195.673 304.682C195.668 304.679 195.662 304.677 195.656 304.673C195.65 304.671 195.646 304.668 195.641 304.666C195.629 304.659 195.616 304.655 195.603 304.648C195.59 304.642 195.576 304.634 195.563 304.628C195.554 304.623 195.545 304.619 195.537 304.615C195.532 304.613 195.529 304.61 195.525 304.608C195.526 304.609 195.526 304.609 195.527 304.61H195.526C195.508 304.602 195.49 304.594 195.473 304.585C195.461 304.58 195.45 304.574 195.438 304.568C195.433 304.566 195.429 304.564 195.425 304.563C195.404 304.553 195.383 304.546 195.362 304.537C195.345 304.529 195.33 304.519 195.313 304.512C195.298 304.505 195.282 304.501 195.268 304.494C195.25 304.487 195.233 304.478 195.215 304.469C195.209 304.467 195.204 304.464 195.198 304.461C195.192 304.457 195.186 304.455 195.18 304.453C195.157 304.443 195.133 304.435 195.109 304.425C195.081 304.413 195.054 304.401 195.027 304.389C195.017 304.385 195.008 304.38 194.999 304.376L195 304.377L195.002 304.379C194.981 304.371 194.962 304.362 194.942 304.354C194.931 304.35 194.92 304.346 194.909 304.341C194.883 304.332 194.856 304.322 194.83 304.312C194.801 304.301 194.773 304.289 194.744 304.277C194.718 304.268 194.691 304.258 194.665 304.248C194.644 304.241 194.623 304.232 194.603 304.224C194.59 304.219 194.577 304.215 194.563 304.209C194.546 304.204 194.53 304.198 194.514 304.192C194.507 304.19 194.501 304.186 194.493 304.183C194.494 304.184 194.495 304.185 194.496 304.185C194.495 304.185 194.495 304.185 194.494 304.184C194.479 304.179 194.465 304.173 194.451 304.168C194.438 304.164 194.424 304.159 194.411 304.155C194.372 304.142 194.332 304.129 194.291 304.116C194.267 304.107 194.244 304.097 194.219 304.09C194.218 304.09 194.218 304.09 194.217 304.089C194.214 304.089 194.213 304.088 194.211 304.088C194.204 304.085 194.196 304.083 194.188 304.081C194.172 304.076 194.156 304.07 194.14 304.065C194.107 304.054 194.073 304.045 194.04 304.036C194.026 304.031 194.013 304.027 193.999 304.023C193.99 304.019 193.981 304.016 193.973 304.013C193.973 304.013 193.974 304.014 193.975 304.014C193.961 304.01 193.948 304.005 193.934 304.001C193.928 303.999 193.923 303.998 193.917 303.997C193.899 303.991 193.879 303.986 193.861 303.98C193.826 303.971 193.791 303.962 193.757 303.952C193.754 303.951 193.75 303.95 193.747 303.949C193.722 303.941 193.698 303.933 193.673 303.926C193.631 303.914 193.588 303.905 193.545 303.894C193.512 303.885 193.48 303.874 193.448 303.865L193.449 303.866C193.438 303.863 193.427 303.861 193.416 303.859C193.405 303.856 193.396 303.853 193.385 303.85C193.368 303.846 193.352 303.843 193.336 303.838C193.322 303.835 193.309 303.831 193.295 303.827C193.283 303.824 193.271 303.822 193.26 303.819C193.214 303.808 193.167 303.798 193.121 303.787C193.102 303.783 193.084 303.777 193.065 303.772C193.058 303.771 193.053 303.769 193.046 303.768C193.043 303.767 193.039 303.767 193.036 303.766C193.02 303.762 193.004 303.76 192.988 303.757C192.964 303.751 192.94 303.745 192.915 303.74C192.914 303.74 192.913 303.74 192.913 303.738C192.873 303.73 192.832 303.724 192.792 303.716C192.75 303.707 192.709 303.697 192.668 303.689C192.639 303.683 192.609 303.677 192.58 303.671C192.554 303.666 192.528 303.661 192.502 303.657C192.47 303.652 192.439 303.646 192.406 303.641C192.392 303.639 192.379 303.634 192.365 303.632C192.367 303.633 192.37 303.634 192.371 303.635C192.331 303.628 192.29 303.621 192.249 303.615C192.215 303.609 192.18 303.602 192.145 303.596C192.113 303.591 192.079 303.588 192.046 303.583C191.992 303.575 191.939 303.566 191.886 303.558C191.869 303.556 191.852 303.553 191.836 303.551C191.828 303.55 191.822 303.549 191.814 303.548C191.81 303.548 191.806 303.545 191.801 303.545C191.802 303.545 191.803 303.546 191.803 303.546C191.802 303.546 191.802 303.545 191.801 303.545C191.792 303.544 191.781 303.544 191.77 303.543C191.747 303.54 191.725 303.536 191.703 303.532C191.686 303.53 191.67 303.529 191.653 303.527C191.604 303.52 191.554 303.516 191.504 303.51C191.44 303.502 191.376 303.494 191.311 303.488C191.282 303.485 191.253 303.48 191.223 303.477C191.224 303.477 191.224 303.478 191.225 303.478C191.213 303.477 191.202 303.475 191.189 303.474C191.181 303.473 191.173 303.473 191.166 303.472C191.102 303.465 191.038 303.462 190.974 303.458C190.912 303.452 190.85 303.447 190.788 303.442C190.757 303.44 190.724 303.437 190.693 303.435C190.676 303.434 190.658 303.433 190.641 303.431C190.63 303.43 190.619 303.429 190.608 303.428C190.609 303.429 190.61 303.429 190.613 303.43C190.582 303.428 190.552 303.427 190.52 303.426C190.453 303.423 190.386 303.42 190.318 303.417C190.256 303.415 190.195 303.414 190.133 303.412C190.095 303.411 190.057 303.408 190.019 303.407C190.009 303.407 189.998 303.405 189.988 303.405C189.989 303.407 189.991 303.407 189.993 303.408C189.983 303.408 189.972 303.409 189.961 303.408C189.901 303.407 189.842 303.404 189.782 303.404C189.74 303.404 189.698 303.403 189.656 303.403C189.612 303.403 189.567 303.405 189.523 303.407C189.497 303.407 189.471 303.408 189.445 303.408C189.407 303.409 189.369 303.407 189.332 303.408C189.322 303.408 189.312 303.408 189.301 303.408C189.299 303.408 189.298 303.408 189.296 303.408C189.267 303.409 189.239 303.412 189.209 303.413C189.129 303.415 189.049 303.415 188.97 303.418C188.955 303.42 188.941 303.421 188.926 303.422C188.888 303.424 188.851 303.427 188.814 303.429C188.782 303.431 188.75 303.434 188.718 303.436C188.673 303.439 188.629 303.438 188.586 303.441C188.59 303.442 188.594 303.443 188.599 303.445C188.452 303.454 188.307 303.464 188.162 303.478C188.127 303.481 188.093 303.484 188.059 303.487C188.029 303.49 188.001 303.495 187.972 303.498C187.948 303.5 187.924 303.504 187.9 303.507C187.897 303.507 187.894 303.508 187.89 303.508C187.848 303.514 187.805 303.514 187.764 303.519C187.767 303.52 187.772 303.52 187.775 303.522C187.634 303.539 187.496 303.557 187.356 303.579C187.26 303.593 187.165 303.609 187.069 303.626C186.986 303.64 186.902 303.652 186.82 303.668C186.815 303.669 186.809 303.669 186.805 303.67C186.806 303.67 186.807 303.67 186.808 303.67C186.72 303.686 186.633 303.708 186.546 303.725C186.457 303.744 186.368 303.762 186.28 303.782C186.076 303.828 185.874 303.882 185.676 303.937C185.625 303.951 185.573 303.963 185.522 303.978C185.512 303.981 185.502 303.984 185.492 303.986C185.495 303.986 185.499 303.985 185.501 303.985C184.709 304.219 183.962 304.524 183.291 304.9C183.108 305.003 182.934 305.108 182.769 305.218C182.766 305.22 182.764 305.222 182.76 305.224C182.603 305.328 182.455 305.435 182.315 305.544C182.267 305.582 182.224 305.621 182.178 305.659C182.099 305.724 182.016 305.789 181.943 305.857C181.943 305.857 181.943 305.857 181.943 305.855C181.942 305.857 181.941 305.858 181.939 305.859C181.93 305.867 181.921 305.877 181.911 305.886C181.875 305.918 181.844 305.952 181.809 305.986C181.742 306.051 181.675 306.115 181.613 306.181C181.595 306.2 181.577 306.221 181.559 306.24C181.531 306.271 181.505 306.302 181.479 306.333C181.48 306.329 181.481 306.327 181.482 306.324C181.47 306.337 181.462 306.351 181.451 306.365C181.409 306.414 181.368 306.464 181.329 306.513C181.304 306.544 181.281 306.576 181.257 306.606C181.233 306.639 181.21 306.671 181.187 306.704C181.175 306.721 181.161 306.737 181.149 306.755C181.149 306.753 181.149 306.753 181.149 306.752C181.147 306.756 181.146 306.758 181.143 306.761C181.122 306.793 181.104 306.824 181.085 306.854C181.084 306.855 181.083 306.858 181.082 306.859C181.073 306.873 181.061 306.887 181.052 306.901C181.035 306.928 181.021 306.955 181.006 306.982C180.989 307.009 180.971 307.038 180.956 307.065C180.937 307.096 180.921 307.129 180.905 307.161C180.905 307.159 180.905 307.157 180.906 307.154C180.896 307.172 180.891 307.191 180.882 307.208C180.879 307.214 180.874 307.221 180.872 307.226C180.206 306.434 179.868 305.573 179.87 304.713C179.87 304.715 179.87 304.718 179.87 304.719C179.87 304.719 179.87 304.719 179.87 304.718C179.87 304.719 179.87 304.72 179.87 304.721C179.87 304.783 179.871 304.862 179.872 304.923L179.88 305.152C179.881 305.178 179.882 305.208 179.884 305.238C179.928 306.645 180.084 307.721 180.283 308.541C180.3 308.612 180.316 308.686 180.329 308.748L180.4 309.032C180.409 309.061 180.42 309.098 180.43 309.131C180.437 309.158 180.446 309.185 180.454 309.211C180.477 309.288 180.501 309.364 180.521 309.43L180.55 309.51C180.558 309.532 180.566 309.554 180.574 309.575L180.633 309.736C180.746 310.009 180.789 310.099 180.924 310.331C180.939 310.357 180.955 310.383 180.97 310.408C180.979 310.424 180.988 310.44 180.997 310.455C181.002 310.464 181.007 310.471 181.012 310.48C181.017 310.487 181.02 310.493 181.024 310.5C181.028 310.507 181.035 310.515 181.039 310.522C181.04 310.524 181.043 310.528 181.044 310.53C181.047 310.535 181.049 310.542 181.053 310.547C181.056 310.55 181.059 310.554 181.061 310.557C181.073 310.578 181.083 310.594 181.097 310.616C181.102 310.622 181.109 310.632 181.114 310.638C181.117 310.643 181.122 310.648 181.125 310.652C181.129 310.659 181.133 310.665 181.137 310.672C181.139 310.675 181.141 310.678 181.143 310.682C181.146 310.686 181.149 310.689 181.152 310.694C181.154 310.697 181.156 310.701 181.159 310.705C181.161 310.708 181.164 310.712 181.167 310.715C181.172 310.722 181.177 310.729 181.181 310.736C181.212 310.779 181.248 310.823 181.28 310.866C181.301 310.893 181.321 310.921 181.339 310.947C181.335 310.944 181.332 310.941 181.33 310.938C181.336 310.945 181.343 310.953 181.348 310.96C181.349 310.963 181.352 310.965 181.354 310.967C181.356 310.969 181.358 310.972 181.36 310.975C181.384 311.004 181.407 311.033 181.431 311.061C181.489 311.127 181.567 311.216 181.626 311.284C181.705 311.366 181.809 311.477 181.891 311.557L181.952 311.614C181.964 311.625 181.975 311.636 181.987 311.647L182.139 311.789C182.188 311.83 182.244 311.878 182.301 311.927C182.316 311.939 182.33 311.952 182.345 311.965C182.358 311.976 182.371 311.985 182.384 311.996C182.404 312.012 182.421 312.028 182.439 312.042C182.46 312.059 182.481 312.076 182.502 312.093L182.669 312.219C182.704 312.245 182.737 312.27 182.771 312.294L182.827 312.336C182.847 312.35 182.874 312.367 182.897 312.382C182.959 312.425 183.016 312.464 183.076 312.503C183.144 312.548 183.216 312.593 183.29 312.638C183.316 312.655 183.345 312.674 183.37 312.689C183.379 312.695 183.388 312.701 183.397 312.707L183.514 312.773C183.499 312.764 183.483 312.758 183.468 312.749L183.585 312.813C183.64 312.844 183.694 312.876 183.753 312.907C183.798 312.932 183.844 312.956 183.889 312.981L183.907 312.991C183.917 312.995 183.929 313.002 183.938 313.006C183.991 313.033 184.047 313.058 184.1 313.084C184.11 313.088 184.118 313.093 184.129 313.098C184.215 313.14 184.301 313.181 184.387 313.22C186.161 314.041 188.181 314.357 190.117 314.297C190.148 314.295 190.179 314.294 190.21 314.293C190.223 314.293 190.238 314.292 190.251 314.292C190.273 314.291 190.3 314.29 190.323 314.289C190.332 314.289 190.34 314.288 190.349 314.288C190.384 314.287 190.417 314.286 190.452 314.285C190.583 314.277 190.714 314.271 190.844 314.26C190.863 314.259 190.886 314.258 190.904 314.256H190.908C190.975 314.251 191.043 314.246 191.112 314.239C191.179 314.233 191.241 314.226 191.305 314.218C191.448 314.203 191.591 314.187 191.736 314.166C192.182 314.105 192.543 314.034 192.799 313.977L192.807 313.976C192.809 313.974 192.812 313.974 192.815 313.973C192.829 313.97 192.848 313.966 192.862 313.963C192.899 313.954 192.93 313.945 192.966 313.936C193.037 313.919 193.103 313.903 193.175 313.886C193.203 313.879 193.231 313.871 193.258 313.865C193.327 313.848 193.4 313.83 193.46 313.813L193.581 313.776C193.663 313.752 193.745 313.727 193.826 313.702C193.861 313.691 193.896 313.681 193.928 313.671L194.014 313.645C194.03 313.639 194.051 313.632 194.067 313.625C194.108 313.611 194.149 313.597 194.189 313.583L194.136 313.602C194.178 313.588 194.216 313.573 194.256 313.559C194.274 313.553 194.295 313.546 194.313 313.54C194.352 313.525 194.389 313.51 194.428 313.496C194.465 313.482 194.5 313.469 194.534 313.456C194.556 313.447 194.577 313.439 194.598 313.431C194.612 313.426 194.63 313.419 194.644 313.414L194.675 313.402L194.679 313.401L194.743 313.373C194.848 313.329 194.942 313.29 195.02 313.254C195.134 313.203 195.243 313.15 195.351 313.097C195.356 313.094 195.362 313.092 195.367 313.089C195.405 313.071 195.444 313.051 195.482 313.032C195.512 313.017 195.537 313.004 195.566 312.989C195.663 312.939 195.757 312.89 195.846 312.843C195.942 312.788 196.036 312.732 196.13 312.675C196.161 312.657 196.194 312.637 196.222 312.621C196.249 312.602 196.283 312.58 196.313 312.56C196.466 312.461 196.617 312.358 196.766 312.249C196.78 312.239 196.797 312.227 196.81 312.219L196.862 312.177C196.913 312.138 196.964 312.098 197.015 312.057C197.018 312.055 197.021 312.053 197.023 312.049L197.087 311.998C197.102 311.986 197.119 311.971 197.133 311.958C197.146 311.947 197.159 311.937 197.172 311.926C197.2 311.901 197.23 311.875 197.259 311.85C197.327 311.79 197.394 311.73 197.451 311.678L197.665 311.468C197.765 311.362 197.895 311.22 197.992 311.111C198.082 311.005 198.165 310.896 198.242 310.788C198.249 310.779 198.255 310.77 198.262 310.761C198.266 310.755 198.271 310.749 198.274 310.744C198.285 310.728 198.293 310.712 198.303 310.697C198.323 310.668 198.341 310.637 198.36 310.608C198.374 310.585 198.39 310.562 198.404 310.54C198.42 310.513 198.438 310.485 198.454 310.458C198.465 310.44 198.476 310.421 198.486 310.402C198.493 310.39 198.501 310.378 198.507 310.366C198.522 310.338 198.534 310.31 198.548 310.282C198.554 310.271 198.559 310.261 198.565 310.251C198.574 310.232 198.586 310.212 198.596 310.193C198.607 310.169 198.617 310.145 198.627 310.122C198.64 310.094 198.654 310.066 198.665 310.038C198.67 310.027 198.676 310.016 198.681 310.005C198.682 310.004 198.682 310.002 198.683 310.001C198.685 309.994 198.687 309.989 198.689 309.982C198.698 309.959 198.706 309.937 198.714 309.915C198.732 309.87 198.748 309.825 198.763 309.78C198.764 309.778 198.765 309.776 198.765 309.773C198.771 309.759 198.777 309.745 198.781 309.729C198.788 309.708 198.792 309.686 198.799 309.665C198.806 309.641 198.815 309.617 198.822 309.592C198.826 309.577 198.829 309.562 198.834 309.547C198.841 309.517 198.848 309.485 198.854 309.455C198.858 309.437 198.863 309.418 198.867 309.4C198.874 309.367 198.879 309.334 198.886 309.301C198.889 309.283 198.894 309.264 198.896 309.245C198.899 309.233 198.9 309.222 198.902 309.21C198.903 309.199 198.905 309.188 198.906 309.177C198.907 309.174 198.908 309.171 198.908 309.167C198.912 309.146 198.911 309.125 198.913 309.105C198.914 309.097 198.914 309.09 198.915 309.082C198.92 309.032 198.925 308.982 198.928 308.931C198.929 308.902 198.933 308.874 198.934 308.845C198.934 308.843 198.934 308.842 198.934 308.842C198.934 308.84 198.936 308.838 198.936 308.836C198.936 308.825 198.934 308.814 198.934 308.803C198.929 308.795 198.931 308.784 198.931 308.773Z" fill="#474EB8"/>
<path d="M204.865 302.046L204.869 301.893C204.973 300.322 204.506 298.746 203.528 297.312C201.544 294.3 197.573 292.34 193.111 291.677C193.075 291.672 193.04 291.666 193.004 291.661C192.726 291.621 192.447 291.587 192.167 291.557C192.092 291.549 192.017 291.54 191.942 291.532C191.659 291.505 191.374 291.483 191.089 291.466C191.015 291.461 190.941 291.457 190.867 291.453C190.733 291.446 190.598 291.444 190.464 291.44C190.388 291.437 190.311 291.434 190.236 291.432C190.142 291.43 190.047 291.427 189.952 291.426C189.909 291.426 189.866 291.427 189.823 291.427C189.643 291.426 189.467 291.427 189.292 291.43C189.218 291.431 189.144 291.431 189.069 291.433C188.811 291.44 188.562 291.453 188.317 291.467C188.231 291.472 188.144 291.478 188.056 291.484C187.833 291.501 187.615 291.518 187.405 291.54C187.293 291.55 187.181 291.563 187.069 291.576C186.989 291.586 186.906 291.594 186.827 291.605C186.82 291.606 186.812 291.607 186.805 291.607L186.745 291.615C186.698 291.621 186.654 291.627 186.609 291.634C186.441 291.657 186.274 291.682 186.106 291.708C186.034 291.72 185.961 291.73 185.891 291.742L185.783 291.759C185.715 291.771 185.641 291.785 185.565 291.799C185.449 291.82 185.334 291.844 185.218 291.867C185.146 291.881 185.076 291.896 185.009 291.91C184.987 291.915 184.967 291.919 184.947 291.924L185.091 291.89L184.745 291.965L184.657 291.986C184.575 292.005 184.493 292.025 184.411 292.046C184.337 292.063 184.266 292.082 184.199 292.098L184.108 292.12C184.096 292.123 184.086 292.127 184.075 292.131C183.956 292.161 183.848 292.189 183.762 292.212C183.745 292.216 183.725 292.223 183.708 292.228C183.698 292.232 183.688 292.234 183.678 292.236C183.655 292.242 183.635 292.25 183.613 292.256C183.527 292.281 183.439 292.309 183.348 292.337C182.79 292.502 182.253 292.69 181.747 292.899C181.64 292.943 181.525 292.993 181.406 293.046C181.285 293.099 181.161 293.149 181.043 293.204C180.996 293.226 180.949 293.25 180.902 293.272C180.861 293.29 180.818 293.31 180.779 293.327L180.461 293.492C180.425 293.51 180.386 293.528 180.351 293.546C180.45 293.494 180.549 293.442 180.633 293.397C180.549 293.442 180.449 293.495 180.349 293.547C180.321 293.562 180.291 293.576 180.262 293.592C180.228 293.61 180.192 293.628 180.158 293.648C180.1 293.678 180.039 293.711 179.987 293.738L179.986 293.739C180.039 293.711 180.098 293.679 180.156 293.649C180.148 293.653 180.14 293.659 180.131 293.663L179.984 293.74C179.985 293.74 179.985 293.739 179.986 293.739C179.972 293.747 179.954 293.755 179.94 293.763C179.846 293.817 179.742 293.88 179.636 293.945C179.522 294.012 179.418 294.08 179.31 294.147C179.179 294.229 179.05 294.311 178.936 294.382L178.873 294.428C178.656 294.575 178.459 294.719 178.277 294.862L178.248 294.882C178.224 294.903 178.195 294.927 178.168 294.948C178.08 295.019 177.985 295.091 177.907 295.159C177.744 295.299 177.598 295.432 177.458 295.564C177.416 295.601 177.372 295.64 177.334 295.675L177.249 295.764C177.1 295.909 176.969 296.047 176.847 296.18L176.813 296.216C176.807 296.223 176.801 296.231 176.794 296.238C176.441 296.629 176.193 296.961 176.031 297.211L175.672 297.782C175.507 298.072 175.448 298.178 175.321 298.469C175.012 299.122 174.874 299.614 174.816 299.901C174.813 299.919 174.809 299.938 174.805 299.956C174.716 300.321 174.69 300.531 174.622 301.093L174.596 301.7V301.742C174.596 301.776 174.596 301.809 174.597 301.843V301.871L174.612 302.226C174.621 302.347 174.638 302.509 174.65 302.63L174.701 302.982C174.706 303.013 174.714 303.05 174.72 303.085C174.723 303.094 174.724 303.104 174.726 303.114C174.744 303.207 174.764 303.304 174.78 303.386L174.807 303.496C174.815 303.527 174.822 303.556 174.83 303.587L174.867 303.734C174.877 303.769 174.89 303.81 174.902 303.849C174.923 303.925 174.946 303.998 174.969 304.069C174.976 304.093 174.985 304.12 174.992 304.143L175.001 304.171C175.172 304.683 175.359 305.079 175.493 305.325C175.497 305.334 175.502 305.342 175.508 305.35C175.567 305.461 175.634 305.581 175.688 305.68L175.9 306.027C175.988 306.163 176.114 306.339 176.206 306.472L176.474 306.821C176.592 306.966 176.758 307.154 176.882 307.295L177.016 307.436C177.055 307.477 177.095 307.517 177.134 307.557L177.219 307.646C177.315 307.74 177.43 307.846 177.544 307.951C177.603 308.005 177.662 308.061 177.721 308.113C177.741 308.13 177.764 308.152 177.782 308.168L178.212 308.523C178.458 308.71 178.795 308.95 179.049 309.127C179.379 309.335 179.825 309.603 180.164 309.796C185.522 312.695 193.86 312.732 199.263 309.848C199.346 309.802 199.458 309.742 199.542 309.695C199.646 309.638 199.761 309.569 199.877 309.498C199.88 309.495 199.883 309.494 199.885 309.492C199.98 309.435 200.072 309.377 200.165 309.319C200.222 309.283 200.274 309.25 200.333 309.212C200.389 309.177 200.445 309.142 200.495 309.109L200.672 308.985C200.738 308.939 200.804 308.892 200.872 308.843L201.03 308.732C201.072 308.699 201.122 308.659 201.167 308.623C201.267 308.548 201.367 308.466 201.469 308.383C201.536 308.328 201.605 308.272 201.664 308.224L201.744 308.152C201.815 308.09 201.885 308.025 201.957 307.96L202.075 307.853C202.138 307.793 202.211 307.72 202.282 307.647C202.345 307.584 202.408 307.522 202.47 307.455C202.49 307.434 202.515 307.409 202.535 307.389L202.858 307.025C202.881 306.998 202.9 306.975 202.919 306.951C202.934 306.933 202.949 306.914 202.964 306.896C203.046 306.797 203.103 306.723 203.177 306.624C203.186 306.613 203.196 306.6 203.204 306.589L203.459 306.23C203.472 306.211 203.486 306.188 203.5 306.167C203.523 306.133 203.545 306.099 203.567 306.065C203.614 305.992 203.66 305.919 203.7 305.856L203.712 305.834C203.716 305.826 203.721 305.818 203.726 305.811L203.76 305.75C203.818 305.653 203.873 305.556 203.925 305.459L203.927 305.455C203.975 305.365 204.009 305.301 204.039 305.24C204.342 304.634 204.547 304.041 204.675 303.476C204.705 303.347 204.724 303.249 204.737 303.182C204.737 303.18 204.738 303.179 204.738 303.177C204.745 303.139 204.752 303.101 204.758 303.064C204.774 302.973 204.785 302.907 204.797 302.809C204.798 302.8 204.801 302.79 204.802 302.781L204.809 302.717C204.816 302.663 204.822 302.609 204.828 302.554C204.832 302.515 204.836 302.474 204.842 302.426L204.846 302.37L204.85 302.294L204.854 302.251C204.855 302.228 204.857 302.205 204.858 302.182L204.861 302.136L204.862 302.076L204.866 302.015C204.867 302.028 204.866 302.037 204.865 302.046Z" fill="url(#paint8_linear_278_25809)"/>
<path d="M204.888 295.791L204.884 295.597C204.884 295.573 204.883 295.55 204.883 295.526L204.881 295.441L204.876 295.389C204.873 295.311 204.868 295.241 204.862 295.172C204.861 295.155 204.861 295.139 204.86 295.121C204.857 295.075 204.853 295.028 204.849 294.983C204.846 294.952 204.84 294.922 204.837 294.892C204.276 289.554 198.539 286.2 192.046 285.55C192.043 285.55 192.038 285.549 192.035 285.549C191.517 285.497 190.993 285.465 190.467 285.448C190.396 285.446 190.326 285.443 190.256 285.441C190.119 285.437 189.982 285.435 189.844 285.435C189.665 285.434 189.49 285.435 189.316 285.439C189.238 285.44 189.161 285.44 189.083 285.442C188.825 285.448 188.576 285.46 188.332 285.475C188.246 285.481 188.16 285.486 188.073 285.493C187.848 285.509 187.626 285.528 187.414 285.549C187.305 285.56 187.198 285.573 187.09 285.585C187.007 285.595 186.921 285.603 186.841 285.613C186.835 285.614 186.827 285.614 186.821 285.615L186.767 285.623C186.718 285.629 186.67 285.636 186.621 285.644C186.455 285.666 186.29 285.69 186.126 285.716C186.053 285.728 185.978 285.739 185.907 285.751L185.8 285.767C185.732 285.779 185.657 285.793 185.581 285.807C185.467 285.828 185.354 285.852 185.24 285.875C185.166 285.89 185.092 285.905 185.021 285.92C184.997 285.924 184.977 285.929 184.954 285.934L185.093 285.902L184.762 285.973L184.673 285.996C184.592 286.014 184.51 286.035 184.429 286.055C184.346 286.074 184.266 286.094 184.193 286.112L184.11 286.132C184.099 286.135 184.089 286.139 184.078 286.142C183.965 286.172 183.862 286.199 183.779 286.221C183.762 286.225 183.743 286.231 183.725 286.237C183.716 286.24 183.705 286.242 183.694 286.244C183.671 286.251 183.65 286.259 183.628 286.265C183.579 286.279 183.531 286.293 183.479 286.309C183.24 286.378 183.003 286.452 182.764 286.533C182.745 286.539 182.726 286.547 182.707 286.554C182.459 286.639 182.212 286.729 181.968 286.826C181.921 286.844 181.873 286.862 181.826 286.88L181.824 286.881C181.73 286.919 181.627 286.965 181.52 287.01C181.418 287.055 181.316 287.098 181.216 287.145C181.116 287.19 181.015 287.235 180.916 287.281C180.875 287.3 180.833 287.319 180.795 287.337L180.643 287.416C180.567 287.454 180.493 287.493 180.418 287.532C180.392 287.546 180.364 287.559 180.338 287.573C180.453 287.512 180.568 287.452 180.667 287.399C180.567 287.452 180.45 287.513 180.334 287.575C180.28 287.603 180.224 287.632 180.171 287.661C180.116 287.69 180.055 287.722 180.005 287.748C180.004 287.748 180.004 287.749 180.003 287.749C180.054 287.722 180.112 287.692 180.167 287.662C180.159 287.666 180.153 287.671 180.146 287.674L180.001 287.75C180.002 287.75 180.002 287.749 180.003 287.749C179.989 287.756 179.971 287.766 179.956 287.773C179.922 287.792 179.884 287.816 179.847 287.838C179.833 287.845 179.82 287.854 179.806 287.863C179.712 287.918 179.617 287.975 179.518 288.037C179.506 288.045 179.494 288.051 179.482 288.059C179.48 288.06 179.478 288.061 179.476 288.063C179.322 288.156 179.17 288.251 179.024 288.347C179 288.363 178.973 288.38 178.95 288.394L178.825 288.485C178.654 288.603 178.489 288.723 178.332 288.844L178.262 288.894C178.219 288.929 178.171 288.97 178.125 289.008C178.057 289.063 177.983 289.116 177.919 289.172C177.755 289.313 177.607 289.447 177.466 289.579C177.426 289.615 177.384 289.653 177.346 289.687L177.262 289.774C177.113 289.921 176.979 290.06 176.857 290.194L176.824 290.228C176.819 290.234 176.812 290.242 176.807 290.249C176.453 290.64 176.205 290.974 176.041 291.225L175.682 291.796C175.518 292.085 175.46 292.192 175.334 292.477C175.024 293.131 174.886 293.624 174.828 293.911C174.824 293.927 174.821 293.948 174.818 293.964C174.729 294.331 174.703 294.539 174.633 295.102L174.607 295.707V295.753C174.607 295.785 174.607 295.817 174.609 295.85V295.88L174.624 296.234C174.632 296.356 174.65 296.517 174.662 296.639L174.713 296.99C174.718 297.021 174.726 297.058 174.732 297.093C174.734 297.104 174.736 297.114 174.739 297.125C174.757 297.218 174.777 297.314 174.793 297.396L174.82 297.505C174.828 297.537 174.835 297.567 174.843 297.599L174.88 297.745C174.889 297.78 174.902 297.821 174.913 297.859C174.935 297.936 174.958 298.009 174.981 298.081C174.988 298.105 174.996 298.131 175.003 298.153L175.013 298.181C175.183 298.693 175.371 299.09 175.504 299.335C175.509 299.344 175.514 299.35 175.518 299.359C175.578 299.469 175.644 299.59 175.698 299.689L175.911 300.036C176 300.171 176.125 300.348 176.217 300.48L176.485 300.829C176.603 300.975 176.769 301.162 176.893 301.303L177.029 301.446C177.067 301.486 177.105 301.526 177.143 301.564L177.23 301.655C177.326 301.749 177.442 301.857 177.557 301.963C177.615 302.016 177.672 302.07 177.731 302.121C177.75 302.139 177.773 302.16 177.792 302.176L178.221 302.531C178.467 302.719 178.805 302.958 179.058 303.136C179.388 303.345 179.835 303.612 180.174 303.805C185.532 306.705 193.869 306.741 199.272 303.858C199.356 303.812 199.469 303.751 199.552 303.705C199.656 303.647 199.771 303.578 199.888 303.507C199.891 303.506 199.893 303.505 199.895 303.503C199.99 303.444 200.085 303.386 200.179 303.327C200.234 303.293 200.285 303.261 200.344 303.223C200.399 303.187 200.456 303.152 200.507 303.12L200.682 302.995C200.748 302.95 200.815 302.902 200.883 302.853L201.04 302.743C201.082 302.711 201.132 302.67 201.178 302.634C201.278 302.558 201.377 302.477 201.479 302.393C201.547 302.339 201.616 302.282 201.675 302.234L201.756 302.161C201.826 302.1 201.897 302.036 201.967 301.97L202.086 301.864C202.149 301.803 202.221 301.731 202.293 301.658C202.356 301.595 202.418 301.532 202.48 301.467C202.501 301.446 202.526 301.421 202.546 301.401L202.869 301.037C202.892 301.008 202.911 300.986 202.931 300.962C202.946 300.943 202.96 300.926 202.975 300.909C203.057 300.809 203.115 300.736 203.189 300.635C203.197 300.625 203.208 300.611 203.216 300.601L203.442 300.282C203.452 300.268 203.46 300.257 203.471 300.242C203.483 300.224 203.497 300.2 203.51 300.181C203.535 300.144 203.557 300.108 203.581 300.071C203.627 300 203.671 299.928 203.71 299.866L203.723 299.845C203.728 299.837 203.733 299.828 203.737 299.822L203.77 299.764C203.83 299.665 203.886 299.564 203.939 299.464C203.986 299.375 204.018 299.313 204.049 299.255C204.353 298.647 204.558 298.052 204.686 297.485C204.716 297.357 204.735 297.26 204.748 297.194C204.748 297.193 204.748 297.193 204.748 297.192C204.756 297.152 204.763 297.112 204.77 297.073C204.786 296.984 204.796 296.917 204.808 296.823C204.809 296.813 204.811 296.801 204.812 296.793L204.819 296.732C204.825 296.676 204.832 296.62 204.837 296.564L204.851 296.439L204.856 296.384L204.86 296.31L204.863 296.266C204.864 296.242 204.866 296.218 204.869 296.195L204.872 296.15L204.873 296.091L204.876 296.031C204.876 296.04 204.874 296.049 204.874 296.059L204.888 295.791Z" fill="url(#paint9_linear_278_25809)"/>
<path d="M224.811 255.256C224.808 255.153 224.806 255.05 224.803 254.947C224.793 254.661 224.78 254.371 224.762 254.07C224.754 253.939 224.744 253.809 224.735 253.679C224.728 253.567 224.719 253.458 224.711 253.349C224.705 253.287 224.701 253.227 224.695 253.165C224.497 249.137 223.424 245.193 221.684 241.532C220.937 239.893 220.026 238.234 218.909 236.587L218.843 236.481C218.804 236.428 218.762 236.369 218.722 236.315C218.299 235.694 217.867 235.094 217.471 234.584C217.114 234.125 216.69 233.623 216.243 233.119C216.111 232.956 215.981 232.799 215.856 232.649L214.963 231.722C214.674 231.417 214.393 231.127 214.133 230.861C213.403 230.117 212.346 229.206 211.518 228.572C211.224 228.347 210.899 228.108 210.558 227.864C210.288 227.664 209.989 227.442 209.643 227.186L208.239 226.284C208.059 226.167 207.884 226.054 207.717 225.948C207.643 225.901 207.519 225.825 207.359 225.729C200.925 221.796 190.202 219.059 179.073 222.723C179.031 222.736 178.99 222.751 178.949 222.765C178.56 222.895 178.17 223.033 177.781 223.178C177.682 223.215 177.585 223.251 177.486 223.288C177.303 223.359 177.119 223.429 176.936 223.503L176.913 223.512C176.85 223.538 176.778 223.569 176.71 223.598C176.616 223.637 176.523 223.676 176.428 223.716C176.312 223.765 176.197 223.811 176.081 223.861C175.624 224.06 175.167 224.267 174.709 224.488C174.471 224.604 174.218 224.732 173.958 224.866C173.842 224.926 173.727 224.987 173.613 225.048C173.499 225.108 173.384 225.17 173.267 225.234C173.147 225.299 173.025 225.364 172.907 225.43L172.837 225.466C172.784 225.497 172.724 225.535 172.669 225.566C172.663 225.569 172.655 225.574 172.649 225.578C172.158 225.858 171.69 226.14 171.246 226.421C171.231 226.43 171.216 226.44 171.202 226.449C170.975 226.593 170.753 226.737 170.538 226.881C170.496 226.909 170.455 226.936 170.412 226.964C170.364 226.994 170.309 227.029 170.263 227.058L170.102 227.176C170.032 227.224 169.963 227.272 169.894 227.321C169.616 227.514 169.336 227.715 169.053 227.924C169.146 227.854 169.24 227.783 169.319 227.722C169.224 227.795 169.115 227.876 169.005 227.959C168.864 228.063 168.724 228.169 168.582 228.277C168.522 228.322 168.462 228.367 168.409 228.408C168.389 228.424 168.365 228.446 168.344 228.462C164.541 231.418 160.411 235.839 157.756 242.222C157.553 242.694 157.37 243.148 157.205 243.58C157.189 243.616 157.176 243.647 157.161 243.684L157.134 243.766C156.259 246.086 155.913 247.705 155.9 247.769C155.875 247.885 155.85 248.009 155.825 248.129C155.596 249.094 155.462 249.832 155.324 250.813C155.186 251.663 155.072 252.503 155.017 253.238C154.87 255.184 154.87 256.482 154.924 257.884C154.924 257.891 154.924 257.9 154.924 257.907L154.925 257.938C154.946 258.457 154.973 258.991 155.004 259.58C155.007 259.644 155.014 259.739 155.023 259.86C155.301 264.837 156.609 271.986 161.146 278.453C161.344 278.74 161.536 279.01 161.719 279.254C162.069 279.725 162.42 280.169 162.771 280.59L162.824 280.658C162.83 280.666 162.839 280.674 162.845 280.682C163.509 281.476 164.165 282.178 164.799 282.804C164.815 282.822 164.833 282.841 164.85 282.858L164.898 282.903C165.328 283.325 165.746 283.711 166.146 284.063L166.199 284.111C166.859 284.687 167.107 284.901 167.773 285.393C168.376 285.855 168.898 286.222 169.301 286.504C169.702 286.786 170.275 287.15 170.899 287.523C170.898 287.578 170.892 287.632 170.892 287.686C170.892 287.675 170.892 287.662 170.892 287.652C170.892 287.668 170.892 287.683 170.892 287.698L170.894 287.939C170.894 287.875 170.893 287.798 170.893 287.726C170.894 287.808 170.896 287.894 170.9 287.984C170.904 288.104 170.909 288.221 170.916 288.332C170.918 288.4 170.921 288.472 170.923 288.532C170.926 288.562 170.931 288.597 170.934 288.629C170.938 288.7 170.945 288.77 170.951 288.835C170.951 288.84 170.952 288.845 170.952 288.851L170.955 288.865C170.968 288.996 170.986 289.13 171.01 289.283C171.013 289.306 171.016 289.335 171.02 289.357C171.023 289.378 171.027 289.395 171.031 289.415C171.039 289.472 171.049 289.529 171.059 289.584C171.064 289.614 171.067 289.639 171.074 289.672C171.077 289.686 171.082 289.702 171.084 289.716C171.125 289.93 171.172 290.137 171.224 290.339C171.231 290.37 171.239 290.398 171.247 290.429L171.262 290.489C171.266 290.5 171.27 290.515 171.273 290.526C171.316 290.682 171.355 290.816 171.392 290.932V290.934C171.437 291.079 171.478 291.198 171.511 291.29C171.512 291.291 171.512 291.293 171.513 291.294C171.662 291.715 171.829 292.097 171.998 292.437L172.033 292.513C172.044 292.534 172.058 292.558 172.068 292.578C172.101 292.641 172.132 292.702 172.165 292.762C172.194 292.817 172.222 292.87 172.252 292.923C172.269 292.957 172.288 292.993 172.303 293.025L172.376 293.146C172.522 293.398 172.662 293.626 172.795 293.827C173.012 294.163 173.342 294.616 173.832 295.163C173.837 295.169 173.843 295.177 173.848 295.184L173.918 295.256C174.104 295.469 174.268 295.641 174.469 295.833L174.504 295.87C174.555 295.918 174.597 295.957 174.643 296C174.714 296.067 174.784 296.135 174.856 296.201C174.874 296.218 174.89 296.234 174.909 296.252C175.063 296.395 175.221 296.529 175.379 296.661C175.464 296.732 175.551 296.804 175.638 296.873C175.658 296.89 175.68 296.906 175.701 296.922C176.5 297.558 177.346 298.101 178.197 298.552C178.297 298.605 178.4 298.66 178.505 298.713C178.673 298.801 178.845 298.884 179.017 298.968C179.095 299.006 179.178 299.043 179.259 299.081C179.454 299.174 179.656 299.263 179.864 299.353C179.96 299.393 180.052 299.435 180.148 299.474C180.388 299.572 180.631 299.665 180.878 299.752C180.903 299.76 180.923 299.767 180.947 299.776C180.961 299.781 180.977 299.787 180.991 299.793L181.095 299.828C181.143 299.844 181.195 299.862 181.241 299.878C181.374 299.923 181.506 299.971 181.642 300.014C182.143 300.182 182.547 300.302 183.261 300.481L183.25 300.478C183.256 300.479 183.26 300.481 183.264 300.482C183.281 300.486 183.294 300.489 183.31 300.494C183.322 300.497 183.334 300.499 183.347 300.502C183.351 300.503 183.357 300.504 183.361 300.507L183.385 300.512C183.615 300.568 183.838 300.619 184.054 300.666C184.069 300.669 184.084 300.672 184.099 300.676C184.208 300.699 184.313 300.72 184.415 300.741L184.448 300.748L184.56 300.771C184.571 300.773 184.585 300.776 184.597 300.778C184.958 300.847 185.257 300.898 185.466 300.931C188.131 301.376 191.178 301.473 194.395 300.897C194.572 300.867 194.753 300.833 194.941 300.797C195.026 300.782 195.11 300.764 195.195 300.747C195.271 300.732 195.346 300.716 195.423 300.7C195.485 300.687 195.54 300.675 195.591 300.663C197.644 300.228 199.576 299.548 201.271 298.619C201.321 298.592 201.372 298.566 201.422 298.539L201.498 298.5L201.656 298.412C201.79 298.334 201.949 298.241 202.126 298.135C202.239 298.066 202.343 298.001 202.447 297.936C202.504 297.901 202.562 297.867 202.614 297.835C202.645 297.814 202.682 297.789 202.715 297.766C202.756 297.739 202.795 297.713 202.834 297.687C202.863 297.668 202.897 297.647 202.925 297.629L202.96 297.604C203.606 297.17 204.019 296.833 204.243 296.635C204.285 296.597 204.334 296.553 204.381 296.511C204.518 296.393 204.655 296.274 204.794 296.144C204.859 296.085 204.922 296.025 204.983 295.968L204.984 295.967L204.985 295.966C205.093 295.861 205.197 295.757 205.3 295.651C205.364 295.585 205.427 295.519 205.49 295.45C205.546 295.39 205.604 295.328 205.664 295.262C205.669 295.256 205.676 295.249 205.68 295.242C205.698 295.222 205.716 295.203 205.734 295.184C205.787 295.124 205.839 295.061 205.892 294.999C206.005 294.869 206.116 294.732 206.228 294.591C206.282 294.523 206.336 294.456 206.389 294.385C206.39 294.384 206.39 294.383 206.391 294.382C206.422 294.342 206.45 294.299 206.479 294.257C206.563 294.142 206.643 294.029 206.721 293.915C206.802 293.795 206.882 293.675 206.959 293.55C207.074 293.366 207.183 293.183 207.283 293C207.318 292.937 207.351 292.872 207.385 292.807C207.452 292.68 207.515 292.554 207.575 292.428L207.583 292.41C207.584 292.408 207.584 292.407 207.585 292.405C207.587 292.403 207.589 292.4 207.59 292.396L207.596 292.382C207.603 292.369 207.609 292.355 207.616 292.342C207.616 292.341 207.617 292.341 207.617 292.34C207.643 292.285 207.668 292.229 207.692 292.174C207.711 292.132 207.732 292.088 207.749 292.047C207.751 292.042 207.754 292.036 207.756 292.031C207.763 292.012 207.77 291.996 207.777 291.978C207.812 291.897 207.845 291.817 207.877 291.738C207.886 291.716 207.895 291.695 207.902 291.674C207.905 291.666 207.908 291.66 207.911 291.652L207.928 291.612C207.923 291.624 207.918 291.635 207.913 291.647C207.943 291.568 207.977 291.488 208.005 291.411C208.056 291.278 208.096 291.161 208.14 291.019C208.165 290.941 208.187 290.865 208.21 290.788C208.217 290.767 208.221 290.75 208.227 290.727C208.23 290.721 208.232 290.713 208.234 290.707C208.25 290.649 208.269 290.592 208.284 290.535C208.339 290.34 208.389 290.13 208.432 289.919C208.435 289.909 208.437 289.899 208.439 289.889C208.469 289.739 208.496 289.593 208.515 289.461C208.516 289.455 208.516 289.447 208.517 289.441C208.547 289.245 208.57 289.061 208.588 288.888C208.594 288.828 208.601 288.767 208.606 288.708C208.609 288.682 208.611 288.661 208.615 288.635C208.616 288.611 208.617 288.581 208.618 288.555C208.624 288.459 208.631 288.355 208.635 288.242C208.636 288.23 208.636 288.219 208.636 288.207C208.639 288.159 208.641 288.11 208.642 288.058C208.645 287.965 208.647 287.877 208.649 287.8C208.649 287.745 208.644 287.69 208.643 287.635C208.837 287.521 209.024 287.407 209.221 287.282C209.398 287.171 209.581 287.052 209.8 286.904C210.355 286.545 210.868 286.19 211.339 285.848C211.366 285.829 211.39 285.813 211.417 285.793L211.498 285.729C212.023 285.341 212.495 284.968 212.916 284.619L212.925 284.611C212.927 284.609 212.93 284.606 212.933 284.604C213.986 283.725 214.721 282.993 215.17 282.545C215.432 282.283 215.683 282.017 215.927 281.751C215.959 281.717 215.992 281.681 216.023 281.645C216.161 281.494 216.295 281.344 216.426 281.193C220.117 277.005 223.675 270.644 224.588 261.054C224.597 260.963 224.605 260.87 224.614 260.777C224.647 260.412 224.677 260.043 224.702 259.669C224.729 259.265 224.754 258.849 224.772 258.417C224.778 258.294 224.783 258.169 224.786 258.044C224.807 257.478 224.819 256.891 224.82 256.281V256.26C224.82 256.263 224.82 256.265 224.82 256.269C224.82 256.259 224.82 256.249 224.82 256.239C224.827 255.93 224.82 255.596 224.811 255.256Z" fill="url(#paint10_linear_278_25809)"/>
<defs>
<linearGradient id="paint0_linear_278_25809" x1="247.755" y1="-17.0103" x2="260.148" y2="604.249" gradientUnits="userSpaceOnUse">
<stop stop-color="#FFB244"/>
<stop offset="0.692155" stop-color="#F7D379" stop-opacity="0.8"/>
</linearGradient>
<linearGradient id="paint1_linear_278_25809" x1="200.86" y1="80.5464" x2="210.662" y2="571.906" gradientUnits="userSpaceOnUse">
<stop stop-color="#FFB244"/>
<stop offset="0.692155" stop-color="#F7D379" stop-opacity="0.8"/>
</linearGradient>
<linearGradient id="paint2_linear_278_25809" x1="223.122" y1="340.357" x2="223.122" y2="413.272" gradientUnits="userSpaceOnUse">
<stop stop-color="#E3E3E3"/>
<stop offset="1" stop-color="#6C86DD"/>
</linearGradient>
<linearGradient id="paint3_linear_278_25809" x1="139.883" y1="306.263" x2="258.481" y2="383.931" gradientUnits="userSpaceOnUse">
<stop stop-color="#DFDAEF"/>
<stop offset="1" stop-color="#F2EFFA"/>
</linearGradient>
<linearGradient id="paint4_linear_278_25809" x1="201.148" y1="293.807" x2="201.148" y2="333.506" gradientUnits="userSpaceOnUse">
<stop stop-color="#9A9FBB"/>
<stop offset="1" stop-color="#6C86DD"/>
</linearGradient>
<linearGradient id="paint5_linear_278_25809" x1="211.41" y1="311.937" x2="211.41" y2="362.86" gradientUnits="userSpaceOnUse">
<stop stop-color="#282F5D"/>
<stop offset="1" stop-color="#6C86DD"/>
</linearGradient>
<linearGradient id="paint6_linear_278_25809" x1="200.278" y1="343.883" x2="200.432" y2="358.195" gradientUnits="userSpaceOnUse">
<stop stop-color="#3E477D"/>
<stop offset="1" stop-color="#6C86DD"/>
</linearGradient>
<linearGradient id="paint7_linear_278_25809" x1="180.054" y1="311.937" x2="180.054" y2="362.86" gradientUnits="userSpaceOnUse">
<stop stop-color="#555C8B"/>
<stop offset="1" stop-color="#6C86DD"/>
</linearGradient>
<linearGradient id="paint8_linear_278_25809" x1="194.97" y1="291.479" x2="194.97" y2="314.027" gradientUnits="userSpaceOnUse">
<stop stop-color="#555C8B"/>
<stop offset="1" stop-color="#6C86DD"/>
</linearGradient>
<linearGradient id="paint9_linear_278_25809" x1="194.977" y1="285.488" x2="194.977" y2="308.036" gradientUnits="userSpaceOnUse">
<stop stop-color="#555C8B"/>
<stop offset="1" stop-color="#6C86DD"/>
</linearGradient>
<linearGradient id="paint10_linear_278_25809" x1="201.65" y1="218.516" x2="203.728" y2="309.206" gradientUnits="userSpaceOnUse">
<stop stop-color="#FFB244"/>
<stop offset="0.692155" stop-color="#F7D379" stop-opacity="0.8"/>
</linearGradient>
</defs>
</svg>
