<svg width="264" height="296" viewBox="0 0 264 296" fill="none" xmlns="http://www.w3.org/2000/svg">
<path d="M72.8292 143.764L71.1839 142.808L71.0457 88.2576L72.691 89.2132L72.8292 143.764Z" fill="#BCC5DF"/>
<path d="M72.691 89.2132L71.0457 88.2576L141.893 47.3535L143.538 48.3098L72.691 89.2132Z" fill="white"/>
<path d="M143.538 48.3098L143.676 102.86L72.8294 143.764L72.6912 89.2132L143.538 48.3098Z" fill="#EEF1F8"/>
<g opacity="0.2">
<path d="M140.909 53.4201L74.7469 91.6175L74.6912 91.6499V105.541V126.634V140.525L141.077 102.199V88.3077V67.2149V53.3235L140.909 53.4201ZM140.853 95.1247L135.062 98.4683V91.7811L140.853 88.4375V95.1247ZM74.914 91.779L80.7049 88.4353V95.1226L74.914 98.4662V91.779ZM140.853 60.3972L135.062 63.7408V57.0536L140.853 53.71V60.3972ZM110.78 84.9641V91.6506L104.988 94.9949V88.3084L110.78 84.9641ZM104.988 101.94V95.253L110.78 91.9087V98.596L104.988 101.94ZM104.765 95.3821V102.069L98.9738 105.413V98.7257L104.765 95.3821ZM111.003 98.4669V91.7804L116.793 88.4367V95.124L111.003 98.4669ZM111.003 91.5215V84.835L116.793 81.4914V88.1779L111.003 91.5215ZM104.765 88.4367V95.1233L98.9738 98.4669V91.7804L104.765 88.4367ZM98.7502 98.8541V105.541L92.958 108.886V102.199L98.7502 98.8541ZM98.7502 105.799V112.487L92.958 115.831V109.144L98.7502 105.799ZM98.9738 105.67L104.765 102.327V109.014L98.9738 112.358V105.67ZM104.988 102.198L110.78 98.8541V105.541L104.988 108.886V102.198ZM111.003 98.7257L116.793 95.3821V102.069L111.003 105.413V98.7257ZM117.017 94.9949V88.3077L122.809 84.9634V91.6506L117.017 94.9949ZM117.017 88.0496V81.363L122.809 78.0187V84.7053L117.017 88.0496ZM98.7502 91.9087V98.5952L92.958 101.94V95.253L98.7502 91.9087ZM92.7351 102.327V109.014L86.9443 112.358V105.67L92.7351 102.327ZM92.7351 109.272V115.959L86.9443 119.302V112.615L92.7351 109.272ZM117.017 101.94V95.253L122.809 91.9087V98.596L117.017 101.94ZM123.033 91.5222V84.835L128.824 81.4914V88.1786L123.033 91.5222ZM123.033 84.5769V77.8904L128.824 74.5468V81.2333L123.033 84.5769ZM117.017 81.1042V74.4163L122.809 71.072V77.7592L117.017 81.1042ZM116.794 81.2333L111.003 84.5769V77.8897L116.794 74.546V81.2333ZM110.78 84.7053L104.988 88.0496V81.3623L110.78 78.018V84.7053ZM104.765 88.1786L98.9738 91.5222V84.8343L104.765 81.4907V88.1786ZM98.7502 91.6506L92.958 94.9949V88.307L98.7502 84.9627V91.6506ZM92.7351 95.1233L86.9443 98.4669V91.779L92.7351 88.4353V95.1233ZM92.7351 95.3821V102.069L86.9443 105.412V98.7257L92.7351 95.3821ZM86.7207 105.799V112.486L80.9284 115.83V109.143L86.7207 105.799ZM86.7207 112.745V119.432L80.9284 122.776V116.089L86.7207 112.745ZM123.033 98.4676V91.7804L128.824 88.4367V95.124L123.033 98.4676ZM129.047 88.0496V81.3623L134.84 78.018V84.7053L129.047 88.0496ZM129.047 81.1042V74.4177L134.84 71.0734V77.7599L129.047 81.1042ZM123.033 77.6315V70.9436L128.824 67.6V74.2872L123.033 77.6315ZM123.033 70.6862V63.999L128.824 60.6553V67.3426L123.033 70.6862ZM122.809 70.8152L117.017 74.1596V67.4723L122.809 64.1287V70.8152ZM116.794 74.2879L111.003 77.6315V70.9443L116.794 67.6007V74.2879ZM110.78 77.7599L104.988 81.1042V74.417L110.78 71.0727V77.7599ZM104.765 81.2333L98.9738 84.5769V77.8897L104.765 74.546V81.2333ZM98.7502 84.7053L92.958 88.0489V81.3616L98.7502 78.0173V84.7053ZM92.7351 88.1779L86.9443 91.5215V84.8343L92.7351 81.4907V88.1779ZM86.7207 91.6499L80.9284 94.9942V88.307L86.7207 84.9627V91.6499ZM86.7207 91.908V98.5952L80.9284 101.94V95.2516L86.7207 91.908ZM86.7207 98.8541V105.541L80.9284 108.885V102.198L86.7207 98.8541ZM80.7049 109.272V115.959L74.914 119.303V112.616L80.7049 109.272ZM74.914 119.561L80.7049 116.217V122.905L74.914 126.248V119.561ZM92.7351 116.217V122.905L86.9443 126.248V119.56L92.7351 116.217ZM92.958 116.089L98.7502 112.745V119.433L92.958 122.777V116.089ZM98.9738 112.616L104.765 109.272V115.96L98.9738 119.304V112.616ZM104.988 109.144L110.78 105.799V112.487L104.988 115.832V109.144ZM111.003 105.671L116.793 102.327V109.015L111.003 112.358V105.671ZM117.017 102.198L122.809 98.8541V105.542L117.017 108.886V102.198ZM123.033 98.7257L128.824 95.3821V102.07L123.033 105.414V98.7257ZM129.047 94.9956V88.3084L134.84 84.9641V91.6513L129.047 94.9956ZM135.062 84.5769V77.8897L140.854 74.546V81.2333L135.062 84.5769ZM135.062 77.6315V70.945L140.854 67.6014V74.2879L135.062 77.6315ZM129.047 74.1589V67.4716L134.84 64.1273V70.8152L129.047 74.1589ZM129.047 67.2135V60.5263L134.84 57.182V63.8692L129.047 67.2135ZM74.914 98.7243L80.7049 95.3807V102.068L74.914 105.412V98.7243ZM74.914 105.67L80.7049 102.327V109.013L74.914 112.357V105.67ZM74.914 126.506L80.7049 123.163V129.85L74.914 133.194V126.506ZM80.9284 123.034L86.7207 119.689V126.377L80.9284 129.722V123.034ZM86.7207 126.635V133.323L80.9284 136.668V129.98L86.7207 126.635ZM86.9436 126.506L92.7344 123.163V129.851L86.9436 133.194V126.506ZM92.958 123.034L98.7502 119.69V126.378L92.958 129.722V123.034ZM98.9738 119.561L104.765 116.217V122.905L98.9738 126.249V119.561ZM104.988 116.089L110.78 112.745V119.433L104.988 122.778V116.089ZM111.003 112.616L116.793 109.273V115.961L111.003 119.304V112.616ZM117.017 109.144L122.809 105.799V112.487L117.017 115.832V109.144ZM123.033 105.671L128.824 102.327V109.015L123.033 112.359V105.671ZM129.047 102.199L134.84 98.8548V105.543L129.047 108.887V102.199ZM129.047 101.941V95.253L134.84 91.9087V98.596L129.047 101.941ZM140.853 88.1793L135.062 91.523V84.8357L140.853 81.4921V88.1793ZM140.853 67.3433L135.062 70.6869V63.999L140.853 60.6553V67.3433ZM74.914 133.452L80.7049 130.108V136.796L74.914 140.14V133.452ZM135.062 105.414V98.7257L140.854 95.3821V102.07L135.062 105.414Z" fill="#A6AFCD"/>
</g>
<path d="M75.8562 119.04C75.7955 119.04 75.7342 119.028 75.6749 119.001C75.4499 118.901 75.3484 118.637 75.4478 118.412C75.871 117.458 79.6476 109.052 81.8621 107.711C83.0484 106.993 84.1422 108.024 85.1077 108.934C86.0894 109.86 86.727 110.396 87.2968 110.03C89.529 108.598 91.5523 103.495 93.5101 98.5593C95.6068 93.272 97.5879 88.2774 100.053 86.6757C101.385 85.8111 102.664 86.962 103.792 87.9783C104.932 89.0045 105.732 89.6448 106.432 89.2069C107.829 88.3324 108.968 84.9965 110.174 81.4653C111.953 76.2563 113.969 70.3519 117.786 68.8173C120.301 67.8059 122.498 68.2284 124.501 70.1072C126.194 71.6947 127.495 74.0693 128.752 76.3656C131.101 80.6542 132.709 83.1741 135.225 82.0112C137.045 81.1698 139.033 76.611 139.645 74.9262C139.729 74.6948 139.985 74.575 140.217 74.6589C140.448 74.7428 140.568 74.9995 140.484 75.2308C140.389 75.4925 138.127 81.6529 135.599 82.8215C134.02 83.5514 132.578 83.2059 131.191 81.7643C130.032 80.559 129.03 78.7303 127.97 76.7944C125.517 72.3181 122.982 67.6895 118.119 69.6452C114.682 71.0268 112.735 76.7253 111.019 81.753C109.706 85.5988 108.571 88.9205 106.905 89.9629C105.582 90.7909 104.314 89.6491 103.195 88.6413C102.013 87.5777 101.245 86.9656 100.539 87.424C98.3122 88.8705 96.2931 93.9631 94.3395 98.8879C92.2378 104.188 90.2525 109.193 87.7792 110.781C86.581 111.549 85.473 110.505 84.4955 109.583C83.5498 108.692 82.8883 108.133 82.3248 108.474C80.6526 109.486 77.3823 116.252 76.2638 118.773C76.1905 118.941 76.0276 119.04 75.8562 119.04Z" fill="#F75061"/>
<path d="M91.8409 130.366L81.1458 136.54V116.944L91.8409 110.769V130.366Z" fill="#F75061"/>
<path d="M107.883 121.103L97.1889 127.279L97.1882 98.0099L107.883 91.8354V121.103Z" fill="#FFDE23"/>
<path d="M139.969 102.58L129.274 108.754V90.5173L139.969 84.342V102.58Z" fill="#FFD438"/>
<path d="M123.926 111.842L113.231 118.017L113.23 80.8214L123.926 74.6469L123.926 111.842Z" fill="#13B7FD"/>
<path d="M36 180.149V189.783C36 192.808 37.4923 195.833 40.4771 197.562L125.236 246.432C133.331 251.121 143.306 251.121 151.403 246.432L240.523 194.387C243.455 192.689 244.94 189.738 244.991 186.765L245 186.762V176.997L36 180.149Z" fill="url(#paint0_linear_332_30148)"/>
<path d="M40.4771 187.928L125.236 236.798C133.331 241.487 143.306 241.487 151.403 236.798L240.523 184.753C246.492 181.295 246.492 172.651 240.523 169.194L155.764 120.325C147.669 115.635 137.694 115.635 129.597 120.325L40.4771 172.37C34.5076 175.826 34.5076 184.47 40.4771 187.928Z" fill="url(#paint1_linear_332_30148)"/>
<path d="M50.0183 172.402L60.382 187.014L70.7444 160.437L65.7826 163.301V149.305L54.9801 155.541V169.537L50.0183 172.402Z" fill="url(#paint2_linear_332_30148)"/>
<path d="M179.91 64.5901L170.847 51.8139L161.785 75.0541L179.91 64.5901Z" fill="#E9E5F6"/>
<path d="M179.91 82.8321L170.847 70.0558L161.785 93.296L179.91 82.8321Z" fill="#E9E5F6"/>
<g opacity="0.5">
<path d="M105.454 213.434L127.343 226.222L142.669 217.373V214.35L120.781 204.585L105.454 213.434Z" fill="#BCC5DF"/>
</g>
<g opacity="0.5">
<path d="M123.469 203.018L145.357 215.806L160.684 206.957V203.934L138.795 194.169L123.469 203.018Z" fill="#BCC5DF"/>
</g>
<g opacity="0.5">
<path d="M141.451 192.603L163.339 205.391L178.666 196.542V193.519L156.778 183.754L141.451 192.603Z" fill="#BCC5DF"/>
</g>
<g opacity="0.5">
<path d="M159.379 182.377L181.269 195.164L196.595 186.315V183.293L174.707 173.528L159.379 182.377Z" fill="#BCC5DF"/>
</g>
<path d="M168.098 110.345L168.304 183.215L182.405 191.409L182.197 118.539L168.098 110.345Z" fill="#F2B22A"/>
<path d="M182.197 118.539L182.405 191.409L196.595 183.216L196.388 110.346L182.197 118.539Z" fill="#FFC400"/>
<path d="M168.098 110.345L182.197 118.539L196.388 110.346L182.288 102.152L168.098 110.345Z" fill="#FFDE23"/>
<path d="M150.121 155.544L150.328 193.594L164.428 201.788L164.222 163.738L150.121 155.544Z" fill="#BCC5DF"/>
<path d="M164.221 163.738L164.428 201.788L178.62 193.594L178.413 155.544L164.221 163.738Z" fill="#DDE3F4"/>
<path d="M150.121 155.544L164.221 163.738L178.413 155.544L164.313 147.351L150.121 155.544Z" fill="#E9ECF5"/>
<path d="M132.146 147.351L132.352 203.972L146.452 212.165L146.245 155.544L132.146 147.351Z" fill="#F69524"/>
<path d="M146.245 155.544L146.452 212.165L160.644 203.972L160.438 147.351L146.245 155.544Z" fill="#FFC400"/>
<path d="M132.146 147.351L146.246 155.544L160.438 147.351L146.338 139.157L132.146 147.351Z" fill="#FFDE23"/>
<path d="M114.171 191.369L114.377 214.349L128.477 222.543L128.271 199.563L114.171 191.369Z" fill="#BCC5DF"/>
<path d="M128.271 199.563L128.477 222.543L142.669 214.35L142.463 191.369L128.271 199.563Z" fill="#DDE3F4"/>
<path d="M114.171 191.369L128.27 199.563L142.463 191.369L128.363 183.176L114.171 191.369Z" fill="#E9ECF5"/>
<defs>
<linearGradient id="paint0_linear_332_30148" x1="176.594" y1="177.185" x2="176.594" y2="257.171" gradientUnits="userSpaceOnUse">
<stop stop-color="#E3E3E3"/>
<stop offset="1" stop-color="#6C86DD"/>
</linearGradient>
<linearGradient id="paint1_linear_332_30148" x1="83.0616" y1="139.785" x2="214.385" y2="227.878" gradientUnits="userSpaceOnUse">
<stop stop-color="#DFDAEF"/>
<stop offset="1" stop-color="#F2EFFA"/>
</linearGradient>
<linearGradient id="paint2_linear_332_30148" x1="60.3815" y1="193.432" x2="60.3815" y2="154.19" gradientUnits="userSpaceOnUse">
<stop stop-color="#FF4757"/>
<stop offset="0.6424" stop-color="#FF6B78"/>
<stop offset="1" stop-color="#FF7A85"/>
</linearGradient>
</defs>
</svg>
