<svg width="264" height="296" viewBox="0 0 264 296" fill="none" xmlns="http://www.w3.org/2000/svg">
<path d="M32.5 171.938V181.895C32.5 185.021 34.0423 188.148 37.127 189.935L124.725 240.441C133.091 245.288 143.4 245.288 151.768 240.441L243.873 186.653C246.903 184.898 248.438 181.848 248.49 178.776L248.5 178.773V168.681L32.5 171.938Z" fill="url(#paint0_linear_332_30223)"/>
<path d="M37.127 179.978L124.725 230.485C133.091 235.331 143.4 235.331 151.768 230.485L243.873 176.697C250.042 173.123 250.042 164.189 243.873 160.617L156.275 110.11C147.909 105.264 137.6 105.264 129.232 110.11L37.127 163.898C30.9577 167.471 30.9577 176.404 37.127 179.978Z" fill="url(#paint1_linear_332_30223)"/>
<path d="M136.662 120.925C135.712 120.377 134.188 120.377 133.245 120.925L79.9642 151.888C79.0207 152.436 79.0183 153.324 79.9679 153.872L170.017 205.862C170.967 206.41 172.498 206.406 173.442 205.857L226.722 174.893C227.666 174.345 227.661 173.463 226.711 172.914L136.662 120.925Z" fill="#E3EBF6"/>
<path d="M135.463 121.776C134.543 121.245 133.067 121.245 132.153 121.776L80.5364 151.773C79.6224 152.304 79.62 153.163 80.5394 153.694L167.776 204.06C168.696 204.591 170.179 204.587 171.093 204.056L222.71 174.06C223.624 173.528 223.619 172.673 222.699 172.142L135.463 121.776Z" fill="#96AAFF"/>
<path d="M135.495 117.501C134.576 116.97 133.102 116.97 132.19 117.501L80.6565 147.449C79.7437 147.979 79.7413 148.838 80.6601 149.368L167.756 199.652C168.674 200.182 170.155 200.178 171.068 199.648L222.601 169.7C223.514 169.17 223.509 168.317 222.591 167.786L135.495 117.501Z" fill="white"/>
<path d="M139.794 121.169L216.199 165.281L217.406 164.524L141.001 120.412L139.794 121.169Z" fill="#F0F8FF"/>
<path d="M221.883 103.864C223.257 104.657 224.365 106.578 224.361 108.157L224.189 168.722L133.778 116.523L133.95 55.9589C133.954 54.3798 135.07 53.7437 136.445 54.5372L221.883 103.864Z" fill="white"/>
<path d="M79.9713 148.406C79.9701 148.754 80.1992 149.102 80.6599 149.368L167.755 199.652C168.674 200.183 170.155 200.178 171.068 199.648L222.601 169.7C222.655 169.669 222.695 169.633 222.743 169.6C222.801 169.559 222.863 169.518 222.912 169.474C222.985 169.409 223.047 169.34 223.098 169.27C223.107 169.257 223.115 169.245 223.123 169.232C223.171 169.161 223.21 169.088 223.235 169.014C223.238 169.006 223.24 168.998 223.243 168.99C223.267 168.91 223.283 168.83 223.283 168.75L223.272 172.563C223.272 172.57 223.272 172.577 223.272 172.584C223.27 172.628 223.266 172.673 223.257 172.717C223.251 172.746 223.241 172.775 223.232 172.804C223.229 172.812 223.228 172.82 223.225 172.828C223.222 172.835 223.222 172.842 223.219 172.848C223.202 172.893 223.182 172.937 223.157 172.98C223.144 173.003 223.128 173.024 223.113 173.046C223.105 173.059 223.097 173.071 223.088 173.084C223.079 173.096 223.073 173.108 223.064 173.12C223.021 173.174 222.973 173.226 222.918 173.276C222.914 173.281 222.907 173.284 222.902 173.288C222.853 173.332 222.791 173.372 222.733 173.414C222.694 173.442 222.663 173.471 222.62 173.497C222.61 173.502 222.601 173.508 222.591 173.514L171.058 203.462C170.145 203.992 168.664 203.996 167.746 203.466L80.6496 153.181C80.189 152.915 79.9605 152.567 79.9617 152.219L79.9713 148.406Z" fill="#ADBBFE"/>
<path d="M130.299 158.349C129.836 158.082 129.099 158.086 128.647 158.349L117.837 164.63C117.384 164.893 117.379 165.32 117.842 165.588L137.252 176.761C137.707 177.024 138.452 177.024 138.905 176.761L149.714 170.479C150.167 170.216 150.165 169.785 149.709 169.522L130.299 158.349ZM200.65 166.01C200.431 165.883 200.43 165.677 200.647 165.55L204.242 163.461C204.46 163.335 204.816 163.335 205.036 163.461L208.655 165.55C208.874 165.677 208.875 165.883 208.657 166.01L205.062 168.1C204.844 168.226 204.488 168.226 204.268 168.1L200.65 166.01ZM213.862 168.557C214.082 168.684 214.082 168.89 213.864 169.017L210.269 171.106C210.052 171.233 209.695 171.233 209.476 171.106L205.858 169.017C205.638 168.891 205.637 168.684 205.855 168.558L209.451 166.469C209.668 166.342 210.024 166.342 210.244 166.469L213.862 168.557ZM208.688 171.564C208.907 171.691 208.908 171.897 208.69 172.023L205.095 174.113C204.877 174.239 204.521 174.239 204.302 174.113L197.403 170.129C197.183 170.002 197.183 169.796 197.401 169.67L200.996 167.581C201.213 167.454 201.57 167.454 201.789 167.581L208.688 171.564ZM203.514 174.571C203.734 174.697 203.735 174.904 203.517 175.03L199.921 177.119C199.704 177.246 199.347 177.246 199.129 177.119L195.51 175.03C195.29 174.904 195.289 174.697 195.507 174.571L199.103 172.482C199.32 172.355 199.677 172.355 199.896 172.482L203.514 174.571ZM193.92 174.113L190.301 172.023C190.082 171.897 190.08 171.691 190.299 171.564L193.894 169.475C194.112 169.348 194.468 169.348 194.687 169.475L198.306 171.564C198.524 171.691 198.526 171.897 198.308 172.023L194.713 174.113C194.496 174.239 194.139 174.239 193.92 174.113ZM154.952 157.609C154.733 157.482 154.731 157.276 154.95 157.149L158.545 155.06C158.762 154.934 159.119 154.934 159.338 155.06L162.957 157.149C163.176 157.276 163.177 157.482 162.959 157.609L159.364 159.698C159.146 159.825 158.79 159.825 158.571 159.698L154.952 157.609ZM122.219 145.617C122.438 145.744 122.441 145.949 122.224 146.076L118.626 148.166C118.408 148.293 118.054 148.292 117.835 148.165L114.216 146.076C113.997 145.95 113.994 145.745 114.211 145.618L117.809 143.527C118.027 143.4 118.381 143.402 118.6 143.528L122.219 145.617ZM134.114 133.132C133.897 133.259 133.54 133.259 133.322 133.132L129.703 131.043C129.483 130.916 129.482 130.71 129.7 130.583L133.296 128.494C133.513 128.368 133.87 128.368 134.089 128.494L137.708 130.583C137.927 130.71 137.928 130.916 137.71 131.043L134.114 133.132ZM124.494 128.036C124.275 127.909 124.274 127.703 124.492 127.576L128.087 125.487C128.305 125.36 128.661 125.36 128.88 125.487L132.499 127.576C132.718 127.703 132.719 127.909 132.502 128.036L128.906 130.125C128.689 130.251 128.332 130.251 128.114 130.125L124.494 128.036ZM129.668 125.029C129.45 124.902 129.448 124.696 129.666 124.569L133.261 122.48C133.479 122.354 133.835 122.354 134.054 122.48L140.956 126.465C141.175 126.592 141.174 126.797 140.956 126.923L137.361 129.012C137.143 129.139 136.789 129.14 136.569 129.013L129.668 125.029ZM138.157 129.93C137.938 129.803 137.939 129.598 138.157 129.472L141.752 127.383C141.97 127.256 142.324 127.255 142.543 127.381L146.161 129.471C146.38 129.597 146.381 129.803 146.164 129.93L142.569 132.019C142.351 132.146 141.995 132.146 141.776 132.019L138.157 129.93ZM143.365 132.937C143.146 132.81 143.145 132.604 143.363 132.477L146.958 130.388C147.175 130.262 147.532 130.262 147.751 130.388L151.37 132.477C151.589 132.604 151.59 132.81 151.372 132.937L147.777 135.026C147.56 135.152 147.203 135.152 146.984 135.026L143.365 132.937ZM142.915 133.59C143.133 133.716 143.135 133.922 142.917 134.049L139.322 136.138C139.104 136.265 138.748 136.265 138.528 136.138L134.91 134.049C134.69 133.922 134.69 133.716 134.907 133.59L138.502 131.501C138.72 131.374 139.076 131.374 139.296 131.501L142.915 133.59ZM143.737 139.146L140.118 137.056C139.896 136.929 139.898 136.724 140.116 136.597L143.711 134.508C143.929 134.381 144.283 134.38 144.504 134.508L148.123 136.597C148.342 136.724 148.34 136.929 148.123 137.055L144.527 139.144C144.31 139.27 143.956 139.272 143.737 139.146ZM136.609 136.401C136.827 136.274 137.183 136.274 137.403 136.401L141.021 138.49C141.241 138.617 141.242 138.823 141.024 138.95L137.429 141.039C137.211 141.165 136.855 141.165 136.635 141.039L133.016 138.95C132.797 138.823 132.796 138.617 133.014 138.49L136.609 136.401ZM148.572 135.943C148.353 135.817 148.352 135.611 148.57 135.484L152.165 133.395C152.383 133.268 152.739 133.268 152.959 133.395L156.577 135.484C156.797 135.611 156.797 135.817 156.58 135.943L152.985 138.033C152.767 138.159 152.411 138.159 152.192 138.033L148.572 135.943ZM127.808 135.943C127.59 135.817 127.59 135.612 127.808 135.485L131.404 133.396C131.621 133.27 131.975 133.268 132.194 133.395L135.813 135.484C136.032 135.611 136.033 135.817 135.815 135.943L132.22 138.033C132.002 138.159 131.646 138.159 131.427 138.033L127.808 135.943ZM119.32 131.042C119.101 130.916 119.1 130.71 119.318 130.583L122.913 128.494C123.13 128.367 123.487 128.367 123.706 128.494L130.608 132.478C130.827 132.605 130.826 132.81 130.608 132.937L127.013 135.026C126.795 135.152 126.441 135.154 126.222 135.027L119.32 131.042ZM114.146 134.05C113.927 133.923 113.926 133.717 114.144 133.59L117.739 131.501C117.957 131.375 118.313 131.375 118.532 131.501L126.503 136.103C126.723 136.23 126.721 136.435 126.503 136.561L122.908 138.651C122.69 138.777 122.336 138.778 122.117 138.652L114.146 134.05ZM123.704 139.568C123.485 139.441 123.486 139.236 123.704 139.109L127.3 137.02C127.517 136.894 127.871 136.892 128.091 137.019L131.712 139.11C131.931 139.237 131.93 139.442 131.712 139.568L128.117 141.657C127.899 141.784 127.545 141.785 127.326 141.659L123.704 139.568ZM111.803 139.604C112.022 139.73 112.025 139.935 111.808 140.062L108.21 142.153C107.992 142.28 107.638 142.278 107.419 142.152L103.8 140.063C103.581 139.936 103.578 139.731 103.795 139.604L107.393 137.513C107.611 137.387 107.965 137.388 108.184 137.515L111.803 139.604ZM108.974 137.055C108.755 136.928 108.752 136.723 108.97 136.596L112.565 134.507C112.782 134.381 113.139 134.381 113.358 134.507L123.976 140.638C124.196 140.764 124.195 140.969 123.976 141.096L120.381 143.185C120.163 143.312 119.812 143.312 119.592 143.185L108.974 137.055ZM153.78 138.95C153.561 138.824 153.56 138.617 153.778 138.491L157.373 136.402C157.591 136.275 157.947 136.275 158.167 136.402L161.785 138.491C162.005 138.617 162.006 138.824 161.788 138.95L158.193 141.04C157.975 141.167 157.619 141.167 157.399 141.04L153.78 138.95ZM153.331 139.603C153.55 139.73 153.548 139.935 153.331 140.061L149.735 142.151C149.518 142.277 149.164 142.278 148.945 142.152L145.324 140.061C145.105 139.934 145.106 139.729 145.324 139.603L148.919 137.513C149.137 137.387 149.491 137.386 149.71 137.512L153.331 139.603ZM158.988 141.957C158.769 141.83 158.768 141.624 158.986 141.498L162.581 139.408C162.799 139.281 163.155 139.281 163.374 139.408L166.993 141.497C167.212 141.624 167.213 141.83 166.995 141.956L163.4 144.045C163.182 144.172 162.826 144.172 162.607 144.045L158.988 141.957ZM141.843 144.046L138.225 141.957C138.005 141.83 138.004 141.624 138.222 141.498L141.817 139.408C142.035 139.282 142.391 139.282 142.611 139.408L146.229 141.498C146.449 141.624 146.45 141.83 146.232 141.957L142.637 144.046C142.419 144.173 142.063 144.173 141.843 144.046ZM133.325 144.664C133.107 144.791 132.753 144.792 132.531 144.664L128.912 142.575C128.694 142.448 128.694 142.243 128.912 142.117L132.508 140.028C132.725 139.901 133.079 139.9 133.298 140.026L136.917 142.116C137.138 142.243 137.137 142.448 136.919 142.575L133.325 144.664ZM158.539 142.61C158.758 142.737 158.757 142.942 158.539 143.068L154.943 145.157C154.726 145.284 154.372 145.285 154.153 145.158L150.532 143.068C150.313 142.941 150.314 142.736 150.532 142.609L154.127 140.52C154.345 140.394 154.699 140.392 154.918 140.519L158.539 142.61ZM121.179 144.102C120.96 143.975 120.959 143.772 121.177 143.645L124.772 141.555C124.99 141.429 125.344 141.428 125.563 141.554L129.184 143.645C129.403 143.772 129.402 143.977 129.184 144.103L125.589 146.193C125.371 146.319 125.02 146.319 124.8 146.193L121.179 144.102ZM164.197 144.964C163.978 144.837 163.976 144.631 164.194 144.504L167.789 142.415C168.007 142.288 168.363 142.288 168.583 142.415L172.201 144.504C172.42 144.63 172.422 144.837 172.204 144.963L168.609 147.053C168.391 147.179 168.035 147.179 167.816 147.053L164.197 144.964ZM134.12 145.582C133.902 145.455 133.9 145.249 134.118 145.122L137.713 143.033C137.931 142.906 138.287 142.906 138.506 143.033L142.125 145.122C142.344 145.248 142.345 145.455 142.127 145.581L138.532 147.671C138.314 147.797 137.958 147.797 137.739 147.671L134.12 145.582ZM163.744 145.616C163.966 145.743 163.964 145.948 163.747 146.075L160.152 148.164C159.934 148.291 159.58 148.292 159.359 148.164L155.739 146.075C155.52 145.948 155.522 145.743 155.739 145.617L159.335 143.528C159.552 143.401 159.906 143.4 160.126 143.526L163.744 145.616ZM134.392 146.651C134.611 146.778 134.611 146.983 134.392 147.11L130.797 149.199C130.579 149.326 130.228 149.326 130.009 149.199L126.387 147.108C126.168 146.982 126.167 146.779 126.385 146.652L129.98 144.563C130.198 144.436 130.552 144.435 130.771 144.562L134.392 146.651ZM169.405 147.971C169.186 147.844 169.184 147.638 169.402 147.511L172.997 145.422C173.215 145.295 173.571 145.295 173.79 145.422L177.409 147.511C177.628 147.638 177.629 147.844 177.411 147.971L173.816 150.06C173.598 150.186 173.242 150.186 173.023 150.06L169.405 147.971ZM152.233 145.422C152.451 145.295 152.807 145.295 153.026 145.422L156.645 147.511C156.864 147.638 156.866 147.844 156.647 147.971L153.052 150.06C152.834 150.186 152.478 150.186 152.259 150.06L148.641 147.97C148.422 147.843 148.42 147.637 148.638 147.51L152.233 145.422ZM143.74 150.678C143.522 150.804 143.166 150.804 142.947 150.678L139.328 148.589C139.108 148.462 139.108 148.256 139.325 148.129L142.921 146.04C143.138 145.913 143.495 145.913 143.713 146.04L147.332 148.129C147.551 148.256 147.552 148.462 147.335 148.589L143.74 150.678ZM164.566 151.171L160.947 149.082C160.729 148.956 160.727 148.749 160.945 148.623L164.54 146.534C164.758 146.407 165.114 146.407 165.333 146.534L168.952 148.623C169.173 148.751 169.172 148.956 168.954 149.082L165.359 151.171C165.141 151.298 164.788 151.299 164.566 151.171ZM128.484 149.235C128.704 149.361 128.707 149.566 128.489 149.693L124.892 151.784C124.674 151.911 124.32 151.909 124.1 151.783L119.424 149.083C119.202 148.955 119.201 148.751 119.419 148.625L123.016 146.534C123.234 146.407 123.586 146.407 123.807 146.535L128.484 149.235ZM131.595 150.115C131.376 149.988 131.375 149.785 131.593 149.658L135.188 147.569C135.406 147.442 135.76 147.441 135.979 147.568L139.598 149.657C139.819 149.785 139.818 149.99 139.6 150.116L136.005 152.205C135.788 152.332 135.436 152.332 135.214 152.204L131.595 150.115ZM174.612 150.977C174.391 150.849 174.392 150.644 174.61 150.518L178.205 148.428C178.422 148.302 178.776 148.3 178.998 148.428L182.616 150.517C182.836 150.644 182.834 150.849 182.616 150.975L179.021 153.065C178.803 153.191 178.45 153.192 178.231 153.066L174.612 150.977ZM157.441 148.429C157.658 148.302 158.015 148.302 158.234 148.429L161.852 150.518C162.072 150.644 162.073 150.851 161.855 150.977L158.26 153.066C158.042 153.193 157.686 153.193 157.467 153.066L153.848 150.977C153.629 150.851 153.627 150.644 153.846 150.518L157.441 148.429ZM148.948 153.684C148.73 153.811 148.374 153.811 148.155 153.684L144.536 151.595C144.317 151.469 144.315 151.262 144.533 151.136L148.129 149.047C148.346 148.92 148.703 148.92 148.922 149.047L152.541 151.136C152.76 151.262 152.762 151.469 152.543 151.595L148.948 153.684ZM174.16 151.629C174.379 151.756 174.38 151.962 174.162 152.088L170.567 154.178C170.349 154.304 169.993 154.304 169.774 154.178L166.155 152.088C165.936 151.962 165.935 151.756 166.153 151.629L169.748 149.54C169.966 149.413 170.322 149.413 170.542 149.54L174.16 151.629ZM136.803 153.122C136.584 152.995 136.581 152.79 136.799 152.664L140.394 150.575C140.611 150.448 140.968 150.448 141.187 150.575L144.805 152.664C145.025 152.79 145.026 152.996 144.808 153.123L141.213 155.212C140.995 155.339 140.641 155.338 140.422 155.211L136.803 153.122ZM179.818 153.983C179.598 153.856 179.599 153.651 179.818 153.525L183.413 151.436C183.63 151.309 183.984 151.308 184.203 151.434L187.824 153.525C188.043 153.652 188.043 153.857 187.824 153.983L184.229 156.073C184.011 156.2 183.658 156.201 183.438 156.074L179.818 153.983ZM162.675 156.074L159.057 153.985C158.837 153.858 158.836 153.652 159.054 153.525L162.649 151.436C162.867 151.309 163.223 151.309 163.443 151.436L167.062 153.525C167.28 153.652 167.282 153.858 167.064 153.985L163.469 156.074C163.251 156.2 162.894 156.2 162.675 156.074ZM154.156 156.691C153.938 156.818 153.582 156.818 153.363 156.691L149.744 154.602C149.524 154.475 149.524 154.269 149.741 154.143L153.337 152.053C153.554 151.927 153.911 151.927 154.13 152.053L157.748 154.143C157.967 154.269 157.969 154.475 157.751 154.602L154.156 156.691ZM151.629 161.226C151.412 161.352 151.055 161.352 150.836 161.226L147.217 159.137C146.998 159.01 146.997 158.804 147.215 158.677L150.81 156.588C151.028 156.461 151.384 156.461 151.603 156.588L155.221 158.677C155.441 158.804 155.442 159.01 155.224 159.137L151.629 161.226ZM179.368 154.636C179.587 154.762 179.588 154.969 179.37 155.095L175.775 157.184C175.557 157.311 175.201 157.311 174.982 157.184L171.363 155.095C171.144 154.969 171.143 154.762 171.361 154.636L174.956 152.546C175.174 152.419 175.53 152.419 175.749 152.546L179.368 154.636ZM142.011 156.129C141.792 156.002 141.788 155.797 142.006 155.67L145.601 153.581C145.819 153.455 146.175 153.455 146.394 153.581L150.013 155.67C150.232 155.797 150.233 156.003 150.015 156.13L146.42 158.219C146.202 158.346 145.848 158.344 145.629 158.218L142.011 156.129ZM185.026 156.99C184.806 156.863 184.807 156.658 185.026 156.531L188.621 154.442C188.838 154.316 189.192 154.314 189.412 154.441L193.033 156.532C193.252 156.659 193.251 156.864 193.033 156.99L189.438 159.079C189.22 159.206 188.866 159.207 188.647 159.081L185.026 156.99ZM167.857 154.442C168.074 154.316 168.428 154.314 168.65 154.442L172.268 156.531C172.488 156.658 172.487 156.863 172.268 156.99L168.673 159.079C168.456 159.205 168.102 159.207 167.883 159.08L164.264 156.991C164.043 156.863 164.043 156.658 164.262 156.531L167.857 154.442ZM180.19 160.192L176.571 158.103C176.353 157.976 176.351 157.77 176.569 157.643L180.164 155.554C180.382 155.427 180.738 155.427 180.957 155.554L184.576 157.643C184.795 157.77 184.796 157.976 184.578 158.103L180.983 160.192C180.765 160.318 180.409 160.318 180.19 160.192ZM190.234 159.996C190.014 159.87 190.015 159.665 190.234 159.538L193.829 157.449C194.046 157.322 194.4 157.321 194.619 157.448L198.238 159.537C198.459 159.665 198.459 159.87 198.24 159.996L194.645 162.085C194.428 162.212 194.074 162.213 193.852 162.085L190.234 159.996ZM173.065 157.449C173.283 157.322 173.636 157.321 173.855 157.448L177.476 159.539C177.695 159.665 177.695 159.87 177.476 159.997L173.881 162.086C173.664 162.213 173.31 162.214 173.09 162.087L169.469 159.996C169.25 159.87 169.251 159.665 169.469 159.538L173.065 157.449ZM164.572 162.705C164.354 162.831 163.998 162.831 163.779 162.705L160.16 160.616C159.941 160.489 159.94 160.283 160.158 160.156L163.753 158.067C163.97 157.94 164.327 157.94 164.546 158.067L168.165 160.156C168.384 160.283 168.386 160.489 168.167 160.616L164.572 162.705ZM185.398 163.198L181.779 161.109C181.56 160.983 181.559 160.777 181.776 160.65L185.372 158.561C185.589 158.434 185.946 158.434 186.165 158.561L189.783 160.65C190.002 160.777 190.003 160.983 189.786 161.109L186.19 163.198C185.973 163.325 185.617 163.325 185.398 163.198ZM152.427 162.142C152.207 162.016 152.204 161.811 152.422 161.684L156.017 159.595C156.235 159.468 156.591 159.468 156.81 159.595L160.429 161.684C160.648 161.811 160.65 162.017 160.431 162.143L156.836 164.232C156.618 164.359 156.264 164.358 156.045 164.231L152.427 162.142ZM178.299 165.094L174.678 163.003C174.458 162.877 174.459 162.672 174.678 162.545L178.273 160.455C178.491 160.329 178.844 160.327 179.064 160.454L182.685 162.545C182.905 162.672 182.903 162.877 182.685 163.003L179.09 165.092C178.872 165.219 178.518 165.221 178.299 165.094ZM169.777 165.71C169.559 165.837 169.206 165.838 168.986 165.711L165.367 163.622C165.149 163.496 165.147 163.29 165.365 163.163L168.96 161.074C169.178 160.947 169.534 160.947 169.753 161.074L173.372 163.163C173.591 163.29 173.59 163.495 173.372 163.621L169.777 165.71ZM157.635 165.149C157.416 165.022 157.412 164.817 157.63 164.691L161.225 162.602C161.443 162.475 161.799 162.475 162.019 162.602L165.637 164.691C165.856 164.817 165.858 165.024 165.64 165.15L162.045 167.239C161.827 167.366 161.473 167.365 161.254 167.238L157.635 165.149ZM170.573 166.627C170.354 166.501 170.355 166.296 170.573 166.169L174.168 164.08C174.386 163.953 174.74 163.952 174.959 164.079L178.58 166.17C178.799 166.296 178.798 166.501 178.58 166.628L174.985 168.717C174.767 168.844 174.413 168.845 174.194 168.718L170.573 166.627ZM158.61 166.627C158.829 166.754 158.832 166.959 158.615 167.086L155.017 169.176C154.799 169.303 154.445 169.302 154.226 169.175L125.69 152.7C125.471 152.573 125.467 152.368 125.685 152.242L129.283 150.151C129.5 150.024 129.854 150.025 130.074 150.152L158.61 166.627ZM170.848 168.157L167.253 170.246C167.035 170.373 166.681 170.371 166.462 170.245L162.843 168.156C162.624 168.029 162.62 167.824 162.838 167.697L166.433 165.608C166.651 165.482 167.007 165.482 167.226 165.608L170.845 167.697C171.064 167.824 171.066 168.031 170.848 168.157ZM200.199 166.663C200.418 166.79 200.419 166.996 200.202 167.123L196.607 169.212C196.389 169.339 196.033 169.339 195.814 169.212L192.195 167.123C191.976 166.996 191.975 166.79 192.193 166.663L195.788 164.574C196.005 164.448 196.362 164.448 196.581 164.574L200.199 166.663ZM183.504 168.099L179.886 166.01C179.667 165.883 179.667 165.678 179.886 165.552L183.481 163.463C183.699 163.336 184.052 163.335 184.272 163.461L187.891 165.55C188.113 165.678 188.111 165.883 187.893 166.01L184.298 168.099C184.08 168.226 183.726 168.227 183.504 168.099ZM185.093 169.017C184.874 168.89 184.873 168.684 185.091 168.557L188.686 166.468C188.904 166.341 189.26 166.341 189.479 166.468L193.098 168.557C193.319 168.685 193.318 168.89 193.1 169.017L189.505 171.106C189.287 171.232 188.933 171.234 188.712 171.106L185.093 169.017ZM179.376 167.087C179.594 166.96 179.948 166.959 180.167 167.086L183.788 169.176C184.007 169.303 184.006 169.508 183.788 169.635L180.193 171.724C179.975 171.851 179.621 171.852 179.402 171.726L175.78 169.635C175.561 169.508 175.562 169.303 175.78 169.176L179.376 167.087ZM185.375 170.092L188.996 172.183C189.215 172.31 189.214 172.515 188.996 172.641L185.401 174.731C185.183 174.857 184.829 174.858 184.61 174.732L180.988 172.641C180.77 172.514 180.771 172.309 180.988 172.183L184.584 170.093C184.802 169.967 185.156 169.966 185.375 170.092ZM198.34 177.578C198.559 177.704 198.56 177.91 198.342 178.037L194.747 180.126C194.529 180.253 194.173 180.253 193.954 180.126L186.197 175.648C185.978 175.521 185.979 175.316 186.197 175.189L189.792 173.1C190.01 172.974 190.364 172.972 190.583 173.099L198.34 177.578ZM193.166 180.584C193.385 180.711 193.386 180.917 193.168 181.044L189.594 183.121C189.376 183.247 189.02 183.247 188.801 183.121L178.483 177.163C178.264 177.037 178.265 176.832 178.483 176.705L182.057 174.628C182.274 174.501 182.628 174.5 182.848 174.627L193.166 180.584ZM170.057 173.237C170.276 173.363 170.278 173.567 170.059 173.694L166.462 175.784C166.244 175.911 165.893 175.911 165.673 175.784L162.08 173.71C161.861 173.584 161.86 173.38 162.078 173.254L165.675 171.163C165.893 171.036 166.245 171.036 166.464 171.163L170.057 173.237ZM176.053 170.704C176.272 170.831 176.271 171.036 176.053 171.162L172.479 173.24C172.261 173.366 171.907 173.367 171.688 173.241C171.643 173.215 171.596 173.195 171.546 173.18L168.05 171.162C167.831 171.036 167.828 170.831 168.046 170.704L171.641 168.615C171.858 168.489 172.215 168.489 172.434 168.615L176.053 170.704ZM181.261 173.711C181.48 173.838 181.479 174.043 181.261 174.169L177.687 176.246C177.469 176.373 177.115 176.374 176.896 176.247L173.275 174.157C173.056 174.03 173.058 173.825 173.275 173.698L176.849 171.621C177.067 171.495 177.421 171.493 177.64 171.62L181.261 173.711ZM175.99 176.703C176.208 176.829 176.21 177.035 175.992 177.162L172.461 179.214C172.243 179.341 171.889 179.34 171.67 179.213L167.346 176.717C167.127 176.59 167.123 176.385 167.341 176.258L170.873 174.206C171.09 174.079 171.447 174.079 171.665 174.206L175.99 176.703ZM179.5 181.579C179.72 181.706 179.719 181.911 179.5 182.037L178.428 182.661C178.211 182.787 177.859 182.787 177.64 182.661L173.316 180.164C173.096 180.037 173.093 179.832 173.311 179.706L174.383 179.082C174.601 178.956 174.957 178.956 175.176 179.082L179.5 181.579ZM181.96 180.15C182.179 180.276 182.178 180.481 181.96 180.608L180.888 181.231C180.67 181.357 180.319 181.357 180.099 181.231L175.775 178.734C175.556 178.607 175.552 178.402 175.77 178.276L176.842 177.653C177.06 177.526 177.416 177.526 177.636 177.653L181.96 180.15ZM187.927 183.595C188.146 183.722 188.148 183.928 187.93 184.055L184.399 186.107C184.181 186.234 183.827 186.232 183.608 186.106L179.284 183.609C179.065 183.483 179.063 183.279 179.282 183.153L182.813 181.1C183.031 180.974 183.384 180.973 183.603 181.099L187.927 183.595ZM164.878 170.247C165.097 170.373 165.098 170.576 164.88 170.703L161.283 172.794C161.065 172.921 160.713 172.921 160.494 172.794L155.815 170.092C155.596 169.966 155.592 169.761 155.81 169.634L159.408 167.543C159.625 167.417 159.979 167.418 160.199 167.544L164.878 170.247ZM117.011 142.611C117.23 142.737 117.233 142.942 117.016 143.069L113.418 145.16C113.2 145.286 112.846 145.285 112.627 145.158L109.008 143.069C108.789 142.943 108.786 142.738 109.003 142.611L112.601 140.52C112.819 140.394 113.173 140.395 113.392 140.521L117.011 142.611ZM147.025 142.415C147.243 142.289 147.599 142.289 147.818 142.415L151.437 144.504C151.656 144.631 151.658 144.837 151.439 144.964L147.844 147.053C147.626 147.179 147.27 147.179 147.051 147.053L143.432 144.964C143.213 144.837 143.211 144.631 143.43 144.504L147.025 142.415ZM195.442 163.003C195.223 162.877 195.222 162.67 195.439 162.544L199.034 160.455C199.252 160.328 199.608 160.328 199.827 160.455L203.446 162.544C203.668 162.672 203.667 162.877 203.448 163.003L199.853 165.092C199.636 165.219 199.282 165.22 199.06 165.092L195.442 163.003Z" fill="#DFE9F7"/>
<path d="M138.09 60.2558L137.937 114.144L220.059 161.557L220.212 107.669L138.09 60.2558Z" fill="url(#paint2_linear_332_30223)"/>
<path d="M137.937 114.144L137.941 113.333L220.064 160.746L220.059 161.557L137.937 114.144Z" fill="url(#paint3_linear_332_30223)"/>
<path d="M135.899 54.2948C135.758 54.2501 135.621 54.2188 135.491 54.2055C135.479 54.2043 135.466 54.2031 135.454 54.2019C135.314 54.191 135.18 54.1977 135.054 54.2224C135.048 54.2236 135.041 54.2254 135.035 54.2272C134.906 54.255 134.785 54.299 134.676 54.3629L136.679 53.1673C136.684 53.1643 136.688 53.1619 136.693 53.1595C136.733 53.1365 136.775 53.1166 136.817 53.0986C136.86 53.0805 136.904 53.0654 136.949 53.0521C136.978 53.0437 137.008 53.0377 137.038 53.0316C137.045 53.0304 137.051 53.028 137.058 53.0268C137.068 53.025 137.078 53.022 137.088 53.0202C137.137 53.0117 137.187 53.0057 137.238 53.0027C137.292 52.9997 137.347 52.9991 137.403 53.0015C137.421 53.0021 137.44 53.0057 137.458 53.0069C137.47 53.0081 137.482 53.0093 137.494 53.0105C137.526 53.0135 137.556 53.0148 137.588 53.0202C137.66 53.031 137.733 53.0467 137.807 53.0666C137.838 53.075 137.871 53.0895 137.902 53.0998C137.931 53.1088 137.96 53.1191 137.989 53.1299C138.026 53.1432 138.062 53.1522 138.1 53.1679C138.214 53.2155 138.33 53.2728 138.448 53.3415L223.886 102.669C224.046 102.762 224.202 102.872 224.354 102.993C224.403 103.032 224.449 103.078 224.497 103.119C224.571 103.183 224.646 103.243 224.717 103.313C224.749 103.344 224.779 103.38 224.811 103.412C224.839 103.441 224.866 103.471 224.894 103.501C224.925 103.535 224.958 103.567 224.989 103.602C225.058 103.682 225.125 103.764 225.19 103.848C225.213 103.877 225.234 103.908 225.257 103.937C225.268 103.953 225.28 103.969 225.291 103.984C225.313 104.014 225.335 104.042 225.356 104.072C225.405 104.143 225.453 104.215 225.5 104.287C225.544 104.356 225.587 104.426 225.628 104.497C225.632 104.503 225.635 104.509 225.638 104.515C225.641 104.52 225.644 104.526 225.647 104.531C225.681 104.589 225.714 104.647 225.744 104.706C225.782 104.776 225.817 104.847 225.852 104.917C225.883 104.982 225.913 105.047 225.941 105.112C225.942 105.116 225.944 105.119 225.946 105.122C225.948 105.125 225.95 105.129 225.951 105.132C225.983 105.207 226.013 105.281 226.042 105.355C226.072 105.433 226.1 105.512 226.126 105.59C226.139 105.63 226.15 105.669 226.162 105.709C226.168 105.726 226.173 105.743 226.178 105.759C226.186 105.787 226.196 105.816 226.204 105.844C226.23 105.939 226.254 106.034 226.274 106.129C226.286 106.187 226.294 106.244 226.303 106.302C226.309 106.332 226.314 106.362 226.318 106.391C226.323 106.419 226.329 106.447 226.332 106.474C226.354 106.638 226.365 106.802 226.364 106.961L226.197 165.862C226.194 166.892 225.645 167.844 224.754 168.361L224.19 168.721L224.361 108.156C224.362 107.97 224.345 107.779 224.316 107.586C224.311 107.557 224.305 107.527 224.301 107.497C224.27 107.317 224.229 107.135 224.175 106.954C224.17 106.938 224.165 106.921 224.16 106.904C224.1 106.707 224.028 106.511 223.944 106.317C223.942 106.314 223.941 106.311 223.939 106.307C223.852 106.109 223.754 105.915 223.645 105.726C223.642 105.721 223.639 105.715 223.636 105.71C223.53 105.526 223.413 105.349 223.289 105.179C223.277 105.164 223.267 105.148 223.255 105.133C223.14 104.979 223.019 104.834 222.891 104.696C222.864 104.666 222.837 104.637 222.809 104.608C222.708 104.503 222.603 104.408 222.496 104.315C222.448 104.273 222.401 104.227 222.351 104.188C222.199 104.068 222.044 103.957 221.883 103.864L136.446 54.5365C136.289 54.4455 136.136 54.3792 135.987 54.3249C135.956 54.3141 135.927 54.3038 135.899 54.2948Z" fill="#ADBBFE"/>
<path d="M177.581 104.112L182.327 106.852C182.919 107.194 183.391 108.019 183.39 108.693L183.374 114.146C183.372 114.82 182.897 115.098 182.304 114.755L177.559 112.016C176.972 111.677 176.499 110.853 176.501 110.178L176.517 104.725C176.519 104.051 176.994 103.773 177.581 104.112Z" fill="#2884FA"/>
<path d="M169.821 108.54L174.567 111.28C175.153 111.619 175.631 112.441 175.63 113.115L175.614 118.568C175.612 119.248 175.132 119.516 174.544 119.177L169.799 116.437C169.212 116.098 168.734 115.277 168.736 114.596L168.751 109.143C168.753 108.47 169.234 108.201 169.821 108.54Z" fill="#031BA1"/>
<path d="M169.847 99.6465L174.592 102.387C175.179 102.725 175.657 103.553 175.655 104.228L175.64 109.68C175.638 110.355 175.157 110.629 174.57 110.29L169.825 107.55C169.238 107.211 168.76 106.383 168.762 105.709L168.777 100.256C168.779 99.5817 169.26 99.3076 169.847 99.6465Z" fill="#F9CC38"/>
<path d="M177.556 113.006L182.301 115.745C182.894 116.087 183.366 116.905 183.364 117.58L183.349 123.032C183.347 123.713 182.871 123.984 182.279 123.642L177.533 120.902C176.946 120.564 176.474 119.745 176.476 119.064L176.491 113.612C176.493 112.938 176.969 112.667 177.556 113.006Z" fill="#173AF8"/>
<path d="M199.769 107.883C199.769 102.14 201.57 97.9986 204.46 95.9953L204.46 95.9947C204.823 95.7438 205.203 95.5271 205.598 95.3441L209.646 93.028C212.303 91.4732 215.776 91.6068 219.578 93.8018C227.927 98.6222 234.696 111.555 234.696 122.687C234.696 128.664 232.744 132.906 229.645 134.808C229.484 134.906 224.985 137.441 224.985 137.441C222.308 139.101 218.769 139.008 214.888 136.767C213.368 135.89 211.902 134.742 210.518 133.387L204.059 124.421C201.404 119.259 199.769 113.354 199.769 107.883Z" fill="url(#paint4_linear_332_30223)"/>
<path d="M231.707 123.927C231.707 135.06 223.236 141.589 214.886 136.768C206.537 131.948 199.768 119.015 199.768 107.883C199.768 96.7501 208.87 90.131 217.22 94.9515C225.569 99.772 231.707 111.086 231.707 123.927Z" fill="url(#paint5_linear_332_30223)"/>
<path d="M207.512 109.632C208.618 108.851 210.41 109.831 211.515 111.943L213.773 116.154L221.511 110.27L224.304 108.646L224.305 108.652C225.417 107.989 227.111 109.019 228.174 111.048C229.279 113.161 229.279 115.551 228.174 116.386L215.975 125.697C215.872 125.776 215.761 125.832 215.647 125.878L215.65 125.882L212.844 127.517L204.902 111.147C204.901 111.146 207.504 109.638 207.512 109.632Z" fill="url(#paint6_linear_332_30223)"/>
<path d="M211.247 127.358C211.995 127.776 212.743 127.826 213.314 127.408L225.912 118.097C227.054 117.261 227.054 114.871 225.912 112.758C224.77 110.646 222.919 109.611 221.778 110.447L211.247 118.245L208.71 113.654C207.568 111.542 205.717 110.507 204.576 111.343C203.434 112.178 203.434 114.568 204.576 116.681L209.181 125.096C209.75 126.152 210.498 126.939 211.247 127.358Z" fill="url(#paint7_linear_332_30223)"/>
<path d="M144.61 78.7012L124.714 67.2138C124.029 66.8186 123.25 66.9181 122.691 67.3277L119.185 69.4159L142.061 99.1336L145.879 96.8617C146.485 96.5713 146.934 95.9621 146.934 95.1943V82.7262C146.934 81.0654 146.048 79.531 144.61 78.7012Z" fill="url(#paint8_linear_332_30223)"/>
<path d="M134.436 96.7307L130.607 98.9308L129.404 92.0518L134.231 95.5578L134.436 96.7307Z" fill="url(#paint9_linear_332_30223)"/>
<path d="M140.782 80.9778L120.886 69.4903C119.652 68.7778 118.11 69.6681 118.11 71.0932V83.5712C118.11 85.232 118.996 86.767 120.435 87.5968L125.024 90.2441L125.003 90.2336L130.608 98.9309L129.545 92.8519L140.331 99.0737C141.565 99.7856 143.107 98.8947 143.107 97.4709V85.0028C143.106 83.3426 142.22 81.8082 140.782 80.9778Z" fill="url(#paint10_linear_332_30223)"/>
<path d="M138.93 91.9642C139.894 91.5538 140.088 89.8394 139.362 88.1349C138.637 86.4304 137.267 85.3812 136.303 85.7916C135.339 86.2019 135.145 87.9163 135.871 89.6208C136.596 91.3253 137.966 92.3745 138.93 91.9642Z" fill="#43386B"/>
<path d="M128.423 83.5435C128.423 81.9347 129.401 81.1951 130.608 81.8919C131.814 82.5886 132.793 84.4575 132.793 86.0664C132.793 87.6752 131.815 88.4147 130.608 87.718C129.401 87.0212 128.423 85.1523 128.423 83.5435Z" fill="#43386B"/>
<path d="M121.441 79.4763C121.441 77.8675 122.419 77.128 123.626 77.8247C124.833 78.5215 125.811 80.3904 125.811 81.9992C125.811 83.608 124.834 84.3475 123.626 83.6508C122.419 82.9541 121.441 81.0851 121.441 79.4763Z" fill="#43386B"/>
<g opacity="0.5">
<path d="M68.7237 174.415L54.3474 176.048V178.44L61.4288 182.576L72.2345 176.351L68.7237 174.415Z" fill="#BCC5DF"/>
</g>
<g opacity="0.5">
<path d="M59.2031 170.035L71.1259 177L82.1288 170.634L75.909 166.519L67.5516 165.215L59.2031 170.035Z" fill="#BCC5DF"/>
</g>
<path d="M63.9509 148.301L64.0637 170.491L71.7439 174.954L71.6319 152.765L63.9509 148.301Z" fill="#BCC5DF"/>
<path d="M71.6321 152.765L71.7441 174.954L79.4743 170.491L79.3616 148.301L71.6321 152.765Z" fill="#DDE3F4"/>
<path d="M63.9509 148.301L71.6319 152.765L79.3614 148.301L71.6812 143.839L63.9509 148.301Z" fill="#E9ECF5"/>
<path d="M54.2317 133.608L54.3444 176.13L62.0246 180.593L61.9119 138.072L54.2317 133.608Z" fill="#FFB700"/>
<path d="M61.9119 138.072L62.0246 180.593L69.7556 176.13L69.6428 133.608L61.9119 138.072Z" fill="#FFC400"/>
<path d="M54.2317 133.608L61.9119 138.072L69.6429 133.608L61.9627 129.145L54.2317 133.608Z" fill="#FFDE23"/>
<g opacity="0.5">
<path d="M149.625 218.026L135.903 226.043L124.695 219.56V217.664L138.417 211.543L149.625 218.026Z" fill="#BCC5DF"/>
</g>
<path d="M146.344 216.366V218.046L135.555 224.316V222.636L146.344 216.366Z" fill="#BCC5DF"/>
<path d="M135.555 222.636V224.316L124.695 218.046V216.366L135.555 222.636Z" fill="#DDE3F4"/>
<path d="M146.344 216.366L135.555 222.636L124.695 216.366L135.485 210.096L146.344 216.366Z" fill="white"/>
<path d="M146.545 214.133V215.813L135.755 222.083V220.403L146.545 214.133Z" fill="#BCC5DF"/>
<path d="M135.755 220.403V222.083L124.895 215.813V214.133L135.755 220.403Z" fill="#DDE3F4"/>
<path d="M146.545 214.133L135.755 220.403L124.895 214.133L135.685 207.863L146.545 214.133Z" fill="white"/>
<path d="M148.556 212.843V214.523L137.766 220.794V219.113L148.556 212.843Z" fill="#BCC5DF"/>
<path d="M137.766 219.113V220.794L126.906 214.524V212.843L137.766 219.113Z" fill="#DDE3F4"/>
<path d="M148.556 212.843L137.766 219.113L126.906 212.843L137.696 206.573L148.556 212.843Z" fill="white"/>
<path d="M138.568 208.883C136.827 208.958 134.827 209.958 135.481 211.252C133.238 210.874 131.508 212.029 131.377 213.034C131.18 214.554 134.31 216.328 142.351 215.219C144.272 210.576 141.201 208.769 138.568 208.883Z" fill="#F75061"/>
<defs>
<linearGradient id="paint0_linear_332_30223" x1="177.803" y1="168.875" x2="177.803" y2="251.54" gradientUnits="userSpaceOnUse">
<stop stop-color="#E3E3E3"/>
<stop offset="1" stop-color="#6C86DD"/>
</linearGradient>
<linearGradient id="paint1_linear_332_30223" x1="81.1378" y1="130.222" x2="216.859" y2="221.266" gradientUnits="userSpaceOnUse">
<stop stop-color="#DFDAEF"/>
<stop offset="1" stop-color="#F2EFFA"/>
</linearGradient>
<linearGradient id="paint2_linear_332_30223" x1="193.283" y1="60.5169" x2="193.283" y2="171.586" gradientUnits="userSpaceOnUse">
<stop stop-color="#555C8B"/>
<stop offset="1" stop-color="#6C86DD"/>
</linearGradient>
<linearGradient id="paint3_linear_332_30223" x1="193.184" y1="113.458" x2="193.184" y2="166.332" gradientUnits="userSpaceOnUse">
<stop stop-color="#555C8B"/>
<stop offset="1" stop-color="#6C86DD"/>
</linearGradient>
<linearGradient id="paint4_linear_332_30223" x1="219.695" y1="119.502" x2="206.889" y2="97.3212" gradientUnits="userSpaceOnUse">
<stop offset="0.0319" stop-color="#2F878A"/>
<stop offset="0.065" stop-color="#348C8E"/>
<stop offset="0.3608" stop-color="#61B7B1"/>
<stop offset="0.6257" stop-color="#80D6CA"/>
<stop offset="0.8478" stop-color="#94E9D9"/>
<stop offset="1" stop-color="#9BF0DF"/>
</linearGradient>
<linearGradient id="paint5_linear_332_30223" x1="214.887" y1="156.353" x2="214.887" y2="97.9386" gradientUnits="userSpaceOnUse">
<stop stop-color="#2F878A"/>
<stop offset="0.1269" stop-color="#259B93"/>
<stop offset="0.3419" stop-color="#18B69F"/>
<stop offset="0.5591" stop-color="#0ECAA7"/>
<stop offset="0.7777" stop-color="#08D6AC"/>
<stop offset="1" stop-color="#06DAAE"/>
</linearGradient>
<linearGradient id="paint6_linear_332_30223" x1="221.698" y1="121.319" x2="219.747" y2="117.967" gradientUnits="userSpaceOnUse">
<stop offset="0.0319" stop-color="#A996EB"/>
<stop offset="0.6819" stop-color="#D7CFF3"/>
<stop offset="1" stop-color="#E9E5F6"/>
</linearGradient>
<linearGradient id="paint7_linear_332_30223" x1="215.243" y1="127.264" x2="215.243" y2="114.045" gradientUnits="userSpaceOnUse">
<stop stop-color="#DFDAEF"/>
<stop offset="1" stop-color="white"/>
</linearGradient>
<linearGradient id="paint8_linear_332_30223" x1="141.074" y1="89.3292" x2="136.659" y2="81.6826" gradientUnits="userSpaceOnUse">
<stop stop-color="#FFA538"/>
<stop offset="0.046" stop-color="#FFA93F"/>
<stop offset="0.4975" stop-color="#FDD17D"/>
<stop offset="0.8279" stop-color="#FCEAA4"/>
<stop offset="1" stop-color="#FCF3B3"/>
</linearGradient>
<linearGradient id="paint9_linear_332_30223" x1="131.162" y1="93.0533" x2="133.509" y2="100.878" gradientUnits="userSpaceOnUse">
<stop stop-color="#FFA538"/>
<stop offset="0.046" stop-color="#FFA93F"/>
<stop offset="0.4975" stop-color="#FDD17D"/>
<stop offset="0.8279" stop-color="#FCEAA4"/>
<stop offset="1" stop-color="#FCF3B3"/>
</linearGradient>
<linearGradient id="paint10_linear_332_30223" x1="130.608" y1="105.208" x2="130.608" y2="74.2245" gradientUnits="userSpaceOnUse">
<stop stop-color="#FFC538"/>
<stop offset="0.3942" stop-color="#FBD13C"/>
<stop offset="1" stop-color="#F7E041"/>
</linearGradient>
</defs>
</svg>
