<svg width="430" height="550" viewBox="0 0 430 550" fill="none" xmlns="http://www.w3.org/2000/svg">
<circle cx="155" cy="275" r="275" fill="url(#paint0_linear_332_30648)" fill-opacity="0.4"/>
<circle cx="127.5" cy="311.5" r="217.5" fill="url(#paint1_linear_332_30648)" fill-opacity="0.5"/>
<path d="M90 327.059V335.841C90 338.599 91.3281 341.356 93.9844 342.933L169.416 387.482C176.62 391.757 185.497 391.757 192.703 387.482L272.016 340.038C274.625 338.49 275.946 335.8 275.992 333.09L276 333.087V324.185L90 327.059Z" fill="url(#paint2_linear_332_30648)"/>
<path d="M93.9844 334.15L169.416 378.7C176.62 382.974 185.497 382.974 192.703 378.7L272.016 331.255C277.328 328.103 277.328 320.223 272.016 317.072L196.584 272.522C189.38 268.248 180.503 268.248 173.297 272.522L93.9844 319.967C88.6719 323.118 88.6719 330.997 93.9844 334.15Z" fill="url(#paint3_linear_332_30648)"/>
<path d="M228.242 261.115C226.681 271.781 201.146 271.418 200.255 260.787L200.125 306.434C200.716 313.452 211.54 315.303 217.472 314.355C221.206 313.779 225.356 312.404 227.431 309.025C227.84 308.294 228.094 307.477 228.122 306.638C228.184 306.481 228.21 261.023 228.253 260.868C228.253 260.95 228.247 261.032 228.242 261.115Z" fill="url(#paint4_linear_332_30648)"/>
<path d="M224.12 255.094C229.606 258.261 229.635 263.396 224.186 266.562C218.737 269.729 209.873 269.729 204.387 266.562C198.903 263.395 198.874 258.261 204.323 255.094C209.772 251.928 218.636 251.928 224.12 255.094Z" fill="#005D92"/>
<path d="M195.851 295.063C194.29 305.729 168.754 305.367 167.863 294.736L167.776 325.167C168.351 332.142 179.105 334.021 185.01 333.102C188.808 332.535 193.085 331.144 195.136 327.656C196.389 327.75 195.628 295.796 195.862 294.816C195.862 294.898 195.856 294.98 195.851 295.063Z" fill="url(#paint5_linear_332_30648)"/>
<path d="M191.728 289.041C197.214 292.208 197.243 297.343 191.794 300.509C186.344 303.677 177.48 303.677 171.994 300.509C166.51 297.343 166.481 292.209 171.931 289.041C177.38 285.875 186.244 285.875 191.728 289.041Z" fill="url(#paint6_linear_332_30648)"/>
<path d="M162.031 328.757C160.469 339.424 134.934 339.06 134.043 328.43L134 343.645C133.994 345.734 135.373 347.825 138.132 349.419C142.074 351.625 146.802 352.142 151.235 351.58C155.246 350.973 160.037 349.41 161.707 345.355C162.299 344.772 161.918 329.513 162.042 328.51C162.041 328.592 162.035 328.675 162.031 328.757Z" fill="url(#paint7_linear_332_30648)"/>
<path d="M157.909 322.736C163.394 325.903 163.423 331.038 157.974 334.204C152.525 337.371 143.661 337.371 138.176 334.204C132.691 331.037 132.662 325.903 138.111 322.736C143.56 319.57 152.424 319.57 157.909 322.736Z" fill="#6AC0E3"/>
<path d="M228.743 213.503L222.165 209.681L226.89 209.724L233.468 213.547L228.743 213.503Z" fill="#C2C2C2"/>
<path d="M214.2 254.89L207.623 251.068L222.165 209.681L228.742 213.503L214.2 254.89Z" fill="#CCCCCC"/>
<path d="M215.47 264.771C210.933 262.533 196.887 252.782 192.5 249.786C197.036 252.024 211.082 261.775 215.47 264.771Z" fill="#808080"/>
<path d="M221.209 213.433L214.631 209.611L233.206 185L239.784 188.823L221.209 213.433Z" fill="#CACACA"/>
<path d="M182.358 291.501L175.78 287.678L190.939 239.705L197.517 243.528L182.358 291.501Z" fill="#CCCCCC"/>
<path d="M165.24 287.028L158.663 283.206L175.781 287.678L182.359 291.501L165.24 287.028Z" fill="#CCCCCC"/>
<path d="M147.931 331.72L141.354 327.898L158.662 283.206L165.24 287.028L147.931 331.72Z" fill="#CCCCCC"/>
<path d="M239.784 188.822L221.209 213.433L228.742 213.503L214.2 254.89L197.517 243.528L182.358 291.501L165.24 287.028L147.931 331.72L152.527 332.115L166.904 294.994L184.543 299.602L199.077 253.608L215.47 264.771L233.467 213.547L241 213.616L239.784 188.822Z" fill="white"/>
<defs>
<linearGradient id="paint0_linear_332_30648" x1="247.755" y1="-17.0103" x2="260.148" y2="604.249" gradientUnits="userSpaceOnUse">
<stop stop-color="#FFB244"/>
<stop offset="0.692155" stop-color="#F7D379" stop-opacity="0.8"/>
</linearGradient>
<linearGradient id="paint1_linear_332_30648" x1="200.86" y1="80.5464" x2="210.662" y2="571.906" gradientUnits="userSpaceOnUse">
<stop stop-color="#FFB244"/>
<stop offset="0.692155" stop-color="#F7D379" stop-opacity="0.8"/>
</linearGradient>
<linearGradient id="paint2_linear_332_30648" x1="215.122" y1="324.357" x2="215.122" y2="397.272" gradientUnits="userSpaceOnUse">
<stop stop-color="#E3E3E3"/>
<stop offset="1" stop-color="#6C86DD"/>
</linearGradient>
<linearGradient id="paint3_linear_332_30648" x1="131.883" y1="290.263" x2="250.481" y2="367.931" gradientUnits="userSpaceOnUse">
<stop stop-color="#DFDAEF"/>
<stop offset="1" stop-color="#F2EFFA"/>
</linearGradient>
<linearGradient id="paint4_linear_332_30648" x1="200.125" y1="287.686" x2="228.253" y2="287.686" gradientUnits="userSpaceOnUse">
<stop stop-color="#8BB5CD"/>
<stop offset="0.5" stop-color="#005D92"/>
<stop offset="1" stop-color="#004166"/>
</linearGradient>
<linearGradient id="paint5_linear_332_30648" x1="186.569" y1="293.543" x2="187.762" y2="337.11" gradientUnits="userSpaceOnUse">
<stop stop-color="#FF9E44"/>
<stop offset="0.692155" stop-color="#F7D379"/>
</linearGradient>
<linearGradient id="paint6_linear_332_30648" x1="186.584" y1="286.165" x2="186.796" y2="304.489" gradientUnits="userSpaceOnUse">
<stop stop-color="#FF9E44"/>
<stop offset="0.692155" stop-color="#F7D379"/>
</linearGradient>
<linearGradient id="paint7_linear_332_30648" x1="134" y1="340.11" x2="162.05" y2="340.11" gradientUnits="userSpaceOnUse">
<stop stop-color="#7DC8E7"/>
<stop offset="0.4888" stop-color="#32A9D9"/>
<stop offset="1" stop-color="#19556D"/>
</linearGradient>
</defs>
</svg>
