<svg width="705" height="236" viewBox="0 0 705 236" fill="none" xmlns="http://www.w3.org/2000/svg">

<g class="el1">
    <path d="M0 154.674V165.817C0 169.316 1.68514 172.815 5.05543 174.815L100.764 231.341C109.905 236.764 121.168 236.764 130.311 231.341L230.945 171.143C234.256 169.178 235.932 165.765 235.99 162.327L236 162.323V151.028L0 154.674Z" fill="url(#paint0_linear_410_8190)"/>
<path d="M5.05543 163.672L100.764 220.197C109.905 225.621 121.168 225.621 130.311 220.197L230.945 159.999C237.685 155.999 237.685 146.001 230.945 142.003L135.236 85.4778C126.095 80.0539 114.832 80.0539 105.689 85.4778L5.05543 145.676C-1.68514 149.674 -1.68514 159.672 5.05543 163.672Z" fill="url(#paint1_linear_410_8190)"/>
<path d="M93.0912 129.775L113.811 89.1488L136.368 79.8675L145.855 50.8058L149.323 55.1748L149.708 34.2587L135.607 48.0269L141.747 49.3645L132.227 76.0063L110.136 85.4171L90.4648 124.909L93.0912 129.775Z" fill="url(#paint2_linear_410_8190)"/>
<path d="M96.2699 131.634L116.989 91.007L139.547 81.7259L149.033 52.6642L152.501 57.0332L152.886 36.1171L138.786 49.8853L144.925 51.2229L135.405 77.8645L113.315 87.2755L93.6436 126.767L96.2699 131.634Z" fill="#FABB02"/>
<path d="M149.709 34.2587L152.887 36.1663L138.787 49.9345L135.608 48.0269L149.709 34.2587Z" fill="#E38D06"/>
<path d="M149.323 55.1754L152.501 57.083L149.033 52.714L148.548 54.1996L149.323 55.1754Z" fill="#F69524"/>
<path d="M90.4648 124.909L93.6433 126.817L96.2697 131.683L93.0912 129.776L90.4648 124.909Z" fill="#F69524"/>
<path d="M132.227 76.0066L135.406 77.914L113.315 87.325L110.137 85.4174L132.227 76.0066Z" fill="#F69524"/>
<path d="M89.7703 80.5767V167.237L163.786 123.35V129.491L84.7354 177.152V82.9563L89.7703 80.5767Z" fill="url(#paint3_linear_410_8190)"/>
<path d="M79 79.2533L84.7359 82.9572V177.153L79 173.449V79.2533Z" fill="url(#paint4_linear_410_8190)"/>
<path d="M84.0352 76.8737L89.7709 80.5776L84.7359 82.9572L79 79.2533L84.0352 76.8737Z" fill="url(#paint5_linear_410_8190)"/>
<path d="M158.051 119.646L163.787 123.35L89.7705 167.237L89.8999 160.056L158.051 119.646Z" fill="url(#paint6_linear_410_8190)" fill-opacity="0.8"/>
<path d="M146.843 88.2892L136.473 81.8311V123.297L146.843 129.755V88.2892Z" fill="url(#paint7_linear_410_8190)"/>
<path d="M146.844 88.3666L156.08 82.7795V124.245L146.844 129.832V88.3666Z" fill="url(#paint8_linear_410_8190)"/>
<path d="M146.843 88.3671L136.473 81.8314L145.709 76.2625L156.079 82.7982L146.843 88.3671Z" fill="#D0D5E2"/>
<path d="M131.319 108.787L120.948 102.329V132.545L131.319 139.003V108.787Z" fill="url(#paint9_linear_410_8190)"/>
<path d="M131.318 108.865L140.555 103.277V133.493L131.318 139.08V108.865Z" fill="url(#paint10_linear_410_8190)"/>
<path d="M131.319 108.865L120.948 102.329L130.185 96.76L140.555 103.296L131.319 108.865Z" fill="#D0D5E2"/>
<path d="M115.793 127.314L105.423 120.856V141.791L115.793 148.249V127.314Z" fill="url(#paint11_linear_410_8190)"/>
<path d="M115.794 127.391L125.031 121.804V142.739L115.794 148.326V127.391Z" fill="url(#paint12_linear_410_8190)"/>
<path d="M115.793 127.391L105.423 120.856L114.659 115.287L125.03 121.822L115.793 127.391Z" fill="#D0D5E2"/>
<path d="M100.27 144.464L89.8994 138.006V151.038L100.27 157.496V144.464Z" fill="url(#paint13_linear_410_8190)"/>
<path d="M100.271 144.541L109.507 138.954V151.987L100.271 157.574V144.541Z" fill="url(#paint14_linear_410_8190)"/>
<path d="M100.27 144.541L89.8994 138.006L99.1358 132.437L109.506 138.972L100.27 144.541Z" fill="#D0D5E2"/>
</g>

<g class="el1" >
<path d="M469 154.209V165.352C469 168.851 470.685 172.35 474.055 174.35L569.764 230.875C578.905 236.299 590.168 236.299 599.311 230.875L699.945 170.678C703.256 168.713 704.932 165.3 704.99 161.862L705 161.858V150.563L469 154.209Z" fill="url(#paint15_linear_410_8190)"/>
<path d="M474.055 163.207L569.764 219.732C578.905 225.156 590.168 225.156 599.311 219.732L699.945 159.534C706.685 155.534 706.685 145.536 699.945 141.538L604.236 85.0128C595.095 79.5888 583.832 79.5888 574.689 85.0128L474.055 145.211C467.315 149.209 467.315 159.207 474.055 163.207Z" fill="url(#paint16_linear_410_8190)"/>
<path d="M582.878 98.5522C581.887 97.9668 580.298 97.9668 579.314 98.5522L523.739 131.625C522.754 132.211 522.752 133.159 523.742 133.744L617.67 189.276C618.66 189.861 620.258 189.856 621.242 189.27L676.818 156.197C677.802 155.612 677.797 154.669 676.806 154.083L582.878 98.5522Z" fill="#E3EBF6"/>
<path d="M581.628 99.4621C580.668 98.8948 579.129 98.8948 578.175 99.4621L524.336 131.502C523.382 132.069 523.38 132.987 524.339 133.555L615.333 187.352C616.292 187.919 617.839 187.915 618.793 187.347L672.633 155.307C673.586 154.74 673.581 153.827 672.621 153.259L581.628 99.4621Z" fill="#96AAFF"/>
<path d="M581.661 94.8953C580.703 94.3285 579.165 94.3285 578.214 94.8953L524.461 126.884C523.509 127.45 523.506 128.367 524.464 128.933L615.311 182.643C616.269 183.209 617.814 183.205 618.766 182.639L672.519 150.651C673.471 150.084 673.466 149.173 672.508 148.606L581.661 94.8953Z" fill="white"/>
<path d="M586.145 98.812L665.84 145.929L667.099 145.121L587.404 98.0038L586.145 98.812Z" fill="#F0F8FF"/>
<path d="M671.77 80.329C673.203 81.1765 674.359 83.2282 674.355 84.9148L674.176 149.605L579.87 93.8503L580.049 29.1604C580.054 27.4738 581.218 26.7944 582.652 27.6419L671.77 80.329Z" fill="white"/>
<path d="M523.746 127.905C523.745 128.276 523.984 128.648 524.465 128.932L615.311 182.642C616.269 183.209 617.814 183.204 618.766 182.638L672.519 150.65C672.575 150.617 672.617 150.579 672.667 150.543C672.728 150.499 672.793 150.456 672.844 150.409C672.92 150.338 672.984 150.266 673.038 150.19C673.047 150.177 673.055 150.163 673.064 150.15C673.114 150.074 673.154 149.996 673.181 149.917C673.184 149.908 673.185 149.9 673.188 149.891C673.214 149.806 673.231 149.72 673.231 149.635L673.219 153.708C673.219 153.715 673.219 153.723 673.219 153.73C673.217 153.777 673.212 153.825 673.203 153.872C673.197 153.903 673.187 153.934 673.177 153.965C673.175 153.974 673.173 153.982 673.17 153.991C673.167 153.998 673.166 154.005 673.164 154.012C673.146 154.06 673.125 154.107 673.099 154.153C673.086 154.177 673.068 154.2 673.053 154.224C673.044 154.237 673.036 154.251 673.027 154.264C673.018 154.277 673.011 154.29 673.002 154.303C672.958 154.36 672.907 154.416 672.85 154.47C672.845 154.474 672.838 154.478 672.833 154.483C672.782 154.53 672.717 154.572 672.656 154.616C672.616 154.646 672.584 154.678 672.539 154.705C672.529 154.711 672.519 154.718 672.509 154.723L618.756 186.711C617.804 187.278 616.259 187.282 615.301 186.716L524.454 133.005C523.973 132.721 523.735 132.35 523.736 131.978L523.746 127.905Z" fill="#ADBBFE"/>
<path d="M576.241 138.525C575.758 138.24 574.99 138.244 574.517 138.525L563.242 145.235C562.77 145.516 562.765 145.971 563.248 146.257L583.494 158.192C583.968 158.473 584.745 158.473 585.217 158.192L596.493 151.482C596.965 151.201 596.962 150.741 596.487 150.459L576.241 138.525ZM649.622 146.708C649.394 146.573 649.392 146.353 649.619 146.217L653.369 143.986C653.596 143.851 653.968 143.851 654.197 143.986L657.972 146.217C658.2 146.353 658.202 146.573 657.974 146.708L654.224 148.94C653.997 149.076 653.625 149.076 653.396 148.94L649.622 146.708ZM663.403 149.429C663.632 149.564 663.633 149.785 663.406 149.92L659.656 152.152C659.429 152.287 659.057 152.287 658.829 152.152L655.054 149.92C654.825 149.785 654.824 149.565 655.052 149.43L658.802 147.198C659.029 147.063 659.4 147.063 659.629 147.198L663.403 149.429ZM658.006 152.641C658.235 152.776 658.236 152.996 658.009 153.131L654.259 155.363C654.032 155.498 653.66 155.498 653.432 155.363L646.235 151.108C646.006 150.973 646.006 150.752 646.233 150.617L649.983 148.386C650.21 148.251 650.581 148.251 650.81 148.386L658.006 152.641ZM652.61 155.852C652.839 155.988 652.84 156.208 652.612 156.343L648.862 158.574C648.635 158.71 648.263 158.71 648.035 158.574L644.261 156.343C644.032 156.208 644.03 155.988 644.258 155.852L648.008 153.621C648.235 153.486 648.607 153.486 648.836 153.621L652.61 155.852ZM642.602 155.363L638.828 153.131C638.599 152.996 638.597 152.776 638.825 152.641L642.575 150.409C642.802 150.274 643.174 150.274 643.402 150.409L647.177 152.641C647.405 152.776 647.406 152.996 647.179 153.131L643.429 155.363C643.203 155.498 642.831 155.498 642.602 155.363ZM601.956 137.735C601.728 137.6 601.726 137.379 601.953 137.244L605.703 135.013C605.93 134.877 606.302 134.877 606.531 135.013L610.306 137.244C610.534 137.379 610.535 137.6 610.308 137.735L606.558 139.966C606.331 140.101 605.959 140.101 605.73 139.966L601.956 137.735ZM567.813 124.926C568.041 125.062 568.045 125.281 567.818 125.416L564.065 127.649C563.838 127.784 563.469 127.783 563.24 127.648L559.466 125.416C559.237 125.281 559.234 125.062 559.461 124.927L563.213 122.694C563.44 122.558 563.809 122.56 564.038 122.695L567.813 124.926ZM580.221 111.591C579.994 111.726 579.622 111.726 579.394 111.591L575.619 109.359C575.39 109.224 575.389 109.004 575.617 108.868L579.367 106.637C579.594 106.502 579.966 106.502 580.194 106.637L583.969 108.868C584.198 109.004 584.199 109.224 583.972 109.359L580.221 111.591ZM570.186 106.147C569.958 106.012 569.957 105.791 570.184 105.656L573.934 103.425C574.161 103.289 574.533 103.289 574.761 103.425L578.536 105.656C578.764 105.791 578.766 106.012 578.539 106.147L574.789 108.378C574.562 108.514 574.19 108.514 573.962 108.378L570.186 106.147ZM575.583 102.935C575.355 102.8 575.354 102.58 575.581 102.445L579.331 100.213C579.558 100.078 579.93 100.078 580.158 100.213L587.357 104.469C587.585 104.605 587.585 104.823 587.357 104.959L583.607 107.19C583.38 107.325 583.011 107.327 582.782 107.191L575.583 102.935ZM584.438 108.17C584.209 108.035 584.21 107.816 584.438 107.681L588.188 105.449C588.415 105.314 588.784 105.313 589.012 105.448L592.787 107.68C593.015 107.815 593.016 108.035 592.789 108.17L589.039 110.402C588.812 110.537 588.44 110.537 588.212 110.402L584.438 108.17ZM589.87 111.382C589.641 111.247 589.64 111.026 589.867 110.891L593.617 108.66C593.844 108.525 594.216 108.525 594.445 108.66L598.22 110.891C598.448 111.026 598.449 111.247 598.222 111.382L594.472 113.613C594.245 113.749 593.873 113.749 593.645 113.613L589.87 111.382ZM589.4 112.079C589.628 112.215 589.63 112.435 589.403 112.57L585.653 114.802C585.426 114.937 585.054 114.937 584.825 114.802L581.05 112.57C580.821 112.435 580.821 112.215 581.048 112.079L584.798 109.848C585.025 109.713 585.397 109.713 585.626 109.848L589.4 112.079ZM590.258 118.014L586.483 115.782C586.252 115.646 586.254 115.427 586.481 115.292L590.231 113.06C590.458 112.925 590.827 112.924 591.058 113.06L594.832 115.292C595.061 115.427 595.059 115.646 594.832 115.781L591.082 118.012C590.855 118.147 590.486 118.149 590.258 118.014ZM582.823 115.082C583.05 114.947 583.422 114.947 583.651 115.082L587.425 117.314C587.654 117.449 587.656 117.669 587.428 117.804L583.678 120.036C583.451 120.171 583.079 120.171 582.85 120.036L579.076 117.804C578.847 117.669 578.845 117.449 579.073 117.314L582.823 115.082ZM595.302 114.594C595.073 114.458 595.071 114.238 595.299 114.103L599.049 111.871C599.276 111.736 599.648 111.736 599.877 111.871L603.651 114.103C603.88 114.238 603.881 114.458 603.654 114.594L599.904 116.825C599.677 116.96 599.305 116.96 599.077 116.825L595.302 114.594ZM573.643 114.594C573.415 114.458 573.416 114.239 573.643 114.104L577.393 111.873C577.62 111.737 577.99 111.736 578.218 111.871L581.992 114.103C582.221 114.238 582.223 114.458 581.995 114.594L578.245 116.825C578.018 116.96 577.646 116.96 577.418 116.825L573.643 114.594ZM564.789 109.358C564.561 109.223 564.56 109.003 564.787 108.868L568.537 106.636C568.764 106.501 569.135 106.501 569.364 106.636L576.563 110.892C576.792 111.028 576.791 111.247 576.563 111.382L572.813 113.613C572.586 113.749 572.217 113.75 571.988 113.615L564.789 109.358ZM559.393 112.571C559.164 112.435 559.163 112.215 559.39 112.08L563.14 109.849C563.367 109.713 563.739 109.713 563.967 109.849L572.282 114.764C572.511 114.899 572.509 115.118 572.282 115.254L568.532 117.485C568.305 117.62 567.936 117.622 567.707 117.486L559.393 112.571ZM569.362 118.465C569.134 118.329 569.135 118.11 569.362 117.975L573.113 115.744C573.34 115.608 573.709 115.607 573.938 115.742L577.715 117.976C577.944 118.111 577.942 118.33 577.715 118.465L573.965 120.697C573.738 120.832 573.368 120.833 573.14 120.698L569.362 118.465ZM556.948 118.503C557.177 118.638 557.18 118.857 556.953 118.993L553.201 121.226C552.974 121.361 552.605 121.36 552.376 121.225L548.601 118.993C548.373 118.858 548.369 118.639 548.596 118.504L552.349 116.27C552.576 116.135 552.945 116.137 553.174 116.272L556.948 118.503ZM553.998 115.78C553.769 115.645 553.766 115.426 553.993 115.291L557.743 113.06C557.97 112.924 558.342 112.924 558.571 113.06L569.646 119.608C569.875 119.743 569.874 119.962 569.646 120.097L565.896 122.329C565.669 122.464 565.302 122.464 565.073 122.329L553.998 115.78ZM600.734 117.805C600.505 117.67 600.504 117.45 600.731 117.314L604.481 115.083C604.708 114.948 605.08 114.948 605.309 115.083L609.084 117.314C609.313 117.45 609.313 117.67 609.086 117.805L605.336 120.037C605.109 120.172 604.737 120.172 604.509 120.037L600.734 117.805ZM600.265 118.503C600.493 118.638 600.492 118.857 600.265 118.992L596.515 121.223C596.288 121.359 595.919 121.36 595.69 121.225L591.913 118.991C591.685 118.856 591.686 118.637 591.913 118.502L595.663 116.27C595.89 116.135 596.259 116.134 596.488 116.269L600.265 118.503ZM606.166 121.017C605.937 120.881 605.936 120.661 606.164 120.526L609.914 118.294C610.141 118.159 610.513 118.159 610.741 118.294L614.515 120.525C614.744 120.661 614.745 120.881 614.518 121.016L610.768 123.247C610.541 123.383 610.169 123.383 609.941 123.247L606.166 121.017ZM588.283 123.248L584.508 121.017C584.279 120.881 584.278 120.661 584.505 120.526L588.256 118.295C588.483 118.159 588.854 118.159 589.083 118.295L592.858 120.526C593.087 120.661 593.088 120.881 592.86 121.017L589.11 123.248C588.883 123.383 588.511 123.383 588.283 123.248ZM579.397 123.908C579.17 124.043 578.801 124.045 578.569 123.908L574.795 121.677C574.567 121.542 574.567 121.323 574.795 121.187L578.545 118.956C578.772 118.821 579.141 118.819 579.369 118.955L583.144 121.186C583.375 121.323 583.374 121.542 583.146 121.677L579.397 123.908ZM605.697 121.714C605.925 121.849 605.925 122.068 605.697 122.204L601.947 124.435C601.72 124.57 601.351 124.572 601.123 124.436L597.345 122.203C597.117 122.068 597.118 121.849 597.345 121.714L601.096 119.482C601.323 119.347 601.692 119.346 601.921 119.481L605.697 121.714ZM566.729 123.307C566.5 123.172 566.499 122.955 566.726 122.819L570.476 120.588C570.703 120.453 571.072 120.451 571.301 120.587L575.078 122.82C575.307 122.955 575.305 123.174 575.078 123.309L571.328 125.541C571.101 125.676 570.735 125.676 570.506 125.541L566.729 123.307ZM611.599 124.228C611.37 124.093 611.369 123.873 611.596 123.738L615.346 121.506C615.573 121.37 615.945 121.37 616.174 121.506L619.948 123.737C620.177 123.872 620.178 124.092 619.951 124.228L616.201 126.46C615.974 126.595 615.602 126.595 615.374 126.46L611.599 124.228ZM580.227 124.888C579.999 124.753 579.998 124.533 580.225 124.398L583.975 122.166C584.202 122.03 584.573 122.03 584.802 122.166L588.576 124.397C588.805 124.532 588.806 124.753 588.579 124.888L584.829 127.12C584.602 127.255 584.23 127.255 584.001 127.12L580.227 124.888ZM611.127 124.924C611.358 125.061 611.356 125.28 611.129 125.415L607.379 127.647C607.152 127.782 606.783 127.783 606.552 127.647L602.777 125.415C602.549 125.28 602.55 125.061 602.777 124.926L606.527 122.694C606.754 122.559 607.123 122.558 607.352 122.693L611.127 124.924ZM580.511 126.031C580.739 126.166 580.738 126.385 580.511 126.52L576.761 128.752C576.534 128.888 576.167 128.888 575.938 128.752L572.161 126.519C571.933 126.384 571.931 126.167 572.159 126.031L575.909 123.8C576.136 123.665 576.505 123.664 576.733 123.799L580.511 126.031ZM617.031 127.44C616.803 127.305 616.801 127.084 617.028 126.949L620.778 124.718C621.006 124.583 621.377 124.583 621.605 124.718L625.38 126.949C625.608 127.084 625.61 127.305 625.383 127.44L621.633 129.671C621.405 129.807 621.034 129.807 620.806 129.671L617.031 127.44ZM599.12 124.718C599.347 124.583 599.719 124.583 599.947 124.718L603.722 126.949C603.95 127.084 603.952 127.305 603.724 127.44L599.974 129.671C599.747 129.807 599.376 129.807 599.147 129.671L595.373 127.439C595.144 127.304 595.143 127.084 595.37 126.949L599.12 124.718ZM590.261 130.331C590.034 130.467 589.662 130.467 589.433 130.331L585.659 128.1C585.43 127.965 585.429 127.745 585.656 127.609L589.406 125.378C589.633 125.243 590.005 125.243 590.233 125.378L594.008 127.609C594.236 127.745 594.238 127.965 594.01 128.1L590.261 130.331ZM611.984 130.859L608.21 128.627C607.981 128.492 607.98 128.272 608.207 128.137L611.957 125.905C612.184 125.77 612.556 125.77 612.784 125.905L616.559 128.137C616.789 128.273 616.788 128.492 616.561 128.627L612.811 130.859C612.584 130.994 612.216 130.995 611.984 130.859ZM574.348 128.79C574.577 128.926 574.58 129.145 574.353 129.28L570.601 131.513C570.374 131.648 570.005 131.647 569.776 131.512L564.897 128.628C564.667 128.492 564.665 128.274 564.892 128.139L568.645 125.905C568.872 125.77 569.239 125.77 569.47 125.907L574.348 128.79ZM577.593 129.731C577.364 129.595 577.363 129.378 577.591 129.242L581.341 127.011C581.568 126.876 581.937 126.874 582.166 127.01L585.941 129.241C586.171 129.378 586.17 129.597 585.943 129.732L582.193 131.963C581.966 132.099 581.599 132.099 581.368 131.962L577.593 129.731ZM622.463 130.652C622.232 130.515 622.233 130.296 622.46 130.161L626.21 127.929C626.437 127.793 626.806 127.792 627.037 127.929L630.812 130.16C631.041 130.295 631.039 130.514 630.812 130.65L627.062 132.881C626.835 133.016 626.465 133.018 626.237 132.882L622.463 130.652ZM604.552 127.929C604.779 127.794 605.151 127.794 605.379 127.929L609.153 130.161C609.382 130.296 609.384 130.516 609.156 130.652L605.406 132.883C605.179 133.018 604.807 133.018 604.579 132.883L600.804 130.652C600.576 130.516 600.574 130.296 600.802 130.161L604.552 127.929ZM595.693 133.543C595.466 133.678 595.095 133.678 594.866 133.543L591.091 131.312C590.863 131.176 590.861 130.956 591.089 130.821L594.839 128.589C595.066 128.454 595.437 128.454 595.666 128.589L599.441 130.821C599.67 130.956 599.671 131.176 599.443 131.312L595.693 133.543ZM621.991 131.348C622.22 131.483 622.221 131.703 621.993 131.838L618.243 134.07C618.016 134.205 617.645 134.205 617.416 134.07L613.642 131.838C613.413 131.703 613.412 131.483 613.639 131.348L617.389 129.116C617.616 128.981 617.988 128.981 618.217 129.116L621.991 131.348ZM583.026 132.942C582.797 132.807 582.794 132.588 583.021 132.453L586.771 130.221C586.998 130.086 587.369 130.086 587.598 130.221L591.372 132.453C591.601 132.588 591.602 132.808 591.375 132.943L587.625 135.175C587.398 135.31 587.029 135.309 586.8 135.174L583.026 132.942ZM627.892 133.862C627.664 133.727 627.665 133.508 627.892 133.372L631.643 131.141C631.87 131.006 632.239 131.004 632.467 131.14L636.244 133.373C636.472 133.508 636.472 133.727 636.244 133.862L632.494 136.095C632.267 136.23 631.898 136.231 631.669 136.096L627.892 133.862ZM610.012 136.095L606.237 133.864C606.008 133.729 606.007 133.508 606.235 133.373L609.985 131.142C610.212 131.006 610.584 131.006 610.812 131.142L614.587 133.373C614.815 133.508 614.817 133.729 614.59 133.864L610.84 136.095C610.612 136.23 610.24 136.23 610.012 136.095ZM601.126 136.755C600.899 136.89 600.527 136.89 600.298 136.755L596.524 134.523C596.295 134.388 596.294 134.168 596.521 134.032L600.271 131.801C600.498 131.666 600.87 131.666 601.098 131.801L604.873 134.032C605.101 134.168 605.103 134.388 604.875 134.523L601.126 136.755ZM598.49 141.598C598.263 141.733 597.891 141.733 597.662 141.598L593.888 139.367C593.66 139.231 593.658 139.011 593.885 138.876L597.635 136.645C597.862 136.509 598.234 136.509 598.462 136.645L602.237 138.876C602.466 139.011 602.467 139.231 602.239 139.367L598.49 141.598ZM627.423 134.559C627.652 134.694 627.653 134.915 627.426 135.05L623.676 137.281C623.449 137.417 623.077 137.417 622.849 137.281L619.074 135.05C618.845 134.915 618.845 134.694 619.072 134.559L622.822 132.327C623.049 132.192 623.42 132.192 623.649 132.327L627.423 134.559ZM588.457 136.154C588.229 136.019 588.225 135.8 588.452 135.664L592.202 133.433C592.429 133.298 592.801 133.298 593.029 133.433L596.804 135.664C597.033 135.8 597.034 136.02 596.807 136.155L593.056 138.387C592.829 138.522 592.46 138.52 592.231 138.385L588.457 136.154ZM633.325 137.073C633.096 136.938 633.097 136.719 633.325 136.584L637.075 134.353C637.302 134.217 637.671 134.216 637.9 134.351L641.677 136.585C641.906 136.72 641.905 136.939 641.677 137.074L637.927 139.305C637.7 139.441 637.331 139.442 637.102 139.307L633.325 137.073ZM615.417 134.353C615.644 134.217 616.013 134.216 616.244 134.353L620.018 136.584C620.247 136.719 620.246 136.938 620.018 137.073L616.268 139.305C616.041 139.44 615.672 139.441 615.444 139.306L611.669 137.075C611.438 136.938 611.439 136.719 611.667 136.584L615.417 134.353ZM628.281 140.494L624.507 138.262C624.278 138.127 624.277 137.907 624.504 137.771L628.254 135.54C628.481 135.405 628.853 135.405 629.081 135.54L632.856 137.771C633.084 137.907 633.085 138.127 632.858 138.262L629.108 140.494C628.881 140.629 628.509 140.629 628.281 140.494ZM638.757 140.285C638.528 140.15 638.529 139.931 638.757 139.796L642.507 137.564C642.734 137.429 643.103 137.428 643.332 137.563L647.106 139.794C647.337 139.931 647.336 140.15 647.109 140.285L643.359 142.516C643.132 142.652 642.763 142.653 642.531 142.516L638.757 140.285ZM620.849 137.564C621.076 137.429 621.445 137.428 621.673 137.563L625.45 139.796C625.679 139.931 625.678 140.15 625.45 140.286L621.7 142.517C621.473 142.652 621.104 142.654 620.875 142.518L617.098 140.285C616.869 140.15 616.871 139.931 617.098 139.796L620.849 137.564ZM611.99 143.178C611.763 143.313 611.391 143.313 611.163 143.178L607.388 140.946C607.16 140.811 607.159 140.591 607.386 140.456L611.136 138.224C611.363 138.089 611.734 138.089 611.963 138.224L615.738 140.456C615.967 140.591 615.968 140.811 615.74 140.946L611.99 143.178ZM633.713 143.705L629.938 141.474C629.71 141.339 629.709 141.118 629.936 140.983L633.686 138.752C633.913 138.616 634.284 138.616 634.513 138.752L638.287 140.983C638.516 141.118 638.517 141.339 638.29 141.474L634.54 143.705C634.313 143.84 633.942 143.84 633.713 143.705ZM599.322 142.577C599.093 142.442 599.09 142.223 599.317 142.088L603.067 139.856C603.294 139.721 603.666 139.721 603.894 139.856L607.669 142.088C607.897 142.223 607.899 142.443 607.671 142.578L603.921 144.81C603.694 144.945 603.325 144.944 603.096 144.808L599.322 142.577ZM626.308 145.73L622.531 143.497C622.302 143.361 622.304 143.142 622.531 143.007L626.281 140.775C626.508 140.64 626.877 140.639 627.106 140.774L630.883 143.007C631.112 143.142 631.111 143.361 630.883 143.497L627.133 145.728C626.906 145.863 626.537 145.865 626.308 145.73ZM617.42 146.388C617.193 146.523 616.823 146.525 616.594 146.389L612.82 144.158C612.592 144.023 612.59 143.803 612.817 143.667L616.567 141.436C616.794 141.301 617.166 141.301 617.394 141.436L621.169 143.667C621.398 143.803 621.397 144.021 621.169 144.157L617.42 146.388ZM604.754 145.789C604.526 145.653 604.522 145.434 604.749 145.299L608.499 143.068C608.726 142.932 609.098 142.932 609.327 143.068L613.102 145.299C613.33 145.434 613.331 145.655 613.104 145.79L609.354 148.021C609.127 148.157 608.758 148.155 608.529 148.02L604.754 145.789ZM618.25 147.368C618.021 147.232 618.022 147.013 618.25 146.878L622 144.647C622.227 144.512 622.596 144.51 622.824 144.646L626.601 146.879C626.83 147.014 626.829 147.233 626.601 147.368L622.851 149.6C622.624 149.735 622.255 149.736 622.027 149.601L618.25 147.368ZM605.771 147.368C606 147.503 606.003 147.722 605.776 147.857L602.024 150.09C601.797 150.226 601.428 150.224 601.199 150.089L571.433 132.491C571.205 132.356 571.201 132.137 571.428 132.002L575.181 129.769C575.408 129.633 575.777 129.635 576.006 129.77L605.771 147.368ZM618.536 149.001L614.786 151.233C614.559 151.368 614.19 151.367 613.961 151.232L610.187 149C609.958 148.865 609.955 148.646 610.182 148.511L613.932 146.279C614.159 146.144 614.53 146.144 614.759 146.279L618.533 148.511C618.762 148.646 618.764 148.867 618.536 149.001ZM649.152 147.406C649.38 147.542 649.382 147.762 649.155 147.897L645.404 150.128C645.177 150.264 644.806 150.264 644.577 150.128L640.803 147.897C640.575 147.762 640.573 147.542 640.8 147.406L644.55 145.175C644.777 145.04 645.149 145.04 645.378 145.175L649.152 147.406ZM631.738 148.94L627.964 146.708C627.735 146.573 627.736 146.354 627.964 146.219L631.714 143.987C631.941 143.852 632.31 143.851 632.539 143.986L636.313 146.217C636.545 146.354 636.543 146.573 636.316 146.708L632.566 148.94C632.338 149.075 631.969 149.077 631.738 148.94ZM633.395 149.92C633.167 149.785 633.166 149.564 633.393 149.429L637.143 147.198C637.37 147.062 637.741 147.062 637.97 147.198L641.744 149.429C641.975 149.566 641.974 149.785 641.747 149.92L637.997 152.151C637.77 152.286 637.401 152.288 637.17 152.151L633.395 149.92ZM627.432 147.858C627.659 147.723 628.028 147.722 628.257 147.857L632.034 150.09C632.262 150.226 632.261 150.445 632.034 150.58L628.284 152.812C628.057 152.947 627.687 152.949 627.459 152.813L623.681 150.58C623.453 150.445 623.454 150.226 623.681 150.09L627.432 147.858ZM633.689 151.069L637.466 153.302C637.695 153.437 637.694 153.656 637.466 153.792L633.716 156.023C633.489 156.158 633.12 156.159 632.891 156.024L629.114 153.791C628.885 153.656 628.887 153.437 629.114 153.301L632.864 151.07C633.091 150.935 633.461 150.933 633.689 151.069ZM647.213 159.064C647.441 159.199 647.442 159.419 647.215 159.555L643.465 161.786C643.238 161.921 642.866 161.921 642.638 161.786L634.547 157.002C634.318 156.867 634.319 156.648 634.547 156.513L638.297 154.282C638.524 154.146 638.893 154.145 639.121 154.28L647.213 159.064ZM641.815 162.275C642.044 162.411 642.045 162.631 641.818 162.766L638.09 164.985C637.863 165.12 637.491 165.12 637.263 164.985L626.5 158.621C626.272 158.486 626.273 158.267 626.5 158.132L630.228 155.913C630.455 155.778 630.824 155.777 631.053 155.912L641.815 162.275ZM617.711 154.427C617.94 154.562 617.942 154.78 617.714 154.915L613.961 157.149C613.734 157.284 613.368 157.284 613.139 157.149L609.391 154.933C609.162 154.798 609.162 154.58 609.389 154.446L613.141 152.212C613.368 152.077 613.735 152.077 613.964 152.212L617.711 154.427ZM623.966 151.722C624.194 151.858 624.193 152.077 623.966 152.212L620.238 154.43C620.011 154.566 619.641 154.567 619.413 154.432C619.366 154.404 619.316 154.383 619.264 154.367L615.618 152.212C615.39 152.077 615.386 151.858 615.613 151.722L619.363 149.491C619.591 149.356 619.962 149.356 620.191 149.491L623.966 151.722ZM629.398 154.934C629.627 155.069 629.626 155.288 629.398 155.423L625.67 157.642C625.443 157.777 625.074 157.778 624.845 157.643L621.068 155.41C620.84 155.275 620.841 155.056 621.068 154.92L624.796 152.702C625.023 152.567 625.393 152.565 625.621 152.701L629.398 154.934ZM623.9 158.129C624.128 158.265 624.129 158.485 623.902 158.62L620.219 160.812C619.992 160.948 619.623 160.946 619.394 160.811L614.884 158.144C614.655 158.009 614.651 157.79 614.879 157.655L618.562 155.463C618.789 155.327 619.161 155.327 619.389 155.463L623.9 158.129ZM627.562 163.338C627.791 163.473 627.789 163.692 627.562 163.827L626.443 164.493C626.216 164.629 625.85 164.629 625.621 164.493L621.111 161.827C620.882 161.691 620.878 161.472 621.106 161.337L622.224 160.671C622.451 160.536 622.822 160.536 623.051 160.671L627.562 163.338ZM630.127 161.811C630.356 161.946 630.355 162.165 630.127 162.301L629.009 162.966C628.782 163.101 628.415 163.101 628.186 162.966L623.676 160.299C623.447 160.164 623.443 159.945 623.671 159.81L624.789 159.144C625.016 159.009 625.388 159.009 625.617 159.144L630.127 161.811ZM636.352 165.492C636.58 165.627 636.581 165.847 636.354 165.982L632.671 168.174C632.444 168.31 632.075 168.308 631.846 168.173L627.336 165.506C627.107 165.371 627.106 165.154 627.333 165.019L631.017 162.827C631.244 162.691 631.613 162.69 631.841 162.825L636.352 165.492ZM612.309 151.234C612.538 151.369 612.539 151.586 612.312 151.721L608.559 153.954C608.332 154.09 607.966 154.09 607.737 153.954L602.856 151.069C602.628 150.933 602.624 150.714 602.851 150.579L606.603 148.346C606.83 148.211 607.2 148.212 607.428 148.347L612.309 151.234ZM562.381 121.715C562.609 121.85 562.613 122.069 562.386 122.204L558.633 124.438C558.406 124.573 558.037 124.572 557.808 124.436L554.033 122.205C553.804 122.07 553.801 121.851 554.028 121.715L557.781 119.482C558.008 119.347 558.377 119.348 558.606 119.483L562.381 121.715ZM593.688 121.506C593.915 121.371 594.287 121.371 594.515 121.506L598.289 123.738C598.518 123.873 598.52 124.093 598.292 124.228L594.542 126.46C594.315 126.595 593.943 126.595 593.714 126.46L589.94 124.228C589.711 124.093 589.71 123.873 589.937 123.738L593.688 121.506ZM644.189 143.497C643.961 143.361 643.96 143.141 644.187 143.006L647.937 140.774C648.164 140.639 648.536 140.639 648.764 140.774L652.539 143.006C652.77 143.142 652.769 143.361 652.541 143.497L648.791 145.728C648.564 145.863 648.195 145.865 647.964 145.728L644.189 143.497Z" fill="#DFE9F7"/>
<path d="M584.368 33.7509L584.208 91.3104L669.867 141.953L670.027 84.3939L584.368 33.7509Z" fill="url(#paint17_linear_410_8190)"/>
<path d="M584.208 91.3092L584.213 90.443L669.873 141.086L669.867 141.952L584.208 91.3092Z" fill="url(#paint18_linear_410_8190)"/>
<path d="M582.082 27.383C581.936 27.3353 581.793 27.3018 581.657 27.2876C581.644 27.2864 581.631 27.2851 581.619 27.2838C581.472 27.2722 581.332 27.2793 581.202 27.3057C581.195 27.307 581.188 27.3089 581.181 27.3108C581.047 27.3405 580.92 27.3875 580.807 27.4557L582.896 26.1787C582.901 26.1755 582.905 26.1729 582.91 26.1703C582.952 26.1458 582.996 26.1246 583.04 26.1053C583.084 26.086 583.13 26.0699 583.178 26.0557C583.208 26.0467 583.24 26.0402 583.271 26.0338C583.278 26.0325 583.284 26.0299 583.291 26.0286C583.302 26.0267 583.312 26.0235 583.323 26.0216C583.374 26.0125 583.426 26.0061 583.479 26.0029C583.535 25.9997 583.593 25.999 583.651 26.0016C583.67 26.0022 583.689 26.0061 583.708 26.0074C583.721 26.0087 583.734 26.01 583.747 26.0112C583.779 26.0145 583.811 26.0158 583.844 26.0216C583.919 26.0331 583.995 26.0499 584.072 26.0711C584.105 26.0802 584.139 26.0956 584.172 26.1066C584.202 26.1162 584.232 26.1272 584.263 26.1388C584.301 26.1529 584.339 26.1626 584.378 26.1793C584.497 26.2302 584.618 26.2914 584.742 26.3648L673.859 79.0525C674.026 79.1517 674.188 79.2696 674.347 79.399C674.398 79.4409 674.446 79.4892 674.496 79.5336C674.573 79.6019 674.652 79.6656 674.726 79.7403C674.759 79.7738 674.791 79.8118 674.824 79.8466C674.853 79.8775 674.881 79.909 674.91 79.9412C674.943 79.978 674.978 80.0121 675.01 80.0494C675.082 80.1344 675.152 80.222 675.22 80.3122C675.244 80.3431 675.266 80.3759 675.289 80.4075C675.301 80.4242 675.313 80.441 675.325 80.4577C675.347 80.4893 675.371 80.5196 675.392 80.5518C675.444 80.6271 675.493 80.7037 675.542 80.781C675.588 80.8551 675.633 80.9298 675.676 81.0051C675.68 81.0116 675.683 81.018 675.687 81.0244C675.69 81.0302 675.693 81.036 675.696 81.0418C675.731 81.1037 675.766 81.1655 675.798 81.2286C675.837 81.3033 675.874 81.3786 675.91 81.454C675.942 81.5229 675.973 81.5925 676.003 81.662C676.004 81.6659 676.006 81.6691 676.008 81.6723C676.01 81.6762 676.011 81.68 676.013 81.6839C676.046 81.7631 676.078 81.8423 676.108 81.9222C676.139 82.0052 676.168 82.089 676.196 82.1727C676.21 82.2152 676.221 82.257 676.233 82.2996C676.239 82.3176 676.244 82.3356 676.25 82.3536C676.259 82.3833 676.269 82.4135 676.277 82.4438C676.305 82.5456 676.329 82.6473 676.35 82.7484C676.362 82.8102 676.371 82.8714 676.381 82.9333C676.386 82.9655 676.392 82.997 676.396 83.0286C676.401 83.0582 676.408 83.0878 676.411 83.1168C676.433 83.2926 676.445 83.4671 676.444 83.6371L676.27 146.55C676.267 147.651 675.694 148.668 674.764 149.22L674.176 149.604L674.355 84.9135C674.356 84.7152 674.337 84.511 674.307 84.305C674.303 84.2734 674.297 84.2412 674.291 84.2096C674.259 84.0171 674.217 83.8232 674.161 83.6294C674.156 83.612 674.15 83.594 674.145 83.5766C674.082 83.366 674.007 83.1561 673.919 82.9493C673.917 82.9455 673.916 82.9423 673.914 82.9384C673.824 82.7272 673.721 82.5198 673.608 82.3182C673.605 82.3124 673.602 82.3066 673.598 82.3008C673.488 82.1044 673.366 81.9151 673.236 81.7335C673.224 81.7174 673.213 81.7006 673.201 81.6845C673.081 81.5203 672.954 81.3651 672.822 81.2176C672.793 81.1861 672.765 81.1545 672.736 81.1236C672.631 81.0116 672.521 80.9105 672.409 80.8113C672.359 80.7662 672.31 80.7173 672.258 80.6754C672.1 80.5466 671.938 80.4281 671.77 80.3289L582.653 27.6412C582.489 27.544 582.33 27.4731 582.174 27.4152C582.142 27.4036 582.112 27.3926 582.082 27.383Z" fill="#ADBBFE"/>
<path d="M620.744 86.7962L620.736 90.0316L617.263 87.9784L617.272 84.743L620.744 86.7962Z" fill="#F9CC38"/>
<path d="M620.735 90.0317L620.72 95.2602L617.248 93.207L617.262 87.9785L620.735 90.0317Z" fill="#474EB8"/>
<path d="M640.604 86.9027L640.583 94.5782L637.11 92.5256L637.131 84.8501L640.604 86.9027Z" fill="#F9CC38"/>
<path d="M640.582 94.5788L640.548 106.982L637.075 104.93L637.109 92.5262L640.582 94.5788Z" fill="#474EB8"/>
<path d="M618.062 66.8651L618.058 68.4044L614.732 66.4382L614.737 64.8989L618.062 66.8651Z" fill="white"/>
<path d="M618.072 63.598L618.067 65.1379L614.741 63.1711L614.745 61.6318L618.072 63.598Z" fill="white"/>
<path d="M627.369 84.3264L627.353 89.999L623.881 87.9458L623.897 82.2738L627.369 84.3264Z" fill="#F9CC38"/>
<path d="M627.354 89.9989L627.329 99.1671L623.856 97.1139L623.882 87.9457L627.354 89.9989Z" fill="#474EB8"/>
<path d="M633.957 95.1984L633.936 103.072L630.468 101.022L630.489 93.1483L633.957 95.1984Z" fill="#474EB8"/>
<path d="M633.972 90.325L633.958 95.1989L630.49 93.1488L630.504 88.2749L633.972 90.325Z" fill="#F9CC38"/>
<path d="M626.725 68.8391C626.871 68.925 627.017 69.0727 627.123 69.2585L627.19 69.3916L627.238 69.5405L627.269 69.6791L627.282 69.8122C627.281 69.9844 627.219 70.1199 627.121 70.1776C627.014 70.2401 626.876 70.2315 626.725 70.1426C626.574 70.0531 626.437 69.8986 626.331 69.7104C626.225 69.5326 626.171 69.3284 626.172 69.1561L626.181 69.0359L626.208 68.9317L626.266 68.8459L626.333 68.7913C626.435 68.7294 626.58 68.7533 626.725 68.8391Z" fill="#7EC8FF"/>
<path d="M633.584 72.8854C633.89 73.066 634.138 73.5052 634.137 73.8654C634.136 74.2305 633.887 74.3762 633.581 74.1949L628.436 71.1538C628.131 70.9731 627.883 70.5339 627.884 70.1682C627.885 69.808 628.134 69.6629 628.44 69.8436L633.584 72.8854Z" fill="#7EC8FF"/>
<path d="M625.092 67.8642C625.402 68.0479 625.65 68.4865 625.649 68.8467C625.648 69.2117 625.399 69.3575 625.088 69.1738L620.8 66.6385C620.49 66.4548 620.242 66.0162 620.243 65.6505C620.244 65.2904 620.493 65.1452 620.804 65.3289L625.092 67.8642Z" fill="#7EC8FF"/>
<path d="M629.655 73.834C629.966 74.0177 630.213 74.4563 630.212 74.8164C630.211 75.1815 629.962 75.3273 629.652 75.1435L620.791 69.9052C620.481 69.7215 620.233 69.2829 620.234 68.9172C620.236 68.5571 620.484 68.4119 620.795 68.595L629.655 73.834Z" fill="#7EC8FF"/>
<path d="M633.575 76.152C633.881 76.3327 634.128 76.7719 634.127 77.1321C634.126 77.4971 633.877 77.6429 633.571 77.4616L631.531 76.2556C631.225 76.0749 630.978 75.6357 630.979 75.2706C630.98 74.9105 631.229 74.7653 631.535 74.946L633.575 76.152Z" fill="#7EC8FF"/>
<path d="M614.724 69.6896C614.879 69.7815 615.003 70.0008 615.003 70.1784L614.935 94.5575L645.312 112.517C645.463 112.606 645.587 112.825 645.586 113.003C645.586 113.186 645.461 113.258 645.311 113.169L614.654 95.0444C614.503 94.955 614.379 94.7357 614.38 94.5532L614.448 69.8507C614.449 69.6737 614.573 69.6008 614.724 69.6896Z" fill="#7EC8FF"/>
<path d="M593.272 198.072C595.368 199.311 595.379 201.315 593.301 202.552L579.76 210.61C577.681 211.847 574.299 211.849 572.203 210.61L558.578 202.554C556.486 201.318 556.475 199.309 558.553 198.072L572.094 190.014C574.172 188.778 577.555 188.78 579.646 190.017L593.272 198.072Z" fill="#E3EBF6"/>
<path d="M593.272 195.984C595.368 197.223 595.379 199.227 593.301 200.464L579.76 208.522C577.681 209.759 574.299 209.761 572.203 208.522L558.578 200.466C556.486 199.23 556.475 197.221 558.553 195.984L572.094 187.926C574.172 186.69 577.555 186.692 579.646 187.929L593.272 195.984Z" fill="url(#paint19_linear_410_8190)"/>
<path d="M576.885 193.396L580.345 200.836L567.791 198.808L576.885 193.396Z" fill="#FFFEFF"/>
<path d="M593.302 200.464L579.761 208.522C577.683 209.759 574.3 209.761 572.205 208.522L558.579 200.467C557.526 199.844 557.001 199.027 557.003 198.21L557 199.27C556.998 200.087 557.523 200.904 558.576 201.527L572.201 209.582C574.297 210.821 577.68 210.819 579.758 209.582L593.299 201.524C594.331 200.91 594.847 200.107 594.849 199.302L594.852 198.242C594.85 199.047 594.333 199.85 593.302 200.464Z" fill="#031BA1"/>
</g>

<g class="el2" style="animation-delay:1000ms">
<path d="M239 74.2091V85.3521C239 88.8511 240.685 92.3502 244.055 94.3502L339.764 150.875C348.905 156.299 360.168 156.299 369.311 150.875L469.945 90.6776C473.256 88.7134 474.932 85.3002 474.99 81.862L475 81.8584V70.5634L239 74.2091Z" fill="url(#paint20_linear_410_8190)"/>
<path d="M244.055 83.2068L339.764 139.732C348.905 145.156 360.168 145.156 369.311 139.732L469.945 79.5342C476.685 75.5342 476.685 65.5362 469.945 61.538L374.236 5.01275C365.095 -0.411152 353.832 -0.411152 344.689 5.01275L244.055 65.2106C237.315 69.2088 237.315 79.2068 244.055 83.2068Z" fill="url(#paint21_linear_410_8190)"/>
<g opacity="0.1">
<path d="M343.132 93.5979L328.64 85.2304L355.645 70.4728L369.571 78.9512L343.132 93.5979Z" fill="black"/>
</g>
<g opacity="0.1">
<path d="M370.602 95.5908L356.111 87.2232L381.622 72.5326L397.043 80.944L370.602 95.5908Z" fill="black"/>
</g>
<g opacity="0.1">
<path d="M397.374 101.836L382.883 93.4683L400.519 83.2881L416.41 91.29L397.374 101.836Z" fill="black"/>
</g>
<path d="M396.862 75.377L400.52 73.2524L400.423 99.588L396.763 101.716L396.862 75.377Z" fill="#817D7F"/>
<path d="M382.367 67.0121L386.026 64.8854L400.52 73.2529L396.861 75.3774L382.367 67.0121Z" fill="#DC9B1C"/>
<path d="M390.375 51.399L394.032 49.2722L403.348 74.8864L399.692 77.0143L390.375 51.399Z" fill="#ACACAC"/>
<path d="M390.375 51.3989L379.85 65.5582L382.367 67.0119L382.272 93.3475L396.763 101.716L396.861 75.3772L399.692 77.0143L390.375 51.3989Z" fill="#C8C3C5"/>
<path d="M343.23 43.107L346.888 40.9802L346.791 91.4719L343.131 93.5976L343.23 43.107Z" fill="#2B54A5"/>
<path d="M328.735 34.7399L332.394 32.6143L346.888 40.9807L343.229 43.1074L328.735 34.7399Z" fill="#DC9B1C"/>
<path d="M336.742 19.1267L340.401 17L349.716 42.6142L346.059 44.741L336.742 19.1267Z" fill="#2B54A5"/>
<path d="M336.743 19.1267L326.218 33.286L328.735 34.7396L328.639 85.2303L343.131 93.5978L343.23 43.1072L346.06 44.7409L336.743 19.1267Z" fill="#4267C5"/>
<path d="M370.089 61.4101L373.747 59.2855L373.651 93.3068L369.99 95.4324L370.089 61.4101Z" fill="#D17700"/>
<path d="M355.597 53.0441L359.255 50.9185L373.748 59.286L370.09 61.4105L355.597 53.0441Z" fill="#DC9B1C"/>
<path d="M363.604 37.4309L367.261 35.3042L376.577 60.9184L372.92 63.0452L363.604 37.4309Z" fill="#E58B0A"/>
<path d="M363.604 37.4309L353.078 51.5913L355.597 53.0438L355.5 87.064L369.991 95.4327L370.09 61.4103L372.92 63.0451L363.604 37.4309Z" fill="#FABB02"/>
<path d="M314.088 72.5424C314.088 72.5424 315.276 74.4232 316.474 74.1905C317.672 73.9599 317.835 73.7008 317.325 73.3791C316.819 73.0552 315.481 72.1384 315.735 72.056C315.99 71.9682 316.553 72.0945 316.493 71.8507C316.434 71.6015 314.742 71.2798 314.742 71.2798L313.562 71.8529L314.088 72.5424Z" fill="#FFAA83"/>
<path d="M313.683 59.1939C313.683 59.1939 313.912 57.0748 311.866 57.0375C309.7 56.998 310.186 61.5161 310.186 61.5161C310.186 61.5161 310.293 65.4248 310.682 66.6347C311.2 68.2487 314.067 72.421 314.067 72.421C314.067 72.421 315.343 72.1223 315.716 71.2132C315.716 71.2132 313.454 67.2726 313.253 65.775C313.033 64.1424 313.736 59.5507 313.683 59.1939Z" fill="url(#paint22_linear_410_8190)"/>
<path d="M314.066 72.4209C314.066 72.4209 311.2 68.2487 310.681 66.6347C310.293 65.4247 310.186 61.516 310.186 61.516C310.186 61.516 309.416 56.8728 311.862 56.6718C312.852 56.5906 313.014 57.301 313.253 57.6227C311.678 57.7149 311.522 58.7678 311.667 61.1109C311.83 63.6537 311.497 64.374 311.641 66.549C311.785 68.7208 314.083 70.8355 314.431 71.3482C314.665 71.6864 315.217 71.2735 315.573 70.9518C315.664 71.1165 315.715 71.2132 315.715 71.2132C315.343 72.1212 314.066 72.4209 314.066 72.4209Z" fill="url(#paint23_linear_410_8190)"/>
<path d="M311.165 69.5905L311.467 69.1239C312.036 67.5648 311.746 66.805 311.49 64.8221C311.364 63.812 310.58 60.7959 310.571 58.5604C310.56 55.9078 313.156 56.2306 316.986 57.9269C321.895 60.1009 320.297 61.8708 320.297 61.8708C319.815 64.2599 318.882 64.6475 319.65 70.6413C319.727 70.9498 319.727 70.9498 320.075 73.3851C320.67 77.5441 311.165 69.5905 311.165 69.5905Z" fill="url(#paint24_linear_410_8190)"/>
<path d="M316.679 55.3024C316.679 55.3024 316.126 56.9614 316.927 58.0539C317.362 58.6501 313.084 59.5735 313.503 57.831C313.845 56.396 313.265 55.096 312.209 54.0013L316.679 55.3024Z" fill="#FFAA83"/>
<path d="M316.494 56.5078C316.494 56.5078 315.438 56.2663 314.833 55.9072L314.761 55.9457L314.361 56.0445L314.209 56.1005C314.209 56.1005 314.435 57.8857 316.712 57.6826C316.712 57.6826 316.515 57.2006 316.494 56.5078Z" fill="#F79F7C"/>
<path d="M316.719 48.4875C316.719 48.4875 317.412 49.6162 318.352 51.5255C319.173 53.2065 319.315 55.1554 318.244 56.037C317.74 56.452 314.18 57.2854 312.577 53.1494C311.55 50.5165 313.341 47.0491 316.719 48.4875Z" fill="#FFAA83"/>
<path d="M318.175 48.7906C318.605 49.165 318.395 49.4154 317.293 49.8941C315.727 50.5759 317.238 53.3164 316.712 53.7238C316.416 53.9532 316.24 54.1234 315.458 53.5635C315.149 53.3406 314.658 53.1287 314.583 54.0147C314.514 54.8481 315.079 54.7064 315.336 55.9076C315.438 56.3852 314.027 56.5532 313.503 56.2062C311.932 55.1676 309.866 52.5006 311.984 49.4944C313.593 47.2162 317.439 48.1429 318.175 48.7906Z" fill="#723E24"/>
<mask id="mask0_410_8190" style="mask-type:luminance" maskUnits="userSpaceOnUse" x="324" y="55" width="2" height="1">
<path d="M324.921 55.8666L325.277 55.6612C325.208 55.6206 325.153 55.524 325.153 55.4438L324.796 55.6525C324.796 55.7315 324.852 55.827 324.921 55.8666Z" fill="white"/>
</mask>
<g mask="url(#mask0_410_8190)">
<path d="M324.922 55.8664L325.277 55.6611C325.263 55.6534 325.249 55.6403 325.236 55.6282L324.88 55.8357C324.893 55.8489 324.906 55.8598 324.922 55.8664Z" fill="#6D91BB"/>
<path d="M324.88 55.8356L325.235 55.628C325.231 55.6247 325.226 55.6182 325.222 55.6127L324.865 55.8191C324.871 55.8257 324.875 55.8301 324.88 55.8356Z" fill="#6A8DB7"/>
<path d="M324.865 55.8193L325.222 55.6129C325.218 55.6107 325.215 55.6074 325.211 55.6019L324.854 55.8083C324.86 55.8116 324.861 55.816 324.865 55.8193Z" fill="#678AB2"/>
<path d="M324.855 55.8092L325.212 55.6028C325.208 55.5973 325.207 55.594 325.204 55.5885L324.848 55.7982C324.85 55.8004 324.853 55.8048 324.855 55.8092Z" fill="#6586AD"/>
<path d="M324.846 55.7984L325.204 55.5887L325.196 55.5789L324.84 55.7875L324.846 55.7984Z" fill="#6282A8"/>
<path d="M324.84 55.7871L325.196 55.5785L325.19 55.5697L324.835 55.7761L324.84 55.7871Z" fill="#5F7FA4"/>
<path d="M324.834 55.7765L325.19 55.5701C325.188 55.5668 325.186 55.5624 325.185 55.5569L324.83 55.7655C324.83 55.7699 324.833 55.7721 324.834 55.7765Z" fill="#5C7B9F"/>
<path d="M324.829 55.7657L325.184 55.5571L325.178 55.5483L324.822 55.7548L324.829 55.7657Z" fill="#5A779A"/>
<path d="M324.823 55.7545L325.178 55.5481C325.177 55.5448 325.175 55.5415 325.174 55.536L324.818 55.7435C324.818 55.7479 324.821 55.7512 324.823 55.7545Z" fill="#577496"/>
<path d="M324.817 55.7449L325.174 55.5374L325.168 55.5275L324.813 55.7328L324.817 55.7449Z" fill="#547091"/>
<path d="M324.814 55.7325L325.169 55.5272C325.167 55.5217 325.165 55.5184 325.164 55.514L324.81 55.7216C324.811 55.7237 324.813 55.7292 324.814 55.7325Z" fill="#526D8C"/>
<path d="M324.809 55.7213L325.164 55.5138C325.163 55.5105 325.16 55.505 325.16 55.4995L324.805 55.7081C324.806 55.7136 324.807 55.718 324.809 55.7213Z" fill="#4F6988"/>
<path d="M324.804 55.7084L325.16 55.4998C325.159 55.4943 325.157 55.491 325.157 55.4888L324.8 55.6919C324.801 55.6996 324.803 55.7029 324.804 55.7084Z" fill="#4C6583"/>
<path d="M324.801 55.693L325.158 55.4899C325.156 55.4833 325.155 55.4756 325.155 55.4701L324.799 55.6765C324.799 55.6831 324.799 55.6886 324.801 55.693Z" fill="#49627E"/>
<path d="M324.798 55.6767L325.154 55.4703C325.153 55.4626 325.153 55.4539 325.153 55.4451L324.796 55.6537C324.796 55.6614 324.797 55.668 324.798 55.6767Z" fill="#475E7A"/>
</g>
<mask id="mask1_410_8190" style="mask-type:luminance" maskUnits="userSpaceOnUse" x="326" y="56" width="1" height="2">
<path d="M326.715 56.9614C326.679 56.9834 326.63 56.9801 326.574 56.9482L326.218 57.1536C326.273 57.1854 326.323 57.1887 326.359 57.1667C326.466 57.1085 326.609 57.024 326.715 56.9614Z" fill="white"/>
</mask>
<g mask="url(#mask1_410_8190)">
<path d="M326.36 57.1671L326.715 56.9618H326.714L326.358 57.1704L326.36 57.1671Z" fill="#547091"/>
<path d="M326.359 57.1704L326.714 56.9618L326.706 56.9684L326.348 57.1748L326.359 57.1704Z" fill="#577496"/>
<path d="M326.347 57.1746L326.705 56.9681L326.694 56.9725L326.337 57.1779L326.347 57.1746Z" fill="#5A779A"/>
<path d="M326.337 57.1779L326.694 56.9725L326.683 56.9736L326.326 57.1822L326.337 57.1779Z" fill="#5C7B9F"/>
<path d="M326.326 57.1821L326.683 56.9735C326.679 56.9746 326.676 56.9746 326.67 56.9768L326.315 57.1843C326.319 57.1843 326.323 57.1843 326.326 57.1821Z" fill="#5F7FA4"/>
<path d="M326.316 57.1843L326.671 56.9768C326.667 56.9768 326.663 56.9768 326.658 56.9768L326.302 57.1843C326.307 57.1843 326.311 57.1843 326.316 57.1843Z" fill="#6282A8"/>
<path d="M326.302 57.1843L326.658 56.9768C326.654 56.9746 326.648 56.9746 326.644 56.9746L326.288 57.1821C326.291 57.1843 326.297 57.1843 326.302 57.1843Z" fill="#6586AD"/>
<path d="M326.287 57.1822L326.643 56.9747C326.637 56.9736 326.631 56.9725 326.624 56.9714L326.27 57.1779C326.275 57.18 326.281 57.1822 326.287 57.1822Z" fill="#678AB2"/>
<path d="M326.269 57.1781L326.624 56.9717C326.618 56.9695 326.61 56.9662 326.601 56.9618L326.245 57.1671C326.254 57.1715 326.262 57.1748 326.269 57.1781Z" fill="#6A8DB7"/>
<path d="M326.246 57.1667L326.602 56.9614C326.594 56.9581 326.583 56.9537 326.574 56.9482L326.219 57.1536C326.228 57.1601 326.236 57.1656 326.246 57.1667Z" fill="#6D91BB"/>
</g>
<mask id="mask2_410_8190" style="mask-type:luminance" maskUnits="userSpaceOnUse" x="326" y="56" width="1" height="2">
<path d="M326.375 56.6043C326.375 56.5417 326.397 56.4978 326.433 56.4769L326.078 56.6833C326.041 56.7053 326.02 56.7492 326.02 56.8107C326.018 56.937 326.108 57.0907 326.218 57.1544L326.574 56.9491C326.463 56.8843 326.374 56.7306 326.375 56.6043Z" fill="white"/>
</mask>
<g mask="url(#mask2_410_8190)">
<path d="M326.216 57.1543L326.572 56.9489C326.55 56.9336 326.527 56.9182 326.505 56.8973L326.149 57.1049C326.17 57.1246 326.192 57.1422 326.216 57.1543Z" fill="#6D91BB"/>
<path d="M326.151 57.1037L326.507 56.8962C326.5 56.8896 326.492 56.8809 326.485 56.8732L326.129 57.0785C326.135 57.0895 326.143 57.0961 326.151 57.1037Z" fill="#6A8DB7"/>
<path d="M326.129 57.0801L326.485 56.8747C326.479 56.8682 326.474 56.8616 326.468 56.855L326.111 57.0614C326.117 57.068 326.122 57.0724 326.129 57.0801Z" fill="#678AB2"/>
<path d="M326.112 57.0613L326.469 56.8549C326.464 56.8483 326.459 56.8417 326.454 56.8373L326.1 57.0426C326.104 57.0492 326.106 57.0536 326.112 57.0613Z" fill="#6586AD"/>
<path d="M326.099 57.0425L326.454 56.8371C326.449 56.8328 326.447 56.8251 326.442 56.8196L326.086 57.026C326.091 57.0315 326.095 57.037 326.099 57.0425Z" fill="#6282A8"/>
<path d="M326.087 57.0259L326.443 56.8194C326.439 56.8129 326.436 56.8085 326.434 56.803L326.078 57.0116C326.08 57.0138 326.084 57.0204 326.087 57.0259Z" fill="#5F7FA4"/>
<path d="M326.077 57.0119L326.433 56.8033C326.43 56.7967 326.426 56.7913 326.423 56.7869L326.067 56.9922C326.071 56.9977 326.074 57.0043 326.077 57.0119Z" fill="#5C7B9F"/>
<path d="M326.068 56.991L326.424 56.7856C326.422 56.7801 326.418 56.7736 326.416 56.7692L326.061 56.9734C326.063 56.98 326.065 56.9866 326.068 56.991Z" fill="#5A779A"/>
<path d="M326.06 56.9743L326.415 56.7701C326.412 56.7646 326.41 56.757 326.408 56.7504L326.051 56.9579C326.054 56.9645 326.057 56.9689 326.06 56.9743Z" fill="#577496"/>
<path d="M326.051 56.9577L326.407 56.7502C326.405 56.7447 326.402 56.7382 326.401 56.7327L326.044 56.9391C326.047 56.9468 326.049 56.9534 326.051 56.9577Z" fill="#547091"/>
<path d="M326.044 56.939L326.4 56.7325C326.398 56.727 326.395 56.7205 326.393 56.715L326.038 56.9203C326.04 56.9258 326.042 56.9335 326.044 56.939Z" fill="#526D8C"/>
<path d="M326.037 56.9208L326.392 56.7154C326.391 56.7089 326.387 56.7012 326.386 56.6957L326.029 56.901C326.033 56.9065 326.035 56.9142 326.037 56.9208Z" fill="#4F6988"/>
<path d="M326.031 56.901L326.388 56.6957C326.384 56.688 326.383 56.6792 326.382 56.6726L326.026 56.8801C326.027 56.8845 326.029 56.8944 326.031 56.901Z" fill="#4C6583"/>
<path d="M326.027 56.8788L326.383 56.6712C326.381 56.6614 326.378 56.6537 326.377 56.6427L326.021 56.8491C326.021 56.859 326.024 56.8667 326.027 56.8788Z" fill="#49627E"/>
<path d="M326.021 56.8493L326.377 56.6428C326.376 56.6308 326.375 56.6154 326.375 56.6033C326.375 56.5407 326.397 56.4968 326.433 56.476L326.077 56.6824C326.041 56.7043 326.019 56.7482 326.019 56.8097C326.018 56.8251 326.019 56.8372 326.021 56.8493Z" fill="#475E7A"/>
</g>
<mask id="mask3_410_8190" style="mask-type:luminance" maskUnits="userSpaceOnUse" x="326" y="56" width="1" height="1">
<path d="M326.434 56.4771C326.316 56.5463 326.196 56.6144 326.078 56.6835C326.113 56.6616 326.165 56.666 326.22 56.6978L326.576 56.4914C326.52 56.4607 326.469 56.4585 326.434 56.4771Z" fill="white"/>
</mask>
<g mask="url(#mask3_410_8190)">
<path d="M326.22 56.6981L326.576 56.4917C326.566 56.4851 326.556 56.4807 326.548 56.4774L326.192 56.6838C326.2 56.6893 326.209 56.6937 326.22 56.6981Z" fill="#ACBACC"/>
<path d="M326.192 56.6835L326.548 56.477C326.539 56.4737 326.531 56.4716 326.525 56.4672L326.168 56.6747C326.176 56.6769 326.183 56.6802 326.192 56.6835Z" fill="#A8B6C7"/>
<path d="M326.167 56.6759L326.524 56.4684C326.517 56.4673 326.512 56.4662 326.505 56.4662L326.149 56.6726C326.156 56.6715 326.163 56.6737 326.167 56.6759Z" fill="#A3B1C2"/>
<path d="M326.149 56.6715L326.505 56.4651C326.501 56.464 326.495 56.464 326.49 56.464L326.134 56.6693C326.139 56.6715 326.146 56.6715 326.149 56.6715Z" fill="#9FACBD"/>
<path d="M326.135 56.6693L326.491 56.464C326.488 56.464 326.482 56.464 326.479 56.464L326.122 56.6693C326.128 56.6693 326.131 56.6693 326.135 56.6693Z" fill="#9BA8B8"/>
<path d="M326.122 56.6693L326.479 56.464C326.474 56.464 326.47 56.464 326.467 56.4651L326.111 56.6715C326.114 56.6715 326.118 56.6715 326.122 56.6693Z" fill="#97A3B3"/>
<path d="M326.111 56.6715L326.466 56.4651L326.455 56.4673L326.1 56.6737L326.111 56.6715Z" fill="#929EAD"/>
<path d="M326.099 56.6736L326.455 56.4672L326.444 56.4716L326.088 56.6791L326.099 56.6736Z" fill="#8E9AA8"/>
<path d="M326.088 56.6791L326.444 56.4716L326.435 56.476L326.078 56.6835L326.088 56.6791Z" fill="#8A95A3"/>
<path d="M326.078 56.6838L326.435 56.4763L326.434 56.4774L326.077 56.6838H326.078Z" fill="#85909E"/>
</g>
<mask id="mask4_410_8190" style="mask-type:luminance" maskUnits="userSpaceOnUse" x="326" y="56" width="1" height="2">
<path d="M326.359 57.1667L326.715 56.9614C326.751 56.9416 326.773 56.8966 326.773 56.834C326.773 56.7088 326.684 56.554 326.575 56.4904L326.22 56.6968C326.328 56.7605 326.418 56.9142 326.417 57.0393C326.417 57.1041 326.394 57.1491 326.359 57.1667Z" fill="white"/>
</mask>
<g mask="url(#mask4_410_8190)">
<path d="M326.359 57.1661L326.715 56.9608C326.751 56.9411 326.773 56.8961 326.773 56.8335C326.773 56.8214 326.773 56.8071 326.771 56.7939L326.414 57.0004C326.416 57.0135 326.418 57.0278 326.418 57.0377C326.418 57.1036 326.395 57.1486 326.359 57.1661Z" fill="#707985"/>
<path d="M326.414 57.0016L326.771 56.7951C326.77 56.7853 326.768 56.7776 326.767 56.7666L326.411 56.9741C326.412 56.9829 326.413 56.9917 326.414 57.0016Z" fill="#747E8A"/>
<path d="M326.41 56.9741L326.766 56.7666C326.764 56.76 326.761 56.7523 326.76 56.7446L326.404 56.9532C326.408 56.9587 326.409 56.9675 326.41 56.9741Z" fill="#78828F"/>
<path d="M326.406 56.9532L326.762 56.7446C326.76 56.7391 326.757 56.7303 326.755 56.7249L326.399 56.9313C326.401 56.939 326.404 56.9444 326.406 56.9532Z" fill="#7D8794"/>
<path d="M326.399 56.9311L326.755 56.7247C326.753 56.7181 326.75 56.7115 326.748 56.7061L326.394 56.9136C326.395 56.9191 326.396 56.9246 326.399 56.9311Z" fill="#818C99"/>
<path d="M326.393 56.9129L326.747 56.7054C326.746 56.6988 326.743 56.6945 326.741 56.689L326.384 56.8954C326.387 56.9009 326.389 56.9064 326.393 56.9129Z" fill="#85909E"/>
<path d="M326.384 56.8952L326.74 56.6888C326.738 56.6822 326.736 56.6746 326.733 56.6713L326.377 56.8788C326.379 56.8832 326.381 56.8898 326.384 56.8952Z" fill="#8A95A3"/>
<path d="M326.375 56.8786L326.731 56.6711C326.728 56.6656 326.725 56.658 326.722 56.6536L326.365 56.8611C326.37 56.8666 326.374 56.8721 326.375 56.8786Z" fill="#8E9AA8"/>
<path d="M326.367 56.8609L326.724 56.6534C326.721 56.649 326.719 56.6425 326.715 56.637L326.358 56.8434C326.363 56.8489 326.365 56.8544 326.367 56.8609Z" fill="#929EAD"/>
<path d="M326.359 56.8437L326.715 56.6373C326.712 56.634 326.709 56.6263 326.705 56.6198L326.349 56.8284C326.352 56.8328 326.355 56.8393 326.359 56.8437Z" fill="#97A3B3"/>
<path d="M326.347 56.8282L326.704 56.6196C326.699 56.6141 326.695 56.6075 326.692 56.6042L326.336 56.8096C326.341 56.8151 326.345 56.8227 326.347 56.8282Z" fill="#9BA8B8"/>
<path d="M326.338 56.8094L326.693 56.6041C326.69 56.5975 326.686 56.592 326.68 56.5854L326.323 56.7908C326.328 56.7963 326.333 56.8028 326.338 56.8094Z" fill="#9FACBD"/>
<path d="M326.323 56.7908L326.68 56.5854C326.675 56.5788 326.669 56.5723 326.663 56.5657L326.308 56.7732C326.313 56.7798 326.319 56.7853 326.323 56.7908Z" fill="#A3B1C2"/>
<path d="M326.308 56.7732L326.664 56.5657C326.656 56.5569 326.65 56.5503 326.642 56.5426L326.286 56.7501C326.294 56.7556 326.3 56.7644 326.308 56.7732Z" fill="#A8B6C7"/>
<path d="M326.285 56.7492L326.64 56.5417C326.621 56.5231 326.598 56.5033 326.574 56.4912L326.219 56.6976C326.242 56.7119 326.265 56.7284 326.285 56.7492Z" fill="#ACBACC"/>
</g>
<path d="M327.516 57.3661L327.873 57.1586L325.277 55.661L324.921 55.8663L327.516 57.3661Z" fill="#759CC9"/>
<mask id="mask5_410_8190" style="mask-type:luminance" maskUnits="userSpaceOnUse" x="327" y="57" width="1" height="1">
<path d="M327.607 57.3763C327.726 57.3072 327.844 57.2391 327.962 57.1677C327.94 57.1842 327.909 57.182 327.873 57.16L327.517 57.3675C327.553 57.3862 327.584 57.3906 327.607 57.3763Z" fill="white"/>
</mask>
<g mask="url(#mask5_410_8190)">
<path d="M327.607 57.3761L327.962 57.1664L327.961 57.1697L327.605 57.3761H327.607Z" fill="#547091"/>
<path d="M327.606 57.3761L327.962 57.1697L327.956 57.173L327.601 57.3816L327.606 57.3761Z" fill="#577496"/>
<path d="M327.6 57.382L327.956 57.1733L327.949 57.1744L327.594 57.3831L327.6 57.382Z" fill="#5A779A"/>
<path d="M327.594 57.3831L327.949 57.1744L327.943 57.1766L327.586 57.3842L327.594 57.3831Z" fill="#5C7B9F"/>
<path d="M327.586 57.3841L327.943 57.1766L327.935 57.1777L327.579 57.3852L327.586 57.3841Z" fill="#5F7FA4"/>
<path d="M327.579 57.3852L327.935 57.1777H327.926L327.571 57.3852H327.579Z" fill="#6282A8"/>
<path d="M327.572 57.3852L327.926 57.1777L327.917 57.1766L327.561 57.3841L327.572 57.3852Z" fill="#6586AD"/>
<path d="M327.561 57.3842L327.918 57.1766L327.907 57.1744L327.55 57.382L327.561 57.3842Z" fill="#678AB2"/>
<path d="M327.549 57.3816L327.906 57.1741C327.901 57.173 327.896 57.1708 327.891 57.1675L327.535 57.3761C327.541 57.3783 327.544 57.3816 327.549 57.3816Z" fill="#6A8DB7"/>
<path d="M327.535 57.3763L327.891 57.1677C327.884 57.1666 327.879 57.1644 327.873 57.16L327.517 57.3675C327.524 57.3697 327.529 57.3763 327.535 57.3763Z" fill="#6D91BB"/>
</g>
<mask id="mask6_410_8190" style="mask-type:luminance" maskUnits="userSpaceOnUse" x="327" y="57" width="2" height="2">
<path d="M327.771 58.0426C327.89 57.9734 328.009 57.9042 328.127 57.8372C328.2 57.7944 328.244 57.7066 328.244 57.5814L327.887 57.7878C327.888 57.9141 327.843 58.003 327.771 58.0426Z" fill="white"/>
</mask>
<g mask="url(#mask6_410_8190)">
<path d="M327.771 58.0426L328.127 57.8372C328.2 57.7944 328.244 57.7066 328.244 57.5814L327.887 57.7878C327.888 57.9141 327.843 58.003 327.771 58.0426Z" fill="#85A9FF"/>
</g>
<mask id="mask7_410_8190" style="mask-type:luminance" maskUnits="userSpaceOnUse" x="327" y="57" width="1" height="1">
<path d="M327.606 57.3763C327.636 57.3565 327.667 57.3423 327.695 57.3247C327.785 57.272 327.873 57.2215 327.962 57.1677C327.984 57.1567 327.998 57.1282 327.999 57.0897L327.643 57.2972C327.643 57.3357 327.63 57.362 327.606 57.3763Z" fill="white"/>
</mask>
<g mask="url(#mask7_410_8190)">
<path d="M327.606 57.3763L327.962 57.1677C327.984 57.1567 327.998 57.1282 327.999 57.0897L327.643 57.2972C327.643 57.3357 327.63 57.362 327.606 57.3763Z" fill="#707985"/>
</g>
<path d="M324.796 55.6538L325.153 55.4452L325.166 50.4956L324.811 50.7053L324.796 55.6538Z" fill="#49617D"/>
<mask id="mask8_410_8190" style="mask-type:luminance" maskUnits="userSpaceOnUse" x="324" y="50" width="2" height="1">
<path d="M325.166 50.4953C325.167 50.4569 325.181 50.4294 325.204 50.4174L324.848 50.6216C324.826 50.6359 324.812 50.6644 324.812 50.7039C324.918 50.6424 325.061 50.5579 325.166 50.4953Z" fill="white"/>
</mask>
<g mask="url(#mask8_410_8190)">
<path d="M324.812 50.7048L325.166 50.4962C325.167 50.4577 325.182 50.4303 325.205 50.4182L324.848 50.6224C324.825 50.6356 324.812 50.6642 324.812 50.7048Z" fill="#475E7A"/>
</g>
<mask id="mask9_410_8190" style="mask-type:luminance" maskUnits="userSpaceOnUse" x="324" y="50" width="2" height="1">
<path d="M325.204 50.4174C325.199 50.4185 325.191 50.4218 325.185 50.4273C325.132 50.4569 325.078 50.4888 325.026 50.5184C324.966 50.5524 324.907 50.5876 324.848 50.6216C324.871 50.6106 324.903 50.6117 324.937 50.6315L325.292 50.424C325.257 50.4042 325.225 50.4042 325.204 50.4174Z" fill="white"/>
</mask>
<g mask="url(#mask9_410_8190)">
<path d="M324.936 50.6316L325.291 50.4241C325.285 50.4208 325.278 50.4197 325.275 50.4186L324.918 50.6228C324.925 50.6261 324.93 50.6283 324.936 50.6316Z" fill="#ACBACC"/>
<path d="M324.92 50.6219L325.276 50.4177C325.271 50.4144 325.265 50.4133 325.261 50.4111L324.905 50.6197C324.909 50.6208 324.913 50.6208 324.92 50.6219Z" fill="#A8B6C7"/>
<path d="M324.905 50.6208L325.26 50.4122C325.255 50.4111 325.253 50.4111 325.248 50.4111L324.893 50.6176C324.897 50.6176 324.901 50.6176 324.905 50.6208Z" fill="#A3B1C2"/>
<path d="M324.894 50.6166L325.249 50.4102L325.241 50.408L324.884 50.6166H324.894Z" fill="#9FACBD"/>
<path d="M324.883 50.6166L325.24 50.408H325.231L324.875 50.6166H324.883Z" fill="#9BA8B8"/>
<path d="M324.876 50.6166L325.231 50.408L325.224 50.4102L324.869 50.6166H324.876Z" fill="#97A3B3"/>
<path d="M324.869 50.6164L325.224 50.41L325.217 50.4111L324.86 50.6176L324.869 50.6164Z" fill="#929EAD"/>
<path d="M324.86 50.6176L325.217 50.4111L325.21 50.4133L324.854 50.6208L324.86 50.6176Z" fill="#8E9AA8"/>
<path d="M324.854 50.6208L325.21 50.4133L325.204 50.4166L324.848 50.6219L324.854 50.6208Z" fill="#8A95A3"/>
<path d="M324.848 50.6218L325.205 50.4165V50.4176L324.847 50.6218H324.848Z" fill="#85909E"/>
</g>
<path d="M327.532 52.1299L327.888 51.9235L325.292 50.4237L324.936 50.6312L327.532 52.1299Z" fill="#B9C8DB"/>
<mask id="mask10_410_8190" style="mask-type:luminance" maskUnits="userSpaceOnUse" x="325" y="50" width="2" height="1">
<path d="M326.072 50.6675C326.072 50.6466 326.079 50.6356 326.09 50.629L325.735 50.8354C325.723 50.8431 325.718 50.8552 325.718 50.8739C325.835 50.8069 325.954 50.7355 326.072 50.6675C325.955 50.7355 325.835 50.8058 325.718 50.8739C325.718 50.9101 325.743 50.9562 325.776 50.9749L326.132 50.7674C326.099 50.752 326.072 50.7048 326.072 50.6675Z" fill="white"/>
</mask>
<g mask="url(#mask10_410_8190)">
<path d="M325.776 50.9754L326.131 50.7679C326.125 50.7646 326.118 50.7592 326.112 50.7537L325.756 50.9601C325.764 50.9656 325.769 50.9689 325.776 50.9754Z" fill="#6D91BB"/>
<path d="M325.755 50.9602L326.112 50.7538L326.106 50.7472L325.75 50.9525L325.755 50.9602Z" fill="#6A8DB7"/>
<path d="M325.75 50.9526L326.105 50.7473L326.101 50.7407L325.745 50.9471L325.75 50.9526Z" fill="#678AB2"/>
<path d="M325.746 50.9473L326.101 50.7408L326.097 50.7354L325.741 50.944L325.746 50.9473Z" fill="#6586AD"/>
<path d="M325.742 50.9436L326.097 50.735L326.094 50.7295L325.737 50.9381L325.742 50.9436Z" fill="#6282A8"/>
<path d="M325.737 50.9382L326.093 50.7296L326.09 50.7241L325.734 50.9316L325.737 50.9382Z" fill="#5F7FA4"/>
<path d="M325.735 50.9318L326.09 50.7242L326.088 50.7198L325.731 50.9285L325.735 50.9318Z" fill="#5C7B9F"/>
<path d="M325.732 50.9286L326.089 50.72L326.085 50.7145L325.729 50.9209L325.732 50.9286Z" fill="#5A779A"/>
<path d="M325.729 50.9205L326.084 50.7141L326.082 50.7086L325.728 50.9161L325.729 50.9205Z" fill="#577496"/>
<path d="M325.728 50.9161L326.083 50.7086L326.081 50.7064L325.725 50.9117L325.728 50.9161Z" fill="#547091"/>
<path d="M325.725 50.912L326.081 50.7067L326.078 50.7001L325.723 50.9065L325.725 50.912Z" fill="#526D8C"/>
<path d="M325.723 50.9066L326.079 50.7002L326.078 50.6936L325.721 50.9L325.723 50.9066Z" fill="#4F6988"/>
<path d="M325.72 50.8996L326.077 50.6932L326.074 50.6866L325.719 50.8942L325.72 50.8996Z" fill="#4C6583"/>
<path d="M325.719 50.8944L326.075 50.6869L326.072 50.677L325.718 50.8856L325.719 50.8944Z" fill="#49627E"/>
<path d="M325.718 50.8857L326.073 50.6771C326.073 50.6749 326.071 50.6705 326.071 50.6683C326.071 50.6474 326.078 50.6365 326.089 50.6299L325.734 50.8363C325.722 50.844 325.717 50.8561 325.717 50.8747C325.717 50.8791 325.717 50.8813 325.718 50.8857Z" fill="#475E7A"/>
</g>
<mask id="mask11_410_8190" style="mask-type:luminance" maskUnits="userSpaceOnUse" x="325" y="50" width="2" height="1">
<path d="M326.089 50.6304C325.97 50.6996 325.852 50.7677 325.734 50.8369C325.744 50.8314 325.76 50.8325 325.775 50.8402L326.132 50.6337C326.116 50.6239 326.1 50.6239 326.089 50.6304Z" fill="white"/>
</mask>
<g mask="url(#mask11_410_8190)">
<path d="M325.774 50.84L326.131 50.6335L326.122 50.6302L325.766 50.8367L325.774 50.84Z" fill="#ACBACC"/>
<path d="M325.766 50.8368L326.123 50.6304L326.118 50.6282L325.761 50.8346L325.766 50.8368Z" fill="#A8B6C7"/>
<path d="M325.76 50.8346L326.117 50.6282L326.111 50.626L325.755 50.8346H325.76Z" fill="#A3B1C2"/>
<path d="M325.755 50.8346L326.111 50.626H326.108L325.751 50.8346H325.755Z" fill="#9FACBD"/>
<path d="M325.751 50.8346L326.108 50.626H326.104L325.748 50.8346H325.75H325.751Z" fill="#9BA8B8"/>
<path d="M325.748 50.8346L326.103 50.626H326.099L325.743 50.8346H325.748Z" fill="#97A3B3"/>
<path d="M325.743 50.8346L326.098 50.626L326.097 50.6282L325.739 50.8346H325.743Z" fill="#929EAD"/>
<path d="M325.74 50.8343L326.096 50.6279H326.094L325.736 50.8343H325.74Z" fill="#8E9AA8"/>
<path d="M325.737 50.8343L326.093 50.6279L326.09 50.6301L325.734 50.8365L325.737 50.8343Z" fill="#8A95A3"/>
<path d="M325.734 50.8367L326.09 50.6302H326.089L325.734 50.8367Z" fill="#85909E"/>
</g>
<path d="M326.693 51.5069L327.049 51.2994L326.132 50.769L325.775 50.9766L326.693 51.5069Z" fill="#759CC9"/>
<mask id="mask12_410_8190" style="mask-type:luminance" maskUnits="userSpaceOnUse" x="326" y="51" width="2" height="1">
<path d="M327.091 51.3047C327.082 51.3102 327.066 51.3091 327.049 51.3003L326.693 51.5078C326.71 51.5166 326.725 51.5166 326.735 51.5111C326.842 51.4474 326.984 51.3651 327.091 51.3047Z" fill="white"/>
</mask>
<g mask="url(#mask12_410_8190)">
<path d="M326.735 51.5099L327.091 51.3046L326.735 51.5099Z" fill="#547091"/>
<path d="M326.736 51.5099L327.091 51.3046L327.088 51.3068L326.733 51.5099H326.736Z" fill="#577496"/>
<path d="M326.733 51.5099L327.087 51.3068H327.084L326.729 51.5121L326.733 51.5099Z" fill="#5A779A"/>
<path d="M326.729 51.5121L327.084 51.3068H327.083L326.725 51.5132L326.729 51.5121Z" fill="#5C7B9F"/>
<path d="M326.725 51.5132L327.082 51.3068H327.079L326.722 51.5132H326.725Z" fill="#5F7FA4"/>
<path d="M326.722 51.5132L327.079 51.3068H327.075L326.718 51.5132H326.722Z" fill="#6282A8"/>
<path d="M326.717 51.5132L327.074 51.3068H327.07L326.714 51.5132H326.717Z" fill="#6586AD"/>
<path d="M326.714 51.5132L327.07 51.3068H327.065L326.709 51.5121L326.714 51.5132Z" fill="#678AB2"/>
<path d="M326.709 51.5121L327.065 51.3068L327.058 51.3046L326.701 51.5099L326.709 51.5121Z" fill="#6A8DB7"/>
<path d="M326.701 51.51L327.058 51.3047L327.049 51.2992L326.693 51.5067L326.701 51.51Z" fill="#6D91BB"/>
</g>
<path d="M326.694 51.3706L327.05 51.1653L326.132 50.6339L325.775 50.8403L326.694 51.3706Z" fill="#B9C8DB"/>
<mask id="mask13_410_8190" style="mask-type:luminance" maskUnits="userSpaceOnUse" x="326" y="51" width="2" height="1">
<path d="M326.735 51.5099C326.739 51.5066 326.747 51.5044 326.753 51.5022C326.806 51.4682 326.859 51.4386 326.913 51.4067C326.972 51.3727 327.031 51.3375 327.091 51.3046C327.102 51.2958 327.108 51.2826 327.108 51.264C327.109 51.2277 327.083 51.1838 327.05 51.1652L326.694 51.3705C326.726 51.3891 326.753 51.4353 326.753 51.4715C326.753 51.4913 326.746 51.5033 326.735 51.5099Z" fill="white"/>
</mask>
<g mask="url(#mask13_410_8190)">
<path d="M326.735 51.5097L327.091 51.3044C327.102 51.2956 327.109 51.2825 327.109 51.2638C327.109 51.2616 327.109 51.2572 327.109 51.2539L326.753 51.4603C326.753 51.4636 326.753 51.468 326.753 51.4713C326.753 51.4911 326.746 51.5031 326.735 51.5097Z" fill="#707985"/>
<path d="M326.752 51.4606L327.108 51.2541L327.106 51.2454L326.75 51.4518L326.752 51.4606Z" fill="#747E8A"/>
<path d="M326.75 51.4514L327.106 51.245L327.105 51.2384L326.748 51.4459L326.75 51.4514Z" fill="#78828F"/>
<path d="M326.748 51.446L327.105 51.2385L327.103 51.233L326.746 51.4405L326.748 51.446Z" fill="#7D8794"/>
<path d="M326.746 51.4407L327.103 51.2332L327.101 51.2266L326.745 51.4352L326.746 51.4407Z" fill="#818C99"/>
<path d="M326.744 51.4348L327.1 51.2262L327.099 51.2218L326.742 51.4271L326.744 51.4348Z" fill="#85909E"/>
<path d="M326.743 51.4272L327.099 51.2219L327.097 51.2175L326.739 51.4228L326.743 51.4272Z" fill="#8A95A3"/>
<path d="M326.739 51.423L327.096 51.2176L327.094 51.2122L326.737 51.4197L326.739 51.423Z" fill="#8E9AA8"/>
<path d="M326.738 51.4198L327.094 51.2123L327.091 51.2068L326.735 51.4121L326.738 51.4187V51.4198Z" fill="#929EAD"/>
<path d="M326.736 51.4122L327.091 51.2069L327.088 51.2025L326.733 51.4078L326.736 51.4122Z" fill="#97A3B3"/>
<path d="M326.733 51.4073L327.088 51.202L327.085 51.1976L326.729 51.404L326.733 51.4073Z" fill="#9BA8B8"/>
<path d="M326.728 51.4042L327.084 51.1978L327.081 51.1923L326.725 51.3987L326.728 51.4042Z" fill="#9FACBD"/>
<path d="M326.725 51.3989L327.082 51.1925L327.077 51.1859L326.72 51.3923L326.725 51.3989Z" fill="#A3B1C2"/>
<path d="M326.719 51.3924L327.076 51.186L327.07 51.1794L326.714 51.387L326.719 51.3924Z" fill="#A8B6C7"/>
<path d="M326.714 51.3869L327.07 51.1794C327.064 51.1739 327.057 51.1685 327.051 51.1652L326.695 51.3705C326.701 51.3738 326.707 51.3804 326.714 51.3869Z" fill="#ACBACC"/>
</g>
<path d="M327.643 57.2975L327.999 57.09L328.014 52.1404L327.657 52.3468L327.643 57.2975Z" fill="#737D88"/>
<path d="M324.935 50.6314C324.866 50.5908 324.811 50.6238 324.811 50.7039L324.796 55.6524C324.796 55.7304 324.852 55.8259 324.921 55.8654L327.517 57.3652C327.587 57.4069 327.643 57.3751 327.643 57.296L327.657 52.3464C327.657 52.2674 327.601 52.1708 327.532 52.1302L324.935 50.6314Z" fill="#5C8FC6"/>
<path d="M324.935 50.6316L327.532 52.1303C327.602 52.1709 327.657 52.2675 327.657 52.3466L327.643 57.2962C327.643 57.3094 327.641 57.3236 327.638 57.3324C327.621 57.3313 327.605 57.3269 327.587 57.317L324.99 55.8161C324.92 55.7766 324.865 55.6789 324.865 55.6009L324.88 50.6502C324.88 50.6382 324.882 50.625 324.885 50.6151C324.903 50.6173 324.919 50.6206 324.935 50.6316Z" fill="#709DDA"/>
<mask id="mask14_410_8190" style="mask-type:luminance" maskUnits="userSpaceOnUse" x="327" y="51" width="2" height="2">
<path d="M327.657 52.3465L328.013 52.1401C328.013 52.0589 327.957 51.9655 327.888 51.9227L327.532 52.1302C327.602 52.1709 327.657 52.2675 327.657 52.3465Z" fill="white"/>
</mask>
<g mask="url(#mask14_410_8190)">
<path d="M327.657 52.3463L328.013 52.1399C328.013 52.1322 328.013 52.1234 328.012 52.1157L327.656 52.3232C327.657 52.3309 327.657 52.3397 327.657 52.3463Z" fill="#707985"/>
<path d="M327.657 52.3236L328.012 52.1161C328.011 52.1117 328.01 52.1051 328.009 52.0996L327.653 52.306C327.654 52.3115 327.656 52.317 327.657 52.3236Z" fill="#747E8A"/>
<path d="M327.653 52.3059L328.009 52.0995C328.007 52.094 328.006 52.0896 328.005 52.083L327.648 52.2916C327.65 52.2971 327.652 52.3004 327.653 52.3059Z" fill="#78828F"/>
<path d="M327.65 52.2914L328.007 52.0828C328.004 52.0806 328.003 52.0762 328.002 52.0707L327.647 52.2793C327.647 52.2826 327.649 52.2881 327.65 52.2914Z" fill="#7D8794"/>
<path d="M327.647 52.2795L328.002 52.0709C328.001 52.0665 328.001 52.0632 327.998 52.0588L327.643 52.2653C327.643 52.2707 327.645 52.2751 327.647 52.2795Z" fill="#818C99"/>
<path d="M327.642 52.2655L327.998 52.0591L327.992 52.0514L327.637 52.2545L327.642 52.2655Z" fill="#85909E"/>
<path d="M327.636 52.2543L327.992 52.05C327.991 52.0445 327.989 52.0402 327.988 52.0369L327.631 52.2433C327.634 52.2477 327.635 52.251 327.636 52.2543Z" fill="#8A95A3"/>
<path d="M327.631 52.2441L327.988 52.0377C327.986 52.0344 327.985 52.0311 327.983 52.0256L327.627 52.2331C327.629 52.2397 327.63 52.2419 327.631 52.2441Z" fill="#8E9AA8"/>
<path d="M327.627 52.2334L327.982 52.0259L327.976 52.016L327.62 52.2235L327.627 52.2334Z" fill="#929EAD"/>
<path d="M327.621 52.2237L327.978 52.0162C327.975 52.0118 327.973 52.0107 327.972 52.0063L327.615 52.2117C327.617 52.2172 327.62 52.2215 327.621 52.2237Z" fill="#97A3B3"/>
<path d="M327.613 52.2125L327.97 52.0072C327.967 52.0017 327.964 51.9984 327.962 51.9962L327.606 52.2015C327.61 52.2048 327.612 52.2092 327.613 52.2125Z" fill="#9BA8B8"/>
<path d="M327.607 52.2018L327.963 51.9965C327.961 51.9932 327.959 51.9899 327.955 51.9844L327.599 52.1908C327.602 52.1952 327.604 52.1985 327.607 52.2018Z" fill="#9FACBD"/>
<path d="M327.599 52.1916L327.955 51.9852C327.952 51.9797 327.949 51.9764 327.943 51.972L327.59 52.1785C327.592 52.1829 327.596 52.1872 327.599 52.1916Z" fill="#A3B1C2"/>
<path d="M327.59 52.1772L327.943 51.9708C327.942 51.9653 327.937 51.962 327.931 51.9565L327.574 52.1641C327.58 52.1684 327.584 52.1739 327.59 52.1772Z" fill="#A8B6C7"/>
<path d="M327.574 52.1653L327.931 51.9577C327.918 51.9424 327.903 51.9347 327.888 51.9237L327.532 52.1312C327.546 52.14 327.562 52.1499 327.574 52.1653Z" fill="#ACBACC"/>
</g>
<path d="M327.507 51.6363C327.726 51.7647 327.905 52.071 327.903 52.3225L327.888 57.787C327.887 58.0406 327.708 58.1406 327.488 58.0143L324.944 56.5463C324.725 56.4179 324.547 56.1093 324.548 55.8601L324.563 50.3967C324.564 50.1441 324.743 50.0409 324.962 50.1672L327.507 51.6363ZM324.796 55.6537C324.796 55.7316 324.852 55.8272 324.921 55.8667L327.517 57.3665C327.587 57.4082 327.643 57.3764 327.643 57.2973L327.657 52.3477C327.657 52.2687 327.601 52.1721 327.532 52.1314L324.935 50.6327C324.866 50.5921 324.811 50.625 324.811 50.7052L324.796 55.6537ZM326.218 57.1546C326.328 57.2183 326.418 57.1667 326.418 57.0404C326.418 56.9152 326.329 56.7626 326.22 56.6978C326.109 56.6353 326.02 56.6858 326.019 56.812C326.019 56.9372 326.108 57.092 326.218 57.1546ZM326.694 51.3706L325.776 50.8413C325.744 50.8238 325.718 50.838 325.718 50.8754C325.718 50.9116 325.744 50.9577 325.776 50.9764L326.694 51.5067C326.727 51.5232 326.754 51.51 326.754 51.4716C326.753 51.4353 326.726 51.3892 326.694 51.3706Z" fill="#E3F1FE"/>
<path d="M326.22 56.6978C326.109 56.6353 326.02 56.6858 326.019 56.812C326.017 56.9383 326.107 57.092 326.217 57.1557C326.327 57.2194 326.417 57.1678 326.417 57.0415C326.417 56.9141 326.328 56.7615 326.22 56.6978Z" fill="#5C8FC6"/>
<path d="M326.219 56.6978C326.328 56.7615 326.418 56.9152 326.417 57.0404C326.417 57.0997 326.397 57.1425 326.365 57.1634C326.332 57.1743 326.29 57.1678 326.245 57.1436C326.134 57.0799 326.045 56.9251 326.046 56.7977C326.046 56.7428 326.066 56.6989 326.096 56.677C326.13 56.666 326.173 56.6715 326.219 56.6978Z" fill="#85A9FF"/>
<path d="M325.034 49.9332C324.917 50.0024 324.797 50.0726 324.679 50.1407C324.751 50.0979 324.852 50.1056 324.962 50.1671L325.319 49.9617C325.207 49.8981 325.108 49.8904 325.034 49.9332Z" fill="#85A9FF"/>
<mask id="mask15_410_8190" style="mask-type:luminance" maskUnits="userSpaceOnUse" x="324" y="49" width="2" height="2">
<path d="M325.034 49.9332C324.917 50.0024 324.797 50.0726 324.679 50.1407C324.751 50.0979 324.852 50.1056 324.962 50.1671L325.319 49.9617C325.207 49.8981 325.108 49.8904 325.034 49.9332Z" fill="white"/>
</mask>
<g mask="url(#mask15_410_8190)">
<path d="M324.962 50.1667L325.319 49.9614C325.3 49.9493 325.281 49.9416 325.263 49.9329L324.906 50.1404C324.926 50.1492 324.944 50.1579 324.962 50.1667Z" fill="#85A9FF"/>
<path d="M324.906 50.1402L325.263 49.9327C325.247 49.9261 325.231 49.9217 325.216 49.9163L324.86 50.1238C324.876 50.1282 324.891 50.1337 324.906 50.1402Z" fill="#85A9FF"/>
<path d="M324.859 50.1239L325.215 49.9164C325.204 49.9142 325.192 49.9109 325.18 49.9098L324.824 50.1162C324.836 50.1173 324.847 50.1206 324.859 50.1239Z" fill="#85A9FF"/>
<path d="M324.825 50.1163L325.18 49.9099C325.171 49.9077 325.161 49.9077 325.151 49.9055L324.794 50.1141C324.805 50.1141 324.815 50.1152 324.825 50.1163Z" fill="#85A9FF"/>
<path d="M324.795 50.1141L325.152 49.9055C325.143 49.9055 325.134 49.9055 325.125 49.9066L324.77 50.113C324.777 50.1141 324.787 50.1141 324.795 50.1141Z" fill="#85A9FF"/>
<path d="M324.769 50.1141L325.125 49.9077C325.117 49.9077 325.108 49.9077 325.102 49.9099L324.746 50.1163C324.753 50.1152 324.761 50.1152 324.769 50.1141Z" fill="#85A9FF"/>
<path d="M324.746 50.1162L325.101 49.9098C325.094 49.9109 325.087 49.9131 325.078 49.9153L324.723 50.1206C324.73 50.1195 324.738 50.1173 324.746 50.1162Z" fill="#85A9FF"/>
<path d="M324.723 50.1205L325.079 49.9152C325.072 49.9163 325.065 49.9196 325.058 49.9228L324.701 50.1282C324.709 50.1249 324.717 50.1238 324.723 50.1205Z" fill="#85A9FF"/>
<path d="M324.7 50.1285L325.057 49.9232C325.051 49.9243 325.043 49.9276 325.036 49.932L324.682 50.1395C324.688 50.1362 324.694 50.134 324.7 50.1285Z" fill="#85A9FF"/>
<path d="M324.682 50.1393L325.037 49.9318L325.036 49.9329L324.679 50.1404L324.682 50.1393Z" fill="#85A9FF"/>
</g>
<path d="M325.775 50.8402C325.742 50.8227 325.717 50.8369 325.717 50.8743C325.717 50.9105 325.742 50.9566 325.775 50.9753L326.693 51.5056C326.726 51.5221 326.752 51.5089 326.752 51.4705C326.752 51.4342 326.726 51.3881 326.694 51.3694L325.775 50.8402Z" fill="#5C8FC6"/>
<path d="M326.694 51.3706C326.726 51.3893 326.752 51.4354 326.752 51.4717C326.752 51.4837 326.749 51.4947 326.745 51.5024C326.74 51.5013 326.738 51.4991 326.735 51.498L325.817 50.9666C325.785 50.9479 325.759 50.9018 325.759 50.8656C325.759 50.8535 325.762 50.8447 325.766 50.837C325.77 50.8392 325.773 50.8392 325.776 50.8403L326.694 51.3706Z" fill="#85A9FF"/>
<path d="M327.888 57.7883L328.245 57.5807L328.259 52.1184L327.903 52.3237L327.888 57.7883Z" fill="#85A9FF"/>
<path d="M327.507 51.6361L327.863 51.4285L325.319 49.9617L324.962 50.167L327.507 51.6361Z" fill="#85A9FF"/>
<path d="M327.897 52.2397C327.896 52.2266 327.893 52.2178 327.891 52.2057C327.889 52.1991 327.888 52.1914 327.886 52.1837C327.885 52.1782 327.884 52.1695 327.881 52.164C327.879 52.153 327.877 52.1453 327.875 52.1354C327.873 52.1299 327.87 52.1234 327.869 52.1179C327.866 52.1102 327.863 52.0992 327.858 52.0882C327.856 52.0827 327.855 52.0783 327.854 52.0728C327.848 52.0586 327.843 52.0454 327.836 52.03L327.835 52.0256C327.828 52.0114 327.822 51.9982 327.817 51.9883C327.813 51.9828 327.812 51.9773 327.81 51.9751C327.803 51.9631 327.797 51.9521 327.79 51.9389C327.789 51.9367 327.788 51.9356 327.787 51.9334C327.779 51.9191 327.77 51.9049 327.761 51.8906C327.758 51.8873 327.756 51.8829 327.754 51.8818C327.747 51.8719 327.742 51.8631 327.733 51.8533C327.731 51.8467 327.727 51.8423 327.723 51.8368C327.717 51.828 327.711 51.8214 327.705 51.8137C327.699 51.8071 327.695 51.8006 327.689 51.7951C327.685 51.7896 327.678 51.783 327.673 51.7775C327.665 51.7687 327.656 51.7588 327.647 51.7489C327.643 51.7457 327.639 51.7413 327.634 51.7358C327.616 51.7182 327.597 51.7017 327.578 51.6875C327.574 51.6842 327.571 51.6831 327.568 51.6809C327.548 51.6644 327.526 51.6501 327.506 51.637L327.862 51.4294C327.882 51.4437 327.904 51.4569 327.923 51.4723C327.927 51.4756 327.93 51.4778 327.934 51.481C327.953 51.4964 327.97 51.5107 327.989 51.5305C327.989 51.5305 327.992 51.5337 327.994 51.5348C327.997 51.5381 328 51.5403 328.002 51.5425C328.012 51.5524 328.021 51.5601 328.028 51.5711C328.032 51.5744 328.035 51.5777 328.036 51.5799C328.039 51.5821 328.041 51.5854 328.044 51.5886C328.049 51.5941 328.055 51.5985 328.059 51.6073C328.064 51.6106 328.066 51.6161 328.069 51.6194C328.072 51.6227 328.075 51.6249 328.077 51.6304C328.081 51.6348 328.084 51.6413 328.089 51.6446C328.092 51.6479 328.093 51.6523 328.095 51.6545C328.1 51.66 328.104 51.6677 328.109 51.6743C328.112 51.6776 328.114 51.682 328.116 51.6875L328.12 51.6908C328.127 51.7006 328.134 51.7127 328.142 51.7237C328.142 51.7259 328.142 51.7259 328.142 51.7259C328.143 51.7292 328.144 51.7314 328.146 51.7358C328.15 51.7413 328.155 51.75 328.159 51.7555C328.16 51.761 328.161 51.7665 328.165 51.7687C328.167 51.7731 328.17 51.7775 328.171 51.7819C328.172 51.7841 328.175 51.7885 328.176 51.7907C328.18 51.8006 328.184 51.8104 328.189 51.8181C328.189 51.8203 328.191 51.8236 328.191 51.8236L328.193 51.8258C328.198 51.8368 328.202 51.8489 328.207 51.8631C328.207 51.8631 328.209 51.8664 328.21 51.8686C328.212 51.873 328.213 51.8763 328.214 51.8818C328.217 51.8862 328.22 51.8928 328.221 51.8994C328.222 51.9038 328.224 51.9082 328.225 51.9136C328.226 51.9191 328.228 51.9246 328.229 51.9301C328.231 51.9334 328.232 51.9367 328.233 51.94C328.235 51.9455 328.236 51.9532 328.237 51.9587C328.239 51.9641 328.241 51.9718 328.243 51.9784C328.243 51.9784 328.244 51.9828 328.244 51.985C328.245 51.9927 328.245 51.996 328.246 51.9982C328.247 52.0114 328.249 52.0201 328.251 52.0311C328.252 52.0344 328.252 52.0366 328.252 52.041C328.252 52.0443 328.252 52.0454 328.254 52.0487C328.256 52.0717 328.258 52.0937 328.258 52.1179L327.902 52.3232C327.902 52.3001 327.901 52.2793 327.898 52.254C327.898 52.2474 327.898 52.2441 327.897 52.2397Z" fill="#85A9FF"/>
<path d="M328.013 52.8923C328.013 52.889 328.013 52.889 328.013 52.889C328.013 52.889 328.013 52.8868 328.014 52.8868C328.014 52.8857 328.014 52.8857 328.014 52.8846C328.014 52.8835 328.014 52.8835 328.014 52.8813C328.014 52.8791 328.014 52.878 328.015 52.8769C328.015 52.8747 328.015 52.8736 328.015 52.8736C328.016 52.8736 328.016 52.8714 328.016 52.8703L328.017 52.867C328.019 52.8659 328.02 52.8659 328.02 52.8637C328.02 52.8615 328.021 52.8604 328.021 52.8604C328.022 52.8593 328.022 52.8593 328.022 52.8571H328.023C328.025 52.8561 328.025 52.8561 328.025 52.855C328.026 52.8539 328.026 52.8539 328.026 52.8528L328.027 52.8517C328.027 52.8495 328.028 52.8484 328.03 52.8473C328.031 52.8462 328.031 52.844 328.033 52.8429C328.033 52.8429 328.034 52.8407 328.035 52.8396C328.035 52.8396 328.036 52.8396 328.036 52.8385C328.037 52.8363 328.037 52.8363 328.037 52.8363C328.038 52.8352 328.038 52.8352 328.038 52.8352L328.039 52.833C328.039 52.833 328.041 52.833 328.042 52.8319L328.043 52.8297L328.044 52.8286C328.045 52.8275 328.046 52.8275 328.046 52.8275C328.047 52.8264 328.047 52.8264 328.047 52.8242C328.048 52.8242 328.048 52.8242 328.049 52.8242C328.05 52.8231 328.05 52.8231 328.051 52.8209H328.054C328.055 52.8209 328.055 52.8198 328.055 52.8198L328.056 52.8187C328.057 52.8187 328.057 52.8187 328.058 52.8187L328.059 52.8165C328.059 52.8165 328.06 52.8165 328.061 52.8165H328.064H328.065C328.065 52.8165 328.066 52.8165 328.067 52.8143H328.069H328.07H328.072C328.072 52.8143 328.073 52.8143 328.075 52.8143H328.077C328.078 52.8143 328.078 52.8143 328.08 52.8143C328.081 52.8143 328.081 52.8143 328.082 52.8165C328.082 52.8165 328.084 52.8165 328.086 52.8165L328.118 52.8363C328.114 52.8341 328.11 52.833 328.103 52.833C328.099 52.8341 328.092 52.8363 328.086 52.8385C328.08 52.8429 328.073 52.8484 328.068 52.8539C328.062 52.8582 328.058 52.8648 328.054 52.8714C328.051 52.878 328.046 52.8868 328.045 52.8945C328.044 52.9011 328.042 52.9099 328.042 52.9164L328.043 53.3084C328.044 53.3216 328.048 53.3326 328.057 53.3381L328.025 53.3161C328.022 53.315 328.019 53.3128 328.016 53.3117C328.016 53.3095 328.015 53.3095 328.014 53.3084C328.013 53.3062 328.013 53.3062 328.012 53.3051V53.3029C328.012 53.3018 328.012 53.3018 328.011 53.2996C328.011 53.2974 328.011 53.2963 328.011 53.2952V53.293V53.2897L328.01 52.8978C328.013 52.8945 328.013 52.8945 328.013 52.8923Z" fill="#709DDA"/>
<path d="M328.089 52.836C328.064 52.8514 328.044 52.8854 328.044 52.914L328.045 53.306C328.046 53.3334 328.066 53.3455 328.09 53.3312C328.115 53.3147 328.134 53.2829 328.134 53.2533L328.133 52.8624C328.133 52.8327 328.114 52.8218 328.089 52.836Z" fill="#E3F1FE"/>
<path d="M328.013 53.5344C328.013 53.5311 328.013 53.5311 328.014 53.5311V53.5289C328.014 53.5278 328.014 53.5278 328.014 53.5267V53.5245C328.014 53.5234 328.014 53.5234 328.015 53.5212C328.015 53.519 328.015 53.5179 328.015 53.5179C328.016 53.5157 328.016 53.5157 328.016 53.5157L328.017 53.5135C328.019 53.5124 328.02 53.5124 328.02 53.5102C328.02 53.5091 328.021 53.508 328.021 53.508C328.022 53.5058 328.022 53.5047 328.022 53.5047C328.022 53.5025 328.022 53.5025 328.023 53.5014C328.025 53.5014 328.025 53.5003 328.025 53.5003C328.026 53.4981 328.026 53.4981 328.026 53.4981C328.026 53.497 328.027 53.497 328.027 53.497C328.027 53.4949 328.028 53.4938 328.03 53.4916C328.031 53.4905 328.031 53.4894 328.033 53.4883C328.034 53.4872 328.034 53.4872 328.035 53.485L328.036 53.4839C328.037 53.4828 328.037 53.4828 328.037 53.4828C328.038 53.4817 328.038 53.4817 328.038 53.4795H328.039C328.039 53.4795 328.041 53.4784 328.042 53.4784L328.043 53.4762C328.043 53.4751 328.044 53.4751 328.044 53.4729C328.045 53.4729 328.046 53.4729 328.046 53.4729C328.046 53.4729 328.047 53.4729 328.047 53.4718C328.048 53.4718 328.048 53.4718 328.049 53.4696C328.049 53.4696 328.05 53.4696 328.051 53.4685C328.051 53.4685 328.053 53.4685 328.054 53.4652L328.056 53.4641C328.057 53.4641 328.057 53.4641 328.058 53.463C328.058 53.463 328.06 53.4619 328.061 53.4619H328.064C328.064 53.4619 328.064 53.4619 328.065 53.4608C328.065 53.4608 328.066 53.4608 328.067 53.4608H328.069H328.07H328.072L328.073 53.4597C328.073 53.4597 328.073 53.4597 328.075 53.4597C328.075 53.4597 328.076 53.4597 328.077 53.4608C328.078 53.4608 328.078 53.4608 328.08 53.4608C328.081 53.4608 328.081 53.4608 328.082 53.4608C328.082 53.4608 328.084 53.4619 328.086 53.4619L328.118 53.4817C328.114 53.4795 328.11 53.4784 328.103 53.4784C328.099 53.4795 328.092 53.4817 328.086 53.4839C328.08 53.4872 328.073 53.4916 328.068 53.4981C328.062 53.5025 328.058 53.5113 328.054 53.5179C328.051 53.5234 328.046 53.5322 328.045 53.5399C328.044 53.5465 328.042 53.5541 328.042 53.5629L328.043 53.9538C328.044 53.9659 328.048 53.9769 328.057 53.9823L328.025 53.9637C328.022 53.9626 328.019 53.9604 328.016 53.9582C328.016 53.956 328.015 53.9549 328.015 53.9549H328.014V53.9527C328.014 53.9527 328.013 53.9516 328.012 53.9516C328.012 53.9494 328.012 53.9494 328.012 53.9494L328.011 53.9472V53.9428V53.9395C328.011 53.9373 328.011 53.9373 328.011 53.9373L328.01 53.5454V53.5432C328.013 53.5355 328.013 53.5355 328.013 53.5344Z" fill="#709DDA"/>
<path d="M328.089 53.4808C328.064 53.495 328.044 53.5313 328.044 53.5587L328.045 53.9496C328.046 53.977 328.066 53.9902 328.09 53.9726C328.115 53.9584 328.134 53.9232 328.134 53.898L328.133 53.5071C328.133 53.4786 328.114 53.4676 328.089 53.4808Z" fill="#E3F1FE"/>
<path d="M328.38 57.0476C328.38 57.0476 328.588 56.7621 328.851 56.0001C329.114 55.2393 329.134 55.147 329.066 54.6409C329.005 54.1347 328.653 53.5308 328.417 53.4759C328.104 53.4024 327.889 53.9481 327.934 54.99C327.988 56.0616 327.018 56.6973 326.971 56.9235C326.921 57.1442 328.203 57.2463 328.38 57.0476Z" fill="#FFAA83"/>
<path d="M327.974 56.1944C328.07 56.0944 327.695 55.7738 327.715 54.6891C327.729 53.8469 327.295 54.913 327.283 55.1118C327.272 55.3127 326.891 57.0057 326.891 57.0057C326.891 57.0057 327.661 56.5391 327.974 56.1944Z" fill="#FFAA83"/>
<path d="M317.232 61.8448C316.983 61.4452 316.592 60.0442 317.754 59.2613C319.008 58.4159 324.518 61.04 325.093 60.7578C325.378 60.6217 326.715 56.6383 326.715 56.6383C326.715 56.6383 327.183 57.2059 328.643 57.0435C328.643 57.0435 327.821 63.0504 326.398 63.3216C323.955 63.7915 318.406 63.7201 317.232 61.8448Z" fill="url(#paint25_linear_410_8190)"/>
<g opacity="0.1">
<path d="M325.385 94.8456C330.069 97.5499 330.095 101.938 325.44 104.643C320.786 107.346 313.213 107.345 308.529 104.642C303.845 101.937 303.82 97.5532 308.474 94.8478C313.128 92.1425 320.7 92.1414 325.385 94.8456Z" fill="black"/>
</g>
<path d="M313.343 96.9691C313.415 96.9845 317.165 96.856 316.325 98.2603C315.787 99.1683 315.035 99.3275 314.473 99.3451C313.915 99.3604 312.887 99.0311 312.635 99.1979C312.38 99.3604 311.112 100.239 310.383 99.3561C310.235 99.1771 310.137 98.6599 310.235 98.3273C310.333 97.999 312.928 96.8889 313.343 96.9691Z" fill="url(#paint26_linear_410_8190)"/>
<path d="M316.325 98.2603C315.787 99.1683 315.035 99.3275 314.473 99.3451C313.915 99.3605 312.887 99.0311 312.635 99.198C312.38 99.3605 311.112 100.239 310.383 99.3561C310.303 99.2573 310.238 99.0618 310.214 98.8532C310.719 99.602 311.964 99.3978 312.312 99.1475C312.706 98.8686 313.274 98.727 313.765 98.8291C314.255 98.9301 315.318 98.8071 315.853 98.2911C316.176 97.9782 316.158 97.6191 316.097 97.3831C316.428 97.5741 316.568 97.8508 316.325 98.2603Z" fill="url(#paint27_linear_410_8190)"/>
<path d="M311.625 68.6228C311.625 68.6228 308.348 71.562 310.636 78.2925C311.135 79.7594 312.123 82.8809 311.796 84.4125C311.399 86.2549 310.822 85.7345 310.403 91.8292C310.032 97.2147 310.099 96.0465 309.977 98.2281C309.941 98.8517 312.23 99.5006 312.574 98.5366C314.081 94.3194 316.176 85.4764 315.753 80.6026C315.325 75.7288 315.808 69.6263 315.808 69.6263C315.808 69.6263 313.563 69.5418 311.625 68.6228Z" fill="#223A7A"/>
<path d="M320.426 99.4867C320.499 99.4867 324.372 98.6237 323.737 100.242C323.328 101.291 322.577 101.604 321.996 101.728C321.419 101.854 320.301 101.713 320.065 101.934C319.83 102.156 318.659 103.314 317.759 102.539C317.573 102.38 317.386 101.864 317.431 101.501C317.476 101.142 319.979 99.4845 320.426 99.4867Z" fill="url(#paint28_linear_410_8190)"/>
<path d="M323.737 100.242C323.328 101.291 322.577 101.603 321.996 101.728C321.419 101.854 320.301 101.713 320.065 101.934C319.83 102.156 318.659 103.314 317.759 102.539C317.658 102.454 317.557 102.262 317.493 102.05C318.146 102.722 319.406 102.271 319.722 101.944C320.085 101.58 320.646 101.321 321.175 101.331C321.703 101.341 322.785 101.006 323.249 100.364C323.531 99.9785 323.453 99.6085 323.349 99.3779C323.723 99.5097 323.923 99.771 323.737 100.242Z" fill="url(#paint29_linear_410_8190)"/>
<path d="M313.562 69.6297C313.562 69.6297 309.986 74.0819 314.584 81.0012C314.584 81.0012 316.82 85.9212 316.736 87.4956C316.645 89.383 315.885 89.5543 316.63 95.7204C317.277 101.069 317.006 101.183 317.423 101.63C317.857 102.105 320.039 101.645 320.117 100.692C320.525 95.458 320.749 87.7833 320.869 82.8952C321.013 77.0036 319.48 69.1246 319.48 69.1246C319.48 69.1246 316.808 70.4795 313.562 69.6297Z" fill="#2C4481"/>
<path d="M320.869 82.8941C320.862 87.7844 320.525 95.4569 320.117 100.691C320.086 101.062 319.733 101.355 319.293 101.552C319.342 99.7444 319.616 89.0756 319.634 86.5843C319.657 83.8614 319.756 75.0832 317.811 73.78C315.446 72.1945 315.717 70.0305 315.717 70.0305L313.343 69.23C317.598 70.1183 319.48 69.1224 319.48 69.1224C319.48 69.1224 320.878 76.6874 320.869 82.8941Z" fill="#223A7A"/>
<path d="M311.711 68.2717C311.711 68.2717 314.644 70.1975 319.485 68.9129C319.485 68.9129 319.581 69.7781 319.622 69.9296C319.661 70.0801 313.799 71.1198 311.191 69.1226L311.711 68.2717Z" fill="#1A3166"/>
</g>

<defs>
<linearGradient id="paint0_linear_410_8190" x1="158.757" y1="151.246" x2="158.757" y2="243.762" gradientUnits="userSpaceOnUse">
<stop stop-color="#E3E3E3"/>
<stop offset="1" stop-color="#6C86DD"/>
</linearGradient>
<linearGradient id="paint1_linear_410_8190" x1="53.1413" y1="107.987" x2="203.621" y2="206.533" gradientUnits="userSpaceOnUse">
<stop stop-color="#DFDAEF"/>
<stop offset="1" stop-color="#F2EFFA"/>
</linearGradient>
<linearGradient id="paint2_linear_410_8190" x1="155.37" y1="29.2297" x2="104.423" y2="110.027" gradientUnits="userSpaceOnUse">
<stop stop-color="#FAA803"/>
<stop offset="1" stop-color="#FA8213"/>
</linearGradient>
<linearGradient id="paint3_linear_410_8190" x1="137.913" y1="80.8256" x2="137.913" y2="186.714" gradientUnits="userSpaceOnUse">
<stop stop-color="#54597B"/>
<stop offset="1" stop-color="#6C86DD"/>
</linearGradient>
<linearGradient id="paint4_linear_410_8190" x1="82.8585" y1="79.5056" x2="82.8585" y2="186.846" gradientUnits="userSpaceOnUse">
<stop stop-color="#555C8B"/>
<stop offset="1" stop-color="#6C86DD"/>
</linearGradient>
<linearGradient id="paint5_linear_410_8190" x1="86.2456" y1="76.8893" x2="86.2456" y2="83.5595" gradientUnits="userSpaceOnUse">
<stop stop-color="#555C8B"/>
<stop offset="1" stop-color="#6C86DD"/>
</linearGradient>
<linearGradient id="paint6_linear_410_8190" x1="139.561" y1="119.768" x2="139.561" y2="171.949" gradientUnits="userSpaceOnUse">
<stop stop-color="#555C8B"/>
<stop offset="1" stop-color="#6C86DD"/>
</linearGradient>
<linearGradient id="paint7_linear_410_8190" x1="149.818" y1="126.827" x2="142.269" y2="108.271" gradientUnits="userSpaceOnUse">
<stop stop-color="#606475"/>
<stop offset="1" stop-color="#9499A9"/>
</linearGradient>
<linearGradient id="paint8_linear_410_8190" x1="150.715" y1="104.393" x2="160.605" y2="128.538" gradientUnits="userSpaceOnUse">
<stop stop-color="#D0D5E2"/>
<stop offset="1" stop-color="#9499A9"/>
</linearGradient>
<linearGradient id="paint9_linear_410_8190" x1="131.426" y1="134.309" x2="123.878" y2="115.754" gradientUnits="userSpaceOnUse">
<stop stop-color="#606475"/>
<stop offset="1" stop-color="#9499A9"/>
</linearGradient>
<linearGradient id="paint10_linear_410_8190" x1="132.322" y1="111.926" x2="142.213" y2="136.071" gradientUnits="userSpaceOnUse">
<stop stop-color="#D0D5E2"/>
<stop offset="1" stop-color="#9499A9"/>
</linearGradient>
<linearGradient id="paint11_linear_410_8190" x1="113.364" y1="141.656" x2="105.815" y2="123.101" gradientUnits="userSpaceOnUse">
<stop stop-color="#606475"/>
<stop offset="1" stop-color="#9499A9"/>
</linearGradient>
<linearGradient id="paint12_linear_410_8190" x1="114.263" y1="119.323" x2="124.153" y2="143.468" gradientUnits="userSpaceOnUse">
<stop stop-color="#D0D5E2"/>
<stop offset="1" stop-color="#9499A9"/>
</linearGradient>
<linearGradient id="paint13_linear_410_8190" x1="95.5339" y1="148.909" x2="87.9856" y2="130.354" gradientUnits="userSpaceOnUse">
<stop stop-color="#606475"/>
<stop offset="1" stop-color="#9499A9"/>
</linearGradient>
<linearGradient id="paint14_linear_410_8190" x1="96.4363" y1="126.626" x2="106.326" y2="150.771" gradientUnits="userSpaceOnUse">
<stop stop-color="#D0D5E2"/>
<stop offset="1" stop-color="#9499A9"/>
</linearGradient>
<linearGradient id="paint15_linear_410_8190" x1="627.757" y1="150.781" x2="627.757" y2="243.297" gradientUnits="userSpaceOnUse">
<stop stop-color="#E3E3E3"/>
<stop offset="1" stop-color="#6C86DD"/>
</linearGradient>
<linearGradient id="paint16_linear_410_8190" x1="522.141" y1="107.522" x2="672.621" y2="206.068" gradientUnits="userSpaceOnUse">
<stop stop-color="#DFDAEF"/>
<stop offset="1" stop-color="#F2EFFA"/>
</linearGradient>
<linearGradient id="paint17_linear_410_8190" x1="641.938" y1="34.0297" x2="641.938" y2="152.666" gradientUnits="userSpaceOnUse">
<stop stop-color="#555C8B"/>
<stop offset="1" stop-color="#6C86DD"/>
</linearGradient>
<linearGradient id="paint18_linear_410_8190" x1="641.835" y1="90.5758" x2="641.835" y2="147.052" gradientUnits="userSpaceOnUse">
<stop stop-color="#555C8B"/>
<stop offset="1" stop-color="#6C86DD"/>
</linearGradient>
<linearGradient id="paint19_linear_410_8190" x1="582.31" y1="186.306" x2="582.61" y2="211.671" gradientUnits="userSpaceOnUse">
<stop stop-color="#FFB244"/>
<stop offset="0.692155" stop-color="#F7D379" stop-opacity="0.8"/>
</linearGradient>
<linearGradient id="paint20_linear_410_8190" x1="397.757" y1="70.7808" x2="397.757" y2="163.297" gradientUnits="userSpaceOnUse">
<stop stop-color="#E3E3E3"/>
<stop offset="1" stop-color="#6C86DD"/>
</linearGradient>
<linearGradient id="paint21_linear_410_8190" x1="292.141" y1="27.5216" x2="442.621" y2="126.068" gradientUnits="userSpaceOnUse">
<stop stop-color="#DFDAEF"/>
<stop offset="1" stop-color="#F2EFFA"/>
</linearGradient>
<linearGradient id="paint22_linear_410_8190" x1="313.891" y1="57.0769" x2="313.891" y2="73.944" gradientUnits="userSpaceOnUse">
<stop stop-color="#555C8B"/>
<stop offset="1" stop-color="#6C86DD"/>
</linearGradient>
<linearGradient id="paint23_linear_410_8190" x1="313.868" y1="56.706" x2="313.868" y2="73.9808" gradientUnits="userSpaceOnUse">
<stop stop-color="#555C8B"/>
<stop offset="1" stop-color="#6C86DD"/>
</linearGradient>
<linearGradient id="paint24_linear_410_8190" x1="317.281" y1="56.6571" x2="317.281" y2="76.3687" gradientUnits="userSpaceOnUse">
<stop stop-color="#555C8B"/>
<stop offset="1" stop-color="#6C86DD"/>
</linearGradient>
<linearGradient id="paint25_linear_410_8190" x1="324.82" y1="56.6562" x2="324.82" y2="64.2508" gradientUnits="userSpaceOnUse">
<stop stop-color="#555C8B"/>
<stop offset="1" stop-color="#6C86DD"/>
</linearGradient>
<linearGradient id="paint26_linear_410_8190" x1="314.401" y1="96.9721" x2="314.401" y2="100.019" gradientUnits="userSpaceOnUse">
<stop stop-color="#555C8B"/>
<stop offset="1" stop-color="#6C86DD"/>
</linearGradient>
<linearGradient id="paint27_linear_410_8190" x1="314.407" y1="97.3891" x2="314.407" y2="99.9775" gradientUnits="userSpaceOnUse">
<stop stop-color="#555C8B"/>
<stop offset="1" stop-color="#6C86DD"/>
</linearGradient>
<linearGradient id="paint28_linear_410_8190" x1="321.718" y1="99.266" x2="321.718" y2="103.154" gradientUnits="userSpaceOnUse">
<stop stop-color="#555C8B"/>
<stop offset="1" stop-color="#6C86DD"/>
</linearGradient>
<linearGradient id="paint29_linear_410_8190" x1="321.741" y1="99.3868" x2="321.741" y2="103.142" gradientUnits="userSpaceOnUse">
<stop stop-color="#555C8B"/>
<stop offset="1" stop-color="#6C86DD"/>
</linearGradient>
</defs>



<style>
    .el1 { 
        animation: move1 3s infinite; 
        animation-timing-function: ease-in-out; 
    } 
    @keyframes move1 { 
        0% { 
            transform: translateY(0px); 
        } 
        50% { 
            transform: translateY(-6px); 
        } 
        100% { 
            transform: translateY(0px); 
        } 
    }
    .el2 { 
        animation: move2 3s infinite; 
        animation-timing-function: ease-in-out; 
    } 
    @keyframes move2 { 
        0% { 
            transform: translateY(0px); 
        } 
        50% { 
            transform: translateY(6px); 
        } 
        100% { 
            transform: translateY(0px); 
        } 
    }
</style>
</svg>
