<svg width="264" height="296" viewBox="0 0 264 296" fill="none" xmlns="http://www.w3.org/2000/svg">
<path d="M26 173.062V182.857C26 185.933 27.5169 189.009 30.5507 190.767L116.703 240.455C124.932 245.222 135.07 245.222 143.3 240.455L233.886 187.538C236.867 185.812 238.376 182.811 238.427 179.789L238.437 179.786V169.857L26 173.062Z" fill="url(#paint0_linear_332_29993)"/>
<path d="M30.5507 180.971L116.703 230.66C124.932 235.427 135.07 235.427 143.3 230.66L233.886 177.743C239.954 174.227 239.954 165.438 233.886 161.924L147.734 112.236C139.505 107.468 129.366 107.468 121.136 112.236L30.5507 165.152C24.4831 168.667 24.4831 177.455 30.5507 180.971Z" fill="url(#paint1_linear_332_29993)"/>
<path d="M95.2666 142.348C93.9669 143.662 92.1638 144.476 90.169 144.476C86.2071 144.476 82.9954 141.264 82.9954 137.301C82.9954 135.38 83.7536 133.64 84.9821 132.352L84.9786 132.35L91.0729 126.286C91.1463 126.2 91.222 126.115 91.3 126.031L99.7894 137.819L95.2666 142.348Z" fill="url(#paint2_linear_332_29993)"/>
<path d="M85.6633 104.284C85.6633 96.7344 88.0309 91.2889 91.8288 88.6556H91.8299C92.3059 88.3252 92.8049 88.0406 93.3245 87.7996L98.6457 84.7545C102.137 82.7098 106.703 82.8865 111.699 85.7722C122.674 92.1104 131.571 109.114 131.571 123.751C131.571 131.61 129.005 137.187 124.932 139.687C124.719 139.817 118.806 143.149 118.806 143.149C115.288 145.331 110.636 145.21 105.535 142.263C103.537 141.11 101.609 139.601 99.7905 137.819L91.3011 126.031C87.8129 119.242 85.6633 111.478 85.6633 104.284Z" fill="url(#paint3_linear_332_29993)"/>
<path d="M105.357 132.236L95.223 122.099L91.4319 125.891L91.4331 125.892C90.1518 127.189 89.3604 128.968 89.3604 130.935C89.3604 134.898 92.5721 138.111 96.5341 138.111C98.3739 138.111 100.046 137.412 101.316 136.273L101.32 136.276L105.357 132.236Z" fill="url(#paint4_linear_332_29993)"/>
<path d="M125.405 127.237C125.405 141.874 116.509 148.601 105.535 142.263C94.5599 135.925 85.6633 118.922 85.6633 104.284C85.6633 89.647 94.5599 82.9198 105.535 89.258C116.509 95.5962 125.405 112.599 125.405 127.237Z" fill="url(#paint5_linear_332_29993)"/>
<path d="M119.24 123.676C119.24 133.772 113.103 138.412 105.535 134.041C97.9654 129.669 91.8286 117.942 91.8286 107.846C91.8286 97.7499 97.9654 93.1098 105.535 97.4814C113.104 101.853 119.24 113.581 119.24 123.676Z" fill="url(#paint6_linear_332_29993)"/>
<path opacity="0.6" d="M105.535 97.4814C113.104 101.853 119.24 113.581 119.24 123.676C119.24 128.21 117.995 131.63 115.946 133.642L95.3086 97.7132C97.8183 95.4058 101.464 95.1304 105.535 97.4814Z" fill="url(#paint7_linear_332_29993)"/>
<g opacity="0.8" filter="url(#filter0_f_332_29993)">
<path d="M74.1914 170.773C79.7345 173.974 79.7345 179.164 74.1914 182.366C68.6493 185.567 59.6625 185.567 54.1204 182.366C48.5784 179.165 48.5784 173.975 54.1204 170.773C59.6636 167.572 68.6493 167.572 74.1914 170.773Z" fill="#BCC5DF" fill-opacity="0.5"/>
</g>
<mask id="mask0_332_29993" style="mask-type:luminance" maskUnits="userSpaceOnUse" x="60" y="110" width="4" height="3">
<path d="M62.8864 110.766L60.7988 111.98C60.9468 111.894 61.1504 111.906 61.3746 112.035L63.4621 110.821C63.2379 110.691 63.0333 110.68 62.8864 110.766Z" fill="white"/>
</mask>
<g mask="url(#mask0_332_29993)">
<path d="M61.3747 112.034L63.4622 110.82C63.238 110.69 63.0334 110.679 62.8854 110.765L60.7979 111.978C60.947 111.892 61.1505 111.904 61.3747 112.034Z" fill="#7F89A6"/>
</g>
<path d="M58.7284 174.022C58.797 173.83 58.9243 173.73 59.277 173.714C59.6949 173.694 60.1139 173.691 60.5319 173.679C61.0978 173.664 61.6638 173.647 62.2297 173.632C62.2167 173.174 62.221 172.709 62.1873 172.252C62.7826 172.402 63.1222 172.239 63.7045 172.047C64.3902 171.821 65.0846 171.619 65.7855 171.443C66.0848 171.368 66.3983 171.297 66.6976 171.369C67.4551 171.552 67.8262 172.823 67.7 173.479C67.6107 173.942 67.281 174.328 66.9 174.608C66.3286 175.027 65.533 175.356 64.8288 175.435C64.0746 175.52 63.3769 175.729 62.7554 176.181C61.9511 176.766 61.371 177.392 60.3316 177.429C59.2879 177.466 58.4476 176.803 58.4465 175.726C58.4465 175.339 58.5271 174.959 58.6087 174.582C58.6598 174.345 58.6795 174.159 58.7284 174.022Z" fill="#0F1317"/>
<path d="M62.8927 176.081C62.8938 175.998 62.8916 175.916 62.8862 175.834C62.8307 174.987 63.1561 174.271 63.4652 173.488C63.5806 173.197 63.7057 172.891 63.9517 172.695C64.5111 172.25 65.3971 172.64 65.7519 173.261C65.9163 173.548 66.0077 173.873 66.1546 174.169C66.4343 174.733 66.9992 175.405 67.6784 175.435C68.5915 175.476 69.6189 175.162 70.5441 175.106C70.9043 175.085 71.2787 175.073 71.6129 175.208C72.4019 175.527 72.6294 176.8 72.3475 177.511C72.1734 177.95 71.7783 178.268 71.3517 178.472C70.7117 178.776 69.8693 178.952 69.1629 178.899C68.4065 178.843 67.6816 178.918 66.9872 179.247C65.7943 179.81 64.4078 180.618 63.204 179.522C62.8818 179.229 62.7251 178.789 62.687 178.356C62.6217 177.586 62.8818 176.844 62.8927 176.081Z" fill="#1C232A"/>
<path d="M63.2654 158.526L63.6922 156.734C63.5223 157.325 63.3819 157.924 63.2654 158.526Z" fill="url(#paint8_linear_332_29993)"/>
<path d="M56.6477 141.579C56.8534 140.515 56.5694 138.496 58.0964 138.334C59.4787 138.188 60.2329 139.889 60.6019 140.289C61.1548 140.89 63.3598 139.9 63.399 139.617C66.0471 137.712 65.4539 145.677 64.5995 148.82C63.8888 151.45 64.4939 153.389 62.5534 159.406C61.0546 168.519 63.7092 175.631 59.7453 174.975C58.8104 174.82 58.5252 174.426 58.2575 173.394C56.1972 165.46 57.2518 156.808 57.3694 156.902C57.353 154.585 56.4638 151.377 56.1601 148.033C55.9893 145.873 56.2309 143.739 56.6477 141.579Z" fill="url(#paint9_linear_332_29993)"/>
<path d="M56.6477 141.579C56.8534 140.515 56.5694 138.496 58.0964 138.334C59.4786 138.188 60.2329 139.889 60.6019 140.289C61.1548 140.89 63.3598 139.9 63.399 139.617C66.047 137.712 65.4539 145.677 64.5995 148.82C64.1413 150.516 64.1815 152.298 63.8822 154.025C63.5666 155.847 63.1215 157.647 62.5533 159.406C62.3008 160.942 62.1822 162.503 62.1288 164.06C62.0363 166.745 62.1267 169.435 62.0091 172.12C61.9841 172.692 61.9482 173.271 61.7686 173.814C61.6674 174.119 61.5172 174.438 61.2984 174.677C61.1972 174.788 61.0644 174.868 60.9218 174.923C61.7816 168.598 61.2407 162.515 60.6029 156.241C60.185 153.106 58.3739 150.344 56.1601 148.034C56.1525 147.939 56.1449 147.843 56.1384 147.747C56.0088 145.68 56.257 143.608 56.6477 141.579Z" fill="url(#paint10_linear_332_29993)"/>
<path d="M64.3653 141.572C64.6124 141.444 65.8793 140.809 65.8684 140.465C65.8608 140.234 66.4844 140.041 66.6466 140.044C66.9372 140.05 67.23 140.237 67.464 140.405C68.0419 140.818 68.4675 141.453 68.7309 142.133C69.0911 143.066 69.1793 144.091 69.2348 145.098C69.4013 148.102 69.3229 151.121 69.0051 154.112C68.8441 155.622 68.622 157.124 68.339 158.613C68.1976 159.358 68.0408 160.1 67.8689 160.838C67.7034 161.546 67.5576 161.769 66.9623 162.143C65.6856 162.946 63.3847 162.84 62.4716 161.394C61.4887 159.839 61.8969 157.416 61.5834 155.666C61.1274 153.124 59.435 151.259 58.6579 148.843C58.0875 147.071 58.1648 145.398 58.4641 143.589C58.6056 142.735 58.869 140.692 59.7397 140.192C59.9704 140.06 61.5355 139.704 62.8024 140.961C63.5403 141.695 63.4544 142.041 64.3653 141.572Z" fill="url(#paint11_linear_332_29993)"/>
<path d="M55.6724 134.552C55.6158 134.104 55.5494 133.658 55.471 133.213C55.0966 131.081 54.4588 128.998 54.1911 126.847C53.9832 125.176 53.8319 123.093 55.1576 121.802C55.3731 121.592 55.6223 121.417 55.8835 121.268C58.4575 119.814 60.9206 121.585 63.3335 122.454C64.9182 123.026 66.4387 123.775 67.8579 124.682C68.3521 124.997 68.8582 125.214 69.1901 125.706C69.5428 126.228 69.7311 126.79 69.767 127.421C69.8072 128.136 69.6766 128.848 69.5569 129.555C68.8625 133.669 68.5578 137.875 69.0541 142.017C69.213 143.342 69.2728 144.682 69.3468 146.015C69.374 146.517 69.6908 147.306 69.4372 147.767C69.1716 148.249 68.1943 148.653 67.723 148.892C66.418 149.555 64.9704 149.941 63.5066 150C61.2416 150.091 58.9527 149.401 57.1166 148.073C56.3276 147.502 55.742 146.864 55.7932 145.884C55.8563 144.655 55.8182 143.412 55.8476 142.178C55.9075 139.637 55.9891 137.082 55.6724 134.552Z" fill="#D4E2FC"/>
<path d="M64.2458 126.267C65.1318 125.183 66.5129 124.598 67.9061 124.712C68.385 125.011 68.8682 125.231 69.1904 125.707C69.543 126.229 69.7313 126.792 69.7672 127.422C69.8075 128.137 69.6769 128.849 69.5571 129.556C68.8628 133.67 68.558 137.876 69.0543 142.018C69.2132 143.343 69.2731 144.683 69.3471 146.016C69.3743 146.518 69.691 147.307 69.4374 147.768C69.1762 148.241 68.2282 148.64 67.7482 148.88C67.2487 143.27 65.0556 137.741 63.3054 132.26C62.7188 130.146 62.7188 127.913 64.2458 126.267Z" fill="#98A4E0"/>
<path d="M64.5701 122.953C64.1326 122.765 63.6667 122.575 63.3326 122.455C61.6564 121.851 59.9564 120.813 58.2128 120.723C57.3715 121.99 58.0506 123.444 59.2903 124.12C60.8478 124.899 62.8972 124.812 64.3763 123.766C64.6713 123.556 64.8933 123.202 64.5701 122.953Z" fill="#CDDCFB"/>
<path d="M67.7815 162.023C67.6694 163.325 67.566 164.629 67.4757 165.932C67.4038 166.963 67.3396 167.995 67.2852 169.027C67.2439 169.822 67.2079 170.618 67.1807 171.412C67.0294 175.767 67.4898 176.747 65.4371 177.311C64.9767 177.437 64.4891 177.475 64.0266 177.361C62.69 177.03 62.4582 175.855 62.2939 174.399C62.2014 173.58 62.1589 172.594 62.1328 171.765C62.1099 171.065 62.0958 170.365 62.0838 169.665C62.0675 168.718 62.0566 167.771 62.0468 166.823C62.0337 165.574 62.025 164.325 62.0163 163.075C62.0054 161.478 61.8683 159.847 61.8574 158.249C61.8563 158.017 62.0022 157.776 62.1872 157.654C62.4277 157.496 67.2373 159.256 67.7271 159.8C67.7271 159.8 67.9197 160.414 67.7815 162.023Z" fill="url(#paint12_linear_332_29993)"/>
<path d="M63.9772 120.358C64.0708 119.72 64.5518 119.868 64.3091 119.29C64.1023 118.799 63.7878 118.347 63.3666 118.021C62.9454 117.695 62.4132 117.502 61.8809 117.531C61.6981 117.541 61.5751 117.646 61.3933 117.646C60.8916 117.649 60.3866 117.552 59.8859 117.625C59.3874 117.698 58.926 117.733 58.926 118.296C58.926 119.046 58.9608 119.768 58.7213 120.506C58.5929 120.901 58.3981 121.28 58.3644 121.694C58.2969 122.506 58.89 123.263 59.6236 123.618C60.5259 124.055 61.5446 124.014 62.5046 123.875C62.9867 123.805 63.6637 123.708 63.9456 123.25C64.1578 122.904 64.0675 122.451 64.0218 122.073C63.9511 121.5 63.8934 120.934 63.9772 120.358Z" fill="#FFBFA2"/>
<path d="M66.1168 112.196C66.4194 112.564 66.6556 112.979 66.7285 113.466C66.8907 114.549 66.4542 115.662 66.6893 116.737C66.9168 117.778 66.4705 120.143 64.4178 120.749C63.3795 121.056 61.3301 120.697 60.6705 120.381C59.7857 119.958 59.2012 119.1 58.6788 118.269C54.3905 111.458 63.2086 108.657 66.1168 112.196Z" fill="#FFBFA2"/>
<path d="M65.5007 114.326L67.5415 113.139C67.9768 113.391 68.3327 114.007 68.3316 114.508C68.3306 114.769 68.3305 115.029 68.3294 115.29C68.3294 115.478 68.3382 115.667 68.3284 115.853C68.3153 116.085 68.2021 116.273 68.0247 116.422C67.8625 116.558 67.6721 116.656 67.5088 116.791C67.4424 116.846 67.3793 116.907 67.3042 116.951C67.2335 116.991 67.1551 117.015 67.0757 117.033C66.9298 117.068 66.7763 117.091 66.6305 117.057C66.4912 117.025 66.3638 116.931 66.3094 116.795C66.2594 116.668 66.2877 116.504 66.2877 116.37C66.2887 116.145 66.2887 115.92 66.2898 115.693C66.292 115.192 65.9361 114.577 65.5007 114.326Z" fill="#CDDCFB"/>
<path d="M65.5006 114.326L67.5413 113.139L63.2487 110.66L61.208 111.847L65.5006 114.326Z" fill="#ECF5FE"/>
<path d="M56.7239 115.215C56.7522 115.417 56.7805 115.618 56.8186 115.818C56.848 115.97 56.8829 116.119 56.9307 116.266C56.971 116.393 57.0189 116.516 57.0744 116.636C57.2779 117.092 57.5675 117.509 57.8559 117.92C58.2542 118.487 58.6809 119.077 59.3056 119.378C59.5755 119.509 59.8705 119.579 60.1633 119.643C60.9741 119.823 62.1713 119.861 62.7939 119.188C63.0714 118.89 63.1825 118.466 63.2336 118.07C63.2826 117.68 63.2956 117.347 63.4012 116.954C63.4273 116.857 63.4534 116.762 63.4828 116.668C63.5296 116.515 63.5851 116.365 63.6635 116.226C63.7919 116.001 63.9868 115.802 64.2349 115.727C64.6594 115.597 65.1687 115.838 65.5377 115.593C65.7282 115.466 65.8239 115.242 65.9099 115.032C65.9959 114.823 66.0721 114.59 66.1581 114.361C66.2724 114.058 66.403 113.759 66.5902 113.521C66.6903 113.395 66.8068 113.281 66.8851 113.14C66.994 112.949 67.1202 112.77 67.1289 112.551C67.1703 111.553 66.3485 110.569 65.6596 109.933C65.2895 109.592 64.8792 109.284 64.4167 109.084C64.0096 108.909 63.5721 108.822 63.1346 108.76C61.8383 108.573 60.4506 108.604 59.3078 109.241C59.0063 109.409 58.7146 109.63 58.5677 109.946C58.535 110.016 58.51 110.091 58.4599 110.151C58.3946 110.229 58.2934 110.27 58.1987 110.315C57.8874 110.46 57.6328 110.643 57.4249 110.857C56.3757 111.938 56.5259 113.779 56.7239 115.215Z" fill="#664D17"/>
<path d="M56.8196 115.818C56.849 115.97 56.8838 116.119 56.9317 116.266C56.972 116.393 57.0198 116.516 57.0753 116.636C59.1803 117.107 61.3962 117.149 63.4838 116.668C64.3479 116.469 65.1903 116.181 65.9936 115.797C66.2515 115.674 66.5106 115.535 66.7021 115.324C66.8926 115.112 67.0069 114.808 66.9231 114.535C66.8012 114.131 66.6194 114.142 66.159 114.361C65.6409 114.608 64.7691 115.116 63.2291 115.588C62.2419 115.891 59.2434 115.961 56.8196 115.818Z" fill="#1C232A"/>
<path d="M63.7712 115.263C62.9494 115.193 62.723 116.211 63.2738 117.011C63.4348 117.244 63.7233 117.453 63.9355 117.64C65.3885 118.921 65.7825 117.568 65.321 117.132C64.2501 116.121 64.8051 115.35 63.7712 115.263Z" fill="#FFBFA2"/>
<path d="M63.9936 116.819C63.8999 116.731 62.9713 116.161 63.6169 115.794C63.7954 115.693 63.9903 115.851 64.0142 116.039C64.0262 116.136 63.9947 116.236 64.0077 116.333C64.0153 116.391 64.0382 116.445 64.0676 116.496C64.1482 116.633 64.4301 116.768 64.3713 116.965C64.3191 117.14 64.0469 116.87 63.9936 116.819Z" fill="#F3A984"/>
<path d="M66.9549 115.299C66.6447 115.251 66.2355 115.557 66.4848 115.726C66.3204 115.747 66.1626 115.874 66.1593 116.038C66.155 116.253 66.3813 116.385 66.549 116.518C66.7797 116.701 66.9397 116.956 67.0953 117.206C67.4229 117.734 67.5024 118.449 67.3957 118.436C67.128 118.402 66.8494 118.269 66.7427 118.021C66.6807 117.876 66.6839 117.708 66.6099 117.57C66.549 117.456 66.4412 117.374 66.3356 117.299C66.2986 117.273 66.2605 117.246 66.2148 117.242C66.1212 117.235 66.0527 117.333 66.0276 117.424C65.9895 117.567 66.0059 117.718 66.0233 117.866C66.0657 118.227 66.1191 118.609 66.3531 118.886C66.4303 118.978 66.525 119.054 66.6099 119.138C66.7035 119.23 66.7851 119.335 66.8875 119.418C67.0191 119.524 67.8398 120.116 68.2055 120.266C69.4931 121.396 70.3507 120.863 70.5989 119.815C70.7175 119.312 70.4269 118.101 70.2114 117.455C70.2048 117.435 70.2037 117.416 70.1961 117.396C70.1831 117.361 70.1679 117.321 70.1526 117.282C70.1515 117.279 70.1515 117.277 70.1504 117.275C70.1493 117.273 70.1494 117.272 70.1483 117.27C69.8022 116.381 68.9771 114.598 68.2164 114.958C68.2142 115.019 68.212 115.08 68.2098 115.14C67.2629 114.764 67.5524 115.392 66.9549 115.299Z" fill="#F3A984"/>
<path d="M69.1436 119.453C69.4211 119.222 70.0306 118.866 70.4257 119.017C70.7522 119.141 71.0591 119.702 71.2746 119.952C72.3815 121.249 78.0172 129.556 77.8539 131.574C77.769 132.619 75.3212 132.753 73.9096 131.84C72.3989 130.862 69.3351 123.452 68.7202 121.81C68.5852 121.45 68.4535 121.081 68.4579 120.698C68.4622 120.259 68.7409 119.787 69.1436 119.453Z" fill="#D4E2FC"/>
<path d="M68.4337 125.273C67.4955 124.81 66.4082 124.489 65.5168 125.057C65.1478 125.292 64.8823 125.659 64.67 126.042C64.1128 127.05 63.771 128.165 64.0083 129.317C64.054 129.537 64.1182 129.756 64.2292 129.952C64.6374 130.675 65.3927 130.799 66.1045 131.035C66.9622 131.318 67.8024 131.649 68.6394 131.987C70.31 132.662 71.9753 133.376 73.7254 133.822C74.7507 134.084 75.9087 134.232 76.8066 133.673C77.4118 133.297 77.8156 132.612 77.8504 131.9C77.9364 130.171 76.8752 129.581 76.6847 129.475C70.6986 126.162 68.2976 125.206 68.4337 125.273Z" fill="white"/>
<path class="el1" style="animation-delay: 200ms" d="M130.275 71.0316L141.721 54.8872L153.168 84.2515L147.686 81.0868V96.5507L135.756 89.6603V74.1963L130.275 71.0316Z" fill="url(#paint13_linear_332_29993)"/>



<g class="el1">
<path d="M227.612 96.2522L168.941 62.3423L168.83 101.507C168.826 102.807 169.746 104.394 170.877 105.046L227.493 137.77L227.612 96.2522Z" fill="url(#paint14_linear_332_29993)"/>
<path d="M167.304 58.6696L238.482 99.7766L238.371 138.941C238.367 140.241 237.448 140.765 236.317 140.113L169.24 101.374C168.109 100.722 167.189 99.1347 167.193 97.8353L167.304 58.6696Z" fill="white"/>
<path d="M236.459 90.0203C237.589 90.6731 238.503 92.2562 238.5 93.5633L238.482 99.7766L167.304 58.6696L167.322 52.4564C167.325 51.1492 168.252 50.6285 169.382 51.2813L236.459 90.0203Z" fill="url(#paint15_linear_332_29993)"/>
<path d="M171.895 58.4706C171.152 58.0416 170.552 57.0018 170.554 56.1485C170.557 55.3022 171.161 54.9579 171.904 55.3869C172.64 55.812 173.24 56.8518 173.238 57.6973C173.235 58.5514 172.63 58.8957 171.895 58.4706Z" fill="#DFE9F7"/>
<path d="M177.247 61.5621C176.504 61.1331 175.911 60.0972 175.913 59.2439C175.915 58.3976 176.513 58.0494 177.255 58.4784C177.991 58.9035 178.592 59.9433 178.589 60.7888C178.587 61.6429 177.983 61.9872 177.247 61.5621Z" fill="#F9CC38"/>
<path d="M223.635 105.929C224.485 106.42 225.171 107.61 225.168 108.587C225.165 109.564 224.474 109.958 223.624 109.467L203.46 97.8213C202.61 97.3309 201.93 96.1442 201.933 95.1681C201.936 94.1912 202.621 93.7933 203.47 94.2845L223.635 105.929Z" fill="#DFE9F7"/>
<path d="M230.486 102.569C231.336 103.059 232.023 104.25 232.02 105.226C232.017 106.203 231.325 106.597 230.476 106.106L203.481 90.5154C202.631 90.025 201.951 88.8383 201.953 87.8622C201.956 86.8853 202.641 86.4874 203.49 86.9786L230.486 102.569Z" fill="#DFE9F7"/>
<path d="M182.599 64.6528C181.863 64.2277 181.263 63.1879 181.265 62.3346C181.267 61.4883 181.872 61.144 182.607 61.5691C183.35 61.9981 183.944 63.034 183.941 63.8795C183.939 64.7336 183.342 65.0818 182.599 64.6528Z" fill="#7EC8FF"/>
<path d="M197.604 83.2779C197.638 83.3975 197.657 83.5087 197.657 83.6089L197.581 110.332C197.581 110.432 197.56 110.52 197.527 110.601C197.459 110.755 197.325 110.831 197.157 110.811C197.07 110.8 196.983 110.772 196.896 110.722L173.647 97.2952C173.56 97.2447 173.467 97.1677 173.386 97.083C173.219 96.9097 173.086 96.6781 173.02 96.4473C172.986 96.3277 172.967 96.2165 172.967 96.1163L173.043 69.3934C173.043 69.2932 173.064 69.2054 173.097 69.1245C173.165 68.9707 173.299 68.8945 173.466 68.9139C173.546 68.9217 173.64 68.9528 173.727 69.0033L196.976 82.43C197.063 82.4805 197.15 82.5536 197.238 82.6422C197.405 82.8162 197.538 83.0471 197.604 83.2779ZM174.403 72.0816L174.337 95.0057L184.345 89.3007L174.403 72.0816ZM196.221 107.644L196.287 84.7202L186.279 90.4175L196.221 107.644ZM175.305 96.6812L195.249 108.199L185.306 90.9724L175.305 96.6812ZM195.32 83.0447L175.376 71.5267L185.312 88.7497L195.32 83.0447Z" fill="#DFE9F7"/>
<path d="M223.605 116.449C224.455 116.94 225.142 118.13 225.139 119.106C225.136 120.083 224.445 120.477 223.595 119.986L203.43 108.341C202.58 107.85 201.901 106.664 201.903 105.687C201.906 104.71 202.59 104.312 203.44 104.803L223.605 116.449Z" fill="#DFE9F7"/>
</g>



<path d="M183.013 125.459L139.343 100.238V169.538L183.013 194.758V125.459Z" fill="url(#paint16_linear_332_29993)"/>
<path d="M166.471 130.023V135.647L149.086 125.607V119.983L166.471 130.023Z" fill="#06DAAE"/>
<path d="M179.432 150.643V156.267L162.047 146.227V140.603L179.432 150.643Z" fill="#FF4757"/>
<path d="M164.44 154.183V159.807L147.056 149.766V144.143L164.44 154.183Z" fill="#79D3FE"/>
<path d="M167.584 175.604V181.227L150.2 171.187V165.563L167.584 175.604Z" fill="#F7E041"/>
<path d="M177.349 130.01L161.457 120.832C160.677 120.381 159.701 120.944 159.701 121.846C159.701 122.739 160.177 123.565 160.951 124.012L176.842 133.19C177.623 133.641 178.599 133.078 178.599 132.176C178.599 131.282 178.122 130.456 177.349 130.01Z" fill="#43386B"/>
<path d="M177.565 138.037L143.808 118.542C143.293 118.245 142.649 118.617 142.649 119.212C142.649 119.951 143.043 120.634 143.683 121.003L177.44 140.498C177.955 140.795 178.599 140.424 178.599 139.828C178.599 139.09 178.205 138.407 177.565 138.037Z" fill="#43386B"/>
<path d="M177.565 144.399L143.808 124.904C143.293 124.607 142.649 124.979 142.649 125.574C142.649 126.313 143.043 126.996 143.683 127.365L177.44 146.86C177.955 147.157 178.599 146.786 178.599 146.191C178.599 145.452 178.205 144.769 177.565 144.399Z" fill="#43386B"/>
<path d="M177.565 150.762L150.469 135.063C149.953 134.766 149.31 135.138 149.31 135.733C149.31 136.472 149.704 137.155 150.344 137.524L177.44 153.223C177.955 153.52 178.599 153.148 178.599 152.553C178.599 151.814 178.205 151.131 177.565 150.762Z" fill="#43386B"/>
<path d="M177.565 157.124L143.808 137.629C143.293 137.332 142.649 137.704 142.649 138.299C142.649 139.038 143.043 139.721 143.683 140.09L177.44 159.585C177.955 159.882 178.599 159.51 178.599 158.915C178.599 158.176 178.205 157.493 177.565 157.124Z" fill="#43386B"/>
<path d="M177.565 163.486L143.808 143.991C143.293 143.694 142.649 144.065 142.649 144.661C142.649 145.4 143.043 146.083 143.683 146.452L177.44 165.947C177.955 166.244 178.599 165.872 178.599 165.277C178.599 164.538 178.205 163.855 177.565 163.486Z" fill="#43386B"/>
<path d="M177.565 169.848L160.875 160.152C160.359 159.855 159.716 160.227 159.716 160.822C159.716 161.561 160.11 162.244 160.75 162.613L177.44 172.309C177.955 172.606 178.599 172.234 178.599 171.639C178.599 170.9 178.205 170.217 177.565 169.848Z" fill="#43386B"/>
<path d="M177.565 176.21L143.808 156.715C143.293 156.418 142.649 156.789 142.649 157.385C142.649 158.123 143.043 158.807 143.683 159.176L177.44 178.671C177.955 178.968 178.599 178.596 178.599 178.002C178.599 177.262 178.205 176.58 177.565 176.21Z" fill="#43386B"/>
<path d="M177.565 182.572L143.808 163.077C143.293 162.78 142.649 163.151 142.649 163.746C142.649 164.485 143.043 165.168 143.683 165.537L177.44 185.032C177.955 185.329 178.599 184.957 178.599 184.362C178.599 183.624 178.205 182.941 177.565 182.572Z" fill="#43386B"/>
<path d="M123.804 203.008C119.041 200.286 111.341 200.284 106.604 203.008C101.872 205.729 101.901 210.143 106.664 212.865C111.428 215.586 119.128 215.588 123.86 212.867C128.597 210.143 128.568 205.729 123.804 203.008Z" fill="#E3EBF6"/>
<path d="M104.33 203.321L104.322 206.025C104.317 207.821 105.515 209.62 107.913 210.99C112.677 213.711 120.376 213.714 125.109 210.992C127.461 209.639 128.638 207.87 128.643 206.097L128.651 203.393C128.646 205.166 127.469 206.935 125.117 208.288C120.384 211.01 112.684 211.007 107.921 208.286C105.523 206.916 104.325 205.117 104.33 203.321Z" fill="url(#paint17_linear_332_29993)"/>
<path d="M125.061 198.429C120.297 195.708 112.597 195.705 107.861 198.429C103.128 201.151 103.158 205.564 107.921 208.286C112.684 211.007 120.384 211.01 125.117 208.288C129.854 205.564 129.824 201.151 125.061 198.429Z" fill="#474EB8"/>
<path d="M123.307 199.437C119.519 197.273 113.394 197.271 109.626 199.437C105.862 201.602 105.885 205.113 109.674 207.277C113.463 209.442 119.588 209.444 123.352 207.279C127.12 205.113 127.096 201.602 123.307 199.437Z" stroke="#A0D6FF" stroke-width="1.4627" stroke-miterlimit="10"/>
<path d="M121.945 200.422C121.8 200.339 121.625 200.297 121.42 200.297C121.207 200.302 121.015 200.348 120.871 200.431L120.386 200.71C119.428 200.309 118.339 200.15 117.333 200.292C117.209 200.309 117.103 200.341 117.018 200.39C116.988 200.407 116.954 200.432 116.907 200.469C116.827 200.554 116.78 200.645 116.785 200.74C116.782 200.85 116.885 200.977 117.048 201.07C117.202 201.158 117.368 201.209 117.543 201.221C118.043 201.239 118.431 201.275 118.7 201.336C119.042 201.415 119.375 201.547 119.705 201.735C120.094 201.958 120.352 202.221 120.426 202.478C120.517 202.74 120.399 202.989 120.071 203.177C119.706 203.388 119.267 203.41 118.72 203.307C118.271 203.216 117.814 203.068 117.032 202.777C116.16 202.483 115.374 202.293 114.627 202.246C113.731 202.192 112.951 202.351 112.305 202.723C111.68 203.082 111.35 203.547 111.323 204.033C111.296 204.525 111.58 205.028 112.125 205.461L111.576 205.777C111.27 205.953 111.267 206.224 111.571 206.398C111.879 206.574 112.366 206.579 112.672 206.403L113.208 206.095C113.819 206.357 114.477 206.528 115.173 206.594C115.868 206.66 116.504 206.638 117.054 206.518C117.228 206.486 117.369 206.435 117.479 206.371C117.543 206.334 117.598 206.288 117.653 206.236C117.742 206.131 117.746 206.011 117.681 205.872C117.634 205.777 117.565 205.709 117.48 205.66C117.291 205.552 116.963 205.51 116.498 205.542C115.569 205.665 114.651 205.5 113.88 205.06C113.495 204.841 113.208 204.559 113.134 204.278C113.034 203.987 113.148 203.706 113.513 203.496C113.866 203.293 114.301 203.234 114.818 203.315C115.172 203.371 115.505 203.469 115.993 203.64L116.206 203.709C117.228 204.107 118.147 204.33 118.945 204.386C119.905 204.452 120.702 204.298 121.352 203.924C121.947 203.581 122.243 203.136 122.253 202.664C122.268 202.209 121.979 201.738 121.482 201.336L121.967 201.057C122.111 200.974 122.188 200.862 122.187 200.734C122.186 200.618 122.108 200.515 121.945 200.422Z" fill="white"/>
<path d="M104.33 200.195L104.322 202.899C104.317 204.695 105.515 206.494 107.913 207.864C112.677 210.586 120.376 210.588 125.109 207.866C127.461 206.514 128.638 204.744 128.643 202.972L128.651 200.268C128.646 202.04 127.469 203.81 125.117 205.163C120.384 207.884 112.684 207.882 107.921 205.16C105.523 203.79 104.325 201.991 104.33 200.195Z" fill="url(#paint18_linear_332_29993)"/>
<path d="M125.061 195.304C120.297 192.582 112.597 192.58 107.861 195.304C103.128 198.025 103.158 202.439 107.921 205.16C112.684 207.882 120.384 207.884 125.117 205.163C129.854 202.439 129.824 198.025 125.061 195.304Z" fill="#474EB8"/>
<path d="M123.307 196.312C119.519 194.147 113.394 194.145 109.626 196.312C105.862 198.476 105.885 201.987 109.674 204.152C113.463 206.316 119.588 206.318 123.352 204.153C127.12 201.987 127.096 198.476 123.307 196.312Z" stroke="#A0D6FF" stroke-width="1.4627" stroke-miterlimit="10"/>
<path d="M121.945 197.296C121.8 197.213 121.625 197.172 121.42 197.172C121.207 197.177 121.015 197.223 120.871 197.306L120.386 197.585C119.428 197.184 118.339 197.025 117.333 197.167C117.209 197.184 117.103 197.216 117.018 197.265C116.988 197.282 116.954 197.306 116.907 197.343C116.827 197.429 116.78 197.519 116.785 197.614C116.782 197.724 116.885 197.851 117.048 197.944C117.202 198.032 117.368 198.084 117.543 198.096C118.043 198.113 118.431 198.15 118.7 198.211C119.042 198.289 119.375 198.421 119.705 198.609C120.094 198.832 120.352 199.096 120.426 199.353C120.517 199.614 120.399 199.864 120.071 200.052C119.706 200.262 119.267 200.284 118.72 200.182C118.271 200.091 117.814 199.942 117.032 199.651C116.16 199.358 115.374 199.167 114.627 199.12C113.731 199.067 112.951 199.226 112.305 199.597C111.68 199.957 111.35 200.421 111.323 200.908C111.296 201.399 111.58 201.903 112.125 202.336L111.576 202.651C111.27 202.827 111.267 203.099 111.571 203.272C111.879 203.448 112.366 203.453 112.672 203.277L113.208 202.969C113.819 203.231 114.477 203.402 115.173 203.468C115.868 203.534 116.504 203.512 117.054 203.392C117.228 203.36 117.369 203.309 117.479 203.245C117.543 203.208 117.598 203.162 117.653 203.11C117.742 203.005 117.746 202.885 117.681 202.746C117.634 202.651 117.565 202.582 117.48 202.533C117.291 202.426 116.963 202.384 116.498 202.416C115.569 202.538 114.651 202.374 113.88 201.934C113.495 201.714 113.208 201.433 113.134 201.152C113.034 200.861 113.148 200.58 113.513 200.37C113.866 200.167 114.301 200.108 114.818 200.189C115.172 200.245 115.505 200.343 115.993 200.514L116.206 200.582C117.228 200.981 118.147 201.204 118.945 201.26C119.905 201.326 120.702 201.172 121.352 200.797C121.947 200.455 122.243 200.01 122.253 199.538C122.268 199.083 121.979 198.611 121.482 198.21L121.967 197.931C122.111 197.848 122.188 197.736 122.187 197.608C122.186 197.492 122.108 197.389 121.945 197.296Z" fill="white"/>
<path d="M104.33 197.035L104.322 199.739C104.317 201.535 105.515 203.334 107.913 204.704C112.677 207.426 120.376 207.428 125.109 204.706C127.461 203.353 128.638 201.584 128.643 199.812L128.651 197.108C128.646 198.88 127.469 200.65 125.117 202.002C120.384 204.724 112.684 204.722 107.921 202C105.523 200.63 104.325 198.831 104.33 197.035Z" fill="url(#paint19_linear_332_29993)"/>
<path d="M125.061 192.143C120.297 189.422 112.597 189.42 107.861 192.143C103.128 194.865 103.158 199.279 107.921 202C112.684 204.722 120.384 204.724 125.117 202.002C129.854 199.279 129.824 194.865 125.061 192.143Z" fill="#F69524"/>
<path d="M123.307 193.152C119.519 190.987 113.394 190.986 109.626 193.152C105.862 195.317 105.885 198.827 109.674 200.992C113.463 203.157 119.588 203.158 123.352 200.994C127.12 198.827 127.096 195.317 123.307 193.152Z" stroke="#F9A338" stroke-width="1.4627" stroke-miterlimit="10"/>
<path d="M121.945 194.136C121.8 194.053 121.625 194.012 121.42 194.012C121.207 194.017 121.015 194.063 120.871 194.146L120.386 194.425C119.428 194.024 118.339 193.865 117.333 194.007C117.209 194.024 117.103 194.056 117.018 194.105C116.988 194.122 116.954 194.147 116.907 194.183C116.827 194.269 116.78 194.359 116.785 194.455C116.782 194.565 116.885 194.692 117.048 194.785C117.202 194.873 117.368 194.924 117.543 194.936C118.043 194.953 118.431 194.99 118.7 195.051C119.042 195.129 119.375 195.261 119.705 195.45C120.094 195.672 120.352 195.936 120.426 196.193C120.517 196.455 120.399 196.704 120.071 196.892C119.706 197.103 119.267 197.124 118.72 197.022C118.271 196.932 117.814 196.783 117.032 196.491C116.16 196.198 115.374 196.007 114.627 195.961C113.731 195.907 112.951 196.066 112.305 196.437C111.68 196.797 111.35 197.261 111.323 197.748C111.296 198.24 111.58 198.743 112.125 199.176L111.576 199.492C111.27 199.668 111.267 199.939 111.571 200.113C111.879 200.289 112.366 200.294 112.672 200.118L113.208 199.81C113.819 200.071 114.477 200.242 115.173 200.309C115.868 200.375 116.504 200.353 117.054 200.233C117.228 200.201 117.369 200.15 117.479 200.086C117.543 200.05 117.598 200.003 117.653 199.952C117.742 199.846 117.746 199.727 117.681 199.587C117.634 199.492 117.565 199.424 117.48 199.375C117.291 199.267 116.963 199.226 116.498 199.257C115.569 199.38 114.651 199.216 113.88 198.776C113.495 198.556 113.208 198.275 113.134 197.993C113.034 197.703 113.148 197.421 113.513 197.211C113.866 197.008 114.301 196.949 114.818 197.03C115.172 197.086 115.505 197.184 115.993 197.355L116.206 197.424C117.228 197.822 118.147 198.045 118.945 198.101C119.905 198.167 120.702 198.013 121.352 197.639C121.947 197.296 122.243 196.851 122.253 196.379C122.268 195.924 121.979 195.453 121.482 195.051L121.967 194.773C122.111 194.69 122.188 194.577 122.187 194.45C122.186 194.332 122.108 194.229 121.945 194.136Z" fill="white"/>
<path d="M106.976 192.689L106.968 195.393C106.963 197.189 108.161 198.988 110.559 200.358C115.323 203.08 123.023 203.082 127.755 200.361C130.107 199.008 131.284 197.238 131.289 195.466L131.297 192.762C131.292 194.534 130.115 196.304 127.763 197.657C123.03 200.378 115.33 200.376 110.567 197.655C108.169 196.285 106.971 194.485 106.976 192.689Z" fill="url(#paint20_linear_332_29993)"/>
<path d="M127.707 187.798C122.944 185.076 115.244 185.074 110.507 187.798C105.775 190.519 105.804 194.933 110.568 197.655C115.331 200.376 123.031 200.378 127.763 197.657C132.5 194.933 132.47 190.519 127.707 187.798Z" fill="#F69524"/>
<path d="M125.954 188.806C122.165 186.641 116.041 186.64 112.273 188.806C108.509 190.971 108.532 194.481 112.321 196.646C116.11 198.811 122.235 198.812 125.999 196.648C129.766 194.481 129.743 190.971 125.954 188.806Z" stroke="white" stroke-width="1.4627" stroke-miterlimit="10"/>
<path d="M124.591 189.791C124.446 189.708 124.271 189.666 124.066 189.666C123.853 189.671 123.661 189.717 123.517 189.801L123.032 190.08C122.074 189.679 120.985 189.519 119.979 189.661C119.855 189.679 119.749 189.71 119.664 189.759C119.634 189.777 119.6 189.801 119.553 189.838C119.473 189.924 119.426 190.014 119.431 190.109C119.428 190.219 119.531 190.346 119.694 190.439C119.848 190.527 120.014 190.578 120.189 190.591C120.689 190.608 121.077 190.645 121.346 190.705C121.688 190.784 122.021 190.916 122.351 191.104C122.74 191.327 122.997 191.591 123.072 191.847C123.163 192.109 123.045 192.358 122.717 192.547C122.352 192.757 121.913 192.779 121.366 192.676C120.917 192.586 120.46 192.437 119.678 192.146C118.806 191.852 118.02 191.662 117.273 191.615C116.377 191.561 115.597 191.72 114.951 192.092C114.326 192.451 113.996 192.916 113.969 193.402C113.942 193.894 114.226 194.397 114.771 194.831L114.222 195.146C113.916 195.322 113.913 195.594 114.217 195.767C114.525 195.943 115.012 195.948 115.318 195.772L115.854 195.464C116.465 195.726 117.123 195.897 117.819 195.963C118.514 196.029 119.15 196.007 119.7 195.887C119.874 195.855 120.015 195.804 120.125 195.741C120.189 195.704 120.244 195.658 120.299 195.606C120.388 195.501 120.392 195.381 120.327 195.242C120.28 195.147 120.211 195.078 120.126 195.029C119.937 194.922 119.609 194.88 119.144 194.912C118.215 195.034 117.297 194.87 116.526 194.43C116.141 194.21 115.854 193.929 115.78 193.648C115.68 193.357 115.794 193.075 116.159 192.865C116.512 192.663 116.947 192.604 117.464 192.685C117.818 192.741 118.151 192.839 118.639 193.01L118.852 193.078C119.874 193.477 120.793 193.699 121.59 193.755C122.551 193.821 123.348 193.667 123.998 193.293C124.593 192.951 124.889 192.506 124.899 192.034C124.914 191.579 124.625 191.107 124.128 190.706L124.613 190.427C124.757 190.344 124.834 190.231 124.833 190.104C124.832 189.986 124.754 189.884 124.591 189.791Z" fill="white"/>
<path d="M139.949 208.202C137.416 208.458 135.21 209.146 133.519 210.111C130.791 211.666 129.4 213.94 130.133 216.28C130.592 217.742 131.814 219.017 133.522 219.992C136.243 221.547 140.195 222.343 144.255 221.931C146.786 221.674 148.992 220.985 150.684 220.021C153.412 218.466 154.804 216.193 154.072 213.852C153.612 212.391 152.39 211.116 150.682 210.141C147.962 208.586 144.009 207.79 139.949 208.202Z" fill="#E3EBF6"/>
<path d="M140.631 203.946C138.098 204.202 135.891 204.89 134.2 205.855C131.472 207.41 130.082 209.684 130.814 212.025C131.273 213.486 132.496 214.761 134.203 215.736C136.924 217.291 140.876 218.087 144.936 217.676C147.467 217.418 149.673 216.729 151.365 215.765C154.093 214.21 155.485 211.937 154.753 209.596C154.294 208.134 153.071 206.86 151.364 205.885C148.643 204.331 144.691 203.534 140.631 203.946Z" fill="#F69524"/>
<path d="M141.078 205.37C139.07 205.573 137.322 206.119 135.982 206.884C133.82 208.116 132.718 209.918 133.298 211.773C133.662 212.931 134.631 213.941 135.984 214.714C138.141 215.946 141.273 216.578 144.49 216.251C146.496 216.047 148.245 215.502 149.585 214.737C151.747 213.505 152.85 211.704 152.27 209.849C151.906 208.69 150.937 207.68 149.584 206.907C147.427 205.675 144.295 205.044 141.078 205.37Z" stroke="white" stroke-width="1.4627" stroke-miterlimit="10"/>
<path d="M149.995 209.978C149.963 209.959 149.927 209.943 149.887 209.927C149.712 209.861 149.511 209.839 149.307 209.858L148.633 209.927C148.409 209.558 148.072 209.241 147.643 208.997C147.324 208.814 146.952 208.671 146.539 208.579C146.424 208.553 146.3 208.545 146.185 208.557C146.138 208.559 146.083 208.572 146.015 208.587C145.861 208.626 145.734 208.69 145.64 208.768C145.53 208.856 145.488 208.992 145.527 209.122C145.563 209.236 145.638 209.328 145.753 209.393C145.763 209.399 145.774 209.405 145.785 209.411C145.99 209.505 146.165 209.592 146.308 209.674C146.436 209.748 146.54 209.817 146.619 209.882C146.821 210.056 146.963 210.279 147.045 210.54C147.141 210.848 147.092 211.151 146.892 211.383C146.702 211.63 146.357 211.789 145.896 211.838C145.491 211.879 145.167 211.808 144.878 211.643C144.806 211.601 144.735 211.554 144.666 211.501C144.383 211.281 144.16 211.007 143.811 210.51C143.429 210.045 143.03 209.662 142.545 209.385C142.486 209.351 142.425 209.319 142.362 209.288C141.682 208.948 140.884 208.823 139.975 208.914C139.106 209.002 138.369 209.273 137.859 209.664C137.346 210.058 137.075 210.562 137.091 211.097L136.328 211.173C135.893 211.217 135.622 211.437 135.7 211.677C135.729 211.774 135.808 211.858 135.919 211.922C136.091 212.02 136.341 212.069 136.602 212.041L137.344 211.968C137.581 212.376 137.946 212.726 138.438 213.007C138.968 213.305 139.511 213.493 140.079 213.579C140.258 213.608 140.42 213.613 140.574 213.598C140.668 213.589 140.761 213.569 140.855 213.544C141.03 213.488 141.157 213.39 141.242 213.253C141.301 213.165 141.309 213.082 141.292 213.014C141.266 212.934 141.189 212.856 141.059 212.782C140.946 212.718 140.795 212.656 140.603 212.596C140.268 212.518 139.976 212.408 139.732 212.269C139.328 212.038 139.054 211.726 138.933 211.344C138.837 211.036 138.886 210.713 139.103 210.456C139.314 210.187 139.684 209.994 140.2 209.943C140.638 209.897 141.018 209.97 141.338 210.153C141.377 210.175 141.415 210.198 141.452 210.224C141.688 210.388 141.859 210.573 142.091 210.877L142.199 211.002C142.598 211.611 143.083 212.067 143.627 212.378C143.675 212.405 143.723 212.431 143.772 212.456C144.491 212.823 145.303 212.96 146.206 212.867C147.042 212.784 147.727 212.518 148.203 212.136C148.674 211.767 148.91 211.288 148.903 210.796L149.577 210.728C149.781 210.708 149.956 210.642 150.083 210.539C150.203 210.441 150.24 210.332 150.201 210.202C150.167 210.113 150.102 210.039 149.995 209.978Z" fill="white"/>
<path d="M130.62 210.771L130.612 213.475C130.611 213.888 130.674 214.307 130.806 214.729C131.265 216.19 132.488 217.465 134.195 218.44C136.916 219.995 140.868 220.791 144.928 220.379C147.46 220.122 149.665 219.433 151.357 218.469C153.594 217.193 154.933 215.435 154.938 213.553L154.946 210.849C154.941 212.732 153.602 214.49 151.365 215.765C149.673 216.729 147.467 217.418 144.936 217.676C140.876 218.087 136.924 217.29 134.203 215.736C132.495 214.761 131.273 213.486 130.814 212.025C130.682 211.603 130.619 211.184 130.62 210.771Z" fill="url(#paint21_linear_332_29993)"/>
<defs>
<filter id="filter0_f_332_29993" x="29.9639" y="148.373" width="68.3848" height="56.3938" filterUnits="userSpaceOnUse" color-interpolation-filters="sRGB">
<feFlood flood-opacity="0" result="BackgroundImageFix"/>
<feBlend mode="normal" in="SourceGraphic" in2="BackgroundImageFix" result="shape"/>
<feGaussianBlur stdDeviation="10" result="effect1_foregroundBlur_332_29993"/>
</filter>
<linearGradient id="paint0_linear_332_29993" x1="168.906" y1="170.048" x2="168.906" y2="251.374" gradientUnits="userSpaceOnUse">
<stop stop-color="#E3E3E3"/>
<stop offset="1" stop-color="#6C86DD"/>
</linearGradient>
<linearGradient id="paint1_linear_332_29993" x1="73.8355" y1="132.022" x2="207.343" y2="221.554" gradientUnits="userSpaceOnUse">
<stop stop-color="#DFDAEF"/>
<stop offset="1" stop-color="#F2EFFA"/>
</linearGradient>
<linearGradient id="paint2_linear_332_29993" x1="95.5948" y1="141.197" x2="86.8078" y2="132.895" gradientUnits="userSpaceOnUse">
<stop stop-color="#43386B"/>
<stop offset="0.1665" stop-color="#4F437A"/>
<stop offset="0.4863" stop-color="#6E60A1"/>
<stop offset="0.923" stop-color="#A08DDF"/>
<stop offset="1" stop-color="#A996EB"/>
</linearGradient>
<linearGradient id="paint3_linear_332_29993" x1="118.956" y1="131.867" x2="95.4602" y2="91.1824" gradientUnits="userSpaceOnUse">
<stop offset="0.0319" stop-color="#43386B"/>
<stop offset="0.0835" stop-color="#4D407B"/>
<stop offset="0.2202" stop-color="#63529F"/>
<stop offset="0.3313" stop-color="#715EB5"/>
<stop offset="0.4024" stop-color="#7662BD"/>
<stop offset="0.5731" stop-color="#7360B9"/>
<stop offset="0.7528" stop-color="#6C59AC"/>
<stop offset="0.9358" stop-color="#5F4F97"/>
<stop offset="1" stop-color="#594A8E"/>
</linearGradient>
<linearGradient id="paint4_linear_332_29993" x1="99.1597" y1="135.119" x2="93.5828" y2="128.023" gradientUnits="userSpaceOnUse">
<stop stop-color="#C5BAEB"/>
<stop offset="0.3492" stop-color="#D7D1EB"/>
<stop offset="1" stop-color="#F2EFFA"/>
</linearGradient>
<linearGradient id="paint5_linear_332_29993" x1="105.535" y1="151.319" x2="105.535" y2="78.8642" gradientUnits="userSpaceOnUse">
<stop offset="0.0319" stop-color="#43386B"/>
<stop offset="0.1931" stop-color="#4F437A"/>
<stop offset="0.5027" stop-color="#6E60A1"/>
<stop offset="0.9254" stop-color="#A08DDF"/>
<stop offset="1" stop-color="#A996EB"/>
</linearGradient>
<linearGradient id="paint6_linear_332_29993" x1="105.534" y1="133.841" x2="105.534" y2="76.2737" gradientUnits="userSpaceOnUse">
<stop stop-color="#C5BAEB"/>
<stop offset="1" stop-color="white"/>
</linearGradient>
<linearGradient id="paint7_linear_332_29993" x1="95.9329" y1="119.326" x2="118.544" y2="110.236" gradientUnits="userSpaceOnUse">
<stop stop-color="white"/>
<stop offset="1" stop-color="white" stop-opacity="0"/>
</linearGradient>
<linearGradient id="paint8_linear_332_29993" x1="63.5525" y1="156.739" x2="63.5525" y2="158.704" gradientUnits="userSpaceOnUse">
<stop stop-color="#555C8B"/>
<stop offset="1" stop-color="#6C86DD"/>
</linearGradient>
<linearGradient id="paint9_linear_332_29993" x1="62.3057" y1="138.42" x2="62.3057" y2="178.649" gradientUnits="userSpaceOnUse">
<stop stop-color="#555C8B"/>
<stop offset="1" stop-color="#6C86DD"/>
</linearGradient>
<linearGradient id="paint10_linear_332_29993" x1="62.3054" y1="138.419" x2="62.3054" y2="178.547" gradientUnits="userSpaceOnUse">
<stop stop-color="#555C8B"/>
<stop offset="1" stop-color="#6C86DD"/>
</linearGradient>
<linearGradient id="paint11_linear_332_29993" x1="65.6913" y1="140.101" x2="65.6913" y2="164.88" gradientUnits="userSpaceOnUse">
<stop stop-color="#555C8B"/>
<stop offset="1" stop-color="#6C86DD"/>
</linearGradient>
<linearGradient id="paint12_linear_332_29993" x1="65.876" y1="157.695" x2="65.876" y2="179.388" gradientUnits="userSpaceOnUse">
<stop stop-color="#555C8B"/>
<stop offset="1" stop-color="#6C86DD"/>
</linearGradient>
<linearGradient id="paint13_linear_332_29993" x1="141.721" y1="106.683" x2="141.721" y2="65.2763" gradientUnits="userSpaceOnUse">
<stop offset="0.0319" stop-color="#2F878A"/>
<stop offset="0.2629" stop-color="#289690"/>
<stop offset="0.7041" stop-color="#15BDA1"/>
<stop offset="1" stop-color="#06DAAE"/>
</linearGradient>
<linearGradient id="paint14_linear_332_29993" x1="208.134" y1="60.0095" x2="210.314" y2="145.188" gradientUnits="userSpaceOnUse">
<stop stop-color="#FFB244"/>
<stop offset="0.692155" stop-color="#F7D379" stop-opacity="0.8"/>
</linearGradient>
<linearGradient id="paint15_linear_332_29993" x1="214.909" y1="49.4914" x2="215.662" y2="104.599" gradientUnits="userSpaceOnUse">
<stop stop-color="#FFB244"/>
<stop offset="0.692155" stop-color="#F7D379" stop-opacity="0.8"/>
</linearGradient>
<linearGradient id="paint16_linear_332_29993" x1="161.178" y1="124.174" x2="161.178" y2="197.354" gradientUnits="userSpaceOnUse">
<stop stop-color="#F2EFFA"/>
<stop offset="1" stop-color="white"/>
</linearGradient>
<linearGradient id="paint17_linear_332_29993" x1="128.651" y1="208.176" x2="104.322" y2="208.176" gradientUnits="userSpaceOnUse">
<stop stop-color="#3162DE"/>
<stop offset="1" stop-color="#6376F2"/>
</linearGradient>
<linearGradient id="paint18_linear_332_29993" x1="128.651" y1="205.051" x2="104.322" y2="205.051" gradientUnits="userSpaceOnUse">
<stop stop-color="#3162DE"/>
<stop offset="1" stop-color="#6376F2"/>
</linearGradient>
<linearGradient id="paint19_linear_332_29993" x1="128.651" y1="201.891" x2="104.322" y2="201.891" gradientUnits="userSpaceOnUse">
<stop stop-color="#3162DE"/>
<stop offset="1" stop-color="#6376F2"/>
</linearGradient>
<linearGradient id="paint20_linear_332_29993" x1="131.298" y1="197.545" x2="106.968" y2="197.545" gradientUnits="userSpaceOnUse">
<stop stop-color="#3162DE"/>
<stop offset="1" stop-color="#6376F2"/>
</linearGradient>
<linearGradient id="paint21_linear_332_29993" x1="154.946" y1="215.629" x2="130.612" y2="215.629" gradientUnits="userSpaceOnUse">
<stop stop-color="#3162DE"/>
<stop offset="1" stop-color="#6376F2"/>
</linearGradient>
</defs>

<style>
    .el1 { 
        animation: move1 3s infinite; 
        animation-timing-function: ease-in-out; 
    } 
    @keyframes move1 { 
        0% { 
            transform: translateY(0px); 
        } 
        50% { 
            transform: translateY(10px); 
        } 
        100% { 
            transform: translateY(0px); 
        } 
    }
</style>
</svg>
