<svg width="13" height="12" viewBox="0 0 13 12" fill="none" xmlns="http://www.w3.org/2000/svg">
<path fill-rule="evenodd" clip-rule="evenodd" d="M12.8538 5.64747C12.9474 5.741 13 5.8678 13 6C13 6.1322 12.9474 6.259 12.8538 6.35253L7.8536 11.3412C7.80782 11.3902 7.75262 11.4295 7.69129 11.4568C7.62995 11.4841 7.56374 11.4987 7.4966 11.4999C7.42946 11.5011 7.36278 11.4888 7.30052 11.4637C7.23825 11.4386 7.1817 11.4013 7.13422 11.3539C7.08674 11.3065 7.0493 11.2501 7.02416 11.188C6.99901 11.1259 6.98666 11.0593 6.98784 10.9923C6.98903 10.9253 7.00372 10.8593 7.03105 10.7981C7.05838 10.7369 7.09778 10.6818 7.14691 10.6362L11.2937 6.49887L0.500018 6.49887C0.367406 6.49887 0.240224 6.44631 0.146453 6.35275C0.0526807 6.2592 7.07478e-07 6.13231 7.13262e-07 6C7.19045e-07 5.86769 0.0526807 5.7408 0.146453 5.64725C0.240224 5.55369 0.367406 5.50113 0.500018 5.50113L11.2937 5.50113L7.14691 1.36385C7.09778 1.31818 7.05838 1.2631 7.03105 1.20191C7.00372 1.14071 6.98903 1.07465 6.98784 1.00767C6.98666 0.940686 6.99901 0.874151 7.02416 0.812033C7.0493 0.749915 7.08674 0.693487 7.13422 0.646115C7.1817 0.598743 7.23826 0.561398 7.30052 0.536308C7.36278 0.511217 7.42946 0.498896 7.4966 0.500077C7.56374 0.501259 7.62995 0.515921 7.69129 0.543187C7.75262 0.570453 7.80782 0.609765 7.8536 0.658779L12.8538 5.64747Z" fill="#F69524"/>
</svg>
