<svg width="336" height="307" viewBox="0 0 336 307" fill="none" xmlns="http://www.w3.org/2000/svg">
<path d="M157 292C53.5 284 27 246.5 11.5 215L18.5 307H313.5V214C300.5 244.5 272.5 285 157 292Z" fill="url(#paint0_radial_255_7311)"/>
<path d="M271.831 141.007C212.218 106.364 115.244 106.364 55.2408 141.006C-4.77072 175.653 -5.08699 231.824 54.5264 266.468C114.148 301.116 211.121 301.116 271.133 266.468C331.135 231.826 331.452 175.655 271.831 141.007Z" fill="#F5F9FF"/>
<g opacity="0.2">
<path d="M241.964 250.402C198.621 275.427 128.095 275.427 84.7516 250.401C41.4082 225.377 41.4075 184.657 84.7505 159.633C128.095 134.607 198.62 134.608 241.964 159.632C285.307 184.658 285.308 225.377 241.964 250.402ZM85.6666 160.162C42.8286 184.895 42.8289 225.139 85.6677 249.873C128.507 274.606 198.21 274.606 241.048 249.873C283.886 225.14 283.886 184.896 241.047 160.161C198.209 135.428 128.505 135.428 85.6666 160.162Z" fill="url(#paint1_linear_255_7311)"/>
</g>
<g opacity="0.2">
<path d="M202.704 227.735C181.009 240.261 145.706 240.261 124.01 227.734C102.314 215.208 102.315 194.825 124.01 182.299C145.706 169.773 181.008 169.773 202.704 182.299C224.4 194.825 224.4 215.208 202.704 227.735ZM124.926 182.828C103.736 195.063 103.736 214.971 124.926 227.205C146.117 239.44 180.598 239.44 201.788 227.205C222.98 214.97 222.979 195.063 201.788 182.828C180.597 170.593 146.117 170.593 124.926 182.828Z" fill="url(#paint2_linear_255_7311)"/>
</g>
<path opacity="0.3" d="M237.452 163.828C256.9 175.534 266.418 190.709 266.006 205.81C265.621 220.704 255.591 235.53 235.903 246.897L217.379 236.202C231.945 227.792 239.421 216.833 239.823 205.81C240.208 194.575 233.256 183.272 218.928 174.524L237.452 163.828Z" fill="url(#paint3_linear_255_7311)"/>
<path opacity="0.5" d="M90.4162 162.898L108.94 173.593C93.5679 182.469 86.0833 194.173 86.504 205.81C86.8802 216.838 94.3644 227.792 108.94 236.208C109.462 236.509 110.003 236.81 110.544 237.102L92.0203 247.797C91.4797 247.506 90.9392 247.204 90.4169 246.903C70.7294 235.536 60.6888 220.705 60.3048 205.81C59.8823 190.312 69.9223 174.729 90.4162 162.898Z" fill="url(#paint4_linear_255_7311)"/>
<g opacity="0.2">
<path d="M66.0903 164.562C69.4334 161.885 73.1506 159.317 77.2393 156.88L70.5329 153.008C66.0481 155.675 61.9767 158.488 58.3193 161.42L66.0903 164.562Z" fill="url(#paint5_linear_255_7311)"/>
<path d="M96.4785 147.573C101.328 145.688 106.362 144.032 111.539 142.602L107.53 137.637C101.859 139.202 96.3454 141.018 91.0381 143.087L96.4785 147.573Z" fill="url(#paint6_linear_255_7311)"/>
<path d="M79.9881 155.294C84.2088 152.934 88.6558 150.788 93.2912 148.857L87.8497 144.37C82.772 146.482 77.9007 148.833 73.2817 151.422L79.9881 155.294Z" fill="url(#paint7_linear_255_7311)"/>
<path d="M55.2566 175.098C57.7339 172.11 60.6039 169.203 63.8678 166.403L56.0968 163.262C52.5131 166.326 49.3677 169.509 46.6602 172.783L55.2566 175.098Z" fill="url(#paint8_linear_255_7311)"/>
<path d="M115.07 141.665C120.395 140.316 125.855 139.203 131.402 138.324L128.946 133.033C122.869 133.994 116.889 135.217 111.061 136.7L115.07 141.665Z" fill="url(#paint9_linear_255_7311)"/>
<path d="M47.6272 222.766C46.1434 219.557 45.0656 216.296 44.3974 213.015L34.9482 213.492C35.6663 217.091 36.8376 220.665 38.4641 224.184L47.6272 222.766Z" fill="url(#paint10_linear_255_7311)"/>
<path d="M44.0739 198.588C44.5961 195.278 45.5313 191.986 46.8801 188.739L37.713 187.322C36.2248 190.878 35.1969 194.485 34.6255 198.111L44.0739 198.588Z" fill="url(#paint11_linear_255_7311)"/>
<path d="M47.8467 186.566C49.3693 183.362 51.2965 180.21 53.6333 177.136L45.035 174.822C42.4664 178.187 40.3482 181.639 38.6851 185.148L47.8467 186.566Z" fill="url(#paint12_linear_255_7311)"/>
<path d="M221.349 138.365L217.338 143.332C222.371 144.809 227.26 146.502 231.964 148.418L237.405 143.932C232.243 141.831 226.875 139.977 221.349 138.365Z" fill="url(#paint13_linear_255_7311)"/>
<path d="M173.345 136.108L174.172 130.653C167.887 130.345 161.57 130.301 155.276 130.522L156.103 135.979C161.847 135.783 167.611 135.827 173.345 136.108Z" fill="url(#paint14_linear_255_7311)"/>
<path d="M156.377 273.829L155.55 279.286C161.664 279.493 167.795 279.45 173.897 279.157L173.071 273.703C167.518 273.969 161.939 274.01 156.377 273.829Z" fill="url(#paint15_linear_255_7311)"/>
<path d="M135.166 137.766C140.79 136.987 146.492 136.446 152.226 136.144L151.399 130.689C145.118 131.019 138.87 131.612 132.709 132.472L135.166 137.766Z" fill="url(#paint16_linear_255_7311)"/>
<path d="M282.545 200.985C282.859 204.195 282.785 207.417 282.327 210.623L291.774 211.1C292.28 207.576 292.354 204.036 291.996 200.507L282.545 200.985Z" fill="url(#paint17_linear_255_7311)"/>
<path d="M78.5964 253.722C74.594 251.411 70.9421 248.974 67.6257 246.438L59.8511 249.581C63.4832 252.373 67.4904 255.054 71.8901 257.594C71.9579 257.633 72.0268 257.67 72.0951 257.709L78.8011 253.837C78.734 253.798 78.6647 253.761 78.5964 253.722Z" fill="url(#paint18_linear_255_7311)"/>
<path d="M54.8139 234.167C52.3748 231.157 50.3361 228.068 48.6917 224.924L39.5234 226.342C41.3127 229.792 43.5432 233.181 46.2152 236.481L54.8139 234.167Z" fill="url(#paint19_linear_255_7311)"/>
<path d="M177.213 136.331C182.898 136.718 188.543 137.34 194.102 138.196L196.556 132.906C190.462 131.967 184.272 131.29 178.04 130.876L177.213 136.331Z" fill="url(#paint20_linear_255_7311)"/>
<path d="M197.839 138.811C203.284 139.76 208.635 140.937 213.847 142.346L217.856 137.381C212.141 135.838 206.27 134.551 200.296 133.517L197.839 138.811Z" fill="url(#paint21_linear_255_7311)"/>
<path d="M44.0111 210.782C43.5233 207.471 43.4481 204.143 43.7866 200.827L34.3349 200.349C33.9521 203.984 34.0291 207.63 34.5638 211.26L44.0111 210.782Z" fill="url(#paint22_linear_255_7311)"/>
<path d="M279.619 189.197C280.887 192.348 281.769 195.539 282.263 198.746L291.712 198.269C291.169 194.744 290.193 191.239 288.785 187.779L279.619 189.197Z" fill="url(#paint23_linear_255_7311)"/>
<path d="M277.86 224.472C276.301 227.528 274.361 230.534 272.056 233.466L280.653 235.781C283.193 232.557 285.32 229.252 287.023 225.89L277.86 224.472Z" fill="url(#paint24_linear_255_7311)"/>
<path d="M281.946 212.857C281.311 216.037 280.291 219.195 278.891 222.309L288.052 223.726C289.594 220.304 290.709 216.83 291.396 213.335L281.946 212.857Z" fill="url(#paint25_linear_255_7311)"/>
<path d="M270.398 235.495C267.966 238.337 265.164 241.1 262.013 243.766L269.782 246.908C273.255 243.977 276.329 240.937 278.995 237.809L270.398 235.495Z" fill="url(#paint26_linear_255_7311)"/>
<path d="M263.447 167.272C266.547 170.02 269.28 172.867 271.632 175.791L280.229 173.475C277.647 170.266 274.642 167.141 271.223 164.128L263.447 167.272Z" fill="url(#paint27_linear_255_7311)"/>
<path d="M273.206 177.843C275.414 180.839 277.241 183.906 278.683 187.02L287.845 185.602C286.262 182.182 284.249 178.814 281.81 175.527L273.206 177.843Z" fill="url(#paint28_linear_255_7311)"/>
<path d="M250.611 157.813C254.522 160.231 258.081 162.768 261.277 165.409L269.047 162.268C265.538 159.37 261.628 156.586 257.322 153.938L250.611 157.813Z" fill="url(#paint29_linear_255_7311)"/>
<path d="M240.545 145.254L235.102 149.743C239.494 151.657 243.715 153.766 247.718 156.077C247.786 156.116 247.849 156.156 247.917 156.195L254.623 152.323C254.556 152.284 254.492 152.244 254.424 152.205C250.025 149.665 245.381 147.351 240.545 145.254Z" fill="url(#paint30_linear_255_7311)"/>
<path d="M259.773 245.601C256.548 248.147 252.978 250.592 249.075 252.919L255.781 256.791C260.081 254.234 264.004 251.544 267.544 248.743L259.773 245.601Z" fill="url(#paint31_linear_255_7311)"/>
<path d="M212.636 267.773C207.556 269.104 202.352 270.224 197.059 271.124L199.514 276.415C205.337 275.431 211.062 274.204 216.645 272.737L212.636 267.773Z" fill="url(#paint32_linear_255_7311)"/>
<path d="M246.326 254.505C242.296 256.759 238.062 258.82 233.654 260.681L239.095 265.168C243.947 263.125 248.604 260.86 253.032 258.377L246.326 254.505Z" fill="url(#paint33_linear_255_7311)"/>
<path d="M112.741 267.529C107.679 266.171 102.746 264.593 97.9859 262.803L92.5415 267.293C97.7615 269.267 103.173 271.002 108.732 272.494L112.741 267.529Z" fill="url(#paint34_linear_255_7311)"/>
<path d="M94.7615 261.55C90.188 259.705 85.792 257.651 81.6032 255.393L74.8936 259.268C79.4813 261.753 84.3017 264.011 89.3204 266.037L94.7615 261.55Z" fill="url(#paint35_linear_255_7311)"/>
<path d="M152.501 273.668C146.946 273.383 141.419 272.873 135.963 272.141L133.506 277.433C139.498 278.246 145.57 278.81 151.676 279.123L152.501 273.668Z" fill="url(#paint36_linear_255_7311)"/>
<path d="M132.19 271.6C126.797 270.767 121.485 269.712 116.297 268.438L112.285 273.405C117.978 274.814 123.811 275.976 129.736 276.889L132.19 271.6Z" fill="url(#paint37_linear_255_7311)"/>
<path d="M230.477 261.975C225.858 263.794 221.073 265.412 216.15 266.816L220.16 271.781C225.576 270.241 230.842 268.465 235.919 266.461L230.477 261.975Z" fill="url(#paint38_linear_255_7311)"/>
<path d="M65.3322 244.627C62.0155 241.91 59.0806 239.087 56.5223 236.182L47.9199 238.498C50.7118 241.688 53.9236 244.788 57.562 247.767L65.3322 244.627Z" fill="url(#paint39_linear_255_7311)"/>
<path d="M193.311 271.72C187.918 272.528 182.448 273.117 176.94 273.484L177.768 278.94C183.823 278.544 189.839 277.9 195.767 277.009L193.311 271.72Z" fill="url(#paint40_linear_255_7311)"/>
</g>
<path opacity="0.1" d="M162.207 165.72L101.029 201.042L162.208 236.362L223.383 201.042L162.207 165.72Z" fill="#438BE3"/>
<path d="M101.027 182.236L162.206 146.915L223.382 182.236V189.858L162.208 225.175L101.027 189.854L101.029 182.236L101.027 182.236Z" fill="white"/>
<path opacity="0.3" d="M162.207 225.175L223.382 189.858V182.236L162.207 217.556V225.175Z" fill="#438BE3"/>
<path opacity="0.2" d="M162.208 225.175L101.027 189.854L101.029 182.236L162.208 217.556V225.175Z" fill="#438BE3"/>
<path d="M162.207 151.982L109.805 182.236L162.208 212.49L214.607 182.236L162.207 151.982Z" fill="#135EA1"/>
<path opacity="0.15" d="M153.975 154.274H162.69L213.025 183.336L162.688 212.397H153.975L103.641 183.336L153.975 154.274Z" fill="url(#paint41_linear_255_7311)"/>
<path d="M162.689 142.704L213.023 171.765V179.578L162.689 208.641L112.356 179.578V171.765L162.689 142.704Z" fill="white"/>
<path opacity="0.3" d="M162.689 200.827V208.641L213.024 179.579V171.765L162.689 200.827Z" fill="#438BE3"/>
<path opacity="0.2" d="M112.356 179.579L162.689 208.641V200.827L112.356 171.765V179.579Z" fill="#438BE3"/>
<path d="M130.252 170.313C128.87 171.111 128.87 172.418 130.252 173.22L160.174 190.494C161.559 191.295 163.823 191.295 165.207 190.494L195.129 173.22C196.513 172.42 196.513 171.112 195.129 170.313L165.207 153.037C163.822 152.237 161.558 152.237 160.174 153.037L130.252 170.313Z" fill="url(#paint42_linear_255_7311)"/>
<path opacity="0.3" d="M159.687 157.949H163.186L188.929 172.812L163.186 187.674H159.687L133.946 172.811L159.687 157.949Z" fill="#438BE3"/>
<path d="M162.69 153.37L188.433 168.233V171.193L162.69 186.056L136.949 171.193V168.233L162.69 153.37Z" fill="white"/>
<path opacity="0.3" d="M162.69 183.097V186.056L188.433 171.193V168.233L162.69 183.097Z" fill="#438BE3"/>
<path opacity="0.2" d="M136.949 171.193L162.69 186.056V183.097L136.949 168.232V171.193Z" fill="#438BE3"/>
<path opacity="0.3" d="M49.5481 28.3188C-15.8494 66.0771 -15.8494 127.295 49.5481 165.053C114.945 202.811 220.975 202.811 286.373 165.053C351.769 127.295 351.769 66.0771 286.372 28.3188C220.975 -9.4398 114.945 -9.43942 49.5481 28.3188ZM276.952 159.613C216.757 194.368 119.163 194.368 58.9693 159.614C-1.22496 124.86 -1.22496 68.5125 58.9693 33.7583C119.163 -0.995567 216.757 -0.995944 276.951 33.7583C337.146 68.5122 337.146 124.859 276.952 159.613Z" fill="url(#paint43_linear_255_7311)"/>



<g class="el1" style="animation-delay:200ms">
<path d="M20.7893 23.9417C20.7893 23.9417 21.938 25.2163 23.2153 25.6059C24.4914 25.9954 22.0021 29.6384 22.0021 29.6384C22.0021 29.6384 16.3923 27.145 15.1132 27.0809C13.8344 27.0157 17.1259 23.9417 20.7893 23.9417Z" fill="#D9A782"/>
<path d="M30.5377 22.2747C30.5377 22.2747 30.6809 24.949 31.1134 25.9181C31.5452 26.8867 30.6545 28.4763 29.1425 28.5536C27.6306 28.6308 26.7956 26.4139 26.5737 25.5074C26.3529 24.6009 24.7249 21.6602 24.0263 21.3844C23.3304 21.1078 28.6396 19.5627 30.5377 22.2747Z" fill="#D9A782"/>
<path d="M66.588 35.6566C66.588 35.6566 64.2513 33.0591 61.0223 33.2825C57.7941 33.5037 55.2328 35.8054 55.2328 35.8054C55.2328 35.8054 50.8167 35.8423 48.405 36.4734C45.9929 37.1037 43.6614 37.5864 43.6614 37.5864C43.6614 37.5864 37.135 29.3313 31.6684 27.7896C26.204 26.2474 22.5407 24.9325 22.5407 24.9325C22.5407 24.9325 21.9838 24.5983 21.2416 25.4144C20.499 26.2312 18.8664 28.2718 19.1264 29.0141C19.3856 29.7567 26.5853 32.7249 30.2212 35.582C33.8585 38.4394 41.2192 44.7481 43.661 46.2322C46.1055 47.717 66.0315 38.6255 66.588 35.6566Z" fill="#1C64BC"/>
<path d="M60.6648 40.1988C54.4183 43.618 45.2673 47.2068 43.6619 46.2317C41.2204 44.7476 33.8594 38.4389 30.222 35.5815C26.5862 32.7244 19.3864 29.7562 19.1272 29.0136C18.9931 28.6334 19.3574 27.9142 19.8423 27.1923C24.772 28.9733 33.7 33.1599 34.9253 34.4952C36.4561 36.1654 40.4235 39.2275 41.5022 38.9148C42.5813 38.6013 42.3021 39.2629 42.3367 40.0628C42.371 40.8635 43.7282 41.42 46.4074 40.5394C49.0863 39.6585 53.7842 38.532 53.7842 38.532L60.6648 40.1988Z" fill="url(#paint44_linear_255_7311)"/>
<path d="M61.171 38.0681C61.171 38.0681 57.6459 35.9532 54.7135 36.3989C51.7833 36.8435 48.1844 38.9218 46.5511 42.6696C46.5511 42.6696 42.023 44.4887 39.1645 46.6035C39.1645 46.6035 38.7206 40.0714 36.6427 36.9547C34.5641 33.8369 31.1132 24.9315 31.1132 24.9315C31.1132 24.9315 28.7753 24.2628 26.104 25.748C26.104 25.748 28.4781 37.6596 29.3703 40.8143C30.2606 43.9687 32.7077 53.1725 34.0076 54.99C35.3067 56.8083 36.8266 57.3279 40.6866 56.8456C44.5462 56.3626 52.7471 55.6961 57.3482 52.0588C61.9498 48.4218 61.171 38.0681 61.171 38.0681Z" fill="#2971C9"/>
<path d="M52.3585 43.0311C53.6863 38.2081 60.1701 36.0676 63.1255 35.2022C66.0802 34.3364 66.4204 34.6762 67.1337 35.3894C67.8458 36.1019 68.9388 37.0875 71.1606 36.1882L71.514 52.6091C71.514 52.6091 69.545 53.2541 66.9291 53.2541C64.3139 53.2541 59.6608 52.473 58.472 52.9312C57.2841 53.3897 55.9254 54.3753 55.4842 53.6614C55.0419 52.9485 51.0308 47.8538 52.3585 43.0311Z" fill="#E6F6FF"/>
<path d="M55.484 53.6619C55.2828 53.3379 54.3461 52.1081 53.5078 50.4123C54.0666 50.251 54.7576 50.1218 55.6163 50.0634C59.196 49.8204 64.5684 48.0163 66.0898 48.0099C67.6131 48.0035 67.037 42.2996 69.1341 40.8988C69.7105 40.5141 70.4818 41.3305 71.3009 42.7152L71.5138 52.6092C71.5138 52.6092 69.5447 53.2543 66.9288 53.2543C64.3136 53.2543 59.6605 52.4732 58.4718 52.9313C57.2838 53.3899 55.9252 54.3759 55.484 53.6619Z" fill="#C7DEEB"/>
<path d="M31.1699 16.9149C30.0524 17.314 29.3493 17.4394 27.2006 16.6666C25.0503 15.895 20.3972 13.5801 19.0977 13.0006C17.8005 12.4215 16.5594 11.7878 19.262 11.4291C21.9619 11.0712 23.6442 11.1808 25.5748 12.4762C27.5031 13.7734 27.6418 14.1585 28.8817 14.7097C30.1224 15.2613 32.2474 16.5306 31.1699 16.9149Z" fill="#E6F6FF"/>
<path d="M17.0222 19.338C16.5697 20.0011 16.0799 20.7324 14.042 21.0553C12.0021 21.3775 10.6853 21.8032 9.80891 22.1645C8.9314 22.5262 6.14371 23.791 5.70401 24.0363C5.26658 24.2812 5.97525 23.5842 7.34407 22.4226C8.71137 21.2614 10.246 19.468 11.4596 19.107C12.6735 18.7453 15.5762 18.3196 16.4292 18.3064C17.2796 18.2932 17.7204 18.3192 17.0222 19.338Z" fill="#E6F6FF"/>
<path d="M11.1886 23.261C12.403 23.1185 12.8016 22.319 14.1319 22.0225C15.4601 21.7249 16.3899 21.9581 17.4735 21.5968C18.466 21.266 18.6909 20.6537 18.7109 20.2351C19.0929 20.6759 19.718 21.4144 20.0288 21.8801C20.4934 22.5768 21.2805 23.4931 20.7895 24.3702C20.2993 25.2485 20.1987 25.3898 18.7135 25.6482C17.229 25.9056 15.4996 26.4997 15.7185 27.1063C15.9378 27.7129 16.4156 27.7766 16.1771 27.9518C15.9378 28.1255 14.2345 27.0803 13.0744 26.7318C11.9124 26.3833 10.6728 25.7903 9.30551 25.8423C7.93782 25.8939 5.93793 25.4286 5.83545 24.9C5.83545 24.9 6.71256 24.5902 7.71779 23.9448C8.72378 23.2998 9.97656 23.4023 11.1886 23.261Z" fill="#2971C9"/>
<path d="M5.70394 24.0356C6.14364 23.7903 8.93134 22.5255 9.80884 22.1638C10.6856 21.8025 12.0021 21.3767 14.0419 21.0546C16.0799 20.7321 16.57 20.0008 17.0222 19.3373C17.3126 18.913 17.4038 18.6625 17.3518 18.5144C17.3518 18.5144 17.3518 18.5144 17.353 18.5144C17.8213 18.7179 18.6992 19.7125 18.7124 20.1255C18.7252 20.5377 18.5568 21.2347 17.4728 21.5964C16.3896 21.9573 15.4597 21.7245 14.1312 22.0221C12.8008 22.3187 12.4022 23.1182 11.1878 23.2606C9.97576 23.4019 8.723 23.2994 7.71626 23.9437C6.71103 24.5891 5.83392 24.8988 5.83392 24.8988C5.83392 24.8988 5.33697 24.4026 5.70394 24.0356Z" fill="#C7DEEB"/>
<path d="M18.1893 13.4648C18.4869 13.7734 18.8712 14.0538 19.2883 14.2433C20.3919 14.7387 22.4321 16.0333 23.0654 16.7228C23.6999 17.4119 25.5186 17.3294 26.1041 17.4398C26.6881 17.5498 27.4485 17.8531 28.0004 18.4315C28.5513 19.0102 29.9299 19.9472 30.7833 19.8655C31.0376 19.841 31.2113 19.5972 31.3296 19.2543L31.3303 19.2574C31.3349 19.7276 30.9211 22.8144 30.8115 23.2828C30.7015 23.7519 30.0391 23.5039 29.0463 23.4493C28.0554 23.3935 26.5943 21.7682 25.5748 21.6295C24.553 21.4912 24.5812 21.9321 24.2221 22.2636C23.8649 22.5937 23.3684 21.1879 23.0922 20.5267C22.8164 19.8658 21.301 17.0536 20.1978 16.3095C19.0954 15.565 18.0246 14.2858 18.1874 13.4652L18.1893 13.4648Z" fill="#2971C9"/>
<path d="M17.6546 12.0308C17.6569 12.3322 18.3686 12.6751 19.098 13.001C20.3975 13.5805 25.0506 15.8953 27.2009 16.667C29.3496 17.4397 30.0527 17.3139 31.1702 16.9153C31.3948 16.8354 31.4784 16.7171 31.4622 16.575C31.4633 16.578 31.4648 16.5818 31.4648 16.5845C31.6106 17.2461 31.6389 19.7821 30.7836 19.8654C29.9302 19.9475 28.5516 19.0101 28.0008 18.4314C27.4488 17.853 26.6881 17.5498 26.1045 17.4397C25.519 17.3293 23.7007 17.4118 23.0658 16.7227C22.4325 16.0332 20.3922 14.7387 19.2887 14.2432C18.187 13.7455 17.3144 12.6046 17.6546 12.0308Z" fill="#C7DEEB"/>
<path d="M37.8725 39.6538C38.9083 42.833 39.1645 46.6038 39.1645 46.6038C38.6472 47.1215 36.2155 50.4404 35.7901 51.0572C35.3651 51.6751 34.9416 50.425 35.327 49.6605C35.6631 48.9944 37.9946 44.0138 37.8725 39.6538Z" fill="#1058B0"/>
<path d="M72.5319 28.7744C69.7845 30.063 68.2212 32.5874 67.716 33.9588C67.2096 35.3303 67.716 38.0445 67.716 38.0445C67.716 38.0445 67.7683 35.1219 68.8779 34.4656C68.8779 34.4656 68.3241 35.776 68.526 36.5578C68.7272 37.3384 68.4251 39.9845 67.0137 40.5391C67.0137 40.5391 69.483 39.2035 70.8187 37.9183C72.1551 36.6335 80.9482 30.2325 80.9482 30.2325L72.5319 28.7744Z" fill="url(#paint45_linear_255_7311)"/>
<path d="M91.9821 36.1885C91.9821 36.1885 88.4631 36.1716 88.8022 40.4845C89.142 44.7978 89.3176 46.8692 87.5833 48.466C85.8475 50.0628 82.6566 49.2478 81.5681 50.5722C80.4808 51.8966 77.7639 54.3422 75.1148 53.9684C72.4653 53.5946 68.8238 39.876 69.8117 37.7853C70.8019 35.6953 75.3989 31.8334 79.7344 30.1937C84.0688 28.5532 90.8145 33.8284 91.9821 36.1885Z" fill="#C7DEEB"/>
<path d="M126.185 47.5705C126.61 47.9959 126.673 51.2184 126.751 52.1351C126.828 53.0521 126.574 53.305 126.263 53.2861C125.951 53.2669 125.795 52.7786 125.795 52.7786C125.795 52.7786 125.405 54.5536 125.093 54.5536C124.78 54.5536 124.681 53.8905 124.681 53.8905C124.681 53.8905 123.903 53.9293 124.224 53.4319C124.547 52.9346 124.818 52.1547 124.818 52.1547L124.663 50.3014C124.663 50.3014 121.386 49.0825 121.093 49.0094C120.801 48.9359 121.249 46.771 121.249 46.771C121.249 46.771 125.951 47.3369 126.185 47.5705Z" fill="#FFCDA8"/>
<path d="M126.185 47.5705C126.341 47.725 126.447 48.2551 126.524 48.9088C126.024 48.7276 125.443 48.5335 125.345 48.5652C125.17 48.6243 125.17 49.625 125.21 49.6608C125.248 49.6966 125.795 52.0959 125.795 52.7786C125.795 52.7786 125.405 54.5536 125.093 54.5536C124.78 54.5536 124.681 53.8905 124.681 53.8905C124.681 53.8905 123.903 53.9293 124.224 53.4319C124.547 52.9346 124.818 52.1547 124.818 52.1547L124.663 50.3014C124.663 50.3014 121.386 49.0825 121.093 49.0094C120.801 48.9359 121.249 46.771 121.249 46.771C121.249 46.771 125.951 47.3369 126.185 47.5705Z" fill="#D9A782"/>
<path d="M118.538 45.1711L119.328 44.8716C119.328 44.8716 121.717 44.9963 123.181 45.2691C124.644 45.5426 126.574 46.9653 127.453 47.454C128.33 47.9411 129.17 48.8495 128.974 49.0096C128.778 49.1694 128.038 49.0722 127.531 48.8198C127.024 48.5655 125.406 47.8439 124.799 47.7072C124.195 47.5708 123.318 47.4344 122.849 47.4344C122.38 47.4344 121.757 47.2004 121.582 48.0587C121.405 48.917 121.269 49.0138 121.464 49.4637C121.659 49.9113 121.503 51.0239 120.976 51.1403C120.449 51.2571 120.156 50.1524 120.02 49.6611C119.884 49.1698 119.491 48.1178 119.062 48.1178C118.635 48.1175 117.583 47.1024 118.538 45.1711Z" fill="#FFCDA8"/>
<path d="M91.7381 28.7744C91.7381 28.7744 93.134 29.1327 96.23 32.0003C99.3244 34.8695 107.137 42.4558 107.137 42.4558C107.137 42.4558 110.646 43.5876 113.439 44.0401C116.234 44.4933 119.328 44.8705 119.328 44.8705C119.328 44.8705 118.082 46.682 119.063 48.1168C119.063 48.1168 109.892 49.3628 106.495 48.9095C103.098 48.4563 101.4 46.1165 99.9657 45.1734C98.5321 44.2292 87.9644 34.469 87.9644 34.469L91.7381 28.7744Z" fill="#E6F6FF"/>
<path d="M92.7041 34.6875C94.2851 36.3909 98.6907 41.3669 100.714 42.715C102.736 44.0631 104.758 43.5971 105.017 44.0631C105.276 44.5303 104.706 45.4112 104.706 45.5668C104.706 45.7111 114.543 47.2465 118.691 46.8942C118.696 47.3007 118.793 47.7235 119.063 48.1172C119.063 48.1172 109.892 49.3632 106.495 48.9099C103.098 48.4567 101.4 46.1169 99.9657 45.1739C98.5321 44.2297 87.9644 34.4694 87.9644 34.4694L89.2665 32.5049C90.5863 33.133 91.9886 33.9163 92.7041 34.6875Z" fill="#C7DEEB"/>
<path d="M83.6168 63.1807C83.6168 63.1807 84.2836 63.0628 84.4916 63.0628C84.7003 63.0628 88.1328 62.6099 88.7778 62.6099C89.4243 62.6099 90.7747 62.5745 91.4894 62.8985C92.2049 63.221 96.1222 64.0345 95.9828 64.6343C95.8445 65.2341 95.4297 65.1656 95.0367 65.1656C94.6445 65.1656 91.0912 64.2579 90.1971 64.6784C90.1971 64.6784 91.5832 65.597 92.4144 66.0348C93.244 66.4734 95.4986 67.6568 95.0367 68.0727C94.5771 68.4872 93.9987 68.3026 93.6758 68.1877C93.3533 68.0728 89.4115 66.1113 89.4115 66.1113C89.4115 66.1113 89.8 66.6195 90.607 67.104C91.4144 67.5886 93.6995 68.8568 93.4456 69.3414C93.1917 69.8255 92.2222 69.272 91.6917 69.1567C91.1612 69.0418 88.7846 67.6349 88.7846 67.6349C88.7846 67.6349 90.3109 68.9491 90.8651 69.3187C91.4178 69.6876 92.0384 70.4713 91.8756 70.6333C91.5018 71.0078 90.5607 70.3801 90.0535 69.9875C89.546 69.5953 87.9078 68.7185 87.447 68.4186C86.9851 68.1187 84.2565 67.1598 83.4046 66.7051C82.5554 66.2499 83.0859 63.7123 83.6168 63.1807Z" fill="#FFCDA8"/>
<path d="M89.2474 34.4691C89.2474 34.4691 86.567 37.3213 86.4163 39.2096C86.2652 41.0961 86.3594 42.6439 84.17 42.1537C81.9813 41.6624 80.8306 36.6807 79.5093 33.6613C78.72 31.8558 78.7923 29.0568 82.077 28.226C85.3598 27.3948 89.2474 34.4691 89.2474 34.4691Z" fill="#D9A782"/>
<path d="M94.3718 27.7559C94.3718 27.7559 94.7399 28.4123 94.4769 29.7125C94.2147 31.0127 93.9909 31.6435 93.9909 31.6435C93.9909 31.6435 94.1099 32.3785 93.9392 32.4972C93.7674 32.6152 93.6695 32.7135 93.6695 32.7135C93.6695 32.7135 93.2034 33.1008 93.0587 33.6524C92.9144 34.204 92.4016 36.2265 90.6688 36.1869C88.9357 36.1478 84.8764 34.0465 82.8407 30.9468C80.8057 27.8479 79.4923 23.4483 80.5819 20.3489C81.6723 17.2489 85.5334 15.8571 88.5668 16.8163C91.6014 17.7752 94.2538 21.5305 94.7263 23.7241C95.1995 25.9173 94.8846 26.7971 94.7263 27.112C94.5685 27.4274 94.3718 27.7559 94.3718 27.7559Z" fill="#FFCDA8"/>
<path d="M94.7092 27.1465C94.5543 27.4513 94.3712 27.7557 94.3712 27.7557C94.3712 27.7557 94.7394 28.412 94.4764 29.7123C94.2141 31.0125 93.9903 31.6432 93.9903 31.6432C93.9903 31.6432 93.458 30.5419 93.3834 30.0657C93.3088 29.5906 93.117 28.6558 93.3834 28.1362C93.5446 27.8231 94.2077 27.4181 94.7092 27.1465Z" fill="#D9A782"/>
<path d="M92.6122 32.8945C92.7452 32.6801 93.6076 32.769 93.6076 32.769C93.4791 32.8933 93.1713 33.2215 93.0587 33.6525C92.9144 34.2041 92.4016 36.2267 90.6688 36.1871C90.572 36.1841 90.4665 36.1739 90.3564 36.1592C91.8345 35.2542 92.495 33.0825 92.6122 32.8945Z" fill="#D9A782"/>
<path d="M83.2454 30.8757C83.1833 30.8757 83.1155 30.8637 83.0427 30.8399C82.3254 30.6044 81.1996 29.2047 80.845 28.4157C80.573 27.8129 80.5312 27.3103 80.7271 27.0006C80.8605 26.79 81.0918 26.68 81.4143 26.674C81.4192 26.674 81.4245 26.674 81.4298 26.674C82.2658 26.674 83.2714 27.9813 83.5521 28.531C83.8524 29.1199 84.0852 30.4639 83.4406 30.8271C83.3833 30.8595 83.3181 30.8757 83.2454 30.8757ZM81.4301 26.7681C81.4256 26.7681 81.4211 26.7681 81.4162 26.7681C81.1272 26.7734 80.9222 26.8687 80.8069 27.0507C80.631 27.3288 80.6762 27.8122 80.9309 28.377C81.2791 29.1509 82.3766 30.5219 83.0721 30.7502C83.2032 30.7936 83.3117 30.7917 83.3943 30.7449C83.9636 30.4243 83.7658 29.1569 83.4685 28.5736C83.2044 28.0567 82.2146 26.7681 81.4301 26.7681Z" fill="#00FF00"/>
<path d="M69.4632 32.9111C71.3105 30.3867 75.3891 30.2273 75.3891 30.2273C72.584 31.0687 70.8553 33.0087 70.8553 33.0087C75.389 30.2274 79.3912 30.8287 81.9766 31.054C84.5624 31.2786 86.0807 29.0488 87.9902 26.9694C89.9016 24.8892 93.0115 25.5829 93.0115 25.5829C93.0115 25.5829 94.0423 23.6474 95.1365 24.2521C95.1365 24.2521 95.1365 21.8321 92.9764 19.5572C90.8168 17.2811 88.8063 15.2062 84.4256 16.5177C80.0434 17.8278 79.3237 21.2277 78.9198 22.7254C78.5159 24.2235 76.2571 26.5282 73.7143 27.7372C71.1718 28.9478 67.9448 31.9432 67.7153 33.9593C67.7153 33.9593 68.6083 31.3663 71.6477 30.0265C71.6477 30.0265 69.6708 31.7642 69.4632 32.9111Z" fill="#5B5B5B"/>
<path d="M81.9766 31.0536C81.7117 31.0298 81.431 31.0027 81.136 30.9763C83.68 30.4993 84.8111 29.3946 84.8111 29.3946C82.2603 30.2024 80.1899 29.3946 80.1899 29.3946C84.5624 30.3437 87.5378 25.6469 89.0618 25.0335C90.5843 24.4205 93.0115 25.582 93.0115 25.582C93.0115 25.582 89.9016 24.8884 87.9903 26.9686C86.0808 29.0487 84.562 31.2781 81.9766 31.0536Z" fill="url(#paint46_linear_255_7311)"/>
<path d="M84.1729 16.5985C84.2572 16.5714 84.3405 16.5439 84.426 16.5179C88.8068 15.206 90.8172 17.2812 92.9769 19.5573C95.1369 21.8323 95.1369 24.2522 95.1369 24.2522C94.0424 23.6475 93.0119 25.583 93.0119 25.583C93.0119 25.583 91.8564 18.0837 84.1729 16.5985Z" fill="#5B5B5B"/>
<path d="M76.2706 38.2903C77.6432 40.6779 76.7164 48.7963 77.0946 52.1548C77.4733 55.5145 77.8116 60.081 77.8116 60.081C77.8116 60.081 80.3025 61.5911 81.5097 62.0059C82.7184 62.4211 84.4922 63.0624 84.4922 63.0624C84.4922 63.0624 82.681 64.6478 83.4357 66.7988C83.4357 66.7988 74.415 66.0438 72.9814 65.2518C71.5467 64.4591 71.2822 61.2505 70.7912 59.2125C70.3011 57.1753 68.9183 45.854 68.3305 43.5026C67.5928 40.5593 71.9295 30.741 76.2706 38.2903Z" fill="#E6F6FF"/>
</g>


<path d="M58.0409 90.369C55.0189 88.6249 51.0594 87.7519 47.1002 87.7527C43.14 87.7527 39.1808 88.6245 36.1591 90.369C33.1378 92.1131 31.627 94.3997 31.627 96.6856V100.494C31.627 102.78 33.1374 105.066 36.1591 106.81C39.1805 108.555 43.14 109.427 47.1002 109.427C51.0594 109.427 55.0196 108.555 58.0409 106.81C61.0623 105.066 62.5732 102.78 62.5732 100.494V96.6856C62.5732 94.3997 61.0623 92.1134 58.0409 90.369Z" fill="#C7DEEB"/>
<path d="M47.1002 87.7527C43.14 87.7527 39.1808 88.6245 36.1591 90.369C33.1378 92.1131 31.627 94.3997 31.627 96.6856C31.627 98.9722 33.1374 101.258 36.1591 103.003C39.1805 104.746 43.14 105.619 47.1002 105.619C51.0594 105.619 55.0196 104.746 58.0409 103.003C61.0623 101.258 62.5732 98.9722 62.5732 96.6856C62.5732 94.3997 61.0623 92.1131 58.0409 90.369C55.0189 88.6249 51.0594 87.7519 47.1002 87.7527Z" fill="white"/>
<path d="M253.227 68.1749C251.498 67.1772 249.234 66.678 246.97 66.6783C244.705 66.6783 242.441 67.1772 240.712 68.1749C238.985 69.1722 238.121 70.48 238.121 71.7874V73.9651C238.121 75.2729 238.985 76.5799 240.712 77.5772C242.441 78.5753 244.705 79.0741 246.97 79.0741C249.234 79.0741 251.499 78.5757 253.227 77.5772C254.955 76.5799 255.819 75.2725 255.819 73.9651V71.7874C255.819 70.48 254.955 69.1722 253.227 68.1749Z" fill="#C7DEEB"/>
<path d="M246.97 66.6785C244.706 66.6785 242.441 67.1773 240.713 68.175C238.985 69.1723 238.121 70.4801 238.121 71.7875C238.121 73.0949 238.985 74.4023 240.713 75.4C242.441 76.3969 244.705 76.8965 246.97 76.8965C249.235 76.8965 251.499 76.3973 253.227 75.4C254.955 74.4019 255.819 73.0949 255.819 71.7875C255.819 70.4801 254.955 69.1723 253.227 68.175C251.499 67.1773 249.234 66.6781 246.97 66.6785Z" fill="white"/>
<path d="M66.9219 123.822C65.1932 122.824 62.9292 122.325 60.6648 122.325C58.4 122.325 56.1356 122.824 54.4077 123.822C52.6799 124.819 51.8159 126.127 51.8159 127.434V129.612C51.8159 130.919 52.6799 132.227 54.4077 133.224C56.136 134.222 58.4 134.721 60.6648 134.721C62.9292 134.721 65.1936 134.222 66.9219 133.224C68.6497 132.227 69.5137 130.919 69.5137 129.612V127.434C69.5137 126.127 68.6497 124.819 66.9219 123.822Z" fill="#C7DEEB"/>
<path d="M60.6648 122.326C58.4 122.326 56.1356 122.825 54.4077 123.822C52.6799 124.82 51.8159 126.127 51.8159 127.435C51.8159 128.742 52.6799 130.049 54.4077 131.047C56.136 132.045 58.4 132.544 60.6648 132.544C62.9292 132.544 65.1936 132.045 66.9219 131.047C68.6497 130.049 69.5137 128.742 69.5137 127.435C69.5137 126.127 68.6497 124.82 66.9219 123.822C65.1932 122.825 62.9292 122.325 60.6648 122.326Z" fill="white"/>
<path d="M184.327 14.7715C183.028 14.0217 181.327 13.6468 179.626 13.6472C177.924 13.6472 176.223 14.0221 174.924 14.7715C173.626 15.5209 172.977 16.5035 172.977 17.4854V19.1214C172.977 20.1036 173.626 21.0862 174.924 21.8353C176.223 22.5854 177.924 22.9599 179.626 22.9599C181.327 22.9599 183.028 22.5854 184.327 21.8353C185.625 21.0859 186.274 20.1036 186.274 19.1214V17.4854C186.274 16.5035 185.625 15.5209 184.327 14.7715Z" fill="#C7DEEB"/>
<path d="M179.626 13.6472C177.924 13.6472 176.223 14.0221 174.924 14.7715C173.626 15.5209 172.977 16.5035 172.977 17.4854C172.977 18.468 173.626 19.4499 174.924 20.1997C176.223 20.9491 177.924 21.324 179.626 21.324C181.327 21.324 183.028 20.9491 184.327 20.1997C185.625 19.4499 186.274 18.4676 186.274 17.4854C186.274 16.5032 185.625 15.5205 184.327 14.7715C183.028 14.0221 181.327 13.6468 179.626 13.6472Z" fill="white"/>
<path d="M289.651 46.9878C288.352 46.238 286.651 45.8631 284.95 45.8635C283.248 45.8635 281.547 46.2384 280.249 46.9878C278.951 47.7372 278.301 48.7198 278.301 49.7017V51.338C278.301 52.3203 278.95 53.3025 280.249 54.0523C281.547 54.8021 283.248 55.1766 284.95 55.1766C286.651 55.1766 288.353 54.8021 289.651 54.0523C290.949 53.3029 291.599 52.3207 291.599 51.338V49.7017C291.598 48.7198 290.949 47.7372 289.651 46.9878Z" fill="#C7DEEB"/>
<path d="M284.95 45.8635C283.248 45.8635 281.547 46.2384 280.249 46.9878C278.951 47.7372 278.301 48.7198 278.301 49.7017C278.301 50.684 278.95 51.6662 280.249 52.416C281.547 53.1654 283.248 53.5403 284.95 53.5403C286.651 53.5403 288.353 53.1654 289.651 52.416C290.949 51.6662 291.599 50.684 291.599 49.7017C291.599 48.7195 290.95 47.7368 289.651 46.9878C288.352 46.2384 286.651 45.8631 284.95 45.8635Z" fill="white"/>
<path d="M18.0907 78.0205C16.7924 77.2707 15.0909 76.8962 13.3897 76.8962C11.6879 76.8962 9.98672 77.2707 8.68836 78.0205C7.39038 78.7699 6.74121 79.7525 6.74121 80.7348V82.3711C6.74121 83.3534 7.39038 84.336 8.68836 85.0854C9.98672 85.8352 11.6882 86.21 13.3897 86.21C15.0909 86.21 16.7924 85.8352 18.0907 85.0854C19.3891 84.336 20.0383 83.3537 20.0383 82.3711V80.7348C20.0383 79.7522 19.3891 78.7695 18.0907 78.0205Z" fill="#C7DEEB"/>
<path d="M13.3897 76.8962C11.6879 76.8962 9.98672 77.2707 8.68836 78.0205C7.39038 78.7699 6.74121 79.7525 6.74121 80.7348C6.74121 81.717 7.39038 82.6993 8.68836 83.4491C9.98672 84.1985 11.6882 84.5733 13.3897 84.5733C15.0909 84.5733 16.7924 84.1981 18.0907 83.4491C19.3891 82.6993 20.0383 81.717 20.0383 80.7348C20.0383 79.7525 19.3891 78.7699 18.0907 78.0205C16.7924 77.2707 15.0912 76.8959 13.3897 76.8962Z" fill="white"/>
<path d="M82.2654 156.441C80.9667 155.691 79.2655 155.316 77.5644 155.316C75.8625 155.316 74.1614 155.691 72.8631 156.441C71.5647 157.19 70.9155 158.173 70.9155 159.155V160.791C70.9155 161.773 71.5647 162.756 72.8631 163.505C74.1614 164.255 75.8625 164.63 77.5644 164.63C79.2655 164.63 80.9671 164.255 82.2654 163.505C83.5638 162.756 84.2126 161.774 84.2126 160.791V159.155C84.2126 158.172 83.5634 157.19 82.2654 156.441Z" fill="#C7DEEB"/>
<path d="M77.5649 155.316C75.863 155.316 74.1619 155.69 72.8636 156.44C71.5652 157.189 70.916 158.172 70.916 159.154C70.916 160.136 71.5652 161.119 72.8636 161.869C74.1619 162.618 75.863 162.993 77.5649 162.993C79.266 162.993 80.9676 162.618 82.2659 161.869C83.5643 161.119 84.2131 160.136 84.2131 159.154C84.2131 158.172 83.5639 157.189 82.2659 156.44C80.9672 155.69 79.266 155.316 77.5649 155.316Z" fill="white"/>
<path opacity="0.3" d="M78.6106 45.0983C29.2633 73.5899 29.2633 119.783 78.6106 148.274C127.958 176.765 207.965 176.765 257.312 148.274C306.659 119.783 306.658 73.5894 257.311 45.0979C207.965 16.6064 127.958 16.6072 78.6106 45.0983ZM250.203 144.169C204.782 170.394 131.14 170.394 85.7192 144.17C40.2981 117.945 40.2981 75.427 85.7192 49.2021C131.14 22.978 204.782 22.9776 250.203 49.2021C295.624 75.427 295.624 117.945 250.203 144.169Z" fill="url(#paint47_linear_255_7311)"/>
<path opacity="0.3" d="M49.5484 28.3185C-15.8488 66.0768 -15.8487 127.295 49.548 165.053C114.945 202.811 220.975 202.811 286.372 165.053C351.77 127.295 351.77 66.0771 286.372 28.3185C220.975 -9.43932 114.946 -9.4397 49.5484 28.3185ZM58.9692 33.758C119.163 -0.995852 216.757 -0.995852 276.952 33.758C337.146 68.5122 337.146 124.86 276.952 159.614C216.757 194.368 119.163 194.367 58.9692 159.613C-1.22545 124.859 -1.22507 68.5122 58.9692 33.758Z" fill="url(#paint48_linear_255_7311)"/>


<g class="el1">
<path d="M239.835 110.208C239.58 110.171 237.364 109.769 236.465 109.623C235.564 109.477 234.479 109.429 234.369 109.805C234.261 110.183 234.467 110.573 235.601 110.792C236.731 111.011 238.121 111.352 238.121 111.352C238.121 111.352 237.292 112.63 237 112.959C236.707 113.287 236.256 114.553 236.719 114.699C237.183 114.845 237.888 114.017 238.107 113.75C238.327 113.482 239.569 112.116 239.569 112.116L239.734 112.281C239.734 112.281 239.399 113.531 239.263 114.225C239.13 114.919 239.008 115.868 239.494 115.82C239.982 115.77 240.384 114.809 240.542 114.273C240.699 113.737 241.005 112.813 241.005 112.813C241.005 112.813 241.357 112.886 241.394 113.008C241.43 113.129 241.43 114.48 241.43 114.614C241.43 114.748 241.193 114.985 241.15 115.028C241.107 115.07 240.25 115.722 239.872 116.014C239.494 116.307 239.106 117.158 239.494 117.487C239.885 117.816 240.931 117.353 241.588 116.794C242.246 116.234 242.928 115.807 243.536 115.577C244.145 115.345 245.155 114.822 245.592 114.566C246.031 114.31 246.859 113.604 247.176 113.629C247.492 113.653 249.354 114.237 249.354 114.237L250.133 110.683C250.133 110.683 248.673 110.282 248.015 110.282C247.359 110.282 245.727 110.135 244.911 110.026C244.095 109.917 242.392 109.429 241.893 109.429C241.394 109.429 239.835 110.208 239.835 110.208Z" fill="#FFCDA8"/>
<path d="M238.106 113.75C238.326 113.482 239.568 112.116 239.568 112.116L239.733 112.282C239.733 112.282 239.398 113.531 239.263 114.225C239.129 114.919 239.007 115.868 239.494 115.82C239.982 115.77 240.384 114.809 240.542 114.274C240.698 113.738 241.004 112.813 241.004 112.813C241.004 112.813 241.025 112.817 241.054 112.825C241.054 112.817 241.053 112.813 241.053 112.813C241.053 112.813 239.97 112.168 239.714 111.985C239.458 111.803 238.12 111.352 238.12 111.352C238.12 111.352 237.292 112.63 237 112.959C236.706 113.287 236.255 114.553 236.719 114.699C237.182 114.845 237.888 114.018 238.106 113.75Z" fill="#D9A782"/>
<path d="M247.175 113.629C247.492 113.653 249.354 114.238 249.354 114.238L249.455 113.785C248.79 113.584 247.795 113.29 247.187 113.154C246.214 112.935 245.714 113.288 245.022 113.872C244.328 114.457 242.732 115.528 242.392 115.76C242.106 115.953 240.732 117.189 239.541 117.518C239.963 117.78 240.955 117.334 241.587 116.794C242.245 116.234 242.927 115.808 243.536 115.577C244.144 115.345 245.155 114.822 245.591 114.566C246.031 114.31 246.858 113.604 247.175 113.629Z" fill="#D9A782"/>
<path d="M247.796 110.139C247.796 110.139 247.099 112.406 247.597 114.15C247.597 114.15 259.004 119.006 260.772 119.754C262.542 120.501 270.436 124.162 270.436 124.162C270.436 124.162 281.494 125.856 281.719 125.731C281.943 125.607 282.607 126.344 282.25 124.78C281.893 123.215 281.119 119.692 278.282 118.378C275.442 117.063 267.298 115.419 264.484 114.199C261.669 112.979 262.487 113.004 259.363 112.232C256.24 111.46 248.74 110.058 247.796 110.139Z" fill="#E6F6FF"/>
<path d="M247.433 113.161C247.455 113.497 247.506 113.831 247.597 114.15C247.597 114.15 259.003 119.006 260.771 119.754C261.238 119.95 262.129 120.349 263.189 120.831C263.754 119.263 263.964 117.55 262.416 117.596C259.602 117.682 258.556 117.935 254.82 116.143C251.98 114.779 248.797 113.633 247.433 113.161Z" fill="#C7DEEB"/>
<path d="M236.583 153.259C235.999 153.346 234.074 153.58 234.074 153.58C234.074 153.58 233.374 152.486 232.995 152.15C232.616 151.815 231.42 151.859 231.01 152.063C230.604 152.267 229.947 153.054 229.947 153.054C229.947 153.054 228.123 153.462 227.263 153.711C226.402 153.958 226.227 154.236 226.343 154.834C226.461 155.431 226.935 155.905 226.935 155.905C226.935 155.905 225.657 156.569 225.818 157.197C225.979 157.824 226.649 158.247 226.649 158.247C226.649 158.247 226.548 159.501 227.043 159.924C227.54 160.348 228.165 160.274 228.165 160.274C228.165 160.274 228.108 161.107 228.911 161.354C229.713 161.602 229.786 161.441 229.786 161.208C229.786 160.975 229.99 160.435 230.078 160.435C230.165 160.435 231.754 159.983 232.542 159.4C233.33 158.816 234.322 157.999 234.322 157.999L237.457 157.532L236.583 153.259Z" fill="#FFCDA8"/>
<path d="M237.457 157.532L237.314 156.828C236.416 157.018 234.827 157.348 234.265 157.43C233.461 157.547 232.893 157.24 232.893 157.24C232.893 157.24 231.565 158.364 231.054 158.962C230.543 159.56 229.888 160.099 229.668 160.304C229.45 160.507 228.969 160.479 228.649 160.304C228.326 160.129 228.517 158.859 228.298 159.02C228.079 159.181 227.365 159.589 227.131 159.137C226.898 158.685 226.927 158.16 226.927 158.16L227.248 157.299C227.248 157.299 226.396 157.177 225.826 156.944C225.803 157.028 225.797 157.113 225.818 157.198C225.979 157.824 226.649 158.247 226.649 158.247C226.649 158.247 226.548 159.502 227.043 159.925C227.54 160.348 228.165 160.275 228.165 160.275C228.165 160.275 228.108 161.107 228.911 161.354C229.713 161.603 229.786 161.441 229.786 161.209C229.786 160.975 229.99 160.436 230.078 160.436C230.165 160.436 231.754 159.983 232.543 159.4C233.33 158.816 234.323 157.999 234.323 157.999L237.457 157.532Z" fill="#D9A782"/>
<path d="M316.946 212.967C315.822 213.242 314.451 214.341 314.542 216.218C314.635 218.096 316.008 220.865 315.962 222.502C315.916 224.14 315.111 227.941 315.743 230.345C316.374 232.748 317.085 234.053 319.03 233.481C320.977 232.91 322.19 228.284 322.166 226.133C322.144 223.981 321.113 222.538 320.358 220.5C319.603 218.464 319.716 217.748 319.58 216.838C319.442 215.922 319.305 212.395 316.946 212.967Z" fill="#E6F6FF"/>
<path d="M315.743 230.345C315.111 227.941 315.916 224.14 315.962 222.502C316.008 220.865 314.635 218.096 314.543 216.218C314.451 214.342 315.822 213.242 316.947 212.967C317.248 212.896 317.511 212.89 317.744 212.935C317.724 212.925 317.705 212.912 317.679 212.905C317.015 212.739 315.024 212.239 313.994 212.237C312.963 212.236 312.414 212.441 312.3 214.366C312.185 216.288 313.032 219.998 312.78 220.294C312.528 220.592 311.59 219.516 311.68 220.294C311.774 221.073 313.215 224.392 313.581 226.477C313.947 228.559 315.093 233.776 317.702 233.548V233.545C316.709 233.263 316.204 232.1 315.743 230.345Z" fill="#412999"/>
<path d="M313.788 216.426C314.109 218.416 315.344 220.748 315.208 222.033C315.07 223.315 315.001 226.017 315.024 227.482C315.041 228.562 314.939 231.006 316.107 232.924C316.565 233.356 317.094 233.6 317.703 233.547V233.544C316.709 233.263 316.204 232.099 315.743 230.344C315.111 227.94 315.916 224.139 315.962 222.501C316.008 220.864 314.635 218.095 314.543 216.217C314.451 214.341 315.822 213.241 316.946 212.967C317.248 212.895 317.511 212.889 317.744 212.935C317.724 212.924 317.705 212.911 317.679 212.904C317.389 212.831 316.848 212.696 316.243 212.565C316.028 212.659 315.825 212.77 315.642 212.904C314.405 213.815 313.467 214.433 313.788 216.426Z" fill="#C7DEEB"/>
<path d="M277.457 170.056C277.457 170.056 283.404 181.408 285.98 186.16C288.555 190.911 290.513 193.85 293.16 195.844C295.808 197.838 304.694 208.43 306.618 211.512C308.538 214.596 312.348 222.383 312.348 222.383C312.348 222.383 312.602 223.154 312.782 221.74C312.965 220.326 312.487 212.886 314.539 212.273C314.539 212.273 309.881 203.823 309.012 201.43C308.141 199.036 305.82 195.555 303.173 193.052C300.524 190.549 297.914 188.59 296.971 185.869C296.027 183.15 290.732 168.823 289.498 165.305C288.265 161.786 284.82 157.724 284.82 157.724L277.457 162.185V170.056H277.457Z" fill="#0F57AF"/>
<path d="M309.9 212.905C306.974 206.198 296.037 196.082 292.285 192.077C288.533 188.07 280.839 173.698 280.888 171.345C280.936 168.992 280.888 166.448 280.888 166.448L278.931 168.103L277.457 168.763V170.055C277.457 170.055 283.405 181.407 285.981 186.159C288.555 190.91 290.514 193.849 293.161 195.844C295.808 197.837 304.695 208.43 306.618 211.512C308.539 214.595 312.348 222.383 312.348 222.383C312.348 222.383 312.602 223.153 312.783 221.739C312.842 221.287 312.832 220.215 312.861 218.946C311.906 217.13 310.851 215.086 309.9 212.905Z" fill="#003E96"/>
<path d="M300.9 202.573C300.078 202.879 299.091 203.834 299.366 206.009C299.641 208.183 300.809 210.862 301.609 212.579C302.411 214.296 303.419 218.44 304.905 220.02C306.394 221.599 307.241 222.102 308.271 221.484C309.302 220.867 308.798 216.356 307.539 214.136C306.28 211.915 304.448 210.611 303.967 209.008C303.487 207.405 303.293 204.853 303.27 204.165C303.247 203.478 302.249 202.07 300.9 202.573Z" fill="#E6F6FF"/>
<path d="M304.905 220.019C303.418 218.439 302.411 214.295 301.609 212.578C300.809 210.861 299.641 208.182 299.365 206.008C299.091 203.833 300.078 202.878 300.9 202.572C300.995 202.537 301.09 202.513 301.18 202.495H301.177C300.419 202.459 297.466 202.276 296.801 202.894C296.139 203.511 295.383 205.871 296.16 207.701C296.939 209.533 296.593 209.601 296.366 210.334C296.135 211.065 296.16 211.846 296.618 212.647C297.076 213.448 299.457 215.669 300.441 217.294C301.427 218.92 305.26 223.274 307.785 221.692V221.692C306.951 221.909 306.156 221.344 304.905 220.019Z" fill="#412999"/>
<path d="M304.905 220.019C303.418 218.439 302.411 214.295 301.609 212.578C300.808 210.861 299.64 208.182 299.365 206.008C299.091 203.833 300.078 202.878 300.9 202.572C300.995 202.537 301.089 202.513 301.179 202.495H301.176C300.875 202.48 300.227 202.444 299.515 202.441C298.971 202.768 298.435 203.284 298.29 204.084C297.969 205.848 298.231 206.987 298.817 208.413C299.429 209.906 299.972 211.584 300.419 212.51C300.84 213.387 301.976 215.349 302.274 216.448C302.523 217.372 303.893 220.745 306.382 222.023C306.873 222.059 307.349 221.966 307.785 221.693V221.692C306.951 221.909 306.155 221.344 304.905 220.019Z" fill="#C7DEEB"/>
<path d="M297.331 212.905C297.188 211.586 296.135 204.585 297.188 202.916C297.188 202.916 293.524 201.719 290.477 199.471C287.43 197.221 282.642 193.051 280.757 192.29C278.87 191.527 275.969 191.057 275.969 191.057C275.969 191.057 277.274 183.258 277.637 179.994C278.001 176.729 277.893 175.641 277.893 175.641C277.893 175.641 282.498 168.315 280.322 162.185L265.488 165.74C265.488 165.74 263.964 172.414 263.71 177.492C263.457 182.569 265.886 191.564 267.446 194.865C269.006 198.164 271.871 198.999 274.047 199.978C276.224 200.958 296.498 213.291 296.498 213.291C296.498 213.291 297.476 214.226 297.331 212.905Z" fill="#0F57AF"/>
<path d="M274.047 199.978C274.124 200.013 274.227 200.063 274.346 200.125V200.124C273.767 197.403 275.401 194.386 279.095 193.492C280.174 193.231 281.318 193.184 282.399 193.248C281.741 192.799 281.177 192.458 280.757 192.29C278.87 191.527 275.969 191.056 275.969 191.056C275.969 191.056 277.274 183.258 277.637 179.994C278.001 176.729 277.892 175.641 277.892 175.641C277.892 175.641 277.933 175.575 278.006 175.452C275.663 176.658 272.327 176.45 272.327 176.45C272.327 176.45 271.468 182.17 270.037 184.375C268.608 186.58 267.357 187.652 268.43 193.221C268.709 194.676 268.814 195.894 268.816 196.905C270.385 198.587 272.41 199.242 274.047 199.978Z" fill="#003E96"/>
<path d="M266.911 125.418L265.385 126.773C265.385 126.773 260.395 131.128 259.847 131.675C259.298 132.224 258.021 135.613 257.969 136.056C257.917 136.499 259.142 142.809 259.377 144.061C259.613 145.312 260.994 149.328 262.219 152.091C263.444 154.856 263.523 156.472 263.576 158.48C263.629 160.487 264.91 165.592 264.91 166.12C264.91 166.649 265.439 167.389 266.495 167.389C267.552 167.389 275.473 167.072 279.542 164.325C283.607 161.578 286.935 158.515 286.302 157.195C285.667 155.875 280.966 149.061 280.966 147.846C280.966 146.631 282.233 139.66 282.762 136.491C283.29 133.322 283.081 128.833 282.762 126.298C282.446 123.762 279.806 122.168 277.058 121.385C274.312 120.603 266.911 125.418 266.911 125.418Z" fill="#E6F6FF"/>
<path d="M265.915 149.536C263.274 145.206 264.383 144.256 264.654 140.981C264.831 138.859 261.36 140.264 258.895 141.515C259.109 142.656 259.3 143.642 259.378 144.061C259.613 145.312 260.994 149.328 262.22 152.091C263.444 154.856 263.524 156.472 263.576 158.48C263.629 160.487 264.91 165.593 264.91 166.12C264.91 166.649 265.439 167.389 266.495 167.389C266.992 167.389 269.008 167.318 271.427 166.958C270.99 161.199 267.92 152.826 265.915 149.536Z" fill="#C7DEEB"/>
<path d="M259.438 113.598C259.438 113.598 257.937 115.145 258.3 115.477C258.663 115.808 259.548 116.487 259.548 116.487C259.548 116.487 259.816 117.372 259.879 118.004C259.942 118.634 259.895 121.255 261.695 121.492C263.494 121.728 264.599 121.713 265.151 122.644C265.705 123.576 265.597 126.166 265.385 126.773C265.385 126.773 266.601 126.403 267.842 126.139C269.083 125.875 273.89 125.188 275.05 122.152C275.05 122.152 273.44 119.326 273.863 117.979C274.286 116.633 276.213 112.751 274.867 109.555C273.52 106.36 269.585 105.013 266.548 104.881C263.511 104.749 259.972 107.469 259.602 109.159C259.234 110.85 259.078 113.24 259.438 113.598Z" fill="#FFCDA8"/>
<path d="M267.287 117.821C267.287 117.821 266.441 117.821 266.362 118.164C266.283 118.508 265.762 119.748 263.906 120.937C263.292 121.331 262.63 121.493 262.018 121.533C263.628 121.731 264.634 121.77 265.151 122.644C265.705 123.577 265.597 126.167 265.385 126.774C265.385 126.774 266.601 126.403 267.842 126.14C268.169 126.07 268.743 125.971 269.434 125.807C269.058 122.686 267.287 117.821 267.287 117.821Z" fill="#D9A782"/>
<path d="M259.471 107.786C259.194 108.284 259.417 109.344 260.527 110.11C261.636 110.876 262.56 112.381 262.665 113.2C262.772 114.018 263.959 117.24 266.257 117.24C266.257 117.24 267.999 118.085 268.119 118.653C268.238 119.221 268.475 120.435 270.034 120.567C271.592 120.699 273.893 119.349 273.856 119.117C273.818 118.883 274.206 117.038 274.55 116.558C274.893 116.078 276.477 111.405 274.762 108.816C273.045 106.228 270.536 104.776 267.236 104.406C263.934 104.036 260.355 106.189 259.471 107.786Z" fill="#5B5B5B"/>
<path d="M273.856 119.117C273.818 118.883 274.206 117.038 274.55 116.558C274.594 116.496 274.659 116.363 274.735 116.176C273.541 116.643 271.972 117.007 270.694 116.923C269.2 116.825 264.851 114.648 262.728 113.499C263.01 114.61 264.182 117.24 266.257 117.24C266.257 117.24 268 118.085 268.12 118.653C268.238 119.221 268.476 120.435 270.034 120.567C271.592 120.699 273.892 119.349 273.856 119.117Z" fill="url(#paint49_linear_255_7311)"/>
<path d="M234.425 153.368C234.435 153.535 234.581 157.279 235.652 158.087C235.652 158.087 245.844 157.358 248.037 157.045C250.226 156.731 252.626 154.307 253.329 153.368C254.032 152.43 261.098 145.207 261.776 144.347C262.454 143.486 264.984 141.426 264.619 137.88C264.253 134.335 261.567 131.127 259.848 131.674C258.125 132.222 255.962 134.543 254.919 137.176C253.876 139.81 253.146 141.714 253.146 141.714C253.146 141.714 251.242 143.303 250.12 145.155C249.001 147.007 246.757 150.239 246.471 150.37C246.183 150.5 241.908 151.075 240.787 151.57C239.666 152.065 234.425 153.368 234.425 153.368Z" fill="#E6F6FF"/>
<path d="M252.36 154.447C252.007 154.415 251.622 154.475 251.294 154.621C250.12 155.143 245.454 155.481 242.143 156.029C239.774 156.42 236.593 156.758 234.973 156.919C235.141 157.438 235.363 157.87 235.652 158.088C235.652 158.088 245.844 157.358 248.037 157.045C249.604 156.822 251.278 155.516 252.36 154.447Z" fill="#C7DEEB"/>
<path d="M265.728 117.595C265.703 117.161 265.781 116.422 266.574 116.579C267.366 116.739 267.999 117.979 267.552 119.221C267.103 120.462 265.652 120.381 265.762 119.747C265.872 119.114 265.728 117.595 265.728 117.595Z" fill="#FFCDA8"/>
</g>




<path opacity="0.3" d="M95.795 55.0196C55.9388 78.0313 55.9389 115.34 95.7946 138.352C135.651 161.364 200.27 161.364 240.126 138.352C279.983 115.34 279.983 78.0317 240.126 55.0199C200.271 32.0086 135.651 32.0082 95.795 55.0196ZM101.537 58.3348C138.222 37.1542 197.7 37.1542 234.385 58.3348C271.07 79.5158 271.07 113.856 234.385 135.037C197.7 156.218 138.222 156.218 101.537 135.037C64.851 113.856 64.851 79.5158 101.537 58.3348Z" fill="url(#paint50_linear_255_7311)"/>
<path d="M245.366 31.4621C242.344 29.718 238.385 28.8451 234.425 28.8458C230.465 28.8458 226.506 29.718 223.484 31.4621C220.463 33.2062 218.952 35.4928 218.952 37.7787V41.5868C218.952 43.8734 220.463 46.1593 223.484 47.9034C226.506 49.6486 230.465 50.5204 234.425 50.5204C238.385 50.5204 242.345 49.6486 245.366 47.9034C248.387 46.1593 249.898 43.8734 249.898 41.5868V37.7787C249.898 35.4928 248.387 33.2062 245.366 31.4621Z" fill="#C7DEEB"/>
<path d="M234.425 28.8458C230.465 28.8458 226.506 29.718 223.484 31.4621C220.463 33.2062 218.952 35.4928 218.952 37.7787C218.952 40.0653 220.463 42.3509 223.484 44.0961C226.506 45.8394 230.465 46.7124 234.425 46.7124C238.385 46.7124 242.345 45.8398 245.366 44.0961C248.387 42.3513 249.898 40.0653 249.898 37.7787C249.898 35.4928 248.387 33.2062 245.366 31.4621C242.344 29.7177 238.385 28.8451 234.425 28.8458Z" fill="white"/>
<path d="M304.408 89.6733C302.68 88.6756 300.416 88.1764 298.152 88.1768C295.887 88.1768 293.622 88.6756 291.895 89.6733C290.167 90.6706 289.303 91.9784 289.303 93.2858V95.4635C289.303 96.7709 290.167 98.0783 291.895 99.076C293.622 100.074 295.887 100.573 298.152 100.573C300.416 100.573 302.68 100.074 304.408 99.076C306.136 98.0787 307 96.7713 307 95.4635V93.2858C307.001 91.9787 306.137 90.6706 304.408 89.6733Z" fill="#C7DEEB"/>
<path d="M298.151 88.1772C295.886 88.1772 293.622 88.6761 291.894 89.6738C290.166 90.6711 289.302 91.9789 289.302 93.2863C289.302 94.5941 290.166 95.9011 291.894 96.8992C293.622 97.8965 295.886 98.3957 298.151 98.3957C300.415 98.3957 302.68 97.8965 304.408 96.8992C306.136 95.9011 307 94.5941 307 93.2863C307 91.9789 306.136 90.6711 304.408 89.6738C302.68 88.6757 300.415 88.1769 298.151 88.1772Z" fill="white"/>
<path d="M31.7283 145.971C30.4296 145.221 28.7285 144.847 27.0274 144.847C25.3255 144.847 23.6243 145.221 22.326 145.971C21.0276 146.721 20.3784 147.703 20.3784 148.685V150.322C20.3784 151.304 21.0276 152.287 22.326 153.036C23.6243 153.786 25.3255 154.161 27.0274 154.161C28.7285 154.161 30.43 153.786 31.7283 153.036C33.0267 152.287 33.6759 151.304 33.6759 150.322V148.685C33.6755 147.703 33.0263 146.721 31.7283 145.971Z" fill="#C7DEEB"/>
<path d="M27.0268 144.847C25.3249 144.847 23.6238 145.221 22.3255 145.971C21.0271 146.72 20.3779 147.703 20.3779 148.685C20.3779 149.668 21.0271 150.65 22.3255 151.4C23.6238 152.149 25.3249 152.524 27.0268 152.524C28.7279 152.524 30.4295 152.149 31.7278 151.4C33.0262 150.65 33.6754 149.668 33.6754 148.685C33.6754 147.703 33.0262 146.72 31.7278 145.971C30.4295 145.221 28.7279 144.846 27.0268 144.847Z" fill="white"/>


<g class="el1">
<path d="M191.07 150.021L156.701 130.178C152.824 127.94 149.682 121.935 149.682 116.766V25.2393C149.682 22.6107 147.521 22.0294 148.83 21.0852C148.88 21.0492 154.074 18.7199 154.131 18.6982C155.54 18.1586 157.047 17.9182 158.877 18.9746L193.246 38.817C197.123 41.0554 200.265 47.0598 200.265 52.2288V143.755C200.265 146.502 199.378 148.46 197.965 149.356C197.881 149.409 192.068 152.097 191.975 152.128C190.722 152.546 192.764 150.999 191.07 150.021Z" fill="#AFB6E5"/>
<path d="M191.07 150.021L156.701 130.178C152.824 127.94 149.682 121.935 149.682 116.766V25.2393C149.682 22.6106 147.521 22.0294 148.83 21.0851C148.88 21.0492 153.99 18.7514 154.047 18.7294C155.456 18.1897 156.963 17.9493 158.793 19.0057L193.161 38.8481C197.038 41.0865 200.181 47.0909 200.181 52.2599V143.787C200.181 146.533 199.293 148.491 197.88 149.387C197.797 149.44 192.068 152.096 191.975 152.127C190.722 152.546 192.764 150.999 191.07 150.021Z" fill="url(#paint51_linear_255_7311)"/>
<path d="M191.07 150.02L156.701 130.178C152.824 127.939 149.682 121.935 149.682 116.766V25.239C149.682 22.6104 147.521 22.0291 148.83 21.0849C148.88 21.0489 153.905 18.7824 153.962 18.7607C155.371 18.2211 156.878 17.9807 158.708 19.0371L193.076 38.8795C196.953 41.1179 200.096 47.1223 200.096 52.2912V143.818C200.096 146.565 199.208 148.523 197.796 149.419C197.712 149.472 192.068 152.097 191.975 152.128C190.722 152.545 192.764 150.999 191.07 150.02Z" fill="url(#paint52_linear_255_7311)"/>
<path d="M191.07 150.02L156.701 130.178C152.824 127.94 149.682 121.935 149.682 116.766V25.2391C149.682 22.6105 147.521 22.0292 148.83 21.085C148.88 21.0491 153.82 18.8141 153.877 18.7925C155.286 18.2528 156.794 18.0124 158.624 19.0688L192.992 38.9112C196.869 41.1496 200.011 47.1541 200.011 52.3234V143.85C200.011 146.597 199.124 148.555 197.711 149.451C197.627 149.504 192.068 152.097 191.974 152.128C190.722 152.546 192.764 150.999 191.07 150.02Z" fill="url(#paint53_linear_255_7311)"/>
<path d="M191.07 150.02L156.701 130.178C152.824 127.94 149.682 121.935 149.682 116.766V25.2392C149.682 22.6105 147.521 22.0293 148.83 21.0851C148.88 21.0491 153.736 18.8454 153.793 18.8237C155.201 18.284 156.709 18.0437 158.539 19.1001L192.907 38.9425C196.784 41.1809 199.927 47.1853 199.927 52.3547V143.881C199.927 146.628 199.039 148.586 197.626 149.482C197.543 149.535 192.068 152.097 191.975 152.128C190.722 152.546 192.764 150.999 191.07 150.02Z" fill="url(#paint54_linear_255_7311)"/>
<path d="M191.07 150.021L156.701 130.178C152.824 127.94 149.682 121.935 149.682 116.766V25.2394C149.682 22.6108 147.521 22.0295 148.83 21.0853C148.88 21.0494 153.651 18.8772 153.708 18.8556C155.117 18.3159 156.624 18.0755 158.454 19.1319L192.822 38.9743C196.699 41.2127 199.841 47.2172 199.841 52.3865V143.913C199.841 146.66 198.954 148.618 197.541 149.514C197.457 149.567 192.067 152.097 191.974 152.128C190.722 152.546 192.764 150.999 191.07 150.021Z" fill="url(#paint55_linear_255_7311)"/>
<path d="M191.07 150.021L156.701 130.178C152.824 127.94 149.682 121.936 149.682 116.766V25.2395C149.682 22.6109 147.521 22.0296 148.83 21.0854C148.88 21.0494 153.566 18.9085 153.623 18.8868C155.032 18.3472 156.539 18.1068 158.369 19.1632L192.738 39.0056C196.614 41.244 199.757 47.2484 199.757 52.4178V143.944C199.757 146.691 198.87 148.649 197.456 149.545C197.373 149.598 192.068 152.097 191.974 152.128C190.722 152.546 192.764 150.999 191.07 150.021Z" fill="url(#paint56_linear_255_7311)"/>
<path d="M191.07 150.02L156.701 130.178C152.824 127.94 149.682 121.935 149.682 116.766V25.2391C149.682 22.6105 147.521 22.0292 148.83 21.085C148.88 21.0491 153.482 18.9397 153.538 18.9181C154.947 18.3784 156.455 18.138 158.284 19.1944L192.653 39.0368C196.53 41.2752 199.672 47.2797 199.672 52.449V143.976C199.672 146.722 198.785 148.68 197.372 149.576C197.288 149.63 192.068 152.097 191.974 152.128C190.722 152.546 192.764 150.999 191.07 150.02Z" fill="url(#paint57_linear_255_7311)"/>
<path d="M191.07 150.02L156.701 130.178C152.824 127.94 149.682 121.935 149.682 116.766V25.2392C149.682 22.6106 147.521 22.0293 148.83 21.0851C148.88 21.0491 153.397 18.971 153.454 18.9493C154.863 18.4097 156.37 18.1693 158.2 19.2257L192.568 39.0681C196.445 41.3065 199.588 47.3109 199.588 52.4803V144.007C199.588 146.753 198.7 148.712 197.288 149.608C197.204 149.661 192.068 152.097 191.975 152.128C190.722 152.546 192.764 150.999 191.07 150.02Z" fill="url(#paint58_linear_255_7311)"/>
<path d="M191.07 150.021L156.701 130.178C152.824 127.94 149.682 121.935 149.682 116.766V25.2393C149.682 22.6107 147.521 22.0294 148.83 21.0852C148.88 21.0492 153.312 19.0027 153.369 18.9811C154.778 18.4414 156.285 18.201 158.115 19.2574L192.483 39.0998C196.36 41.3382 199.503 47.3426 199.503 52.512V144.039C199.503 146.785 198.615 148.743 197.202 149.639C197.119 149.693 192.068 152.097 191.974 152.128C190.722 152.546 192.764 150.999 191.07 150.021Z" fill="url(#paint59_linear_255_7311)"/>
<path d="M191.07 150.021L156.701 130.178C152.824 127.94 149.682 121.935 149.682 116.766V25.2394C149.682 22.6107 147.521 22.0295 148.83 21.0853C148.88 21.0493 153.227 19.034 153.284 19.0123C154.693 18.4726 156.201 18.2323 158.031 19.2887L192.399 39.1311C196.276 41.3695 199.419 47.3739 199.419 52.5433V144.07C199.419 146.816 198.531 148.775 197.118 149.671C197.035 149.724 192.068 152.097 191.975 152.128C190.722 152.546 192.764 150.999 191.07 150.021Z" fill="url(#paint60_linear_255_7311)"/>
<path d="M191.07 150.02L156.701 130.178C152.824 127.939 149.682 121.935 149.682 116.766V25.239C149.682 22.6104 147.521 22.0291 148.83 21.0849C148.88 21.0489 153.143 19.0652 153.2 19.0436C154.609 18.5039 156.116 18.2635 157.946 19.3199L192.314 39.1623C196.191 41.4007 199.334 47.4051 199.334 52.5741V144.101C199.334 146.848 198.446 148.806 197.033 149.702C196.95 149.755 192.068 152.097 191.975 152.128C190.722 152.545 192.764 150.999 191.07 150.02Z" fill="url(#paint61_linear_255_7311)"/>
<path d="M191.07 150.02L156.701 130.178C152.824 127.94 149.682 121.935 149.682 116.766V25.2391C149.682 22.6104 147.521 22.0292 148.83 21.085C148.88 21.049 153.058 19.0965 153.115 19.0748C154.524 18.5351 156.031 18.2948 157.861 19.3512L192.229 39.1936C196.106 41.432 199.249 47.4364 199.249 52.6053V144.132C199.249 146.878 198.361 148.837 196.948 149.733C196.865 149.786 192.068 152.096 191.975 152.127C190.722 152.545 192.764 150.999 191.07 150.02Z" fill="url(#paint62_linear_255_7311)"/>
<path d="M191.07 150.021L156.701 130.178C152.824 127.94 149.682 121.935 149.682 116.766V25.2393C149.682 22.6107 147.521 22.0294 148.83 21.0852C148.88 21.0493 152.973 19.1283 153.03 19.1067C154.439 18.567 155.946 18.3266 157.777 19.383L192.145 39.2254C196.022 41.4638 199.165 47.4683 199.165 52.6376V144.164C199.165 146.911 198.277 148.869 196.864 149.765C196.781 149.818 192.069 152.097 191.975 152.128C190.722 152.546 192.764 150.999 191.07 150.021Z" fill="url(#paint63_linear_255_7311)"/>
<path d="M191.07 150.021L156.701 130.178C152.824 127.94 149.682 121.935 149.682 116.766V25.2394C149.682 22.6107 147.521 22.0295 148.83 21.0853C148.88 21.0493 152.889 19.1596 152.945 19.1379C154.354 18.5983 155.862 18.3579 157.692 19.4143L192.06 39.2567C195.937 41.4951 199.079 47.4995 199.079 52.6684V144.195C199.079 146.942 198.191 148.9 196.779 149.796C196.695 149.849 192.068 152.097 191.974 152.128C190.722 152.546 192.764 150.999 191.07 150.021Z" fill="url(#paint64_linear_255_7311)"/>
<path d="M191.07 150.021L156.701 130.178C152.824 127.94 149.682 121.936 149.682 116.766V25.2395C149.682 22.6109 147.521 22.0296 148.83 21.0854C148.88 21.0494 152.804 19.1913 152.861 19.1697C154.27 18.63 155.777 18.3896 157.607 19.446L191.975 39.2884C195.852 41.5268 198.994 47.5312 198.994 52.7002V144.227C198.994 146.974 198.107 148.931 196.694 149.828C196.611 149.881 192.068 152.097 191.975 152.128C190.722 152.546 192.764 150.999 191.07 150.021Z" fill="url(#paint65_linear_255_7311)"/>
<path d="M191.07 150.02L156.701 130.178C152.824 127.94 149.682 121.935 149.682 116.766V25.2391C149.682 22.6104 147.521 22.0292 148.83 21.085C148.88 21.049 152.719 19.2221 152.776 19.2004C154.185 18.6607 155.692 18.4204 157.522 19.4768L191.89 39.3192C195.767 41.5576 198.91 47.562 198.91 52.7314V144.258C198.91 147.005 198.023 148.963 196.61 149.859C196.526 149.912 192.068 152.097 191.975 152.128C190.722 152.545 192.764 150.999 191.07 150.02Z" fill="url(#paint66_linear_255_7311)"/>
<path d="M191.07 150.02L156.701 130.178C152.824 127.94 149.682 121.935 149.682 116.766V25.2392C149.682 22.6106 147.521 22.0293 148.83 21.0851C148.88 21.0491 152.634 19.2538 152.691 19.2322C154.1 18.6925 155.607 18.4521 157.437 19.5085L191.805 39.3509C195.682 41.5893 198.825 47.5937 198.825 52.7631V144.29C198.825 147.036 197.937 148.994 196.524 149.891C196.441 149.943 192.067 152.097 191.974 152.128C190.722 152.546 192.764 150.999 191.07 150.02Z" fill="url(#paint67_linear_255_7311)"/>
<path d="M191.07 150.021L156.701 130.178C152.824 127.94 149.682 121.935 149.682 116.766V25.2393C149.682 22.6106 147.521 22.0294 148.83 21.0851C148.88 21.0492 152.55 19.2851 152.607 19.2634C154.016 18.7237 155.523 18.4834 157.353 19.5397L191.721 39.3822C195.598 41.6206 198.74 47.625 198.74 52.7944V144.321C198.74 147.067 197.853 149.026 196.44 149.922C196.356 149.975 192.068 152.097 191.974 152.128C190.722 152.546 192.764 150.999 191.07 150.021Z" fill="url(#paint68_linear_255_7311)"/>
<path d="M191.07 150.02L156.701 130.178C152.824 127.939 149.682 121.935 149.682 116.766V25.2389C149.682 22.6103 147.521 22.029 148.83 21.0848C148.88 21.0488 152.465 19.3163 152.522 19.2947C153.931 18.755 155.438 18.5146 157.268 19.571L191.636 39.4134C195.513 41.6518 198.655 47.6563 198.655 52.8256V144.352C198.655 147.099 197.768 149.057 196.355 149.953C196.271 150.006 192.068 152.097 191.974 152.128C190.722 152.545 192.764 150.999 191.07 150.02Z" fill="url(#paint69_linear_255_7311)"/>
<path d="M191.07 150.021L156.701 130.178C152.824 127.94 149.682 121.936 149.682 116.766V25.2396C149.682 22.6109 147.521 22.0297 148.83 21.0855C148.88 21.0495 152.38 19.3482 152.437 19.3265C153.846 18.7868 155.353 18.5465 157.183 19.6029L191.552 39.4453C195.429 41.6837 198.571 47.6881 198.571 52.8575V144.384C198.571 147.131 197.684 149.089 196.271 149.985C196.187 150.038 192.068 152.097 191.975 152.128C190.722 152.546 192.764 150.999 191.07 150.021Z" fill="url(#paint70_linear_255_7311)"/>
<path d="M191.07 150.02L156.701 130.178C152.824 127.94 149.682 121.935 149.682 116.766V25.2392C149.682 22.6106 147.521 22.0293 148.83 21.0851C148.88 21.0491 152.296 19.3794 152.352 19.3578C153.761 18.8181 155.269 18.5777 157.099 19.6341L191.467 39.4765C195.344 41.7149 198.486 47.7194 198.486 52.8887V144.415C198.486 147.162 197.599 149.12 196.186 150.016C196.103 150.069 192.068 152.097 191.975 152.128C190.722 152.546 192.764 150.999 191.07 150.02Z" fill="url(#paint71_linear_255_7311)"/>
<path d="M187.789 151.572L153.421 131.729C149.544 129.491 146.401 123.486 146.401 118.317V26.7904C146.401 21.6214 149.544 19.2457 153.421 21.4837L187.789 41.3261C191.666 43.5645 194.808 49.569 194.808 54.7379V146.265C194.808 151.434 191.665 153.81 187.789 151.572Z" fill="white"/>
<path d="M190.576 151.719C189.819 151.719 188.998 151.467 188.137 150.969L153.768 131.127C150.09 129.003 147.097 123.257 147.097 118.318V26.7909C147.097 23.4783 148.485 21.3374 150.634 21.3374C151.392 21.3374 152.212 21.589 153.073 22.0863L187.442 41.9291C191.12 44.0532 194.113 49.799 194.113 54.7384V146.266C194.113 149.579 192.724 151.719 190.576 151.719Z" fill="url(#paint72_linear_255_7311)"/>
<path d="M148.726 119.484V28.3082C148.726 24.5153 151.032 22.772 153.876 24.4144L187.333 43.7306C190.178 45.373 192.484 49.7792 192.484 53.5721V144.747C192.484 148.54 190.178 150.284 187.333 148.641L153.876 129.325C151.032 127.683 148.726 123.276 148.726 119.484Z" fill="#AFB6E5"/>
<path d="M154.264 25.4226C151.583 23.8746 149.41 25.1138 149.41 28.1903V120.391C149.41 123.467 151.583 127.216 154.264 128.764L186.946 147.633C189.627 149.181 191.8 147.942 191.8 144.865V52.6646C191.8 49.5881 189.627 45.8394 186.946 44.2914L154.264 25.4226Z" fill="url(#paint73_linear_255_7311)"/>
<g opacity="0.5">
<path opacity="0.0909" d="M153.637 62.5084C151.324 61.1731 149.45 62.2419 149.45 64.896V111.803C149.45 114.457 151.324 117.691 153.637 119.026L178.918 133.532C181.231 134.867 183.952 133.664 183.952 131.01V84.1024C183.952 81.4487 181.231 78.3488 178.918 77.0134L153.637 62.5084Z" fill="#AFB6E5"/>
<path opacity="0.1818" d="M153.404 62.6285C151.103 61.2998 149.237 62.3633 149.237 65.0041V111.616C149.237 114.257 151.103 117.475 153.404 118.803L178.547 133.229C180.848 134.558 183.476 133.373 183.476 130.733V84.1208C183.476 81.48 180.849 78.3828 178.547 77.0541L153.404 62.6285Z" fill="#AFB6E5"/>
<path opacity="0.2727" d="M153.171 62.748C150.881 61.426 149.024 62.4841 149.024 65.112V111.428C149.024 114.056 150.881 117.258 153.171 118.58L178.175 132.926C180.465 134.248 182.999 133.083 182.999 130.455V84.1387C182.999 81.5109 180.465 78.4159 178.175 77.0939L153.171 62.748Z" fill="#AFB6E5"/>
<path opacity="0.3636" d="M152.938 62.8682C150.66 61.5525 148.812 62.6057 148.812 65.2207V111.241C148.812 113.856 150.66 117.042 152.938 118.358L177.805 132.624C180.084 133.939 182.523 132.792 182.523 130.178V84.1573C182.523 81.5424 180.084 78.4501 177.805 77.1344L152.938 62.8682Z" fill="#AFB6E5"/>
<path opacity="0.4545" d="M152.705 62.9878C150.438 61.6787 148.6 62.7266 148.6 65.3286V111.054C148.6 113.655 150.438 116.826 152.705 118.134L177.434 132.321C179.701 133.63 182.047 132.501 182.047 129.9V84.1748C182.047 81.5732 179.701 78.4832 177.434 77.1741L152.705 62.9878Z" fill="#AFB6E5"/>
<path opacity="0.5455" d="M152.473 63.1089C150.216 61.8066 148.388 62.8491 148.388 65.4377V110.867C148.388 113.456 150.216 116.61 152.473 117.913L177.063 132.019C179.319 133.322 181.571 132.212 181.571 129.623V84.1939C181.571 81.6052 179.319 78.5174 177.063 77.215L152.473 63.1089Z" fill="#AFB6E5"/>
<path opacity="0.6364" d="M152.24 63.2281C149.995 61.9319 148.175 62.9695 148.175 65.5453V110.679C148.175 113.254 149.995 116.393 152.24 117.689L176.692 131.716C178.936 133.012 181.095 131.921 181.095 129.345V84.2114C181.095 81.6357 178.937 78.5505 176.692 77.2548L152.24 63.2281Z" fill="#AFB6E5"/>
<path opacity="0.7273" d="M152.007 63.3482C149.773 62.0588 147.963 63.091 147.963 65.6538V110.492C147.963 113.055 149.773 116.177 152.007 117.467L176.32 131.414C178.554 132.703 180.618 131.631 180.618 129.068V84.2299C180.618 81.6671 178.554 78.5846 176.32 77.2952L152.007 63.3482Z" fill="#AFB6E5"/>
<path opacity="0.8182" d="M151.774 63.4676C149.552 62.1849 147.75 63.2118 147.75 65.7613V110.304C147.75 112.854 149.552 115.961 151.774 117.243L175.949 131.111C178.171 132.393 180.142 131.34 180.142 128.79V84.2473C180.142 81.6974 178.172 78.6176 175.949 77.3344L151.774 63.4676Z" fill="#AFB6E5"/>
<path opacity="0.9091" d="M151.54 63.5885C149.33 62.312 147.538 63.334 147.538 65.8705V110.117C147.538 112.654 149.33 115.745 151.54 117.021L175.578 130.808C177.788 132.085 179.665 131.05 179.665 128.513V84.2665C179.665 81.73 177.788 78.652 175.578 77.3759L151.54 63.5885Z" fill="#AFB6E5"/>
<path d="M151.308 63.708C149.108 62.4382 147.325 63.4549 147.325 65.9785V109.929C147.325 112.453 149.108 115.528 151.308 116.798L175.207 130.506C177.406 131.776 179.189 130.759 179.189 128.235V84.2845C179.189 81.7609 177.406 78.6855 175.207 77.4157L151.308 63.708Z" fill="#AFB6E5"/>
</g>
<path opacity="0.95" d="M143.227 58.3142C140.326 56.6393 137.975 57.98 137.975 61.3089V103.961C137.975 107.29 140.326 111.346 143.227 113.021L175.228 131.307C178.13 132.982 180.481 131.641 180.481 128.312V85.6605C180.481 82.3315 178.13 78.2752 175.228 76.6002L143.227 58.3142Z" fill="url(#paint74_linear_255_7311)"/>
<path d="M175.228 76.6002L143.227 58.3142C140.326 56.6393 137.975 57.98 137.975 61.3089V61.817C137.975 58.4881 140.326 57.1474 143.227 58.8223L175.228 77.1087C178.13 78.7837 180.481 82.8401 180.481 86.169V85.6609C180.482 82.3315 178.13 78.2751 175.228 76.6002Z" fill="url(#paint75_radial_255_7311)"/>
<path opacity="0.3" d="M179.237 88.0721C179.317 88.0721 179.395 88.0302 179.438 87.9553C179.503 87.8439 179.465 87.7012 179.354 87.6362L139.666 64.9008C139.555 64.8361 139.412 64.8736 139.347 64.9859C139.282 65.0973 139.321 65.2404 139.432 65.305L179.119 88.0404C179.156 88.0618 179.196 88.0721 179.237 88.0721Z" fill="#AFB6E5"/>
<path opacity="0.3" d="M179.237 94.3004C179.317 94.3004 179.395 94.2585 179.438 94.1837C179.503 94.0722 179.465 93.9296 179.354 93.8645L139.666 71.1287C139.555 71.064 139.412 71.1015 139.347 71.2138C139.282 71.3252 139.321 71.4678 139.432 71.5329L179.119 94.2688C179.156 94.2906 179.196 94.3004 179.237 94.3004Z" fill="#AFB6E5"/>
<path opacity="0.3" d="M179.237 100.372C179.317 100.372 179.395 100.33 179.438 100.256C179.503 100.144 179.465 100.001 179.354 99.9365L139.666 77.2006C139.555 77.1364 139.412 77.1734 139.347 77.2857C139.282 77.3972 139.321 77.5402 139.432 77.6049L179.119 100.341C179.156 100.362 179.196 100.372 179.237 100.372Z" fill="#AFB6E5"/>
<path opacity="0.3" d="M179.237 106.599C179.317 106.599 179.395 106.557 179.438 106.483C179.503 106.371 179.465 106.228 179.354 106.164L139.666 83.4282C139.555 83.3636 139.412 83.401 139.347 83.5134C139.282 83.6248 139.321 83.7679 139.432 83.8325L179.119 106.568C179.156 106.589 179.196 106.599 179.237 106.599Z" fill="#AFB6E5"/>
<path opacity="0.3" d="M179.237 112.593C179.317 112.593 179.395 112.551 179.438 112.477C179.503 112.365 179.465 112.222 179.354 112.158L139.666 89.4222C139.555 89.3576 139.412 89.3951 139.347 89.5074C139.282 89.6188 139.321 89.7614 139.432 89.8265L179.119 112.562C179.156 112.583 179.196 112.593 179.237 112.593Z" fill="#AFB6E5"/>
<path opacity="0.3" d="M179.237 118.821C179.317 118.821 179.395 118.779 179.438 118.705C179.503 118.593 179.465 118.45 179.354 118.385L139.666 95.6495C139.555 95.5849 139.412 95.6223 139.347 95.7347C139.282 95.8461 139.321 95.9887 139.432 96.0538L179.119 118.79C179.156 118.811 179.196 118.821 179.237 118.821Z" fill="#AFB6E5"/>
<path opacity="0.3" d="M179.237 124.97C179.317 124.97 179.395 124.928 179.438 124.854C179.503 124.742 179.465 124.599 179.354 124.535L139.666 101.799C139.555 101.735 139.412 101.772 139.347 101.884C139.282 101.996 139.321 102.138 139.432 102.203L179.119 124.939C179.156 124.96 179.196 124.97 179.237 124.97Z" fill="#AFB6E5"/>
<path opacity="0.95" d="M170.325 78.705L167.146 76.8696V120.877L170.325 122.713V78.705ZM174.903 85.7249L171.725 83.8895V123.009L174.903 124.844V85.7249ZM157.721 72.7468V115.334L160.9 117.17V74.5822L157.721 72.7468ZM165.612 85.3705L162.434 83.5351V118.027L165.612 119.862V85.3705ZM156.186 76.8478L153.007 75.0123V112.492L156.186 114.328V76.8478ZM143.582 79.2443V106.949L146.76 108.785V81.0797L143.582 79.2443ZM151.473 77.2128L148.294 75.3774V109.642L151.473 111.478V77.2128Z" fill="#2066C7"/>
<path d="M170.325 81.0051L167.146 79.1697V120.877L170.325 122.712V81.0051ZM174.903 95.8756L171.725 94.0402V123.48L174.903 125.315V95.8756ZM157.721 80.1632V115.334L160.9 117.17V81.9986L157.721 80.1632ZM165.612 95.0118L162.434 93.1764V118.027L165.612 119.863V95.0118ZM156.186 82.0476L153.007 80.2122V112.492L156.186 114.327V82.0476ZM143.582 84.5578V106.949L146.76 108.785V86.3932L143.582 84.5578ZM151.473 91.932L148.294 90.0966V109.642L151.473 111.477V91.932Z" fill="url(#paint76_linear_255_7311)"/>
<path d="M174.903 96.2733L171.725 94.4379V94.0408L174.903 95.8757V96.2733Z" fill="#58595B"/>
<path d="M170.325 81.4025L167.146 79.5675V79.1704L170.325 81.0054V81.4025Z" fill="#58595B"/>
<path d="M151.473 92.3293L148.294 90.4943V90.0972L151.473 91.9321V92.3293Z" fill="#58595B"/>
<path d="M156.186 82.4448L153.007 80.6094V80.2123L156.186 82.0477V82.4448Z" fill="#58595B"/>
<path d="M146.76 86.3934V86.7905L143.582 84.9551V84.558L146.76 86.3934Z" fill="#58595B"/>
<path d="M165.612 95.4095L162.434 93.5746V93.177L165.612 95.0124V95.4095Z" fill="#58595B"/>
<path d="M160.9 82.3954L157.721 80.5604V80.1633L160.9 81.9983V82.3954Z" fill="#58595B"/>
<path d="M150.322 128.68C140.767 123.163 133.021 109.803 133.021 98.8386C133.021 87.8742 140.767 83.4577 150.322 88.9742C159.877 94.4912 167.624 107.852 167.624 118.816C167.624 129.78 159.878 134.197 150.322 128.68Z" fill="url(#paint77_radial_255_7311)"/>
<path d="M145.309 111.828V133.672C136.898 128.816 129.803 118.805 127.204 108.125L145.309 111.828Z" fill="url(#paint78_linear_255_7311)"/>
<path d="M145.309 133.672L147.011 132.679L146.982 111.077L145.309 111.828V133.672Z" fill="#E38C26"/>
<path d="M127.204 108.125L128.906 107.132L147.011 110.834L145.309 111.827L127.204 108.125Z" fill="#E38C26"/>
<path d="M161.334 112.867C158.872 102.751 150.735 93.2947 143.158 91.745C140.881 91.2797 138.917 91.5855 137.346 92.5099L137.335 92.4934L135.137 94.1246L135.284 94.3626C133.187 97.1251 132.548 101.712 133.897 107.256L144.606 109.446L147.616 114.315V126.613C149.209 127.533 150.558 128.067 152.073 128.377C153.622 128.694 155.025 128.65 156.261 128.302L156.487 128.667C156.487 128.667 158.596 127.143 158.856 126.921L159.182 126.681L159.159 126.646C161.871 124.049 162.84 119.053 161.334 112.867Z" fill="url(#paint79_linear_255_7311)"/>
<path d="M145.913 111.338L132.195 108.533C129.733 98.4171 133.879 91.473 141.456 93.0227C149.033 94.572 157.171 104.028 159.632 114.144C162.094 124.26 157.948 131.204 150.371 129.654C148.856 129.345 147.507 128.811 145.913 127.891V111.338Z" fill="url(#paint80_linear_255_7311)"/>
<path d="M159.746 114.03C157.284 103.914 149.146 94.4584 141.57 92.9087C140.31 92.651 139.147 92.6332 138.091 92.8209C139.012 92.7175 140.007 92.762 141.073 92.9795C148.65 94.5292 156.788 103.985 159.249 114.101C161.302 122.534 158.759 128.759 153.466 129.699C159.094 129.068 161.861 122.723 159.746 114.03Z" fill="url(#paint81_radial_255_7311)"/>
</g>

<defs>
<radialGradient id="paint0_radial_255_7311" cx="0" cy="0" r="1" gradientUnits="userSpaceOnUse" gradientTransform="translate(162 260.5) scale(151.5 46.5)">
<stop stop-color="#F5F9FF"/>
<stop offset="1" stop-color="#B0C7ED"/>
</radialGradient>
<linearGradient id="paint1_linear_255_7311" x1="163.358" y1="140.864" x2="163.358" y2="269.171" gradientUnits="userSpaceOnUse">
<stop stop-color="#819EC7"/>
<stop offset="1" stop-color="#819EC7" stop-opacity="0.6"/>
</linearGradient>
<linearGradient id="paint2_linear_255_7311" x1="163.357" y1="172.904" x2="163.357" y2="237.129" gradientUnits="userSpaceOnUse">
<stop stop-color="#819EC7"/>
<stop offset="1" stop-color="#819EC7" stop-opacity="0.6"/>
</linearGradient>
<linearGradient id="paint3_linear_255_7311" x1="241.699" y1="163.828" x2="241.699" y2="246.897" gradientUnits="userSpaceOnUse">
<stop stop-color="#819EC7"/>
<stop offset="1" stop-color="#819EC7" stop-opacity="0.6"/>
</linearGradient>
<linearGradient id="paint4_linear_255_7311" x1="85.4181" y1="162.898" x2="85.4181" y2="247.797" gradientUnits="userSpaceOnUse">
<stop stop-color="#819EC7"/>
<stop offset="1" stop-color="#819EC7" stop-opacity="0.6"/>
</linearGradient>
<linearGradient id="paint5_linear_255_7311" x1="67.7793" y1="153.008" x2="67.7793" y2="164.562" gradientUnits="userSpaceOnUse">
<stop stop-color="#819EC7"/>
<stop offset="1" stop-color="#819EC7" stop-opacity="0.6"/>
</linearGradient>
<linearGradient id="paint6_linear_255_7311" x1="101.289" y1="137.637" x2="101.289" y2="147.573" gradientUnits="userSpaceOnUse">
<stop stop-color="#819EC7"/>
<stop offset="1" stop-color="#819EC7" stop-opacity="0.6"/>
</linearGradient>
<linearGradient id="paint7_linear_255_7311" x1="83.2865" y1="144.37" x2="83.2865" y2="155.294" gradientUnits="userSpaceOnUse">
<stop stop-color="#819EC7"/>
<stop offset="1" stop-color="#819EC7" stop-opacity="0.6"/>
</linearGradient>
<linearGradient id="paint8_linear_255_7311" x1="55.264" y1="163.262" x2="55.264" y2="175.098" gradientUnits="userSpaceOnUse">
<stop stop-color="#819EC7"/>
<stop offset="1" stop-color="#819EC7" stop-opacity="0.6"/>
</linearGradient>
<linearGradient id="paint9_linear_255_7311" x1="121.232" y1="133.033" x2="121.232" y2="141.665" gradientUnits="userSpaceOnUse">
<stop stop-color="#819EC7"/>
<stop offset="1" stop-color="#819EC7" stop-opacity="0.6"/>
</linearGradient>
<linearGradient id="paint10_linear_255_7311" x1="41.2877" y1="213.015" x2="41.2877" y2="224.184" gradientUnits="userSpaceOnUse">
<stop stop-color="#819EC7"/>
<stop offset="1" stop-color="#819EC7" stop-opacity="0.6"/>
</linearGradient>
<linearGradient id="paint11_linear_255_7311" x1="40.7528" y1="187.322" x2="40.7528" y2="198.588" gradientUnits="userSpaceOnUse">
<stop stop-color="#819EC7"/>
<stop offset="1" stop-color="#819EC7" stop-opacity="0.6"/>
</linearGradient>
<linearGradient id="paint12_linear_255_7311" x1="46.1592" y1="174.822" x2="46.1592" y2="186.566" gradientUnits="userSpaceOnUse">
<stop stop-color="#819EC7"/>
<stop offset="1" stop-color="#819EC7" stop-opacity="0.6"/>
</linearGradient>
<linearGradient id="paint13_linear_255_7311" x1="227.371" y1="138.365" x2="227.371" y2="148.418" gradientUnits="userSpaceOnUse">
<stop stop-color="#819EC7"/>
<stop offset="1" stop-color="#819EC7" stop-opacity="0.6"/>
</linearGradient>
<linearGradient id="paint14_linear_255_7311" x1="164.724" y1="130.383" x2="164.724" y2="136.108" gradientUnits="userSpaceOnUse">
<stop stop-color="#819EC7"/>
<stop offset="1" stop-color="#819EC7" stop-opacity="0.6"/>
</linearGradient>
<linearGradient id="paint15_linear_255_7311" x1="164.724" y1="273.703" x2="164.724" y2="279.414" gradientUnits="userSpaceOnUse">
<stop stop-color="#819EC7"/>
<stop offset="1" stop-color="#819EC7" stop-opacity="0.6"/>
</linearGradient>
<linearGradient id="paint16_linear_255_7311" x1="142.468" y1="130.689" x2="142.468" y2="137.766" gradientUnits="userSpaceOnUse">
<stop stop-color="#819EC7"/>
<stop offset="1" stop-color="#819EC7" stop-opacity="0.6"/>
</linearGradient>
<linearGradient id="paint17_linear_255_7311" x1="287.273" y1="200.507" x2="287.273" y2="211.1" gradientUnits="userSpaceOnUse">
<stop stop-color="#819EC7"/>
<stop offset="1" stop-color="#819EC7" stop-opacity="0.6"/>
</linearGradient>
<linearGradient id="paint18_linear_255_7311" x1="69.3261" y1="246.438" x2="69.3261" y2="257.709" gradientUnits="userSpaceOnUse">
<stop stop-color="#819EC7"/>
<stop offset="1" stop-color="#819EC7" stop-opacity="0.6"/>
</linearGradient>
<linearGradient id="paint19_linear_255_7311" x1="47.1687" y1="224.924" x2="47.1687" y2="236.481" gradientUnits="userSpaceOnUse">
<stop stop-color="#819EC7"/>
<stop offset="1" stop-color="#819EC7" stop-opacity="0.6"/>
</linearGradient>
<linearGradient id="paint20_linear_255_7311" x1="186.885" y1="130.876" x2="186.885" y2="138.196" gradientUnits="userSpaceOnUse">
<stop stop-color="#819EC7"/>
<stop offset="1" stop-color="#819EC7" stop-opacity="0.6"/>
</linearGradient>
<linearGradient id="paint21_linear_255_7311" x1="207.847" y1="133.517" x2="207.847" y2="142.346" gradientUnits="userSpaceOnUse">
<stop stop-color="#819EC7"/>
<stop offset="1" stop-color="#819EC7" stop-opacity="0.6"/>
</linearGradient>
<linearGradient id="paint22_linear_255_7311" x1="39.0534" y1="200.349" x2="39.0534" y2="211.26" gradientUnits="userSpaceOnUse">
<stop stop-color="#819EC7"/>
<stop offset="1" stop-color="#819EC7" stop-opacity="0.6"/>
</linearGradient>
<linearGradient id="paint23_linear_255_7311" x1="285.665" y1="187.779" x2="285.665" y2="198.746" gradientUnits="userSpaceOnUse">
<stop stop-color="#819EC7"/>
<stop offset="1" stop-color="#819EC7" stop-opacity="0.6"/>
</linearGradient>
<linearGradient id="paint24_linear_255_7311" x1="279.539" y1="224.472" x2="279.539" y2="235.781" gradientUnits="userSpaceOnUse">
<stop stop-color="#819EC7"/>
<stop offset="1" stop-color="#819EC7" stop-opacity="0.6"/>
</linearGradient>
<linearGradient id="paint25_linear_255_7311" x1="285.144" y1="212.857" x2="285.144" y2="223.726" gradientUnits="userSpaceOnUse">
<stop stop-color="#819EC7"/>
<stop offset="1" stop-color="#819EC7" stop-opacity="0.6"/>
</linearGradient>
<linearGradient id="paint26_linear_255_7311" x1="270.504" y1="235.495" x2="270.504" y2="246.908" gradientUnits="userSpaceOnUse">
<stop stop-color="#819EC7"/>
<stop offset="1" stop-color="#819EC7" stop-opacity="0.6"/>
</linearGradient>
<linearGradient id="paint27_linear_255_7311" x1="271.838" y1="164.128" x2="271.838" y2="175.791" gradientUnits="userSpaceOnUse">
<stop stop-color="#819EC7"/>
<stop offset="1" stop-color="#819EC7" stop-opacity="0.6"/>
</linearGradient>
<linearGradient id="paint28_linear_255_7311" x1="280.525" y1="175.527" x2="280.525" y2="187.02" gradientUnits="userSpaceOnUse">
<stop stop-color="#819EC7"/>
<stop offset="1" stop-color="#819EC7" stop-opacity="0.6"/>
</linearGradient>
<linearGradient id="paint29_linear_255_7311" x1="259.829" y1="153.938" x2="259.829" y2="165.409" gradientUnits="userSpaceOnUse">
<stop stop-color="#819EC7"/>
<stop offset="1" stop-color="#819EC7" stop-opacity="0.6"/>
</linearGradient>
<linearGradient id="paint30_linear_255_7311" x1="244.862" y1="145.254" x2="244.862" y2="156.195" gradientUnits="userSpaceOnUse">
<stop stop-color="#819EC7"/>
<stop offset="1" stop-color="#819EC7" stop-opacity="0.6"/>
</linearGradient>
<linearGradient id="paint31_linear_255_7311" x1="258.309" y1="245.601" x2="258.309" y2="256.791" gradientUnits="userSpaceOnUse">
<stop stop-color="#819EC7"/>
<stop offset="1" stop-color="#819EC7" stop-opacity="0.6"/>
</linearGradient>
<linearGradient id="paint32_linear_255_7311" x1="206.852" y1="267.773" x2="206.852" y2="276.415" gradientUnits="userSpaceOnUse">
<stop stop-color="#819EC7"/>
<stop offset="1" stop-color="#819EC7" stop-opacity="0.6"/>
</linearGradient>
<linearGradient id="paint33_linear_255_7311" x1="243.343" y1="254.505" x2="243.343" y2="265.168" gradientUnits="userSpaceOnUse">
<stop stop-color="#819EC7"/>
<stop offset="1" stop-color="#819EC7" stop-opacity="0.6"/>
</linearGradient>
<linearGradient id="paint34_linear_255_7311" x1="102.641" y1="262.803" x2="102.641" y2="272.494" gradientUnits="userSpaceOnUse">
<stop stop-color="#819EC7"/>
<stop offset="1" stop-color="#819EC7" stop-opacity="0.6"/>
</linearGradient>
<linearGradient id="paint35_linear_255_7311" x1="84.8275" y1="255.393" x2="84.8275" y2="266.037" gradientUnits="userSpaceOnUse">
<stop stop-color="#819EC7"/>
<stop offset="1" stop-color="#819EC7" stop-opacity="0.6"/>
</linearGradient>
<linearGradient id="paint36_linear_255_7311" x1="143.004" y1="272.141" x2="143.004" y2="279.123" gradientUnits="userSpaceOnUse">
<stop stop-color="#819EC7"/>
<stop offset="1" stop-color="#819EC7" stop-opacity="0.6"/>
</linearGradient>
<linearGradient id="paint37_linear_255_7311" x1="122.238" y1="268.438" x2="122.238" y2="276.889" gradientUnits="userSpaceOnUse">
<stop stop-color="#819EC7"/>
<stop offset="1" stop-color="#819EC7" stop-opacity="0.6"/>
</linearGradient>
<linearGradient id="paint38_linear_255_7311" x1="226.034" y1="261.975" x2="226.034" y2="271.781" gradientUnits="userSpaceOnUse">
<stop stop-color="#819EC7"/>
<stop offset="1" stop-color="#819EC7" stop-opacity="0.6"/>
</linearGradient>
<linearGradient id="paint39_linear_255_7311" x1="56.6261" y1="236.182" x2="56.6261" y2="247.767" gradientUnits="userSpaceOnUse">
<stop stop-color="#819EC7"/>
<stop offset="1" stop-color="#819EC7" stop-opacity="0.6"/>
</linearGradient>
<linearGradient id="paint40_linear_255_7311" x1="186.354" y1="271.72" x2="186.354" y2="278.94" gradientUnits="userSpaceOnUse">
<stop stop-color="#819EC7"/>
<stop offset="1" stop-color="#819EC7" stop-opacity="0.6"/>
</linearGradient>
<linearGradient id="paint41_linear_255_7311" x1="176.78" y1="152.476" x2="177.476" y2="218.149" gradientUnits="userSpaceOnUse">
<stop stop-color="#FFB244"/>
<stop offset="0.692155" stop-color="#F7D379" stop-opacity="0.8"/>
</linearGradient>
<linearGradient id="paint42_linear_255_7311" x1="174.254" y1="152.537" x2="174.254" y2="194.922" gradientUnits="userSpaceOnUse">
<stop stop-color="#555C8B"/>
<stop offset="1" stop-color="#6C86DD"/>
</linearGradient>
<linearGradient id="paint43_linear_255_7311" x1="-62.7467" y1="96.6856" x2="135.602" y2="96.6856" gradientUnits="userSpaceOnUse">
<stop stop-color="white"/>
<stop offset="1"/>
</linearGradient>
<linearGradient id="paint44_linear_255_7311" x1="47.0603" y1="27.2418" x2="47.0603" y2="48.2953" gradientUnits="userSpaceOnUse">
<stop stop-color="#555C8B"/>
<stop offset="1" stop-color="#6C86DD"/>
</linearGradient>
<linearGradient id="paint45_linear_255_7311" x1="73.9809" y1="28.7744" x2="73.9809" y2="40.5391" gradientUnits="userSpaceOnUse">
<stop stop-color="#5B5B5B"/>
<stop offset="1" stop-color="#7F7F7F"/>
</linearGradient>
<linearGradient id="paint46_linear_255_7311" x1="86.6007" y1="24.8549" x2="86.6007" y2="31.0692" gradientUnits="userSpaceOnUse">
<stop stop-color="#5B5B5B"/>
<stop offset="1" stop-color="#7F7F7F"/>
</linearGradient>
<linearGradient id="paint47_linear_255_7311" x1="41.6004" y1="96.6859" x2="294.322" y2="96.6859" gradientUnits="userSpaceOnUse">
<stop stop-color="white"/>
<stop offset="1"/>
</linearGradient>
<linearGradient id="paint48_linear_255_7311" x1="342.343" y1="96.6857" x2="181.752" y2="96.6857" gradientUnits="userSpaceOnUse">
<stop stop-color="#C4CFF9" stop-opacity="0.2"/>
<stop offset="1" stop-color="#6578C2"/>
</linearGradient>
<linearGradient id="paint49_linear_255_7311" x1="268.731" y1="113.499" x2="268.731" y2="120.576" gradientUnits="userSpaceOnUse">
<stop stop-color="#5B5B5B"/>
<stop offset="1" stop-color="#7F7F7F"/>
</linearGradient>
<linearGradient id="paint50_linear_255_7311" x1="270.019" y1="96.686" x2="65.9028" y2="96.686" gradientUnits="userSpaceOnUse">
<stop stop-color="white"/>
<stop offset="1"/>
</linearGradient>
<linearGradient id="paint51_linear_255_7311" x1="153.737" y1="19.0864" x2="196.453" y2="150.948" gradientUnits="userSpaceOnUse">
<stop stop-color="#B0B7E6"/>
<stop offset="0.1919" stop-color="#B2B8E6"/>
<stop offset="0.2828" stop-color="#B3B9E6"/>
<stop offset="0.4091" stop-color="#AFB6E5"/>
<stop offset="0.9091" stop-color="#AFB6E5"/>
<stop offset="1" stop-color="#B0B7E6"/>
</linearGradient>
<linearGradient id="paint52_linear_255_7311" x1="153.695" y1="19.1036" x2="196.41" y2="150.962" gradientUnits="userSpaceOnUse">
<stop stop-color="#B2B9E6"/>
<stop offset="0.1919" stop-color="#B4BBE7"/>
<stop offset="0.2828" stop-color="#B7BDE7"/>
<stop offset="0.4091" stop-color="#AFB6E5"/>
<stop offset="0.9091" stop-color="#AFB6E5"/>
<stop offset="1" stop-color="#B2B9E6"/>
</linearGradient>
<linearGradient id="paint53_linear_255_7311" x1="153.653" y1="19.1213" x2="196.367" y2="150.976" gradientUnits="userSpaceOnUse">
<stop stop-color="#B3BAE7"/>
<stop offset="0.1919" stop-color="#B7BDE9"/>
<stop offset="0.2828" stop-color="#BAC0E9"/>
<stop offset="0.4091" stop-color="#AFB6E5"/>
<stop offset="0.9091" stop-color="#AFB6E5"/>
<stop offset="1" stop-color="#B3BAE7"/>
</linearGradient>
<linearGradient id="paint54_linear_255_7311" x1="153.612" y1="19.1388" x2="196.324" y2="150.99" gradientUnits="userSpaceOnUse">
<stop stop-color="#B5BBE8"/>
<stop offset="0.1919" stop-color="#B9C0EA"/>
<stop offset="0.2828" stop-color="#BEC4EA"/>
<stop offset="0.4091" stop-color="#AFB6E5"/>
<stop offset="0.9091" stop-color="#AFB6E5"/>
<stop offset="1" stop-color="#B5BBE8"/>
</linearGradient>
<linearGradient id="paint55_linear_255_7311" x1="153.57" y1="19.1566" x2="196.281" y2="151.004" gradientUnits="userSpaceOnUse">
<stop stop-color="#B6BDE8"/>
<stop offset="0.1919" stop-color="#BCC2EB"/>
<stop offset="0.2828" stop-color="#C2C7EB"/>
<stop offset="0.4091" stop-color="#AFB6E5"/>
<stop offset="0.9091" stop-color="#AFB6E5"/>
<stop offset="1" stop-color="#B6BDE8"/>
</linearGradient>
<linearGradient id="paint56_linear_255_7311" x1="153.528" y1="19.1741" x2="196.238" y2="151.018" gradientUnits="userSpaceOnUse">
<stop stop-color="#B8BEE9"/>
<stop offset="0.1919" stop-color="#BEC5EC"/>
<stop offset="0.2828" stop-color="#C6CBEC"/>
<stop offset="0.3927" stop-color="#B2B9E6"/>
<stop offset="0.4091" stop-color="#AFB6E5"/>
<stop offset="0.9091" stop-color="#AFB6E5"/>
<stop offset="1" stop-color="#B8BEE9"/>
</linearGradient>
<linearGradient id="paint57_linear_255_7311" x1="153.486" y1="19.1912" x2="196.195" y2="151.031" gradientUnits="userSpaceOnUse">
<stop stop-color="#B9BFEA"/>
<stop offset="0.1919" stop-color="#C1C7EE"/>
<stop offset="0.2828" stop-color="#CACEEE"/>
<stop offset="0.3784" stop-color="#B6BDE7"/>
<stop offset="0.4091" stop-color="#AFB6E5"/>
<stop offset="0.9091" stop-color="#AFB6E5"/>
<stop offset="1" stop-color="#B9BFEA"/>
</linearGradient>
<linearGradient id="paint58_linear_255_7311" x1="153.444" y1="19.2088" x2="196.152" y2="151.045" gradientUnits="userSpaceOnUse">
<stop stop-color="#BAC1EA"/>
<stop offset="0.1919" stop-color="#C4C9EF"/>
<stop offset="0.2828" stop-color="#CDD2EF"/>
<stop offset="0.37" stop-color="#B9C0E8"/>
<stop offset="0.4091" stop-color="#AFB6E5"/>
<stop offset="0.9091" stop-color="#AFB6E5"/>
<stop offset="0.999" stop-color="#BAC1EA"/>
<stop offset="1" stop-color="#BAC1EA"/>
</linearGradient>
<linearGradient id="paint59_linear_255_7311" x1="153.403" y1="19.2264" x2="196.109" y2="151.059" gradientUnits="userSpaceOnUse">
<stop stop-color="#BCC2EB"/>
<stop offset="0.1919" stop-color="#C6CCF0"/>
<stop offset="0.277" stop-color="#D0D4F0"/>
<stop offset="0.2828" stop-color="#D1D5F0"/>
<stop offset="0.361" stop-color="#BDC3EA"/>
<stop offset="0.4091" stop-color="#AFB6E5"/>
<stop offset="0.9091" stop-color="#AFB6E5"/>
<stop offset="0.9881" stop-color="#BAC0EA"/>
<stop offset="1" stop-color="#BCC2EB"/>
</linearGradient>
<linearGradient id="paint60_linear_255_7311" x1="153.361" y1="19.244" x2="196.066" y2="151.073" gradientUnits="userSpaceOnUse">
<stop stop-color="#BDC3EC"/>
<stop offset="0.1919" stop-color="#C9CEF1"/>
<stop offset="0.2716" stop-color="#D3D7F1"/>
<stop offset="0.2828" stop-color="#D5D9F1"/>
<stop offset="0.3538" stop-color="#C1C7EB"/>
<stop offset="0.4091" stop-color="#AFB6E5"/>
<stop offset="0.9091" stop-color="#AFB6E5"/>
<stop offset="0.9836" stop-color="#BAC0EA"/>
<stop offset="1" stop-color="#BDC3EC"/>
</linearGradient>
<linearGradient id="paint61_linear_255_7311" x1="153.319" y1="19.261" x2="196.023" y2="151.087" gradientUnits="userSpaceOnUse">
<stop stop-color="#BFC5EC"/>
<stop offset="0.1919" stop-color="#CBD1F3"/>
<stop offset="0.2627" stop-color="#D5D9F3"/>
<stop offset="0.2828" stop-color="#D9DCF3"/>
<stop offset="0.3478" stop-color="#C5CAEC"/>
<stop offset="0.4091" stop-color="#AFB6E5"/>
<stop offset="0.9091" stop-color="#AFB6E5"/>
<stop offset="0.9763" stop-color="#BAC0EA"/>
<stop offset="1" stop-color="#BFC5EC"/>
</linearGradient>
<linearGradient id="paint62_linear_255_7311" x1="153.277" y1="19.2786" x2="195.98" y2="151.101" gradientUnits="userSpaceOnUse">
<stop stop-color="#C0C6ED"/>
<stop offset="0.1919" stop-color="#CED3F4"/>
<stop offset="0.2591" stop-color="#D8DCF4"/>
<stop offset="0.2828" stop-color="#DDE0F4"/>
<stop offset="0.3431" stop-color="#C9CEEE"/>
<stop offset="0.4091" stop-color="#AFB6E5"/>
<stop offset="0.9091" stop-color="#AFB6E5"/>
<stop offset="0.9732" stop-color="#BAC0EA"/>
<stop offset="1" stop-color="#C0C6ED"/>
</linearGradient>
<linearGradient id="paint63_linear_255_7311" x1="153.236" y1="19.2963" x2="195.937" y2="151.115" gradientUnits="userSpaceOnUse">
<stop stop-color="#C2C7EE"/>
<stop offset="0.1919" stop-color="#D0D6F5"/>
<stop offset="0.253" stop-color="#DADEF5"/>
<stop offset="0.2828" stop-color="#E1E3F5"/>
<stop offset="0.3388" stop-color="#CDD1EF"/>
<stop offset="0.4091" stop-color="#AFB6E5"/>
<stop offset="0.9091" stop-color="#AFB6E5"/>
<stop offset="0.9679" stop-color="#BAC0EA"/>
<stop offset="1" stop-color="#C2C7EE"/>
</linearGradient>
<linearGradient id="paint64_linear_255_7311" x1="153.194" y1="19.3139" x2="195.894" y2="151.129" gradientUnits="userSpaceOnUse">
<stop stop-color="#C3C9EE"/>
<stop offset="0.1919" stop-color="#D3D8F6"/>
<stop offset="0.253" stop-color="#DDE1F6"/>
<stop offset="0.2828" stop-color="#E4E7F6"/>
<stop offset="0.3361" stop-color="#D0D5F0"/>
<stop offset="0.4091" stop-color="#AFB6E5"/>
<stop offset="0.9091" stop-color="#AFB6E5"/>
<stop offset="0.9656" stop-color="#BAC0EA"/>
<stop offset="1" stop-color="#C3C9EE"/>
</linearGradient>
<linearGradient id="paint65_linear_255_7311" x1="153.152" y1="19.3315" x2="195.851" y2="151.143" gradientUnits="userSpaceOnUse">
<stop stop-color="#C4CAEF"/>
<stop offset="0.1919" stop-color="#D6DAF8"/>
<stop offset="0.2504" stop-color="#E0E3F8"/>
<stop offset="0.2828" stop-color="#E8EAF8"/>
<stop offset="0.3328" stop-color="#D4D8F1"/>
<stop offset="0.4091" stop-color="#AFB6E5"/>
<stop offset="0.9091" stop-color="#AFB6E5"/>
<stop offset="0.9635" stop-color="#BAC0EA"/>
<stop offset="1" stop-color="#C4CAEF"/>
</linearGradient>
<linearGradient id="paint66_linear_255_7311" x1="153.11" y1="19.3486" x2="195.809" y2="151.157" gradientUnits="userSpaceOnUse">
<stop stop-color="#C6CBF0"/>
<stop offset="0.1919" stop-color="#D8DDF9"/>
<stop offset="0.2458" stop-color="#E2E6F9"/>
<stop offset="0.2828" stop-color="#ECEEF9"/>
<stop offset="0.3299" stop-color="#D8DCF3"/>
<stop offset="0.4091" stop-color="#AFB6E5"/>
<stop offset="0.9091" stop-color="#AFB6E5"/>
<stop offset="0.9597" stop-color="#BAC0EA"/>
<stop offset="1" stop-color="#C6CBF0"/>
</linearGradient>
<linearGradient id="paint67_linear_255_7311" x1="153.068" y1="19.3662" x2="195.766" y2="151.171" gradientUnits="userSpaceOnUse">
<stop stop-color="#C7CDF0"/>
<stop offset="0.1919" stop-color="#DBDFFA"/>
<stop offset="0.2439" stop-color="#E5E8FA"/>
<stop offset="0.2828" stop-color="#F0F1FA"/>
<stop offset="0.3274" stop-color="#DCDFF4"/>
<stop offset="0.4091" stop-color="#AFB6E5"/>
<stop offset="0.9091" stop-color="#AFB6E5"/>
<stop offset="0.9581" stop-color="#BAC0EA"/>
<stop offset="1" stop-color="#C7CDF0"/>
</linearGradient>
<linearGradient id="paint68_linear_255_7311" x1="153.027" y1="19.3837" x2="195.723" y2="151.185" gradientUnits="userSpaceOnUse">
<stop stop-color="#C9CEF1"/>
<stop offset="0.1919" stop-color="#DDE2FB"/>
<stop offset="0.2404" stop-color="#E7EAFB"/>
<stop offset="0.2828" stop-color="#F4F5FB"/>
<stop offset="0.3252" stop-color="#E0E3F5"/>
<stop offset="0.4091" stop-color="#AFB6E5"/>
<stop offset="0.9091" stop-color="#AFB6E5"/>
<stop offset="0.9551" stop-color="#BAC0EA"/>
<stop offset="1" stop-color="#C9CEF1"/>
</linearGradient>
<linearGradient id="paint69_linear_255_7311" x1="152.985" y1="19.4009" x2="195.68" y2="151.198" gradientUnits="userSpaceOnUse">
<stop stop-color="#CACFF2"/>
<stop offset="0.1919" stop-color="#E0E4FD"/>
<stop offset="0.2404" stop-color="#EAEDFD"/>
<stop offset="0.2828" stop-color="#F7F8FD"/>
<stop offset="0.3236" stop-color="#E3E6F6"/>
<stop offset="0.4066" stop-color="#B1B8E6"/>
<stop offset="0.4091" stop-color="#AFB6E5"/>
<stop offset="0.9091" stop-color="#AFB6E5"/>
<stop offset="0.9539" stop-color="#BAC0EA"/>
<stop offset="1" stop-color="#CACFF2"/>
</linearGradient>
<linearGradient id="paint70_linear_255_7311" x1="152.943" y1="19.419" x2="195.637" y2="151.213" gradientUnits="userSpaceOnUse">
<stop stop-color="#CCD1F2"/>
<stop offset="0.1919" stop-color="#E2E7FE"/>
<stop offset="0.2374" stop-color="#ECEFFE"/>
<stop offset="0.2828" stop-color="#FBFCFE"/>
<stop offset="0.3217" stop-color="#E7EAF8"/>
<stop offset="0.4009" stop-color="#B5BBE7"/>
<stop offset="0.4091" stop-color="#AFB6E5"/>
<stop offset="0.9091" stop-color="#AFB6E5"/>
<stop offset="0.9514" stop-color="#BAC0EA"/>
<stop offset="1" stop-color="#CCD1F2"/>
</linearGradient>
<linearGradient id="paint71_linear_255_7311" x1="152.901" y1="19.4361" x2="195.594" y2="151.226" gradientUnits="userSpaceOnUse">
<stop stop-color="#CDD2F3"/>
<stop offset="0.1919" stop-color="#E5E9FF"/>
<stop offset="0.2361" stop-color="#EFF2FF"/>
<stop offset="0.2828" stop-color="white"/>
<stop offset="0.3201" stop-color="#EBEDF9"/>
<stop offset="0.3957" stop-color="#B9BFE8"/>
<stop offset="0.4091" stop-color="#AFB6E5"/>
<stop offset="0.9091" stop-color="#AFB6E5"/>
<stop offset="0.9503" stop-color="#BAC0EA"/>
<stop offset="1" stop-color="#CDD2F3"/>
</linearGradient>
<linearGradient id="paint72_linear_255_7311" x1="85.1424" y1="121.502" x2="235.783" y2="59.8555" gradientUnits="userSpaceOnUse">
<stop stop-color="#AFB6E5"/>
<stop offset="0.1449" stop-color="#B6BCE8"/>
<stop offset="0.3485" stop-color="#C8CDF1"/>
<stop offset="0.5808" stop-color="#E5E9FF"/>
<stop offset="0.8551" stop-color="#F5F6FF"/>
<stop offset="1" stop-color="white"/>
</linearGradient>
<linearGradient id="paint73_linear_255_7311" x1="177.926" y1="25.0743" x2="177.926" y2="160.531" gradientUnits="userSpaceOnUse">
<stop stop-color="#454C7D"/>
<stop offset="1" stop-color="#6C86DD"/>
</linearGradient>
<linearGradient id="paint74_linear_255_7311" x1="128.746" y1="128.419" x2="180.894" y2="70.9224" gradientUnits="userSpaceOnUse">
<stop offset="0.0051" stop-color="#2BE9A3"/>
<stop offset="0.2899" stop-color="#07CDBF"/>
<stop offset="0.3434" stop-color="#00C7C5"/>
<stop offset="0.4359" stop-color="#09BECA"/>
<stop offset="0.5859" stop-color="#21A7D9"/>
<stop offset="0.7738" stop-color="#4881F1"/>
<stop offset="0.8173" stop-color="#5277F7"/>
</linearGradient>
<radialGradient id="paint75_radial_255_7311" cx="0" cy="0" r="1" gradientUnits="userSpaceOnUse" gradientTransform="translate(159.228 71.8807) scale(39.5103)">
<stop stop-color="#711F56"/>
<stop offset="0.1614" stop-color="#6C1E52"/>
<stop offset="0.3626" stop-color="#5C1946"/>
<stop offset="0.5849" stop-color="#431233"/>
<stop offset="0.8208" stop-color="#200918"/>
<stop offset="1"/>
</radialGradient>
<linearGradient id="paint76_linear_255_7311" x1="155.564" y1="112.935" x2="169.801" y2="81.9809" gradientUnits="userSpaceOnUse">
<stop stop-color="#AFB6E5"/>
<stop offset="0.1449" stop-color="#B6BCE8"/>
<stop offset="0.3485" stop-color="#C8CDF1"/>
<stop offset="0.5808" stop-color="#E5E9FF"/>
<stop offset="0.9546" stop-color="#F5F4FC"/>
<stop offset="1" stop-color="#F7F6FB"/>
</linearGradient>
<radialGradient id="paint77_radial_255_7311" cx="0" cy="0" r="1" gradientUnits="userSpaceOnUse" gradientTransform="translate(153.22 109.273) scale(19.9181 19.9181)">
<stop stop-color="#AFB6E5"/>
<stop offset="0.1449" stop-color="#B6BCE8"/>
<stop offset="0.3485" stop-color="#C8CDF1"/>
<stop offset="0.5808" stop-color="#E5E9FF"/>
<stop offset="0.8551" stop-color="#F5F6FF"/>
<stop offset="1" stop-color="white"/>
</radialGradient>
<linearGradient id="paint78_linear_255_7311" x1="136.256" y1="108.125" x2="136.256" y2="133.672" gradientUnits="userSpaceOnUse">
<stop stop-color="#FFAB48"/>
<stop offset="1" stop-color="#F69524"/>
</linearGradient>
<linearGradient id="paint79_linear_255_7311" x1="158.199" y1="126.58" x2="138.097" y2="92.6486" gradientUnits="userSpaceOnUse">
<stop offset="0.0909" stop-color="#4088EC"/>
<stop offset="0.5" stop-color="#388CD6"/>
<stop offset="0.691" stop-color="#4EC0EA"/>
<stop offset="0.798" stop-color="#58D9F3"/>
<stop offset="1" stop-color="#38A6F5"/>
</linearGradient>
<linearGradient id="paint80_linear_255_7311" x1="134.134" y1="119.985" x2="162.065" y2="99.4827" gradientUnits="userSpaceOnUse">
<stop stop-color="#5277F7"/>
<stop offset="0.46" stop-color="#2E9AE1"/>
<stop offset="0.9899" stop-color="#00C7C5"/>
</linearGradient>
<radialGradient id="paint81_radial_255_7311" cx="0" cy="0" r="1" gradientUnits="userSpaceOnUse" gradientTransform="translate(151.685 106.516) scale(15.2867 15.2867)">
<stop stop-color="#711F56"/>
<stop offset="0.1614" stop-color="#6C1E52"/>
<stop offset="0.3626" stop-color="#5C1946"/>
<stop offset="0.5849" stop-color="#431233"/>
<stop offset="0.8208" stop-color="#200918"/>
<stop offset="1"/>
</radialGradient>
</defs>


<style>
    .el1 { 
        animation: move1 3s infinite; 
        animation-timing-function: ease-in-out; 
    } 
    @keyframes move1 { 
        0% { 
            transform: translateY(0px); 
        } 
        50% { 
            transform: translateY(6px); 
        } 
        100% { 
            transform: translateY(0px); 
        } 
    }
</style>

</svg>
