<svg width="264" height="296" viewBox="0 0 264 296" fill="none" xmlns="http://www.w3.org/2000/svg">
<path d="M30 179.916V190.103C30 193.302 31.578 196.501 34.7341 198.329L124.359 250.005C132.92 254.963 143.467 254.963 152.029 250.005L246.266 194.972C249.367 193.176 250.936 190.056 250.99 186.912L251 186.909V176.583L30 179.916Z" fill="url(#paint0_linear_332_29863)"/>
<path d="M34.7341 188.142L124.359 239.818C132.92 244.776 143.467 244.776 152.029 239.818L246.266 184.785C252.578 181.128 252.578 171.988 246.266 168.332L156.641 116.657C148.08 111.698 137.533 111.698 128.971 116.657L34.7341 171.69C28.422 175.345 28.422 184.485 34.7341 188.142Z" fill="url(#paint1_linear_332_29863)"/>
<path fill-rule="evenodd" clip-rule="evenodd" d="M54.3378 181.321L75.6631 112.8L187.037 46.0057L168.153 116.692L55.9182 182.81C55.4879 183.063 54.9659 183.008 54.5985 182.662C54.2311 182.315 54.1856 181.809 54.3378 181.321Z" fill="#EAEEF4"/>
<path fill-rule="evenodd" clip-rule="evenodd" d="M69.6996 131.962L75.6631 112.8L187.037 46.0057L177.214 82.7725L83.0247 138.804L69.6996 131.962Z" fill="url(#paint2_linear_332_29863)"/>
<path fill-rule="evenodd" clip-rule="evenodd" d="M77.3061 112.214L187.418 46.753L168.153 116.692L55.5799 181.852L77.3061 112.214Z" fill="#C5D2E1"/>
<path fill-rule="evenodd" clip-rule="evenodd" d="M106.009 226.18L220.672 158.755L168.153 116.692L55.2225 182.96L106.009 226.18Z" fill="#EAEEF4"/>
<path fill-rule="evenodd" clip-rule="evenodd" d="M107.623 225.658L220.514 159.66L168.153 116.692L55.5803 181.852L107.623 225.658Z" fill="#E2E8F0"/>
<path fill-rule="evenodd" clip-rule="evenodd" d="M75.4918 115.901L105.635 225.396C106.126 227.181 108.71 228.327 110.238 227.413L218.338 162.796C220.148 161.714 220.979 159.578 220.408 157.505L190.265 48.0098C189.92 46.7559 187.289 45.3523 185.68 46.3092L77.5618 110.61C75.7511 111.687 74.9217 113.83 75.4918 115.901Z" fill="#EAEEF4"/>
<path fill-rule="evenodd" clip-rule="evenodd" d="M75.4917 115.901L81.5945 138.07L83.0247 138.804L196.652 71.2096L190.265 48.0097C189.92 46.7557 187.289 45.3521 185.68 46.3088L77.5615 110.61C75.7511 111.687 74.9215 113.83 75.4917 115.901Z" fill="url(#paint3_linear_332_29863)"/>
<path fill-rule="evenodd" clip-rule="evenodd" d="M76.8884 116.513L107.031 226.009C107.226 226.715 107.688 227.238 108.35 227.513C109.012 227.788 109.694 227.738 110.313 227.371L218.432 163.07C220.243 161.992 221.072 159.852 220.501 157.778L190.358 48.2834C190.164 47.5759 189.702 47.054 189.04 46.779C188.377 46.5039 187.695 46.5535 187.077 46.9213L78.9584 111.222C77.1477 112.299 76.3183 114.443 76.8884 116.513Z" fill="#F8F9FC"/>
<path fill-rule="evenodd" clip-rule="evenodd" d="M76.8885 116.514L83.0249 138.804L196.667 71.2004L190.359 48.2832C190.164 47.5758 189.702 47.0539 189.04 46.779C188.378 46.5039 187.695 46.5535 187.077 46.9213L78.9585 111.222C77.1478 112.299 76.3184 114.443 76.8885 116.514Z" fill="url(#paint4_linear_332_29863)"/>
<path fill-rule="evenodd" clip-rule="evenodd" d="M110.271 133.098L110.361 133.707C110.406 134.02 110.269 134.314 110.003 134.472L97.2766 142.04C97.0611 142.168 96.8195 142.177 96.5951 142.066C96.3708 141.955 96.2266 141.755 96.1888 141.502L96.097 140.887C96.0502 140.574 96.1876 140.278 96.454 140.12L109.183 132.559C109.399 132.431 109.641 132.421 109.866 132.532C110.09 132.644 110.234 132.844 110.271 133.098ZM189.496 85.9721L189.583 86.5969C189.626 86.9078 189.489 87.1987 189.225 87.3557L176.51 94.9159C176.295 95.0438 176.053 95.0535 175.829 94.9428C175.605 94.8319 175.461 94.6321 175.423 94.3791L175.332 93.7705C175.285 93.4575 175.422 93.1623 175.688 93.0038L188.407 85.4275C188.624 85.2983 188.867 85.2893 189.092 85.4019C189.317 85.5146 189.461 85.7171 189.496 85.9721ZM169.692 97.7554L169.781 98.3647C169.826 98.677 169.689 98.9705 169.424 99.1283L156.693 106.705C156.478 106.833 156.237 106.843 156.013 106.733C155.79 106.623 155.645 106.425 155.606 106.173L155.51 105.56C155.461 105.246 155.599 104.948 155.866 104.789L168.604 97.2152C168.82 97.087 169.062 97.0776 169.287 97.189C169.511 97.3006 169.655 97.5016 169.692 97.7554ZM149.877 109.527L149.97 110.15C150.016 110.462 149.878 110.757 149.612 110.915L136.887 118.481C136.671 118.609 136.43 118.619 136.205 118.508C135.981 118.397 135.837 118.197 135.799 117.944L135.707 117.328C135.66 117.015 135.798 116.72 136.064 116.562L148.789 108.988C149.005 108.859 149.247 108.85 149.471 108.961C149.696 109.072 149.84 109.273 149.877 109.527ZM130.074 121.311L130.167 121.918C130.215 122.232 130.078 122.529 129.811 122.688L117.083 130.263C116.869 130.39 116.628 130.4 116.404 130.291C116.18 130.181 116.035 129.982 115.996 129.73L115.901 129.118C115.852 128.803 115.989 128.506 116.257 128.346L128.987 120.777C129.201 120.649 129.443 120.64 129.667 120.75C129.89 120.86 130.035 121.058 130.074 121.311Z" fill="#8794A4"/>
<path fill-rule="evenodd" clip-rule="evenodd" d="M168.294 159.671L164.502 146.135C164.502 146.094 164.537 146.014 164.56 145.994L182.363 135.411L186.163 148.931C186.165 148.973 186.125 149.064 186.101 149.086L168.294 159.671ZM179.255 116.247L175.454 102.802C175.45 102.753 175.5 102.648 175.535 102.621C181.445 99.0951 187.362 95.5804 193.301 92.1058L197.121 105.6C197.126 105.619 197.134 105.645 197.141 105.674L179.255 116.247ZM173.523 103.814C173.314 103.934 173.106 104.055 172.898 104.176C172.85 104.203 172.802 104.231 172.753 104.259C167.04 107.578 161.405 111.037 155.72 114.409C155.692 114.432 155.651 114.526 155.655 114.569L159.478 128.074C159.679 127.963 159.908 127.815 160.01 127.757L177.239 117.504C177.272 117.482 177.318 117.393 177.317 117.35L173.523 103.814ZM153.727 115.594L157.517 129.113C157.518 129.141 157.497 129.191 157.485 129.215C157.473 129.238 157.448 129.277 157.431 129.29L139.655 139.814L135.845 126.366C135.844 126.319 135.892 126.219 135.922 126.195C141.86 122.666 147.787 119.118 153.727 115.594ZM119.845 151.575L122.295 150.201C127.483 147.292 132.517 144.106 137.629 141.062C137.662 141.04 137.709 140.951 137.708 140.908L133.899 127.455L116.11 137.966C116.082 137.989 116.041 138.083 116.045 138.126L119.845 151.575ZM114.085 139.182L117.908 152.671C117.908 152.72 117.854 152.822 117.818 152.848C111.996 156.312 106.228 159.871 100.35 163.234C100.281 163.274 100.171 163.345 100.059 163.415L96.2355 149.923C96.234 149.876 96.282 149.777 96.313 149.753C102.138 146.291 107.906 142.721 113.789 139.365C113.859 139.325 113.971 139.253 114.085 139.182ZM118.521 154.985L100.738 165.551C100.705 165.573 100.658 165.661 100.658 165.704L104.47 179.154L122.242 168.631C122.278 168.605 122.332 168.503 122.331 168.454L118.521 154.985ZM122.973 170.736L126.754 184.252C126.755 184.297 126.708 184.392 126.678 184.415L108.924 195.036L105.082 181.487C105.081 181.444 105.129 181.356 105.162 181.334L122.973 170.736ZM127.35 186.652L109.582 197.119C109.55 197.141 109.504 197.227 109.505 197.269L113.321 210.647L131.107 200.195C131.137 200.173 131.181 200.086 131.179 200.045L127.35 186.652ZM133.116 199.002L129.316 185.494C129.313 185.454 129.353 185.368 129.374 185.35L147.173 174.806L150.978 188.263C150.981 188.303 150.942 188.389 150.915 188.411L133.116 199.002ZM152.952 187.158L170.714 176.639C170.745 176.617 170.79 176.529 170.788 176.486L166.981 163.035L149.191 173.56C149.16 173.582 149.114 173.67 149.114 173.713L152.952 187.158ZM172.708 175.452L190.525 164.869C190.552 164.847 190.592 164.759 190.589 164.717C189.338 160.237 188.054 155.752 186.782 151.264L168.983 161.793C168.963 161.81 168.923 161.897 168.926 161.937L172.708 175.452ZM192.611 163.61L188.724 150.177C188.724 150.129 188.773 150.026 188.796 150.005L206.612 139.423L210.399 152.935C210.4 152.948 210.394 152.972 210.391 152.985C210.38 153.018 210.351 153.078 210.323 153.098L192.611 163.61ZM188.09 147.894L205.971 137.249C205.974 137.217 205.973 137.185 205.967 137.166L202.157 123.687L184.38 134.204C184.347 134.228 184.298 134.325 184.301 134.37L188.09 147.894ZM201.537 121.392C201.539 121.382 201.541 121.373 201.54 121.365L197.747 107.845L179.957 118.42C179.924 118.445 179.875 118.542 179.877 118.588L183.671 132.111C183.788 132.036 183.903 131.953 183.979 131.907L201.537 121.392ZM163.891 143.888C163.971 143.841 164.046 143.793 164.093 143.765L181.662 133.288C181.695 133.265 181.742 133.177 181.74 133.134L177.928 119.668L176.86 120.264L160.137 130.211C160.111 130.241 160.076 130.314 160.079 130.355L163.891 143.888ZM158.148 131.37C157.907 131.487 157.616 131.677 157.474 131.763C151.758 135.246 146.01 138.673 140.272 142.118C140.269 142.128 140.268 142.138 140.268 142.146L144.079 155.597L161.854 145.073C161.888 145.048 161.941 144.945 161.941 144.896L158.148 131.37ZM138.317 143.185L142.131 156.691C142.132 156.734 142.085 156.823 142.051 156.846L124.313 167.444L120.469 153.912C120.467 153.873 120.504 153.789 120.527 153.768L138.317 143.185ZM142.746 159.023L124.957 169.548C124.929 169.569 124.89 169.655 124.892 169.695L128.693 183.219L146.491 172.628C146.519 172.606 146.558 172.52 146.555 172.479L142.746 159.023ZM148.512 171.424C148.639 171.346 148.764 171.266 148.815 171.237C154.695 167.877 160.466 164.318 166.29 160.857C166.319 160.834 166.365 160.74 166.364 160.696L162.551 147.204C162.433 147.277 162.319 147.352 162.248 147.392C156.368 150.756 150.593 154.31 144.769 157.777C144.737 157.799 144.691 157.888 144.691 157.931L148.512 171.424Z" fill="#D4DDE9"/>
<path fill-rule="evenodd" clip-rule="evenodd" d="M168.649 158.743L164.857 145.207C164.857 145.165 164.892 145.085 164.915 145.065L182.718 134.483L186.518 148.003C186.52 148.045 186.48 148.136 186.456 148.157L168.649 158.743ZM179.61 115.319L175.809 101.874C175.805 101.825 175.855 101.719 175.89 101.693C181.8 98.1667 187.717 94.652 193.656 91.1774L197.476 104.671C197.481 104.69 197.489 104.717 197.496 104.745L179.61 115.319ZM173.878 102.885C173.669 103.006 173.461 103.126 173.253 103.247C173.205 103.275 173.156 103.303 173.108 103.331C167.395 106.65 161.759 110.109 156.075 113.48C156.047 113.503 156.006 113.597 156.01 113.641L159.832 127.146C160.034 127.034 160.262 126.886 160.364 126.829L177.594 116.576C177.627 116.553 177.673 116.465 177.672 116.422L173.878 102.885ZM154.082 114.666L157.872 128.185C157.873 128.213 157.852 128.262 157.84 128.287C157.828 128.309 157.803 128.349 157.786 128.362L140.01 138.885L136.2 125.437C136.199 125.39 136.247 125.291 136.277 125.266C142.215 121.738 148.142 118.19 154.082 114.666ZM120.2 150.647L122.65 149.273C127.838 146.364 132.872 143.178 137.984 140.133C138.017 140.111 138.064 140.022 138.062 139.98L134.254 126.526L116.465 137.038C116.437 137.061 116.396 137.155 116.4 137.198L120.2 150.647ZM114.44 138.253L118.263 151.743C118.263 151.792 118.209 151.894 118.173 151.92C112.351 155.383 106.583 158.943 100.705 162.306C100.636 162.346 100.526 162.417 100.414 162.487L96.5906 148.995C96.589 148.948 96.6371 148.848 96.668 148.824C102.493 145.363 108.261 141.793 114.144 138.436C114.214 138.397 114.326 138.324 114.44 138.253ZM118.876 154.057L101.093 164.623C101.06 164.645 101.013 164.733 101.013 164.775L104.825 178.226L122.597 167.702C122.633 167.676 122.687 167.575 122.686 167.526L118.876 154.057ZM123.328 169.808L127.109 183.323C127.11 183.369 127.063 183.463 127.033 183.487L109.279 194.107L105.437 180.558C105.436 180.516 105.484 180.428 105.517 180.405L123.328 169.808ZM127.705 185.723L109.937 196.19C109.905 196.212 109.859 196.298 109.86 196.34L113.676 209.719L131.462 199.267C131.492 199.245 131.536 199.158 131.534 199.116L127.705 185.723ZM133.471 198.074L129.671 184.566C129.668 184.526 129.708 184.439 129.729 184.422L147.527 173.877L151.333 187.334C151.336 187.374 151.297 187.461 151.27 187.482L133.471 198.074ZM153.306 186.229L171.069 175.71C171.1 175.688 171.145 175.6 171.143 175.558L167.336 162.107L149.546 172.632C149.515 172.654 149.469 172.742 149.469 172.784L153.306 186.229ZM173.063 174.523L190.879 163.94C190.907 163.918 190.947 163.83 190.944 163.789C189.693 159.308 188.409 154.824 187.137 150.335L169.338 160.864C169.318 160.881 169.278 160.968 169.281 161.009L173.063 174.523ZM192.966 162.681L189.079 149.248C189.079 149.2 189.128 149.098 189.151 149.077L206.967 138.495L210.754 152.006C210.755 152.02 210.749 152.043 210.746 152.056C210.735 152.089 210.706 152.15 210.678 152.169L192.966 162.681ZM188.445 146.965L206.326 136.321C206.329 136.288 206.328 136.256 206.322 136.237L202.512 122.758L184.735 133.275C184.702 133.3 184.654 133.396 184.656 133.442L188.445 146.965ZM201.892 120.463C201.894 120.453 201.896 120.444 201.895 120.436L198.102 106.916L180.313 117.492C180.279 117.516 180.23 117.613 180.232 117.659L184.026 131.183C184.143 131.107 184.258 131.024 184.334 130.979L201.892 120.463ZM164.246 142.96C164.326 142.912 164.401 142.865 164.448 142.837L182.017 132.359C182.05 132.337 182.097 132.248 182.095 132.206L178.283 118.739L177.215 119.336L160.493 129.282C160.466 129.313 160.431 129.385 160.434 129.427L164.246 142.96ZM158.503 130.441C158.262 130.559 157.971 130.748 157.829 130.835C152.113 134.317 146.365 137.745 140.627 141.19C140.624 141.2 140.623 141.21 140.623 141.218L144.434 154.668L162.209 144.145C162.243 144.119 162.296 144.017 162.296 143.968L158.503 130.441ZM138.672 142.256L142.486 155.763C142.487 155.806 142.44 155.895 142.406 155.917L124.668 166.515L120.824 152.984C120.822 152.944 120.859 152.86 120.882 152.84L138.672 142.256ZM143.101 158.094L125.312 168.619C125.284 168.641 125.245 168.726 125.247 168.766L129.048 182.29L146.846 171.699C146.874 171.678 146.913 171.591 146.91 171.551L143.101 158.094ZM148.867 170.496C148.994 170.418 149.118 170.338 149.17 170.308C155.05 166.948 160.821 163.39 166.645 159.928C166.674 159.905 166.72 159.812 166.719 159.767L162.906 146.276C162.788 146.349 162.673 146.423 162.603 146.464C156.723 149.828 150.948 153.382 145.124 156.848C145.092 156.871 145.045 156.959 145.046 157.002L148.867 170.496Z" fill="white"/>
<path fill-rule="evenodd" clip-rule="evenodd" d="M110.621 132.482L110.711 133.092C110.757 133.404 110.619 133.698 110.354 133.856L97.6268 141.424C97.4115 141.552 97.1697 141.561 96.9455 141.45C96.7211 141.34 96.577 141.139 96.5392 140.886L96.4473 140.271C96.4006 139.958 96.5379 139.662 96.8045 139.504L109.534 131.943C109.75 131.814 109.992 131.805 110.216 131.917C110.44 132.028 110.584 132.229 110.621 132.482ZM189.846 85.3563L189.933 85.9811C189.977 86.2919 189.839 86.5829 189.575 86.7398L176.86 94.3001C176.645 94.428 176.403 94.4377 176.179 94.3271C175.955 94.2162 175.811 94.0163 175.773 93.7632L175.681 93.1546C175.635 92.8416 175.772 92.5464 176.038 92.388L188.757 84.8116C188.974 84.6824 189.217 84.6735 189.442 84.786C189.667 84.8986 189.811 85.1013 189.846 85.3563ZM170.042 97.1396L170.131 97.7489C170.177 98.061 170.04 98.3546 169.774 98.5125L157.043 106.089C156.828 106.217 156.588 106.227 156.364 106.117C156.14 106.008 155.995 105.809 155.956 105.557L155.86 104.944C155.811 104.63 155.949 104.332 156.217 104.173L168.954 96.5994C169.17 96.4711 169.412 96.4618 169.637 96.5732C169.862 96.6846 170.005 96.8857 170.042 97.1396ZM150.228 108.911L150.32 109.534C150.366 109.846 150.229 110.141 149.963 110.299L137.237 117.865C137.021 117.993 136.78 118.003 136.555 117.892C136.331 117.781 136.187 117.581 136.149 117.328L136.057 116.712C136.011 116.399 136.148 116.105 136.414 115.946L149.14 108.372C149.355 108.244 149.597 108.234 149.822 108.345C150.046 108.457 150.19 108.657 150.228 108.911ZM130.424 120.695L130.517 121.302C130.566 121.616 130.428 121.913 130.161 122.072L117.434 129.647C117.219 129.775 116.978 129.784 116.754 129.675C116.53 129.565 116.386 129.367 116.346 129.114L116.251 128.502C116.202 128.187 116.339 127.89 116.607 127.73L129.337 120.161C129.552 120.033 129.793 120.024 130.017 120.134C130.241 120.244 130.385 120.443 130.424 120.695Z" fill="#BECDDD"/>
<path fill-rule="evenodd" clip-rule="evenodd" d="M179.078 61.3536C180.674 60.4104 182.378 61.0549 182.861 62.8156C183.357 64.5762 182.459 66.7769 180.862 67.7202C179.266 68.6634 177.575 68.0187 177.079 66.2581C176.596 64.4975 177.481 62.2966 179.078 61.3536Z" fill="#A7B6C7"/>
<path fill-rule="evenodd" clip-rule="evenodd" d="M178.628 60.5427C178.936 60.3604 179.254 60.2235 179.574 60.1305C180.329 59.9109 181.078 59.9476 181.741 60.2122C182.415 60.4816 182.988 60.9794 183.376 61.6763C183.523 61.9406 183.644 62.2373 183.734 62.5637L183.732 62.564C184.038 63.6556 183.92 64.8643 183.484 65.9349C183.048 67.0032 182.29 67.9538 181.313 68.5309C181.016 68.7061 180.708 68.8399 180.393 68.9338C179.631 69.1617 178.876 69.1286 178.209 68.8632C177.531 68.5936 176.956 68.0922 176.564 67.3892C176.421 67.1323 176.302 66.8412 176.211 66.5175L176.207 66.5101C175.908 65.4184 176.027 64.2059 176.465 63.1313C176.899 62.0663 177.653 61.1188 178.628 60.5427ZM180.063 61.9273C179.891 61.9774 179.712 62.056 179.528 62.1642C178.911 62.5287 178.426 63.1483 178.138 63.8542C177.851 64.5591 177.767 65.3331 177.951 66.0062L177.95 66.0066C177.996 66.1683 178.06 66.3206 178.138 66.4614C178.318 66.7836 178.57 67.0089 178.861 67.1246C179.163 67.2446 179.518 67.2554 179.89 67.1442C180.055 67.095 180.23 67.0171 180.412 66.9093C181.032 66.5431 181.522 65.9206 181.81 65.2117C182.097 64.5092 182.18 63.7406 181.993 63.0747L181.989 63.0674C181.943 62.8986 181.879 62.7434 181.802 62.6039C181.625 62.2873 181.376 62.0653 181.089 61.9506C180.789 61.8312 180.435 61.8191 180.063 61.9273Z" fill="url(#paint5_linear_332_29863)"/>
<path fill-rule="evenodd" clip-rule="evenodd" d="M178.791 60.7596C180.783 59.5825 183.074 60.4093 183.704 62.7043L183.703 62.7045C184.666 66.1469 181.364 69.9503 178.388 68.766C175.393 67.5743 175.729 62.5688 178.791 60.7596ZM180.064 61.9274C179.891 61.9775 179.712 62.0561 179.529 62.1643C178.911 62.5289 178.426 63.1485 178.138 63.8544C177.851 64.5592 177.767 65.3332 177.952 66.0064L177.95 66.0067C177.997 66.1685 178.06 66.3207 178.139 66.4615C178.318 66.7837 178.571 67.0091 178.862 67.1248C179.163 67.2447 179.518 67.2556 179.89 67.1444C180.055 67.0952 180.23 67.0173 180.412 66.9094C181.032 66.5432 181.522 65.9208 181.811 65.2119C182.097 64.5093 182.181 63.7407 181.993 63.0748L181.989 63.0676C181.943 62.8988 181.88 62.7436 181.802 62.604C181.626 62.2875 181.376 62.0654 181.089 61.9508C180.79 61.8313 180.436 61.8192 180.064 61.9274Z" fill="url(#paint6_linear_332_29863)"/>
<path fill-rule="evenodd" clip-rule="evenodd" d="M179.177 61.6206C180.678 60.7337 182.404 61.3568 182.879 63.0861L182.878 63.0864C183.604 65.6803 181.116 68.5463 178.873 67.6539C176.616 66.7559 176.869 62.984 179.177 61.6206ZM180.063 61.9273C179.891 61.9774 179.712 62.056 179.529 62.1642C178.911 62.5288 178.426 63.1483 178.138 63.8542C177.851 64.5591 177.767 65.3331 177.951 66.0062L177.95 66.0066C177.996 66.1684 178.06 66.3206 178.139 66.4614C178.318 66.7836 178.571 67.009 178.861 67.1246C179.163 67.2446 179.518 67.2554 179.89 67.1442C180.055 67.095 180.23 67.0171 180.412 66.9093C181.032 66.5431 181.522 65.9206 181.811 65.2117C182.097 64.5092 182.18 63.7406 181.993 63.0747L181.989 63.0675C181.943 62.8986 181.879 62.7434 181.802 62.6039C181.625 62.2874 181.376 62.0653 181.089 61.9507C180.789 61.8312 180.435 61.8191 180.063 61.9273Z" fill="url(#paint7_linear_332_29863)"/>
<path fill-rule="evenodd" clip-rule="evenodd" d="M166.865 57.4996C166.463 56.6139 166.126 55.707 165.864 54.7993C165.442 53.3362 165.209 51.8646 165.209 50.4638C165.209 48.969 165.472 47.6617 165.949 46.5766C166.494 45.3367 167.317 44.3887 168.354 43.7729C169.385 43.1605 170.591 42.9007 171.907 43.0342C173.055 43.1506 174.287 43.5692 175.546 44.3191C176.731 45.0237 177.851 45.9663 178.863 47.0675C179.896 48.1911 180.822 49.4834 181.592 50.8578C182.364 52.2346 182.988 53.7086 183.416 55.1917C183.838 56.6536 184.072 58.1238 184.072 59.5218C184.072 61.1653 183.691 63.1134 182.628 64.6215C181.755 65.8603 180.473 66.7819 178.653 67.0191C178.45 66.8918 178.274 66.704 178.138 66.4613C178.06 66.3205 177.996 66.1683 177.95 66.0065C177.767 65.333 177.851 64.559 178.138 63.8541C178.22 63.6544 178.317 63.4614 178.428 63.2794C178.999 63.1467 179.408 62.8334 179.692 62.4305C180.244 61.6482 180.441 60.5161 180.441 59.5219C180.441 58.4707 180.264 57.3574 179.942 56.2436C179.598 55.0503 179.09 53.8546 178.458 52.7277C177.825 51.5979 177.072 50.5444 176.239 49.6387C175.457 48.7877 174.609 48.0699 173.731 47.5474C172.931 47.071 172.196 46.8098 171.552 46.7446C171.002 46.6888 170.528 46.7792 170.155 47.0012C169.788 47.2185 169.48 47.5931 169.253 48.1104C168.987 48.7169 168.839 49.5059 168.839 50.4638C168.839 51.5182 169.017 52.6331 169.338 53.7474C169.52 54.3794 169.747 55.0094 170.011 55.6276L166.865 57.4996Z" fill="#332A7C"/>
<path fill-rule="evenodd" clip-rule="evenodd" d="M177.928 64.5409C177.976 64.3087 178.047 64.078 178.138 63.8542C178.22 63.6545 178.317 63.4615 178.429 63.2795C179 63.1468 179.409 62.8335 179.693 62.4306C180.244 61.6483 180.442 60.5162 180.442 59.522C180.442 58.4707 180.264 57.3575 179.942 56.2437C179.598 55.0504 179.09 53.8547 178.458 52.7278C177.825 51.598 177.072 50.5445 176.24 49.6388C175.458 48.7878 174.61 48.07 173.732 47.5474C172.931 47.0711 172.196 46.8099 171.552 46.7446C171.002 46.6889 170.528 46.7793 170.155 47.0013C169.789 47.2186 169.48 47.5932 169.253 48.1104C168.987 48.717 168.84 49.506 168.84 50.4639C168.84 51.5183 169.017 52.6332 169.338 53.7475C169.52 54.3794 169.747 55.0095 170.012 55.6277L168.585 56.4761C167.708 54.5254 167.19 52.4541 167.19 50.5478C167.19 48.1603 168.005 46.481 169.32 45.7C170.635 44.9189 172.453 45.0265 174.461 46.2215C176.469 47.4165 178.29 49.4706 179.605 51.8167C180.919 54.1627 181.736 56.8124 181.736 59.1973C181.736 61.5873 180.919 63.2692 179.605 64.0503C179.111 64.3435 178.547 64.5101 177.928 64.5409Z" fill="#221E54"/>
<path fill-rule="evenodd" clip-rule="evenodd" d="M162.175 71.4059C163.772 70.4626 165.475 71.1072 165.959 72.8679C166.455 74.6285 165.556 76.8293 163.96 77.7725C162.363 78.7157 160.673 78.071 160.176 76.3105C159.694 74.5498 160.579 72.3489 162.175 71.4059Z" fill="#A7B6C7"/>
<path fill-rule="evenodd" clip-rule="evenodd" d="M161.725 70.595C162.034 70.4128 162.352 70.276 162.671 70.1829C163.426 69.9631 164.175 70 164.838 70.2644C165.513 70.534 166.085 71.0317 166.473 71.7286C166.62 71.9929 166.741 72.2897 166.831 72.6159C166.83 72.6159 166.83 72.6161 166.829 72.6162C167.135 73.7079 167.017 74.9164 166.581 75.9873C166.146 77.0554 165.387 78.0062 164.41 78.5831C164.113 78.7585 163.805 78.8923 163.491 78.9862C162.728 79.214 161.973 79.1808 161.306 78.9156C160.628 78.6458 160.053 78.1446 159.662 77.4414C159.519 77.1847 159.399 76.8934 159.308 76.5699C159.307 76.5673 159.305 76.5648 159.304 76.5625C159.005 75.4708 159.124 74.2583 159.562 73.1836C159.996 72.1187 160.75 71.1712 161.725 70.595ZM163.161 71.9794C162.988 72.0295 162.809 72.1082 162.626 72.2164C162.008 72.581 161.523 73.2006 161.236 73.9065C160.948 74.6114 160.864 75.3854 161.049 76.0586C161.048 76.0586 161.048 76.0588 161.047 76.0589C161.094 76.2207 161.157 76.3728 161.236 76.5136C161.415 76.8359 161.668 77.0613 161.959 77.1769C162.26 77.2968 162.615 77.3077 162.987 77.1966C163.152 77.1473 163.327 77.0694 163.509 76.9615C164.129 76.5953 164.619 75.9729 164.908 75.2641C165.194 74.5615 165.278 73.7928 165.09 73.1269C165.089 73.1244 165.087 73.1219 165.086 73.1196C165.04 72.9509 164.977 72.7955 164.899 72.656C164.723 72.3396 164.473 72.1173 164.186 72.0029C163.887 71.8834 163.532 71.8714 163.161 71.9794Z" fill="url(#paint8_linear_332_29863)"/>
<path fill-rule="evenodd" clip-rule="evenodd" d="M161.888 70.8119C163.88 69.6347 166.171 70.4616 166.801 72.7565C166.801 72.7565 166.8 72.7565 166.8 72.7567C167.763 76.1992 164.461 80.0025 161.485 78.8183C158.49 77.6265 158.826 72.6211 161.888 70.8119ZM163.16 71.9794C162.988 72.0295 162.809 72.1082 162.626 72.2164C162.008 72.581 161.523 73.2006 161.235 73.9065C160.948 74.6115 160.864 75.3855 161.049 76.0586C161.048 76.0586 161.048 76.0588 161.047 76.059C161.093 76.2207 161.157 76.3728 161.236 76.5137C161.415 76.8359 161.668 77.0613 161.958 77.1769C162.26 77.2969 162.615 77.3077 162.987 77.1966C163.152 77.1473 163.327 77.0694 163.509 76.9615C164.129 76.5954 164.619 75.9729 164.907 75.2641C165.194 74.5616 165.277 73.7929 165.09 73.127C165.089 73.1244 165.087 73.1219 165.086 73.1196C165.04 72.9509 164.976 72.7956 164.899 72.656C164.723 72.3396 164.473 72.1173 164.186 72.0029C163.886 71.8834 163.532 71.8714 163.16 71.9794Z" fill="url(#paint9_linear_332_29863)"/>
<path fill-rule="evenodd" clip-rule="evenodd" d="M162.274 71.673C163.775 70.7861 165.502 71.4091 165.976 73.1384C165.976 73.1384 165.976 73.1384 165.975 73.1386C166.701 75.7325 164.213 78.5986 161.971 77.7063C159.713 76.8083 159.967 73.0363 162.274 71.673ZM163.161 71.9794C162.989 72.0296 162.809 72.1083 162.626 72.2165C162.009 72.581 161.523 73.2006 161.236 73.9065C160.948 74.6115 160.864 75.3855 161.049 76.0586C161.048 76.0586 161.048 76.0589 161.048 76.059C161.094 76.2208 161.158 76.3729 161.236 76.5137C161.415 76.836 161.668 77.0613 161.959 77.1769C162.26 77.2969 162.615 77.3077 162.987 77.1966C163.152 77.1473 163.327 77.0694 163.51 76.9616C164.13 76.5954 164.619 75.9729 164.908 75.2641C165.194 74.5616 165.278 73.7929 165.09 73.127C165.089 73.1245 165.088 73.1219 165.087 73.1196C165.04 72.9509 164.977 72.7956 164.899 72.6561C164.723 72.3396 164.473 72.1174 164.186 72.0029C163.887 71.8834 163.533 71.8715 163.161 71.9794Z" fill="url(#paint10_linear_332_29863)"/>
<path fill-rule="evenodd" clip-rule="evenodd" d="M149.962 67.552C149.56 66.6661 149.223 65.7594 148.961 64.8518C148.539 63.3887 148.306 61.9171 148.306 60.5163C148.306 59.0215 148.57 57.7143 149.046 56.6291C149.591 55.3892 150.414 54.4413 151.451 53.8253C152.482 53.2129 153.688 52.9532 155.004 53.0867C156.153 53.2032 157.384 53.6216 158.644 54.3717C159.828 55.0762 160.948 56.0188 161.96 57.12C162.993 58.2439 163.919 59.5362 164.689 60.9103C165.461 62.2873 166.086 63.7612 166.514 65.2443C166.936 66.7064 167.169 68.1764 167.169 69.5744C167.169 71.2179 166.788 73.1662 165.725 74.6742C164.852 75.9129 163.571 76.8345 161.751 77.0718C161.548 76.9444 161.371 76.7567 161.236 76.5139C161.157 76.373 161.094 76.221 161.047 76.0592C160.864 75.3856 160.948 74.6116 161.236 73.9067C161.317 73.7071 161.414 73.5141 161.526 73.3321C162.097 73.1995 162.506 72.8862 162.79 72.4832C163.341 71.7009 163.539 70.5688 163.539 69.5746C163.539 68.5234 163.361 67.4101 163.04 66.2964C162.695 65.1032 162.187 63.9072 161.555 62.7803C160.922 61.6506 160.169 60.5972 159.337 59.6915C158.555 58.8405 157.707 58.1228 156.829 57.6001C156.028 57.1237 155.293 56.8625 154.65 56.7974C154.099 56.7415 153.626 56.832 153.252 57.0539C152.886 57.2713 152.578 57.6459 152.35 58.1631C152.084 58.7697 151.937 59.5587 151.937 60.5165C151.937 61.571 152.114 62.6858 152.435 63.8002C152.617 64.4321 152.844 65.0622 153.109 65.6802C152.06 66.304 151.011 66.9278 149.962 67.552Z" fill="#332A7C"/>
<path fill-rule="evenodd" clip-rule="evenodd" d="M161.026 74.5932C161.074 74.361 161.145 74.1304 161.236 73.9065C161.317 73.7068 161.414 73.5138 161.526 73.3318C162.097 73.1992 162.506 72.8859 162.79 72.4829C163.341 71.7007 163.539 70.5685 163.539 69.5743C163.539 68.5231 163.361 67.4098 163.04 66.2961C162.695 65.1029 162.187 63.907 161.556 62.78C160.923 61.6503 160.169 60.5969 159.337 59.6912C158.555 58.8402 157.707 58.1225 156.829 57.5998C156.028 57.1235 155.294 56.8622 154.65 56.7971C154.1 56.7412 153.626 56.8317 153.252 57.0536C152.886 57.2711 152.578 57.6457 152.351 58.1628C152.084 58.7694 151.937 59.5585 151.937 60.5162C151.937 61.5707 152.114 62.6855 152.436 63.7999C152.618 64.4318 152.844 65.0619 153.109 65.68C152.633 65.9627 152.158 66.2456 151.683 66.5284C150.806 64.5778 150.287 62.5062 150.287 60.6C150.287 58.2125 151.102 56.5333 152.417 55.7522C153.732 54.971 155.551 55.0788 157.559 56.2739C159.567 57.4689 161.387 59.5229 162.702 61.869C164.017 64.2151 164.833 66.8647 164.833 69.2495C164.833 71.6398 164.017 73.3215 162.702 74.1027C162.209 74.3958 161.644 74.5626 161.026 74.5932Z" fill="#221E54"/>
<path fill-rule="evenodd" clip-rule="evenodd" d="M145.273 81.4583C146.869 80.515 148.573 81.1596 149.056 82.9203C149.553 84.6809 148.654 86.8818 147.057 87.8249C145.461 88.7682 143.77 88.1235 143.274 86.3629C142.791 84.6022 143.676 82.4013 145.273 81.4583Z" fill="#A7B6C7"/>
<path fill-rule="evenodd" clip-rule="evenodd" d="M144.822 80.6476C145.131 80.4654 145.449 80.3285 145.769 80.2354C146.524 80.0156 147.273 80.0524 147.935 80.317C148.61 80.5864 149.182 81.0843 149.57 81.7812C149.717 82.0454 149.838 82.3422 149.928 82.6685C149.928 82.6685 149.927 82.6688 149.927 82.6689C150.232 83.7606 150.115 84.9691 149.678 86.0399C149.243 87.1081 148.484 88.0588 147.507 88.6358C147.211 88.8111 146.902 88.9449 146.588 89.0389C145.826 89.2668 145.071 89.2336 144.404 88.9683C143.726 88.6986 143.15 88.1973 142.759 87.4942C142.616 87.2375 142.497 86.9462 142.405 86.6226C142.404 86.6201 142.403 86.6175 142.402 86.6152C142.102 85.5236 142.222 84.311 142.66 83.2363C143.093 82.1712 143.847 81.2237 144.822 80.6476ZM146.258 82.0319C146.086 82.082 145.906 82.1607 145.723 82.2689C145.106 82.6335 144.62 83.2531 144.333 83.959C144.045 84.664 143.961 85.4379 144.146 86.1111C144.145 86.1111 144.145 86.1112 144.145 86.1115C144.191 86.2732 144.255 86.4253 144.333 86.5661C144.512 86.8884 144.765 87.1137 145.056 87.2294C145.357 87.3494 145.712 87.3602 146.085 87.2491C146.249 87.1998 146.424 87.1219 146.607 87.014C147.227 86.6478 147.716 86.0254 148.005 85.3166C148.291 84.6139 148.375 83.8454 148.187 83.1795C148.186 83.1769 148.185 83.1744 148.184 83.1721C148.137 83.0034 148.074 82.8481 147.996 82.7085C147.82 82.3921 147.57 82.17 147.283 82.0554C146.984 81.9359 146.63 81.9239 146.258 82.0319Z" fill="url(#paint11_linear_332_29863)"/>
<path fill-rule="evenodd" clip-rule="evenodd" d="M144.985 80.8643C146.977 79.6871 149.268 80.514 149.898 82.809C149.897 82.809 149.897 82.809 149.897 82.8092C150.86 86.2517 147.558 90.055 144.582 88.8708C141.587 87.679 141.923 82.6736 144.985 80.8643ZM146.257 82.0319C146.085 82.082 145.906 82.1607 145.723 82.2689C145.105 82.6335 144.62 83.2531 144.332 83.959C144.045 84.6639 143.961 85.4379 144.146 86.1111C144.145 86.1111 144.144 86.1112 144.144 86.1114C144.19 86.2732 144.254 86.4253 144.333 86.5661C144.512 86.8884 144.765 87.1137 145.055 87.2294C145.357 87.3493 145.712 87.3602 146.084 87.2491C146.249 87.1998 146.424 87.1219 146.606 87.014C147.226 86.6478 147.716 86.0254 148.004 85.3166C148.291 84.6139 148.374 83.8454 148.187 83.1795C148.186 83.1769 148.184 83.1744 148.183 83.1721C148.137 83.0034 148.074 82.8481 147.996 82.7085C147.82 82.3921 147.57 82.1699 147.283 82.0554C146.983 81.9359 146.629 81.9239 146.257 82.0319Z" fill="url(#paint12_linear_332_29863)"/>
<path fill-rule="evenodd" clip-rule="evenodd" d="M145.371 81.7255C146.872 80.8384 148.599 81.4615 149.073 83.1908C149.073 83.1908 149.073 83.1908 149.073 83.1911C149.798 85.785 147.31 88.651 145.068 87.7587C142.81 86.8607 143.064 83.0887 145.371 81.7255ZM146.258 82.0319C146.086 82.082 145.906 82.1607 145.723 82.2689C145.106 82.6335 144.62 83.253 144.333 83.9589C144.046 84.6639 143.961 85.4379 144.146 86.1111C144.146 86.1111 144.145 86.1112 144.145 86.1114C144.191 86.2732 144.255 86.4253 144.333 86.5661C144.512 86.8884 144.765 87.1137 145.056 87.2293C145.357 87.3493 145.713 87.3601 146.085 87.249C146.249 87.1997 146.424 87.1218 146.607 87.014C147.227 86.6478 147.716 86.0253 148.005 85.3166C148.291 84.6139 148.375 83.8453 148.187 83.1794C148.186 83.1769 148.185 83.1743 148.184 83.172C148.137 83.0033 148.074 82.848 147.996 82.7085C147.82 82.3921 147.571 82.1699 147.283 82.0554C146.984 81.9359 146.63 81.9239 146.258 82.0319Z" fill="url(#paint13_linear_332_29863)"/>
<path fill-rule="evenodd" clip-rule="evenodd" d="M133.059 77.6045C132.657 76.7186 132.32 75.8119 132.058 74.9043C131.637 73.4412 131.403 71.9696 131.403 70.5688C131.403 69.074 131.667 67.7667 132.143 66.6816C132.688 65.4417 133.511 64.4939 134.548 63.8779C135.579 63.2655 136.785 63.0058 138.101 63.1393C139.25 63.2558 140.481 63.6743 141.741 64.4243C142.925 65.1288 144.045 66.0714 145.057 67.1727C146.09 68.2965 147.016 69.5888 147.786 70.9629C148.558 72.34 149.183 73.8138 149.611 75.2969C150.033 76.759 150.266 78.229 150.266 79.627C150.266 81.2705 149.885 83.2188 148.822 84.7268C147.949 85.9655 146.668 86.8871 144.848 87.1245C144.644 86.9969 144.468 86.8093 144.333 86.5665C144.254 86.4256 144.191 86.2736 144.144 86.1118C143.961 85.4382 144.045 84.6642 144.333 83.9594C144.414 83.7597 144.511 83.5667 144.623 83.3847C145.194 83.2521 145.603 82.9388 145.887 82.5358C146.438 81.7535 146.636 80.6214 146.636 79.6272C146.636 78.576 146.458 77.4627 146.136 76.349C145.792 75.1558 145.284 73.9598 144.652 72.833C144.019 71.7033 143.266 70.6499 142.434 69.7442C141.652 68.8931 140.803 68.1754 139.925 67.6528C139.125 67.1765 138.39 66.9152 137.746 66.8501C137.196 66.7942 136.723 66.8848 136.349 67.1066C135.983 67.3241 135.675 67.6987 135.447 68.2158C135.181 68.8224 135.034 69.6113 135.034 70.5692C135.034 71.6237 135.211 72.7385 135.532 73.8529C135.714 74.4848 135.941 75.1149 136.206 75.733C135.157 76.3565 134.108 76.9803 133.059 77.6045Z" fill="#332A7C"/>
<path fill-rule="evenodd" clip-rule="evenodd" d="M144.123 84.6457C144.171 84.4136 144.242 84.1829 144.333 83.959C144.414 83.7593 144.512 83.5663 144.623 83.3843C145.194 83.2517 145.603 82.9384 145.887 82.5354C146.438 81.7532 146.636 80.621 146.636 79.6268C146.636 78.5756 146.458 77.4623 146.137 76.3486C145.792 75.1554 145.284 73.9595 144.653 72.8326C144.02 71.7029 143.267 70.6495 142.434 69.7438C141.652 68.8927 140.804 68.175 139.926 67.6524C139.126 67.1761 138.391 66.9149 137.747 66.8497C137.197 66.7939 136.723 66.8844 136.349 67.1062C135.983 67.3237 135.675 67.6983 135.448 68.2154C135.181 68.822 135.034 69.611 135.034 70.5689C135.034 71.6233 135.211 72.7381 135.533 73.8525C135.715 74.4844 135.941 75.1145 136.206 75.7326C135.731 76.0154 135.255 76.2982 134.78 76.5811C133.903 74.6305 133.385 72.559 133.385 70.6526C133.385 68.2651 134.199 66.586 135.514 65.805C136.829 65.0237 138.648 65.1316 140.656 66.3266C142.664 67.5216 144.484 69.5757 145.799 71.9218C147.114 74.2678 147.93 76.9175 147.93 79.3022C147.93 81.6925 147.114 83.3742 145.799 84.1554C145.306 84.4484 144.741 84.6151 144.123 84.6457Z" fill="#221E54"/>
<path fill-rule="evenodd" clip-rule="evenodd" d="M128.37 91.5108C129.967 90.5675 131.67 91.2121 132.153 92.9728C132.65 94.7334 131.751 96.9342 130.155 97.8774C128.558 98.8206 126.868 98.1758 126.371 96.4154C125.888 94.6546 126.774 92.4538 128.37 91.5108Z" fill="#A7B6C7"/>
<path fill-rule="evenodd" clip-rule="evenodd" d="M127.92 90.6999C128.228 90.5177 128.546 90.3808 128.866 90.2877C129.621 90.068 130.37 90.1048 131.033 90.3693C131.707 90.6388 132.28 91.1367 132.668 91.8335C132.815 92.0977 132.936 92.3946 133.026 92.7209C133.025 92.7209 133.025 92.7211 133.024 92.7212C133.33 93.8129 133.212 95.0214 132.776 96.0921C132.341 97.1604 131.582 98.111 130.605 98.688C130.308 98.8634 129.999 98.9971 129.685 99.0912C128.923 99.319 128.168 99.2857 127.501 99.0204C126.823 98.7508 126.248 98.2494 125.856 97.5463C125.713 97.2896 125.594 96.9983 125.503 96.6747C125.501 96.6722 125.5 96.6696 125.499 96.6673C125.2 95.5757 125.319 94.3631 125.757 93.2885C126.191 92.2236 126.945 91.276 127.92 90.6999ZM129.355 92.0844C129.183 92.1345 129.004 92.2132 128.821 92.3214C128.203 92.686 127.718 93.3056 127.43 94.0114C127.143 94.7163 127.059 95.4904 127.243 96.1636C127.243 96.1636 127.242 96.1638 127.242 96.1639C127.288 96.3257 127.352 96.4778 127.431 96.6186C127.61 96.9409 127.863 97.1663 128.153 97.2818C128.455 97.4018 128.81 97.4126 129.182 97.3016C129.347 97.2522 129.522 97.1743 129.704 97.0665C130.324 96.7003 130.814 96.0777 131.102 95.3691C131.389 94.6665 131.473 93.8978 131.285 93.2319C131.283 93.2294 131.282 93.2268 131.281 93.2245C131.235 93.0558 131.172 92.9005 131.094 92.761C130.918 92.4446 130.668 92.2223 130.381 92.1079C130.081 91.9884 129.727 91.9763 129.355 92.0844Z" fill="url(#paint14_linear_332_29863)"/>
<path fill-rule="evenodd" clip-rule="evenodd" d="M128.083 90.9167C130.074 89.7395 132.366 90.5664 132.996 92.8613C132.995 92.8613 132.995 92.8613 132.994 92.8615C133.957 96.304 130.656 100.107 127.68 98.9231C124.684 97.7313 125.02 92.7259 128.083 90.9167ZM129.355 92.0843C129.183 92.1345 129.003 92.2132 128.82 92.3214C128.203 92.6859 127.718 93.3055 127.43 94.0114C127.143 94.7163 127.059 95.4904 127.243 96.1635C127.243 96.1635 127.242 96.1638 127.242 96.1639C127.288 96.3257 127.352 96.4778 127.43 96.6186C127.61 96.9409 127.862 97.1662 128.153 97.2818C128.454 97.4018 128.81 97.4126 129.182 97.3015C129.346 97.2522 129.521 97.1743 129.704 97.0665C130.324 96.7003 130.813 96.0777 131.102 95.369C131.389 94.6665 131.472 93.8978 131.284 93.2319C131.283 93.2293 131.282 93.2268 131.281 93.2245C131.235 93.0558 131.171 92.9005 131.094 92.7609C130.917 92.4445 130.668 92.2223 130.38 92.1078C130.081 91.9883 129.727 91.9762 129.355 92.0843Z" fill="url(#paint15_linear_332_29863)"/>
<path fill-rule="evenodd" clip-rule="evenodd" d="M128.468 91.7778C129.969 90.8909 131.696 91.5139 132.171 93.2432C132.17 93.2432 132.17 93.2432 132.17 93.2434C132.896 95.8373 130.407 98.7034 128.165 97.8111C125.908 96.9131 126.161 93.1412 128.468 91.7778ZM129.355 92.0844C129.183 92.1345 129.003 92.2132 128.82 92.3214C128.203 92.686 127.718 93.3055 127.43 94.0114C127.143 94.7163 127.059 95.4904 127.243 96.1636C127.243 96.1636 127.242 96.1638 127.242 96.1639C127.288 96.3257 127.352 96.4778 127.43 96.6186C127.61 96.9409 127.862 97.1663 128.153 97.2818C128.454 97.4018 128.81 97.4126 129.182 97.3015C129.346 97.2522 129.521 97.1743 129.704 97.0665C130.324 96.7003 130.813 96.0777 131.102 95.369C131.389 94.6665 131.472 93.8978 131.284 93.2319C131.283 93.2294 131.282 93.2268 131.281 93.2245C131.235 93.0558 131.171 92.9005 131.094 92.761C130.917 92.4446 130.668 92.2223 130.38 92.1079C130.081 91.9884 129.727 91.9763 129.355 92.0844Z" fill="url(#paint16_linear_332_29863)"/>
<path fill-rule="evenodd" clip-rule="evenodd" d="M116.156 87.6568C115.755 86.7709 115.417 85.8642 115.156 84.9565C114.734 83.4934 114.501 82.0219 114.501 80.6211C114.501 79.1263 114.764 77.8191 115.241 76.7338C115.786 75.494 116.609 74.5461 117.646 73.9301C118.677 73.3178 119.882 73.0579 121.199 73.1915C122.347 73.308 123.578 73.7265 124.838 74.4765C126.022 75.181 127.143 76.1236 128.155 77.2248C129.188 78.3487 130.114 79.6409 130.884 81.015C131.656 82.3921 132.28 83.866 132.708 85.3491C133.131 86.8111 133.364 88.2812 133.364 89.6792C133.364 91.3227 132.983 93.271 131.92 94.779C131.047 96.0177 129.765 96.9393 127.945 97.1766C127.742 97.0491 127.565 96.8615 127.43 96.6187C127.352 96.4779 127.288 96.3258 127.242 96.164C127.059 95.4904 127.143 94.7164 127.43 94.0115C127.512 93.8118 127.609 93.6188 127.72 93.4369C128.291 93.3043 128.7 92.991 128.984 92.588C129.536 91.8057 129.734 90.6736 129.734 89.6794C129.734 88.6282 129.556 87.5148 129.234 86.4012C128.89 85.208 128.382 84.012 127.75 82.8851C127.117 81.7554 126.364 80.702 125.531 79.7963C124.749 78.9453 123.901 78.2275 123.023 77.705C122.223 77.2286 121.488 76.9674 120.844 76.9023C120.294 76.8464 119.82 76.937 119.447 77.1588C119.08 77.3762 118.772 77.7509 118.545 78.268C118.279 78.8746 118.131 79.6636 118.131 80.6214C118.131 81.6759 118.309 82.7907 118.63 83.9051C118.812 84.537 119.039 85.1671 119.303 85.7852C118.254 86.4088 117.205 87.0327 116.156 87.6568Z" fill="#332A7C"/>
<path fill-rule="evenodd" clip-rule="evenodd" d="M127.22 94.698C127.268 94.4659 127.339 94.2352 127.43 94.0114C127.512 93.8117 127.609 93.6187 127.72 93.4368C128.291 93.3041 128.7 92.9908 128.984 92.5879C129.536 91.8056 129.733 90.6735 129.733 89.6793C129.733 88.628 129.555 87.5147 129.234 86.401C128.89 85.2078 128.382 84.0119 127.75 82.885C127.117 81.7553 126.364 80.7018 125.531 79.7961C124.749 78.9452 123.901 78.2274 123.023 77.7049C122.223 77.2285 121.488 76.9673 120.844 76.9022C120.294 76.8463 119.82 76.9369 119.447 77.1587C119.08 77.3761 118.772 77.7507 118.545 78.2679C118.279 78.8744 118.131 79.6635 118.131 80.6213C118.131 81.6757 118.309 82.7906 118.63 83.905C118.812 84.5369 119.039 85.1669 119.303 85.785C118.828 86.0679 118.352 86.3507 117.877 86.6336C117 84.6829 116.482 82.6114 116.482 80.7052C116.482 78.3175 117.297 76.6384 118.612 75.8574C119.926 75.0762 121.745 75.184 123.753 76.379C125.761 77.5741 127.582 79.628 128.897 81.9742C130.211 84.3202 131.028 86.9699 131.028 89.3547C131.028 91.745 130.211 93.4266 128.897 94.2079C128.403 94.5007 127.839 94.6674 127.22 94.698Z" fill="#221E54"/>
<path fill-rule="evenodd" clip-rule="evenodd" d="M111.467 101.563C113.064 100.62 114.767 101.265 115.25 103.025C115.747 104.786 114.848 106.987 113.251 107.93C111.655 108.873 109.965 108.228 109.468 106.468C108.985 104.707 109.871 102.506 111.467 101.563Z" fill="#A7B6C7"/>
<path fill-rule="evenodd" clip-rule="evenodd" d="M111.017 100.752C111.325 100.57 111.643 100.433 111.963 100.34C112.718 100.121 113.467 100.157 114.13 100.422C114.805 100.691 115.377 101.189 115.765 101.886C115.912 102.15 116.033 102.447 116.123 102.773C116.122 102.773 116.122 102.774 116.121 102.774C116.427 103.865 116.309 105.074 115.873 106.145C115.438 107.213 114.679 108.164 113.702 108.741C113.405 108.916 113.097 109.05 112.783 109.144C112.02 109.372 111.265 109.338 110.598 109.073C109.92 108.803 109.345 108.302 108.954 107.599C108.81 107.342 108.691 107.051 108.6 106.727C108.599 106.725 108.597 106.722 108.596 106.72C108.297 105.628 108.416 104.416 108.854 103.341C109.288 102.276 110.042 101.329 111.017 100.752ZM112.452 102.137C112.28 102.187 112.101 102.266 111.918 102.374C111.3 102.739 110.815 103.358 110.527 104.064C110.24 104.769 110.156 105.543 110.341 106.216C110.34 106.216 110.34 106.216 110.339 106.216C110.386 106.378 110.449 106.53 110.528 106.671C110.707 106.993 110.96 107.219 111.251 107.334C111.552 107.454 111.907 107.465 112.279 107.354C112.444 107.305 112.619 107.227 112.801 107.119C113.421 106.753 113.911 106.13 114.2 105.422C114.486 104.719 114.57 103.95 114.382 103.285C114.381 103.282 114.379 103.279 114.378 103.277C114.332 103.108 114.269 102.953 114.191 102.814C114.015 102.497 113.765 102.275 113.478 102.16C113.178 102.041 112.824 102.029 112.452 102.137Z" fill="url(#paint17_linear_332_29863)"/>
<path fill-rule="evenodd" clip-rule="evenodd" d="M111.18 100.969C113.171 99.7922 115.463 100.619 116.093 102.914C116.092 102.914 116.092 102.914 116.092 102.914C117.055 106.357 113.753 110.16 110.777 108.976C107.781 107.784 108.117 102.779 111.18 100.969ZM112.452 102.137C112.28 102.187 112.101 102.266 111.917 102.374C111.3 102.739 110.815 103.358 110.527 104.064C110.24 104.769 110.156 105.543 110.34 106.216C110.34 106.216 110.339 106.216 110.339 106.216C110.385 106.378 110.449 106.53 110.527 106.671C110.707 106.993 110.959 107.219 111.25 107.334C111.552 107.454 111.907 107.465 112.279 107.354C112.444 107.305 112.619 107.227 112.801 107.119C113.421 106.753 113.911 106.13 114.199 105.422C114.486 104.719 114.569 103.95 114.382 103.284C114.38 103.282 114.379 103.279 114.378 103.277C114.332 103.108 114.268 102.953 114.191 102.814C114.014 102.497 113.765 102.275 113.478 102.16C113.178 102.041 112.824 102.029 112.452 102.137Z" fill="url(#paint18_linear_332_29863)"/>
<path fill-rule="evenodd" clip-rule="evenodd" d="M111.566 101.83C113.066 100.944 114.793 101.566 115.268 103.296C115.267 103.296 115.267 103.296 115.267 103.296C115.993 105.89 113.505 108.756 111.262 107.864C109.005 106.966 109.258 103.194 111.566 101.83ZM112.452 102.137C112.28 102.187 112.101 102.266 111.917 102.374C111.3 102.739 110.815 103.358 110.527 104.064C110.24 104.769 110.156 105.543 110.34 106.216C110.34 106.216 110.339 106.216 110.339 106.217C110.385 106.378 110.449 106.53 110.527 106.671C110.707 106.993 110.959 107.219 111.25 107.334C111.552 107.454 111.907 107.465 112.279 107.354C112.444 107.305 112.619 107.227 112.801 107.119C113.421 106.753 113.911 106.13 114.199 105.422C114.486 104.719 114.569 103.95 114.382 103.285C114.38 103.282 114.379 103.279 114.378 103.277C114.332 103.108 114.268 102.953 114.191 102.814C114.015 102.497 113.765 102.275 113.478 102.16C113.178 102.041 112.824 102.029 112.452 102.137Z" fill="url(#paint19_linear_332_29863)"/>
<path fill-rule="evenodd" clip-rule="evenodd" d="M99.2538 97.7094C98.8521 96.8235 98.5146 95.9168 98.253 95.0091C97.8312 93.5459 97.5982 92.0745 97.5982 90.6736C97.5982 89.1789 97.8615 87.8715 98.3382 86.7864C98.8827 85.5467 99.706 84.5988 100.743 83.9828C101.774 83.3703 102.98 83.1106 104.296 83.2442C105.445 83.3607 106.676 83.7792 107.936 84.5292C109.12 85.2337 110.24 86.1763 111.252 87.2775C112.285 88.4013 113.211 89.6936 113.981 91.0677C114.753 92.4448 115.377 93.9187 115.806 95.4018C116.228 96.8638 116.461 98.3339 116.461 99.7319C116.461 101.375 116.08 103.324 115.017 104.832C114.144 106.07 112.863 106.992 111.043 107.229C110.839 107.102 110.663 106.914 110.528 106.671C110.449 106.531 110.385 106.378 110.339 106.217C110.156 105.543 110.24 104.769 110.528 104.064C110.609 103.865 110.706 103.672 110.818 103.49C111.389 103.357 111.798 103.044 112.082 102.641C112.633 101.858 112.831 100.726 112.831 99.732C112.831 98.6807 112.653 97.5674 112.331 96.4537C111.987 95.2605 111.479 94.0646 110.847 92.9378C110.214 91.8081 109.461 90.7546 108.629 89.8489C107.847 88.9979 106.999 88.2801 106.121 87.7577C105.32 87.2813 104.585 87.0201 103.941 86.9549C103.391 86.899 102.918 86.9896 102.544 87.2114C102.178 87.4288 101.869 87.8034 101.642 88.3206C101.376 88.9271 101.229 89.7162 101.229 90.674C101.229 91.7284 101.406 92.8433 101.727 93.9576C101.909 94.5896 102.136 95.2196 102.401 95.8377C101.352 96.4613 100.303 97.0853 99.2538 97.7094Z" fill="#332A7C"/>
<path fill-rule="evenodd" clip-rule="evenodd" d="M110.317 104.751C110.365 104.518 110.436 104.288 110.527 104.064C110.609 103.864 110.706 103.671 110.817 103.489C111.388 103.357 111.797 103.043 112.081 102.64C112.633 101.858 112.83 100.726 112.83 99.7316C112.83 98.6804 112.653 97.5671 112.331 96.4534C111.987 95.2602 111.479 94.0642 110.847 92.9374C110.214 91.8077 109.461 90.7543 108.628 89.8486C107.846 88.9975 106.998 88.2798 106.12 87.7573C105.32 87.281 104.585 87.0198 103.941 86.9545C103.391 86.8987 102.917 86.9892 102.544 87.211C102.177 87.4285 101.869 87.8031 101.642 88.3202C101.376 88.9268 101.228 89.7159 101.228 90.6737C101.228 91.7281 101.406 92.8429 101.727 93.9573C101.909 94.5892 102.135 95.2193 102.4 95.8374C101.925 96.1202 101.449 96.403 100.974 96.6859C100.097 94.7352 99.5789 92.6638 99.5789 90.7575C99.5789 88.3699 100.393 86.6908 101.708 85.9098C103.023 85.1285 104.842 85.2364 106.85 86.4314C108.858 87.6264 110.678 89.6804 111.993 92.0266C113.308 94.3726 114.125 97.0223 114.125 99.407C114.125 101.797 113.308 103.479 111.993 104.26C111.5 104.553 110.936 104.72 110.317 104.751Z" fill="#221E54"/>
<path fill-rule="evenodd" clip-rule="evenodd" d="M94.5641 111.615C96.1605 110.672 97.8644 111.317 98.3474 113.077C98.8439 114.838 97.9451 117.039 96.3486 117.982C94.7521 118.925 93.0616 118.281 92.5653 116.52C92.0824 114.759 92.9678 112.559 94.5641 111.615Z" fill="#A7B6C7"/>
<path fill-rule="evenodd" clip-rule="evenodd" d="M94.1138 110.805C94.4221 110.622 94.7401 110.486 95.0602 110.392C95.815 110.173 96.564 110.21 97.2268 110.474C97.9014 110.743 98.4737 111.241 98.8617 111.938C99.0088 112.203 99.1298 112.499 99.2193 112.826L99.218 112.826C99.5235 113.918 99.4058 115.126 98.9698 116.197C98.5343 117.265 97.7754 118.216 96.7986 118.793C96.5021 118.968 96.1933 119.102 95.8793 119.196C95.117 119.424 94.3619 119.39 93.695 119.125C93.0172 118.855 92.4417 118.354 92.0503 117.651C91.9072 117.394 91.7879 117.103 91.6966 116.779L91.6931 116.772C91.3938 115.68 91.513 114.468 91.9509 113.393C92.3849 112.328 93.1386 111.381 94.1138 110.805ZM95.5492 112.189C95.3771 112.239 95.1977 112.318 95.0144 112.426C94.3972 112.791 93.9119 113.41 93.6242 114.116C93.337 114.821 93.2528 115.595 93.4374 116.268L93.4361 116.269C93.4823 116.43 93.5461 116.583 93.6244 116.724C93.8039 117.046 94.0564 117.271 94.3472 117.387C94.6486 117.507 95.0038 117.518 95.376 117.406C95.5407 117.357 95.7157 117.279 95.8981 117.171C96.5181 116.805 97.0076 116.183 97.2964 115.474C97.5827 114.771 97.6662 114.003 97.4786 113.337L97.4752 113.329C97.4289 113.161 97.3653 113.005 97.2876 112.866C97.1114 112.549 96.8618 112.327 96.5746 112.213C96.2753 112.093 95.9213 112.081 95.5492 112.189Z" fill="url(#paint20_linear_332_29863)"/>
<path fill-rule="evenodd" clip-rule="evenodd" d="M94.2769 111.022C96.2686 109.844 98.5601 110.671 99.1899 112.966L99.1887 112.966C100.152 116.409 96.8502 120.212 93.874 119.028C90.8786 117.836 91.2146 112.831 94.2769 111.022ZM95.5494 112.189C95.3772 112.239 95.1978 112.318 95.0145 112.426C94.3973 112.791 93.912 113.41 93.6243 114.116C93.3371 114.821 93.2529 115.595 93.4375 116.268L93.4362 116.269C93.4824 116.43 93.5462 116.583 93.6245 116.724C93.804 117.046 94.0566 117.271 94.3473 117.387C94.6487 117.507 95.0039 117.518 95.3761 117.406C95.5409 117.357 95.7158 117.279 95.8982 117.172C96.5182 116.805 97.0077 116.183 97.2965 115.474C97.5828 114.771 97.6663 114.003 97.4787 113.337L97.4753 113.33C97.429 113.161 97.3654 113.006 97.2877 112.866C97.1115 112.549 96.862 112.327 96.5747 112.213C96.2755 112.093 95.9214 112.081 95.5494 112.189Z" fill="url(#paint21_linear_332_29863)"/>
<path fill-rule="evenodd" clip-rule="evenodd" d="M94.6629 111.883C96.1638 110.996 97.8906 111.619 98.365 113.348L98.3642 113.348C99.0901 115.942 96.6021 118.808 94.3594 117.916C92.1021 117.018 92.3556 113.246 94.6629 111.883ZM95.5496 112.189C95.3774 112.239 95.198 112.318 95.0148 112.426C94.3975 112.791 93.9122 113.41 93.6245 114.116C93.3373 114.821 93.2531 115.595 93.4377 116.268L93.4364 116.268C93.4826 116.43 93.5464 116.582 93.6248 116.723C93.8042 117.046 94.0568 117.271 94.3475 117.387C94.649 117.507 95.0041 117.517 95.3763 117.406C95.5411 117.357 95.716 117.279 95.8984 117.171C96.5184 116.805 97.0079 116.183 97.2967 115.474C97.583 114.771 97.6665 114.003 97.4789 113.337L97.4755 113.329C97.4292 113.161 97.3656 113.005 97.2879 112.866C97.1117 112.549 96.8622 112.327 96.5749 112.213C96.2757 112.093 95.9216 112.081 95.5496 112.189Z" fill="url(#paint22_linear_332_29863)"/>
<path fill-rule="evenodd" clip-rule="evenodd" d="M82.3506 107.762C81.949 106.876 81.6116 105.969 81.35 105.061C80.9283 103.598 80.6951 102.127 80.6951 100.726C80.6951 99.2311 80.9586 97.9238 81.4351 96.8387C81.9798 95.5987 82.8028 94.651 83.8399 94.035C84.8708 93.4225 86.0767 93.1628 87.3928 93.2962C88.5415 93.4127 89.7726 93.8313 91.0325 94.5812C92.2167 95.2859 93.3367 96.2284 94.349 97.3297C95.3819 98.4533 96.3078 99.7456 97.0781 101.12C97.85 102.497 98.4744 103.971 98.9024 105.454C99.3245 106.916 99.5579 108.386 99.5579 109.784C99.5579 111.427 99.177 113.376 98.114 114.884C97.2408 116.122 95.9595 117.044 94.1395 117.281C93.9362 117.154 93.7595 116.966 93.6245 116.723C93.5461 116.583 93.4823 116.43 93.4361 116.269C93.253 115.595 93.337 114.821 93.6243 114.116C93.7057 113.916 93.8029 113.724 93.9144 113.541C94.4854 113.409 94.8943 113.096 95.1783 112.693C95.7298 111.91 95.9274 110.778 95.9274 109.784C95.9274 108.733 95.7496 107.619 95.4281 106.506C95.0836 105.312 94.5755 104.117 93.9441 102.99C93.3108 101.86 92.5579 100.806 91.7254 99.9007C90.9433 99.0497 90.0953 98.332 89.2172 97.8094C88.4167 97.3329 87.6821 97.0718 87.038 97.0066C86.488 96.9508 86.0142 97.0413 85.6407 97.2632C85.2745 97.4807 84.9662 97.8551 84.7392 98.3723C84.4727 98.9789 84.3254 99.7679 84.3254 100.726C84.3254 101.78 84.5029 102.895 84.8241 104.009C85.0062 104.641 85.2326 105.271 85.4974 105.89L82.3506 107.762Z" fill="#332A7C"/>
<path fill-rule="evenodd" clip-rule="evenodd" d="M93.4143 114.803C93.4624 114.571 93.5331 114.34 93.6243 114.116C93.7057 113.917 93.8029 113.724 93.9145 113.542C94.4854 113.409 94.8944 113.096 95.1784 112.693C95.7299 111.91 95.9274 110.778 95.9274 109.784C95.9274 108.733 95.7497 107.619 95.4282 106.506C95.0836 105.312 94.5756 104.117 93.9441 102.99C93.3108 101.86 92.5579 100.806 91.7254 99.9008C90.9433 99.0498 90.0954 98.3321 89.2172 97.8095C88.4168 97.333 87.6822 97.0719 87.0381 97.0067C86.488 96.9509 86.0142 97.0414 85.6407 97.2633C85.2746 97.4808 84.9663 97.8553 84.7392 98.3724C84.4727 98.979 84.3254 99.7681 84.3254 100.726C84.3254 101.78 84.5029 102.895 84.8241 104.009C85.0062 104.641 85.2326 105.271 85.4974 105.89L84.0712 106.738C83.1942 104.787 82.676 102.716 82.676 100.81C82.676 98.4223 83.4906 96.743 84.8055 95.9621C86.1203 95.1808 87.9392 95.2885 89.9472 96.4836C91.9552 97.6786 93.7756 99.7327 95.0905 102.079C96.4052 104.425 97.2214 107.074 97.2214 109.459C97.2214 111.85 96.4052 113.531 95.0905 114.312C94.5973 114.606 94.033 114.772 93.4143 114.803Z" fill="#221E54"/>
<path fill-rule="evenodd" clip-rule="evenodd" d="M123.367 137.002C122.941 136.73 122.717 136.02 122.867 135.417C123.017 134.811 123.484 134.541 123.91 134.813C124.459 135.166 125.011 135.516 125.562 135.867C126.111 136.217 126.666 136.57 127.217 136.919C127.412 136.136 127.603 135.354 127.797 134.572C127.992 133.788 128.186 133.006 128.383 132.222C128.533 131.614 129 131.344 129.426 131.616C129.852 131.885 130.076 132.595 129.926 133.201C129.73 133.987 129.535 134.771 129.34 135.553C129.146 136.336 128.953 137.118 128.76 137.9C129.312 138.253 129.861 138.605 130.412 138.956C130.964 139.308 131.517 139.657 132.07 140.008C132.496 140.278 132.719 140.989 132.568 141.595C132.418 142.199 131.951 142.468 131.525 142.199C130.971 141.85 130.42 141.497 129.869 141.147C129.318 140.796 128.769 140.443 128.215 140.093C128.021 140.875 127.825 141.661 127.631 142.443C127.438 143.225 127.244 144.01 127.049 144.792C126.9 145.394 126.435 145.663 126.008 145.394C125.582 145.124 125.359 144.412 125.511 143.806C125.705 143.026 125.897 142.244 126.09 141.46C126.284 140.677 126.48 139.894 126.677 139.107C126.121 138.759 125.57 138.409 125.019 138.058C124.469 137.707 123.918 137.354 123.367 137.002Z" fill="#A1A1A1"/>
<path fill-rule="evenodd" clip-rule="evenodd" d="M167.622 128.275C167.196 128.004 166.972 127.294 167.122 126.69C167.272 126.084 167.739 125.815 168.165 126.087C168.714 126.439 169.266 126.789 169.817 127.14C170.366 127.491 170.921 127.844 171.472 128.192C171.667 127.41 171.858 126.628 172.052 125.846C172.247 125.062 172.442 124.279 172.638 123.495C172.788 122.887 173.255 122.618 173.681 122.889C174.108 123.159 174.331 123.869 174.181 124.474C173.985 125.261 173.79 126.045 173.595 126.827C173.401 127.609 173.208 128.391 173.016 129.174C173.567 129.526 174.116 129.878 174.667 130.23C175.219 130.582 175.772 130.931 176.325 131.281C176.751 131.551 176.975 132.263 176.823 132.868C176.673 133.472 176.206 133.742 175.78 133.472C175.227 133.124 174.675 132.771 174.124 132.42C173.573 132.07 173.024 131.717 172.47 131.366C172.276 132.149 172.08 132.935 171.886 133.717C171.693 134.499 171.499 135.283 171.304 136.066C171.155 136.667 170.69 136.937 170.264 136.667C169.837 136.398 169.614 135.686 169.766 135.08C169.96 134.3 170.152 133.517 170.346 132.734C170.539 131.951 170.735 131.167 170.932 130.381C170.376 130.032 169.825 129.682 169.274 129.331C168.724 128.981 168.173 128.628 167.622 128.275Z" fill="#A1A1A1"/>
<path fill-rule="evenodd" clip-rule="evenodd" d="M149.663 131.112C150.759 130.142 151.53 128.811 151.891 127.43C152.252 126.05 152.098 124.393 151.657 123.442C151.215 122.492 150.833 122.172 150.251 121.816C149.913 122.483 149.574 123.151 149.234 123.819C149.562 124.037 149.772 124.212 150.033 124.776C150.295 125.339 150.397 126.348 150.189 127.181C149.98 128.015 149.527 128.823 148.879 129.423C149.14 129.987 149.402 130.549 149.663 131.112ZM142.77 127.956C143.371 127.852 143.972 127.748 144.572 127.644C144.572 128.133 144.596 128.46 144.858 129.024C145.119 129.588 145.752 130.161 146.406 130.286C147.059 130.411 147.806 130.236 148.499 129.736C148.76 130.298 149.021 130.861 149.282 131.423C148.14 132.291 146.899 132.612 145.81 132.422C144.72 132.232 143.672 131.307 143.232 130.357C142.791 129.407 142.749 128.808 142.77 127.956ZM145.414 122.526C146.159 121.914 146.956 121.542 147.727 121.396C148.498 121.249 149.247 121.332 149.903 121.632C149.564 122.298 149.224 122.965 148.885 123.633C148.487 123.468 148.038 123.431 147.578 123.526C147.117 123.621 146.643 123.848 146.198 124.214C145.753 124.579 145.389 125.041 145.119 125.544C144.849 126.048 144.673 126.6 144.604 127.147C144.004 127.25 143.403 127.354 142.803 127.459C142.896 126.545 143.176 125.617 143.62 124.766C144.064 123.915 144.669 123.138 145.414 122.526Z" fill="#DCDCF4"/>
<path fill-rule="evenodd" clip-rule="evenodd" d="M149.945 130.701C151.041 129.731 151.813 128.4 152.174 127.019C152.535 125.639 152.38 123.982 151.939 123.031C151.498 122.081 151.116 121.761 150.534 121.405C150.196 122.072 149.856 122.74 149.517 123.408C149.845 123.626 150.054 123.801 150.316 124.365C150.578 124.929 150.68 125.937 150.471 126.77C150.262 127.604 149.809 128.412 149.161 129.012C149.423 129.576 149.684 130.138 149.945 130.701Z" fill="#8C8588"/>
<path fill-rule="evenodd" clip-rule="evenodd" d="M145.696 122.115C144.951 122.727 144.347 123.504 143.903 124.355C143.459 125.206 143.179 126.134 143.085 127.048C143.686 126.943 144.286 126.839 144.886 126.735C144.955 126.189 145.132 125.637 145.402 125.133C145.672 124.63 146.036 124.168 146.481 123.802C146.926 123.436 147.4 123.21 147.86 123.115C148.321 123.02 148.77 123.057 149.167 123.221C149.507 122.554 149.847 121.887 150.186 121.221C149.53 120.921 148.78 120.838 148.009 120.984C147.239 121.131 146.442 121.503 145.696 122.115Z" fill="#8347E5"/>
<path fill-rule="evenodd" clip-rule="evenodd" d="M143.053 127.545C143.032 128.396 143.073 128.996 143.514 129.945C143.955 130.895 145.002 131.82 146.092 132.011C147.182 132.201 148.422 131.88 149.565 131.012C149.304 130.45 149.043 129.887 148.782 129.325C148.089 129.825 147.342 130 146.688 129.875C146.034 129.749 145.402 129.177 145.14 128.613C144.879 128.049 144.855 127.722 144.855 127.233C144.255 127.337 143.654 127.441 143.053 127.545Z" fill="#FFA000"/>
<path fill-rule="evenodd" clip-rule="evenodd" d="M114.134 169.757C115.23 168.787 116.002 167.456 116.363 166.076C116.724 164.695 116.569 163.038 116.128 162.088C115.687 161.137 115.305 160.817 114.723 160.461C114.384 161.128 114.045 161.796 113.706 162.464C114.034 162.682 114.243 162.857 114.505 163.421C114.766 163.985 114.869 164.993 114.66 165.826C114.451 166.66 113.998 167.468 113.35 168.068C113.612 168.632 113.873 169.195 114.134 169.757ZM107.242 166.601C107.843 166.497 108.444 166.393 109.044 166.29C109.044 166.779 109.067 167.105 109.329 167.669C109.591 168.233 110.223 168.806 110.877 168.931C111.531 169.057 112.278 168.881 112.971 168.381C113.232 168.944 113.493 169.506 113.754 170.068C112.611 170.936 111.371 171.257 110.281 171.067C109.191 170.877 108.144 169.952 107.703 169.002C107.262 168.052 107.22 167.453 107.242 166.601ZM109.885 161.171C110.63 160.56 111.428 160.187 112.198 160.041C112.969 159.894 113.719 159.977 114.374 160.277C114.036 160.943 113.696 161.61 113.356 162.278C112.959 162.113 112.51 162.076 112.049 162.171C111.589 162.267 111.115 162.493 110.67 162.859C110.225 163.225 109.861 163.686 109.591 164.189C109.321 164.693 109.144 165.245 109.075 165.792C108.476 165.895 107.875 165.999 107.274 166.105C107.368 165.19 107.648 164.262 108.092 163.412C108.536 162.561 109.14 161.783 109.885 161.171Z" fill="#DCDCF4"/>
<path fill-rule="evenodd" clip-rule="evenodd" d="M114.416 169.346C115.512 168.376 116.284 167.045 116.645 165.665C117.006 164.284 116.851 162.627 116.41 161.677C115.969 160.726 115.587 160.406 115.005 160.05C114.667 160.717 114.327 161.385 113.988 162.053C114.316 162.271 114.525 162.446 114.787 163.01C115.049 163.574 115.151 164.582 114.942 165.415C114.733 166.249 114.28 167.057 113.632 167.657C113.894 168.221 114.155 168.783 114.416 169.346Z" fill="#8C8588"/>
<path fill-rule="evenodd" clip-rule="evenodd" d="M110.168 160.76C109.422 161.372 108.818 162.15 108.374 163C107.93 163.851 107.65 164.779 107.556 165.693C108.157 165.588 108.758 165.484 109.358 165.381C109.426 164.834 109.603 164.282 109.873 163.778C110.143 163.275 110.507 162.813 110.952 162.448C111.397 162.082 111.871 161.855 112.331 161.76C112.792 161.665 113.241 161.702 113.639 161.867C113.978 161.199 114.318 160.532 114.657 159.866C114.001 159.566 113.251 159.483 112.481 159.63C111.71 159.776 110.913 160.148 110.168 160.76Z" fill="#8347E5"/>
<path fill-rule="evenodd" clip-rule="evenodd" d="M107.524 166.19C107.502 167.042 107.544 167.641 107.985 168.591C108.426 169.541 109.473 170.466 110.563 170.656C111.653 170.846 112.893 170.525 114.036 169.657C113.775 169.095 113.514 168.532 113.253 167.97C112.56 168.47 111.813 168.646 111.159 168.52C110.505 168.395 109.873 167.822 109.611 167.258C109.35 166.694 109.326 166.367 109.326 165.879C108.726 165.982 108.125 166.086 107.524 166.19Z" fill="#FFA000"/>
<path fill-rule="evenodd" clip-rule="evenodd" d="M142.072 166.645C142.285 165.946 142 165.293 141.435 165.184C140.869 165.075 140.236 165.554 140.023 166.254L139.384 169.819L131.221 167.554C130.67 167.395 130.024 167.831 129.776 168.526C129.524 169.221 129.768 169.916 130.318 170.072C131.849 170.505 133.383 170.934 134.915 171.358C136.447 171.782 137.982 172.199 139.517 172.614C140.119 172.783 140.858 172.311 141.02 171.556L142.072 166.645Z" fill="#F69524"/>
<path fill-rule="evenodd" clip-rule="evenodd" d="M201.287 131.116C201.5 130.418 201.214 129.764 200.649 129.656C200.083 129.547 199.451 130.026 199.238 130.726L198.599 134.29L190.436 132.025C189.884 131.866 189.238 132.302 188.99 132.997C188.738 133.692 188.983 134.387 189.533 134.543C191.064 134.977 192.597 135.406 194.129 135.829C195.661 136.253 197.196 136.67 198.732 137.086C199.334 137.255 200.072 136.782 200.234 136.027L201.287 131.116Z" fill="#F69524"/>
<path fill-rule="evenodd" clip-rule="evenodd" d="M164.085 149.477C163.758 149.077 163.192 148.945 162.815 148.856C162.212 148.713 161.405 148.291 161.307 148.445C161.18 148.684 162.007 149.104 162.195 149.219C160.496 149.469 160.307 147.461 159.951 147.628C159.658 148.243 160.017 151.544 163.699 151.053C164.812 150.798 170.747 154.194 172.652 153.242C172.826 153.033 176.479 149.08 177.402 147.2C179.11 143.725 176.103 141.291 173.559 146.463C172.919 147.764 171.245 149.717 171.079 150.916C169.46 150.477 166.421 149.546 164.085 149.477Z" fill="#FCBE72"/>
<path fill-rule="evenodd" clip-rule="evenodd" d="M164.085 149.477C163.758 149.077 163.191 148.945 162.815 148.856C162.234 148.719 161.465 148.322 161.321 148.43C161.415 148.686 162.367 149.099 162.535 149.203C162.413 149.221 162.297 149.224 162.188 149.215L162.195 149.219C160.532 149.464 160.316 147.546 159.973 147.621C159.992 148.743 160.773 150.903 163.8 150.5C164.913 150.245 170.848 153.64 172.754 152.689C172.928 152.48 176.39 148.344 177.314 146.465C177.679 145.722 177.809 145.013 177.765 144.407C177.239 142.947 175.292 142.94 173.558 146.463C172.919 147.764 171.245 149.717 171.079 150.916C169.459 150.477 166.421 149.546 164.085 149.477Z" fill="#FCD3A0"/>
<path fill-rule="evenodd" clip-rule="evenodd" d="M176.376 142.848C175.614 142.852 173.745 144.863 173.501 146.252C173.07 146.87 171.309 149.205 170.952 150.624C170.735 150.322 164.676 149.356 164.583 149.431C163.975 149.921 163.965 151.129 164.144 151.594C164.747 151.677 170.168 154.195 172.755 153.66C173.633 152.246 177.418 148.673 177.775 147.097C178.251 145.628 178.173 142.838 176.376 142.848Z" fill="#F69524"/>
<path fill-rule="evenodd" clip-rule="evenodd" d="M157.528 140.625L155.461 146.399L150.852 149.865C150.633 149.997 150.51 150.306 150.702 150.452C151.809 151.049 152.917 151.636 154.015 152.232L153.257 157.975C153.221 158.201 153.857 158.763 154.411 158.36L158.604 153.531C159.994 153.531 161.383 153.521 162.763 153.521C162.885 153.531 163.044 153.379 163.119 153.18C163.138 153.114 163.147 153.048 163.138 152.991C162.894 151.41 162.65 149.828 162.397 148.247C163.504 146.381 164.638 144.457 165.737 142.591C165.987 142.076 165.298 141.625 164.961 141.773L160.6 143.504L158.837 140.62C158.722 140.415 157.854 140.047 157.528 140.625Z" fill="#FFA000"/>
<path fill-rule="evenodd" clip-rule="evenodd" d="M158.36 140.898C157.656 142.868 156.952 144.828 156.248 146.798C154.718 147.944 153.179 149.099 151.639 150.264C151.489 150.378 151.395 150.576 151.414 150.737C151.424 150.785 151.452 150.822 151.489 150.851C152.597 151.448 153.705 152.035 154.803 152.631C154.559 154.497 154.315 156.362 154.061 158.228C154.033 158.408 154.136 158.502 154.277 158.446C154.343 158.417 154.399 158.38 154.446 158.323C155.835 156.722 157.224 155.122 158.604 153.531C159.994 153.531 161.383 153.522 162.763 153.522C162.885 153.531 163.044 153.379 163.119 153.18C163.138 153.114 163.147 153.048 163.138 152.991C162.894 151.41 162.65 149.828 162.396 148.247C163.504 146.381 164.612 144.506 165.71 142.641C165.813 142.47 165.813 142.281 165.71 142.224C165.663 142.195 165.607 142.205 165.55 142.233C164.02 142.84 162.49 143.455 160.951 144.08C160.247 142.925 159.543 141.779 158.839 140.624C158.773 140.519 158.613 140.548 158.482 140.699C158.426 140.756 158.389 140.832 158.36 140.898Z" fill="#FFC105"/>
<path fill-rule="evenodd" clip-rule="evenodd" d="M158.361 140.898C157.656 142.868 156.952 144.828 156.248 146.798C155.62 147.262 154.991 147.745 154.362 148.218C155.685 148.9 157.553 149.44 159.046 149.648C160.538 149.857 161.449 149.876 162.641 149.809C162.566 149.289 162.481 148.768 162.397 148.247C163.504 146.381 164.612 144.506 165.71 142.641C165.813 142.47 165.813 142.281 165.71 142.224C165.663 142.195 165.607 142.205 165.551 142.233C164.021 142.84 162.491 143.455 160.951 144.08C160.247 142.925 159.543 141.779 158.839 140.624C158.774 140.519 158.614 140.548 158.482 140.699C158.426 140.756 158.389 140.832 158.361 140.898Z" fill="#FFDE05"/>
<path fill-rule="evenodd" clip-rule="evenodd" d="M164.334 139.119C164.334 139.119 163.652 141.328 166.793 145.514C167.02 145.567 168.169 145.346 168.859 145.219C169.161 145.389 169.645 146.573 169.841 147.176C169.841 147.176 173.369 146.1 174.228 144.617C174.228 144.617 173.118 142.909 173.16 142.436C173.16 142.436 174.017 136.626 171.036 134.993C171.036 134.993 168.913 133.21 167.392 134.485C167.392 134.485 162.741 136.34 164.334 139.119Z" fill="#FDDEB4"/>
<path fill-rule="evenodd" clip-rule="evenodd" d="M166.793 145.514C167.02 145.567 168.169 145.346 168.859 145.219C169.161 145.389 169.645 146.572 169.841 147.176C169.841 147.176 173.369 146.1 174.228 144.617C174.228 144.617 173.118 142.909 173.16 142.435C173.16 142.435 174.017 136.626 171.036 134.993C171.036 134.993 168.913 133.209 167.392 134.485C167.392 134.485 163.643 135.98 164.031 138.298C165.773 140.114 167.611 142.341 167.214 143.558C167.214 143.558 167.417 144.998 166.793 145.514Z" fill="#FBC98B"/>
<path fill-rule="evenodd" clip-rule="evenodd" d="M181.323 197.262C178.593 197.264 177 197.006 176.162 196.815C175.595 196.685 175.144 196.887 175.046 197.159C174.816 197.795 175.109 198.503 175.792 199.485C176.176 199.854 176.814 200.676 178.759 201.086C179.25 201.079 181.631 200.831 182.098 201.73C182.376 202.073 182.14 202.05 182.678 202.103C182.977 202.132 183.903 202.155 184.337 201.795C184.436 201.381 184.82 199.665 184.473 197.449L181.323 197.262Z" fill="#221E54"/>
<path fill-rule="evenodd" clip-rule="evenodd" d="M175.014 197.259C174.848 197.87 175.145 198.554 175.793 199.485C176.176 199.854 176.814 200.676 178.759 201.086C179.25 201.079 181.631 200.831 182.098 201.73C182.376 202.073 182.14 202.049 182.678 202.103C182.823 202.117 183.117 202.13 183.43 202.098C183.571 201.576 183.868 200.446 183.56 198.486L180.37 197.738C177.64 197.741 176.047 197.483 175.208 197.291C175.142 197.276 175.077 197.265 175.014 197.259Z" fill="#1A1840"/>
<path fill-rule="evenodd" clip-rule="evenodd" d="M181.323 197.262C179.982 197.263 178.915 197.201 178.078 197.116C176.825 197.341 177.088 198.315 177.088 198.315C177.213 199.45 179.939 200.117 181.317 199.594C182.329 199.21 183.031 198.324 184.614 198.842C184.627 198.56 184.542 197.695 184.465 197.418L181.323 197.262Z" fill="#FDDEB4"/>
<path fill-rule="evenodd" clip-rule="evenodd" d="M177.218 197.588C176.984 197.93 177.088 198.315 177.088 198.315C177.213 199.45 179.939 200.117 181.317 199.594C182.079 199.305 182.665 198.731 183.585 198.686C183.55 198.445 183.514 198.206 183.493 198.068C181.396 197.891 179.309 197.781 177.218 197.588Z" fill="#FBC98B"/>
<path fill-rule="evenodd" clip-rule="evenodd" d="M191.278 193.682C191.278 193.682 191.864 196.074 191.619 197.94C191.13 198.342 189.735 198.561 189.249 197.881C188.951 197.036 186.992 195.746 186.407 195.522C186.217 195.446 185.433 194.706 185.152 193.843C185.152 193.843 184.783 192.278 185.044 191.917C185.141 191.757 185.655 191.622 185.961 191.742C185.961 191.742 187.74 192.771 188.842 192.862L191.278 193.682Z" fill="#221E54"/>
<path fill-rule="evenodd" clip-rule="evenodd" d="M190.727 198.287C190.169 198.375 189.543 198.293 189.25 197.881C188.951 197.037 186.992 195.746 186.407 195.521C186.217 195.446 185.433 194.706 185.152 193.843C185.152 193.843 184.812 192.396 185.017 191.964C185.079 191.971 185.137 191.984 185.189 192.004C185.189 192.004 186.968 193.034 188.07 193.124L190.506 193.945C190.506 193.945 191.092 196.337 190.847 198.202C190.811 198.232 190.771 198.26 190.727 198.287Z" fill="#1A1840"/>
<path fill-rule="evenodd" clip-rule="evenodd" d="M191.307 193.733C191.341 193.896 191.463 194.504 191.563 195.281C191.111 195.183 190.003 195.277 189.314 195.759C188.431 196.377 186.049 194.575 186.202 193.613C186.541 193.053 188.168 193.005 188.168 193.005C188.411 192.943 190.358 193.469 191.307 193.733Z" fill="#FDDEB4"/>
<path fill-rule="evenodd" clip-rule="evenodd" d="M190.739 195.272C190.264 195.328 189.717 195.477 189.313 195.759C188.431 196.377 186.049 194.575 186.202 193.613C186.381 193.318 186.916 193.165 187.383 193.086C187.981 193.134 189.62 193.46 190.436 193.687C190.461 193.813 190.621 194.574 190.739 195.272Z" fill="#FBC98B"/>
<path fill-rule="evenodd" clip-rule="evenodd" d="M187.815 159.976C188.629 161.834 188.964 166.19 188.203 168.25C188.304 170.856 188.057 175.715 188.552 179.168C190.941 182.187 189.864 186.243 191.707 194.028C190.586 194.849 189.42 194.854 188.288 194.48C187.638 187.52 185.61 185.317 183.954 180.301C183.028 176.679 182.927 171.764 182.23 168.163C182.321 165.787 181.804 163.262 181.895 160.886C184.17 160.758 185.541 160.104 187.815 159.976Z" fill="url(#paint23_linear_332_29863)"/>
<path fill-rule="evenodd" clip-rule="evenodd" d="M186.738 158.667C189.539 161.044 188.964 166.19 188.203 168.25C188.304 170.856 188.057 175.715 188.552 179.169C190.941 182.187 189.864 186.244 191.707 194.028C190.943 194.588 190.158 194.768 189.377 194.708C188.717 187.999 187.463 184.822 185.837 179.895C184.572 177.448 184.095 166.992 186.248 160.155C186.732 160.073 186.168 158.699 186.738 158.667Z" fill="url(#paint24_linear_332_29863)"/>
<path fill-rule="evenodd" clip-rule="evenodd" d="M185.803 160.482C186.079 161.568 186.438 166.159 184.027 169.49C183.845 172.124 183.207 177.688 183.212 181.096C184.999 185.214 183.658 190.852 184.764 197.722C183.896 198.431 181.387 198.944 180.937 197.526C180.8 192.027 178.333 184.715 178.065 181.623C177.932 176.394 176.326 167.453 177.158 161.451L185.803 160.482Z" fill="url(#paint25_linear_332_29863)"/>
<path fill-rule="evenodd" clip-rule="evenodd" d="M185.976 159.553C186.935 161.896 186.438 166.159 184.027 169.49C183.845 172.124 183.207 177.688 183.213 181.096C184.999 185.214 183.658 190.852 184.764 197.722C184.318 198.086 183.441 198.398 182.631 198.424C182.316 192.881 180.096 184.431 179.84 181.476C179.719 176.725 178.261 167.446 178.619 161.287L185.976 159.553Z" fill="url(#paint26_linear_332_29863)"/>
<path fill-rule="evenodd" clip-rule="evenodd" d="M172.98 142.248C172.98 142.248 171.42 145.211 169.277 146.329C169.27 146.406 169.442 146.891 169.609 147.269C169.147 147.713 168.471 149.148 168.464 149.519C169.919 149.522 170.638 150.304 170.592 151.789C170.176 154.546 172.13 155.777 173.526 155.978C177.854 160.905 175.067 163.387 178.376 165.227C180.54 165.617 188.093 161.518 187.648 158.944C187.329 157.101 185.5 156.292 183.795 154.053C183.185 150.549 180.154 142.43 176.003 142.063C175.438 142.013 174.645 142.529 173.742 142.561C173.538 142.568 173.193 142.279 172.98 142.248Z" fill="#F69524"/>
<path fill-rule="evenodd" clip-rule="evenodd" d="M172.98 142.248C172.98 142.248 171.42 145.211 169.277 146.329C169.271 146.406 169.443 146.891 169.609 147.269C169.147 147.713 168.471 149.148 168.464 149.518C172.79 146.791 170.207 154.068 174.128 154.633C178.456 159.56 175.822 161.261 179.132 163.101C180.634 163.372 184.132 161.702 185.976 159.553C187.679 157.569 185.295 156.024 183.795 154.053C183.185 150.549 180.154 142.43 176.004 142.062C175.439 142.012 174.645 142.529 173.743 142.561C173.539 142.568 173.193 142.279 172.98 142.248Z" fill="url(#paint27_linear_332_29863)"/>
<path fill-rule="evenodd" clip-rule="evenodd" d="M170.363 133.593C170.363 133.593 163.184 133.561 163.402 138.092C163.402 138.092 163.536 140.405 164.066 140.956C164.066 140.956 165.514 139.782 165.858 142.001C166.729 141.562 168.269 145.49 170.079 144.685C170.079 144.685 173.615 143.063 174.193 141.762C174.193 141.762 175.827 138.595 170.363 133.593Z" fill="#221E54"/>
<path fill-rule="evenodd" clip-rule="evenodd" d="M163.774 140.389C163.855 140.633 163.951 140.836 164.066 140.956C164.066 140.956 165.485 139.855 165.858 142.001C166.819 141.633 168.269 145.49 170.079 144.685C170.079 144.685 173.615 143.063 174.193 141.762C174.193 141.762 174.914 140.362 173.793 137.954C174.256 139.595 173.703 140.467 173.703 140.467C173.125 141.768 169.589 143.39 169.589 143.39C167.779 144.194 167.415 140.658 166.115 140.664C165.872 139.204 164.352 140.02 163.774 140.389Z" fill="#1A1840"/>
<path fill-rule="evenodd" clip-rule="evenodd" d="M170.363 133.593C170.363 133.593 163.184 133.561 163.402 138.092C163.402 138.092 163.536 140.405 164.066 140.956C164.066 140.956 164.104 140.924 164.169 140.879C163.823 140.032 163.727 138.392 163.727 138.392C163.512 133.918 170.509 133.893 170.684 133.893C170.58 133.794 170.474 133.694 170.363 133.593Z" fill="#2B2468"/>
<path fill-rule="evenodd" clip-rule="evenodd" d="M166.106 140.999C165.822 141.122 165.84 141.794 166.146 142.501C166.452 143.208 166.93 143.681 167.214 143.558C167.499 143.435 167.481 142.762 167.175 142.055C166.869 141.349 166.391 140.876 166.106 140.999Z" fill="#FBC98B"/>
<path fill-rule="evenodd" clip-rule="evenodd" d="M167.214 143.558C167.499 143.435 167.481 142.762 167.175 142.056C166.933 141.497 166.584 141.085 166.308 140.997C166.986 142.006 167.409 142.962 167.214 143.558Z" fill="#FCBE72"/>
<path fill-rule="evenodd" clip-rule="evenodd" d="M166.264 135.415C166.075 136.469 166.712 137.465 167.687 137.639C168.661 137.813 169.604 137.1 169.793 136.046C169.981 134.992 169.344 133.996 168.37 133.822C167.396 133.647 166.453 134.36 166.264 135.415Z" fill="#F69524"/>
<path fill-rule="evenodd" clip-rule="evenodd" d="M166.55 135.491C166.325 136.752 166.976 137.924 168.005 138.108C169.034 138.292 170.051 137.419 170.277 136.158C170.503 134.897 169.851 133.726 168.822 133.541C167.793 133.357 166.776 134.23 166.55 135.491Z" fill="url(#paint28_linear_332_29863)"/>
<path fill-rule="evenodd" clip-rule="evenodd" d="M173.162 142.132C173.162 142.132 171.503 145.158 169.277 146.329C169.269 146.407 169.437 146.895 169.601 147.274C169.548 147.324 169.493 147.395 169.428 147.477C170.05 147.19 170.237 147.142 171.264 146.329C172.291 145.515 173.702 143.735 174.051 142.426C174.015 142.429 173.978 142.432 173.941 142.434C173.731 142.445 173.381 142.159 173.162 142.132Z" fill="#F69524"/>
<path fill-rule="evenodd" clip-rule="evenodd" d="M168.496 139.484C167.912 139.083 165.841 137.518 166.947 135.771C166.989 132.466 175.169 127.256 177.688 139.586C178.106 141.632 178.04 145.015 181.296 142.212C182.216 146.232 173.322 153.816 168.496 139.484Z" fill="#1A1840"/>
<path fill-rule="evenodd" clip-rule="evenodd" d="M166.98 135.425C167.544 132.129 175.255 127.679 177.688 139.586C178.106 141.632 178.04 145.015 181.296 142.212C181.378 142.573 181.381 142.962 181.316 143.361C179.552 147.039 172.849 150.046 168.887 138.278C168.492 138.008 167.343 136.751 166.98 135.425Z" fill="#221E54"/>
<path fill-rule="evenodd" clip-rule="evenodd" d="M167.105 134.958C168.253 131.75 175.369 128.235 177.688 139.586C178.106 141.631 178.04 145.015 181.296 142.212C178.002 145.505 177.775 142.208 177.357 140.162C175.161 129.415 168.748 131.94 167.105 134.958Z" fill="#2B2468"/>
<path fill-rule="evenodd" clip-rule="evenodd" d="M158.203 154.378C157.919 153.883 157.327 153.636 156.933 153.471C156.302 153.206 155.502 152.6 155.366 152.75C155.184 152.987 156.009 153.595 156.192 153.754C154.298 153.717 154.457 151.497 154.039 151.615C153.608 152.231 153.399 155.888 157.496 156.023C158.754 155.948 164.597 160.722 166.843 160.032C167.211 159.221 169.938 155.752 171.004 153.701C172.849 150.15 169.472 147.376 167.829 151.493C167.68 151.88 166.116 155.415 165.554 157.214C163.871 156.443 160.733 154.878 158.203 154.378Z" fill="#FCBE72"/>
<path fill-rule="evenodd" clip-rule="evenodd" d="M158.203 154.378C157.919 153.883 157.327 153.636 156.933 153.471C156.302 153.206 155.501 152.6 155.366 152.75C155.358 152.761 155.352 152.772 155.347 152.785C155.43 153.079 156.262 153.631 156.423 153.77C156.341 153.769 156.263 153.762 156.188 153.75L156.192 153.754C154.374 153.719 154.447 151.674 154.087 151.612C153.882 152.816 154.301 155.382 157.721 155.494C158.978 155.419 164.469 159.76 166.716 159.07C167.126 158.164 170.481 153.942 171.175 152.084C171.337 151.651 171.418 151.234 171.432 150.848C170.953 149.1 168.972 148.629 167.829 151.493C167.68 151.88 166.116 155.415 165.553 157.214C163.871 156.443 160.733 154.878 158.203 154.378Z" fill="#FCD3A0"/>
<path fill-rule="evenodd" clip-rule="evenodd" d="M169.6 148.459C168.182 149.022 167.187 150.761 167.228 152.251C166.915 152.964 165.614 156.034 165.469 156.874C165.287 156.505 158.867 154.354 158.753 154.418C158.002 154.841 157.771 156.154 157.883 156.693C158.524 156.893 163.966 160.619 166.88 160.506C168.092 159.127 170.753 155.307 171.428 153.657C172.213 152.145 171.444 147.728 169.6 148.459Z" fill="url(#paint29_linear_332_29863)"/>
<defs>
<linearGradient id="paint0_linear_332_29863" x1="178.666" y1="176.782" x2="178.666" y2="261.361" gradientUnits="userSpaceOnUse">
<stop stop-color="#E3E3E3"/>
<stop offset="1" stop-color="#6C86DD"/>
</linearGradient>
<linearGradient id="paint1_linear_332_29863" x1="79.7637" y1="137.235" x2="218.627" y2="230.386" gradientUnits="userSpaceOnUse">
<stop stop-color="#DFDAEF"/>
<stop offset="1" stop-color="#F2EFFA"/>
</linearGradient>
<linearGradient id="paint2_linear_332_29863" x1="108.58" y1="43.1357" x2="106.926" y2="147.973" gradientUnits="userSpaceOnUse">
<stop stop-color="#FFB244"/>
<stop offset="0.692155" stop-color="#F7D379" stop-opacity="0.8"/>
</linearGradient>
<linearGradient id="paint3_linear_332_29863" x1="115.52" y1="43.1223" x2="113.92" y2="147.976" gradientUnits="userSpaceOnUse">
<stop stop-color="#FFB244"/>
<stop offset="0.692155" stop-color="#F7D379" stop-opacity="0.8"/>
</linearGradient>
<linearGradient id="paint4_linear_332_29863" x1="116.459" y1="43.7521" x2="114.862" y2="147.915" gradientUnits="userSpaceOnUse">
<stop stop-color="#FFB244"/>
<stop offset="0.692155" stop-color="#F7D379" stop-opacity="0.8"/>
</linearGradient>
<linearGradient id="paint5_linear_332_29863" x1="178.647" y1="59.7057" x2="178.409" y2="69.9816" gradientUnits="userSpaceOnUse">
<stop stop-color="#FFB244"/>
<stop offset="0.692155" stop-color="#F7D379" stop-opacity="0.8"/>
</linearGradient>
<linearGradient id="paint6_linear_332_29863" x1="178.816" y1="59.9556" x2="178.587" y2="69.8495" gradientUnits="userSpaceOnUse">
<stop stop-color="#FFB244"/>
<stop offset="0.692155" stop-color="#F7D379" stop-opacity="0.8"/>
</linearGradient>
<linearGradient id="paint7_linear_332_29863" x1="179.195" y1="61.0149" x2="179.023" y2="68.4704" gradientUnits="userSpaceOnUse">
<stop stop-color="#FFB244"/>
<stop offset="0.692155" stop-color="#F7D379" stop-opacity="0.8"/>
</linearGradient>
<linearGradient id="paint8_linear_332_29863" x1="161.744" y1="69.758" x2="161.506" y2="80.0338" gradientUnits="userSpaceOnUse">
<stop stop-color="#FFB244"/>
<stop offset="0.692155" stop-color="#F7D379" stop-opacity="0.8"/>
</linearGradient>
<linearGradient id="paint9_linear_332_29863" x1="161.913" y1="70.0079" x2="161.684" y2="79.9019" gradientUnits="userSpaceOnUse">
<stop stop-color="#FFB244"/>
<stop offset="0.692155" stop-color="#F7D379" stop-opacity="0.8"/>
</linearGradient>
<linearGradient id="paint10_linear_332_29863" x1="162.293" y1="71.0673" x2="162.121" y2="78.5228" gradientUnits="userSpaceOnUse">
<stop stop-color="#FFB244"/>
<stop offset="0.692155" stop-color="#F7D379" stop-opacity="0.8"/>
</linearGradient>
<linearGradient id="paint11_linear_332_29863" x1="144.841" y1="79.8105" x2="144.604" y2="90.0866" gradientUnits="userSpaceOnUse">
<stop stop-color="#FFB244"/>
<stop offset="0.692155" stop-color="#F7D379" stop-opacity="0.8"/>
</linearGradient>
<linearGradient id="paint12_linear_332_29863" x1="145.01" y1="80.0603" x2="144.781" y2="89.9544" gradientUnits="userSpaceOnUse">
<stop stop-color="#FFB244"/>
<stop offset="0.692155" stop-color="#F7D379" stop-opacity="0.8"/>
</linearGradient>
<linearGradient id="paint13_linear_332_29863" x1="145.39" y1="81.1196" x2="145.218" y2="88.5752" gradientUnits="userSpaceOnUse">
<stop stop-color="#FFB244"/>
<stop offset="0.692155" stop-color="#F7D379" stop-opacity="0.8"/>
</linearGradient>
<linearGradient id="paint14_linear_332_29863" x1="127.939" y1="89.8628" x2="127.701" y2="100.139" gradientUnits="userSpaceOnUse">
<stop stop-color="#FFB244"/>
<stop offset="0.692155" stop-color="#F7D379" stop-opacity="0.8"/>
</linearGradient>
<linearGradient id="paint15_linear_332_29863" x1="128.107" y1="90.1127" x2="127.879" y2="100.007" gradientUnits="userSpaceOnUse">
<stop stop-color="#FFB244"/>
<stop offset="0.692155" stop-color="#F7D379" stop-opacity="0.8"/>
</linearGradient>
<linearGradient id="paint16_linear_332_29863" x1="128.487" y1="91.1721" x2="128.315" y2="98.6276" gradientUnits="userSpaceOnUse">
<stop stop-color="#FFB244"/>
<stop offset="0.692155" stop-color="#F7D379" stop-opacity="0.8"/>
</linearGradient>
<linearGradient id="paint17_linear_332_29863" x1="111.036" y1="99.9154" x2="110.798" y2="110.192" gradientUnits="userSpaceOnUse">
<stop stop-color="#FFB244"/>
<stop offset="0.692155" stop-color="#F7D379" stop-opacity="0.8"/>
</linearGradient>
<linearGradient id="paint18_linear_332_29863" x1="111.204" y1="100.165" x2="110.976" y2="110.059" gradientUnits="userSpaceOnUse">
<stop stop-color="#FFB244"/>
<stop offset="0.692155" stop-color="#F7D379" stop-opacity="0.8"/>
</linearGradient>
<linearGradient id="paint19_linear_332_29863" x1="111.584" y1="101.225" x2="111.412" y2="108.68" gradientUnits="userSpaceOnUse">
<stop stop-color="#FFB244"/>
<stop offset="0.692155" stop-color="#F7D379" stop-opacity="0.8"/>
</linearGradient>
<linearGradient id="paint20_linear_332_29863" x1="94.1325" y1="109.968" x2="93.8952" y2="120.243" gradientUnits="userSpaceOnUse">
<stop stop-color="#FFB244"/>
<stop offset="0.692155" stop-color="#F7D379" stop-opacity="0.8"/>
</linearGradient>
<linearGradient id="paint21_linear_332_29863" x1="94.3017" y1="110.218" x2="94.0731" y2="120.111" gradientUnits="userSpaceOnUse">
<stop stop-color="#FFB244"/>
<stop offset="0.692155" stop-color="#F7D379" stop-opacity="0.8"/>
</linearGradient>
<linearGradient id="paint22_linear_332_29863" x1="94.6817" y1="111.277" x2="94.5094" y2="118.732" gradientUnits="userSpaceOnUse">
<stop stop-color="#FFB244"/>
<stop offset="0.692155" stop-color="#F7D379" stop-opacity="0.8"/>
</linearGradient>
<linearGradient id="paint23_linear_332_29863" x1="185.1" y1="160.065" x2="185.1" y2="198.159" gradientUnits="userSpaceOnUse">
<stop stop-color="#555C8B"/>
<stop offset="1" stop-color="#6C86DD"/>
</linearGradient>
<linearGradient id="paint24_linear_332_29863" x1="187.034" y1="158.76" x2="187.034" y2="198.289" gradientUnits="userSpaceOnUse">
<stop stop-color="#555C8B"/>
<stop offset="1" stop-color="#6C86DD"/>
</linearGradient>
<linearGradient id="paint25_linear_332_29863" x1="179.892" y1="160.579" x2="179.892" y2="202.182" gradientUnits="userSpaceOnUse">
<stop stop-color="#555C8B"/>
<stop offset="1" stop-color="#6C86DD"/>
</linearGradient>
<linearGradient id="paint26_linear_332_29863" x1="181.139" y1="159.653" x2="181.139" y2="202.272" gradientUnits="userSpaceOnUse">
<stop stop-color="#555C8B"/>
<stop offset="1" stop-color="#6C86DD"/>
</linearGradient>
<linearGradient id="paint27_linear_332_29863" x1="177.515" y1="142.059" x2="177.515" y2="163.13" gradientUnits="userSpaceOnUse">
<stop stop-color="#FF974B"/>
<stop offset="1" stop-color="#FFC105"/>
</linearGradient>
<linearGradient id="paint28_linear_332_29863" x1="168.414" y1="133.517" x2="168.414" y2="138.133" gradientUnits="userSpaceOnUse">
<stop stop-color="#FF974B"/>
<stop offset="1" stop-color="#FFC105"/>
</linearGradient>
<linearGradient id="paint29_linear_332_29863" x1="164.795" y1="148.378" x2="164.795" y2="160.509" gradientUnits="userSpaceOnUse">
<stop stop-color="#FF974B"/>
<stop offset="1" stop-color="#FFC105"/>
</linearGradient>
</defs>
</svg>
