<svg width="430" height="550" viewBox="0 0 430 550" fill="none" xmlns="http://www.w3.org/2000/svg">
<circle cx="155" cy="275" r="275" fill="url(#paint0_linear_278_26410)" fill-opacity="0.4"/>
<circle cx="127.5" cy="311.5" r="217.5" fill="url(#paint1_linear_278_26410)" fill-opacity="0.5"/>
<path d="M98 365.059V373.841C98 376.599 99.3281 379.357 101.984 380.933L177.416 425.483C184.62 429.757 193.497 429.757 200.703 425.483L280.016 378.038C282.625 376.49 283.946 373.8 283.992 371.091L284 371.088V362.186L98 365.059Z" fill="url(#paint2_linear_278_26410)"/>
<path d="M101.984 372.15L177.416 416.7C184.62 420.975 193.497 420.975 200.703 416.7L280.016 369.256C285.328 366.103 285.328 358.223 280.016 355.072L204.584 310.523C197.38 306.248 188.503 306.248 181.297 310.523L101.984 357.967C96.6719 361.118 96.6719 368.998 101.984 372.15Z" fill="url(#paint3_linear_278_26410)"/>
<path d="M223.999 367.128L193.072 385.101C193.072 385.101 179.477 377.768 173.568 373.522C166.541 368.472 189.973 362.857 189.973 362.857L220.629 364.835L223.999 367.128Z" fill="#96AAFF"/>
<path d="M225.177 366.869L191.763 386.597C191.763 386.597 177.56 378.616 171.156 374.364C160.118 367.034 186.827 361.224 186.827 361.224L221.616 364.447L225.177 366.869Z" fill="#E3EBF6"/>
<path d="M193.014 381.833L223.71 363.995L223.702 366.832L193.006 384.67L193.014 381.833Z" fill="#ADBBFE"/>
<path d="M170.833 346.265L173.302 347.691L173.252 365.443C173.244 368.185 175.178 371.536 177.564 372.913L193.014 381.833L193.006 384.671L177.556 375.751C172.5 372.747 170.782 369.56 170.782 364.018L170.833 346.265Z" fill="#ADBBFE"/>
<path d="M173.308 366.287C173.271 366.002 173.252 365.719 173.252 365.444L173.303 347.691L203.999 329.852L203.948 347.605C203.948 347.927 203.978 348.259 204.029 348.594C204.037 348.646 204.046 348.698 204.055 348.75C204.109 349.063 204.181 349.378 204.274 349.694C204.283 349.723 204.292 349.752 204.3 349.781C204.406 350.123 204.531 350.465 204.678 350.803C204.68 350.809 204.684 350.815 204.687 350.822C204.837 351.166 205.009 351.504 205.197 351.832C205.203 351.842 205.208 351.851 205.213 351.86C205.398 352.18 205.601 352.489 205.818 352.785C205.838 352.812 205.857 352.84 205.878 352.866C206.077 353.134 206.29 353.387 206.51 353.628C206.557 353.679 206.605 353.73 206.653 353.78C206.829 353.963 207.013 354.129 207.2 354.291C207.283 354.364 207.364 354.442 207.449 354.51C207.713 354.721 207.983 354.913 208.261 355.074L223.711 363.994L193.015 381.833L177.566 372.913C177.287 372.752 177.017 372.559 176.753 372.35C176.667 372.281 176.588 372.203 176.504 372.13C176.376 372.019 176.246 371.916 176.124 371.796C176.067 371.74 176.013 371.677 175.958 371.619C175.91 371.569 175.863 371.519 175.815 371.467C175.761 371.408 175.704 371.353 175.652 371.293C175.531 371.154 175.414 371.011 175.3 370.864C175.26 370.812 175.223 370.758 175.183 370.705C175.163 370.678 175.143 370.652 175.123 370.624C175.087 370.573 175.048 370.524 175.012 370.473C174.926 370.351 174.841 370.225 174.76 370.099C174.683 369.978 174.608 369.855 174.536 369.732C174.53 369.721 174.525 369.71 174.519 369.7C174.514 369.691 174.508 369.68 174.503 369.671C174.445 369.57 174.388 369.469 174.333 369.367C174.269 369.245 174.206 369.121 174.146 368.997C174.092 368.886 174.042 368.774 173.992 368.662C173.989 368.655 173.986 368.649 173.983 368.642C173.98 368.635 173.976 368.628 173.974 368.621C173.918 368.492 173.865 368.362 173.814 368.232C173.762 368.096 173.713 367.959 173.668 367.823C173.645 367.756 173.627 367.688 173.606 367.62C173.597 367.591 173.587 367.562 173.579 367.533C173.564 367.483 173.547 367.432 173.533 367.382C173.487 367.216 173.447 367.051 173.412 366.886C173.391 366.787 173.378 366.689 173.361 366.59C173.352 366.537 173.342 366.485 173.333 366.432C173.325 366.384 173.314 366.336 173.308 366.287Z" fill="white"/>
<path d="M173.302 347.691L203.998 329.852L203.957 343.502L173.261 361.224L173.302 347.691Z" fill="#F5F9FF"/>
<path d="M201.528 328.427L203.998 329.852L173.302 347.691L170.833 346.265L201.528 328.427Z" fill="#ADBBFE"/>
<path d="M141.579 279.321C139.868 280.309 138.488 282.7 138.493 284.666L138.707 379.083L251.261 314.1L251.047 219.683C251.041 217.717 249.652 216.925 247.941 217.913L141.579 279.321Z" fill="white"/>
<path d="M245.893 225.033L246.084 311.14L143.849 370.165L143.659 284.059L245.893 225.033Z" fill="url(#paint4_linear_278_26410)"/>
<path d="M246.085 311.14L246.079 310.13L143.844 369.155L143.85 370.165L246.085 311.14Z" fill="#474EB8"/>
<path d="M248.622 217.612C248.797 217.556 248.967 217.518 249.129 217.501C249.144 217.5 249.16 217.498 249.175 217.496C249.35 217.483 249.516 217.491 249.673 217.522C249.681 217.523 249.69 217.526 249.698 217.527C249.858 217.561 250.008 217.617 250.145 217.696L247.651 216.208C247.646 216.204 247.64 216.201 247.634 216.198C247.584 216.17 247.532 216.145 247.479 216.123C247.426 216.1 247.371 216.081 247.315 216.065C247.279 216.055 247.241 216.047 247.204 216.04C247.195 216.038 247.187 216.036 247.179 216.034C247.166 216.031 247.155 216.028 247.142 216.025C247.081 216.014 247.018 216.008 246.955 216.004C246.888 215.999 246.82 215.999 246.75 216.002C246.728 216.003 246.704 216.008 246.681 216.009C246.666 216.01 246.651 216.012 246.636 216.014C246.597 216.018 246.559 216.019 246.519 216.025C246.43 216.039 246.339 216.059 246.247 216.083C246.208 216.094 246.167 216.112 246.128 216.124C246.092 216.136 246.056 216.149 246.019 216.162C245.973 216.178 245.929 216.189 245.882 216.209C245.74 216.268 245.595 216.339 245.448 216.424L139.086 277.833C138.886 277.948 138.692 278.086 138.503 278.236C138.441 278.285 138.384 278.341 138.323 278.394C138.232 278.473 138.138 278.548 138.05 278.634C138.009 278.674 137.973 278.717 137.933 278.758C137.898 278.794 137.864 278.831 137.83 278.868C137.791 278.911 137.749 278.951 137.711 278.994C137.625 279.093 137.542 279.195 137.461 279.3C137.432 279.336 137.406 279.375 137.378 279.411C137.364 279.431 137.35 279.45 137.335 279.47C137.309 279.507 137.281 279.542 137.255 279.58C137.194 279.667 137.134 279.757 137.076 279.847C137.021 279.933 136.967 280.021 136.916 280.109C136.912 280.116 136.908 280.124 136.903 280.131C136.899 280.138 136.896 280.145 136.892 280.152C136.85 280.224 136.809 280.296 136.771 280.369C136.724 280.456 136.68 280.544 136.637 280.632C136.598 280.712 136.562 280.793 136.526 280.874C136.524 280.878 136.522 280.882 136.521 280.887C136.519 280.891 136.517 280.895 136.515 280.9C136.474 280.992 136.436 281.085 136.401 281.178C136.363 281.275 136.329 281.372 136.296 281.47C136.28 281.519 136.266 281.569 136.251 281.618C136.245 281.639 136.238 281.66 136.232 281.681C136.222 281.715 136.209 281.751 136.2 281.786C136.167 281.904 136.138 282.023 136.113 282.141C136.098 282.213 136.088 282.285 136.076 282.356C136.07 282.394 136.062 282.43 136.057 282.467C136.052 282.501 136.044 282.536 136.039 282.57C136.013 282.775 135.999 282.978 136 283.177L136.207 375.523C136.211 376.806 136.895 377.99 138.004 378.635L138.707 379.083L138.493 284.665C138.492 284.434 138.514 284.196 138.55 283.955C138.556 283.919 138.563 283.881 138.569 283.844C138.608 283.62 138.659 283.394 138.726 283.168C138.732 283.148 138.738 283.127 138.745 283.106C138.821 282.861 138.91 282.616 139.015 282.375C139.017 282.371 139.019 282.366 139.02 282.362C139.128 282.117 139.251 281.874 139.386 281.639C139.39 281.632 139.393 281.625 139.398 281.619C139.53 281.39 139.675 281.169 139.83 280.957C139.844 280.938 139.858 280.919 139.872 280.901C140.015 280.709 140.167 280.528 140.325 280.357C140.359 280.32 140.393 280.283 140.428 280.247C140.553 280.117 140.685 279.998 140.818 279.883C140.878 279.83 140.936 279.774 140.997 279.725C141.186 279.574 141.38 279.437 141.58 279.321L247.942 217.912C248.137 217.799 248.328 217.716 248.513 217.648C248.549 217.636 248.586 217.624 248.622 217.612Z" fill="#ADBBFE"/>
<path d="M238.842 297.234L187.081 327.119V326.552L238.842 296.667V297.234Z" fill="#EADCE1"/>
<path d="M238.842 291.23L187.081 321.113V320.546L238.842 290.662V291.23Z" fill="#EADCE1"/>
<path d="M238.842 285.346L187.081 315.231V314.664L238.842 284.779V285.346Z" fill="#EADCE1"/>
<path d="M238.842 279.343L187.081 309.228V308.66L238.842 278.776V279.343Z" fill="#EADCE1"/>
<path d="M238.842 273.338L187.081 303.223V302.656L238.842 272.771V273.338Z" fill="#EADCE1"/>
<path d="M238.842 267.521L187.081 297.406V296.839L238.842 266.954V267.521Z" fill="#EADCE1"/>
<path d="M238.842 261.518L187.081 291.401V290.834L238.842 260.951V261.518Z" fill="#EADCE1"/>
<path d="M194.534 328.587L191.067 330.588V296.2L194.534 294.2V328.587Z" fill="url(#paint5_linear_278_26410)"/>
<path d="M187.686 290.688L187.081 291.036V333.265L187.686 332.917V290.688Z" fill="#EADCE1"/>
<path d="M238.843 261.201L238.239 261.551V303.779L238.843 303.43V261.201Z" fill="#EADCE1"/>
<path d="M197.999 326.585L194.533 328.587V309.232L197.999 307.23V326.585Z" fill="url(#paint6_linear_278_26410)"/>
<path d="M206.578 321.633L203.111 323.635V295.384L206.578 293.383V321.633Z" fill="url(#paint7_linear_278_26410)"/>
<path d="M210.043 319.633L206.577 321.633V281.599L210.043 279.598V319.633Z" fill="url(#paint8_linear_278_26410)"/>
<path d="M218.501 314.749L215.035 316.751V297.396L218.501 295.394V314.749Z" fill="url(#paint9_linear_278_26410)"/>
<path d="M221.966 312.749L218.501 314.749V288L221.966 286V312.749Z" fill="url(#paint10_linear_278_26410)"/>
<path d="M230.545 307.797L227.079 309.797V297.382L230.545 295.38V307.797Z" fill="url(#paint11_linear_278_26410)"/>
<path d="M234.011 305.795L230.545 307.797V273.409L234.011 271.408V305.795Z" fill="url(#paint12_linear_278_26410)"/>
<path d="M238.842 304.477L187.081 334.268V332.555L238.842 302.67V304.477Z" fill="#383838"/>
<path d="M180.626 275.496C180.618 272.837 178.736 271.769 176.426 273.103L153.8 286.166C151.485 287.502 149.615 290.737 149.622 293.397L149.696 319.396C149.703 322.056 151.586 323.129 153.901 321.792L176.526 308.729C178.837 307.396 180.707 304.156 180.699 301.496L180.626 275.496Z" fill="#ADBBFE"/>
<path d="M181.337 276.208C181.329 273.548 179.447 272.481 177.137 273.815L154.511 286.878C152.196 288.214 150.326 291.449 150.333 294.109L150.407 320.107C150.414 322.768 152.297 323.84 154.612 322.504L177.237 309.441C179.548 308.108 181.418 304.868 181.41 302.208L181.337 276.208Z" fill="url(#paint13_linear_278_26410)"/>
<path d="M168.657 291.104C172.811 288.706 176.192 290.633 176.206 295.412C176.22 300.19 172.859 306.01 168.706 308.408C164.547 310.809 161.166 308.881 161.152 304.103L168.682 299.756L168.657 291.104Z" fill="url(#paint14_linear_278_26410)"/>
<path d="M167.958 287.403L167.976 293.828C163.817 296.229 160.458 302.049 160.471 306.827L154.875 310.058L154.832 294.981L167.958 287.403Z" fill="#E1E1E1"/>
<defs>
<linearGradient id="paint0_linear_278_26410" x1="247.755" y1="-17.0103" x2="260.148" y2="604.249" gradientUnits="userSpaceOnUse">
<stop stop-color="#FFB244"/>
<stop offset="0.692155" stop-color="#F7D379" stop-opacity="0.8"/>
</linearGradient>
<linearGradient id="paint1_linear_278_26410" x1="200.86" y1="80.5464" x2="210.662" y2="571.906" gradientUnits="userSpaceOnUse">
<stop stop-color="#FFB244"/>
<stop offset="0.692155" stop-color="#F7D379" stop-opacity="0.8"/>
</linearGradient>
<linearGradient id="paint2_linear_278_26410" x1="223.122" y1="362.357" x2="223.122" y2="435.273" gradientUnits="userSpaceOnUse">
<stop stop-color="#E3E3E3"/>
<stop offset="1" stop-color="#6C86DD"/>
</linearGradient>
<linearGradient id="paint3_linear_278_26410" x1="139.883" y1="328.263" x2="258.481" y2="405.931" gradientUnits="userSpaceOnUse">
<stop stop-color="#DFDAEF"/>
<stop offset="1" stop-color="#F2EFFA"/>
</linearGradient>
<linearGradient id="paint4_linear_278_26410" x1="177.183" y1="225.407" x2="177.183" y2="384.534" gradientUnits="userSpaceOnUse">
<stop stop-color="#555C8B"/>
<stop offset="1" stop-color="#6C86DD"/>
</linearGradient>
<linearGradient id="paint5_linear_278_26410" x1="193.385" y1="293.074" x2="201.635" y2="332.466" gradientUnits="userSpaceOnUse">
<stop stop-color="#FFB244"/>
<stop offset="0.692155" stop-color="#F7D379" stop-opacity="0.8"/>
</linearGradient>
<linearGradient id="paint6_linear_278_26410" x1="196.865" y1="307.285" x2="196.865" y2="330.701" gradientUnits="userSpaceOnUse">
<stop stop-color="#555C8B"/>
<stop offset="1" stop-color="#6C86DD"/>
</linearGradient>
<linearGradient id="paint7_linear_278_26410" x1="205.429" y1="292.447" x2="211.206" y2="325.626" gradientUnits="userSpaceOnUse">
<stop stop-color="#FFB244"/>
<stop offset="0.692155" stop-color="#F7D379" stop-opacity="0.8"/>
</linearGradient>
<linearGradient id="paint8_linear_278_26410" x1="208.909" y1="279.707" x2="208.909" y2="325.795" gradientUnits="userSpaceOnUse">
<stop stop-color="#555C8B"/>
<stop offset="1" stop-color="#6C86DD"/>
</linearGradient>
<linearGradient id="paint9_linear_278_26410" x1="217.353" y1="294.734" x2="220.275" y2="318.508" gradientUnits="userSpaceOnUse">
<stop stop-color="#FFB244"/>
<stop offset="0.692155" stop-color="#F7D379" stop-opacity="0.8"/>
</linearGradient>
<linearGradient id="paint10_linear_278_26410" x1="220.832" y1="286.074" x2="220.832" y2="317.596" gradientUnits="userSpaceOnUse">
<stop stop-color="#555C8B"/>
<stop offset="1" stop-color="#6C86DD"/>
</linearGradient>
<linearGradient id="paint11_linear_278_26410" x1="229.397" y1="294.934" x2="230.739" y2="311.114" gradientUnits="userSpaceOnUse">
<stop stop-color="#FFB244"/>
<stop offset="0.692155" stop-color="#F7D379" stop-opacity="0.8"/>
</linearGradient>
<linearGradient id="paint12_linear_278_26410" x1="232.877" y1="271.502" x2="232.877" y2="311.4" gradientUnits="userSpaceOnUse">
<stop stop-color="#555C8B"/>
<stop offset="1" stop-color="#6C86DD"/>
</linearGradient>
<linearGradient id="paint13_linear_278_26410" x1="171.113" y1="271.699" x2="172.913" y2="327.96" gradientUnits="userSpaceOnUse">
<stop stop-color="#FFB244"/>
<stop offset="0.692155" stop-color="#F7D379" stop-opacity="0.8"/>
</linearGradient>
<linearGradient id="paint14_linear_278_26410" x1="171.279" y1="290.123" x2="171.279" y2="311.358" gradientUnits="userSpaceOnUse">
<stop stop-color="#555C8B"/>
<stop offset="1" stop-color="#6C86DD"/>
</linearGradient>
</defs>
</svg>
