<svg width="16" height="17" viewBox="0 0 16 17" fill="none" xmlns="http://www.w3.org/2000/svg">
<path fill-rule="evenodd" clip-rule="evenodd" d="M14.8538 7.64747C14.9474 7.741 15 7.8678 15 8C15 8.1322 14.9474 8.259 14.8538 8.35253L9.8536 13.3412C9.80782 13.3902 9.75262 13.4295 9.69129 13.4568C9.62995 13.4841 9.56374 13.4987 9.4966 13.4999C9.42946 13.5011 9.36278 13.4888 9.30052 13.4637C9.23825 13.4386 9.1817 13.4013 9.13422 13.3539C9.08674 13.3065 9.0493 13.2501 9.02416 13.188C8.99901 13.1259 8.98666 13.0593 8.98784 12.9923C8.98903 12.9253 9.00372 12.8593 9.03105 12.7981C9.05838 12.7369 9.09778 12.6818 9.14691 12.6362L13.2937 8.49887L2.50002 8.49887C2.36741 8.49887 2.24022 8.44631 2.14645 8.35275C2.05268 8.2592 2 8.13231 2 8C2 7.86769 2.05268 7.7408 2.14645 7.64725C2.24022 7.55369 2.36741 7.50113 2.50002 7.50113L13.2937 7.50113L9.14691 3.36385C9.09778 3.31818 9.05838 3.2631 9.03105 3.20191C9.00372 3.14071 8.98903 3.07465 8.98784 3.00767C8.98666 2.94069 8.99901 2.87415 9.02416 2.81203C9.0493 2.74991 9.08674 2.69349 9.13422 2.64612C9.1817 2.59874 9.23826 2.5614 9.30052 2.53631C9.36278 2.51122 9.42946 2.4989 9.4966 2.50008C9.56374 2.50126 9.62995 2.51592 9.69129 2.54319C9.75262 2.57045 9.80782 2.60977 9.8536 2.65878L14.8538 7.64747Z" fill="white"/>
</svg>
