<svg width="50" height="50" viewBox="0 0 50 50" fill="none" xmlns="http://www.w3.org/2000/svg">
<path d="M40.0382 4.70695C40.0364 3.98971 39.7841 3.48511 39.375 3.24724L38.9783 3.01664C38.9042 3.1306 38.7617 3.19643 38.6124 3.10394C37.9749 2.70912 37.4478 2.14372 36.7918 1.78199C36.7091 1.73644 36.6271 1.69982 36.5454 1.66846C35.2605 2.2651 33.8698 2.63637 32.5937 3.26079C32.2302 3.43864 31.8758 3.62879 31.5283 3.82891C31.223 4.01812 30.9159 4.20445 30.6091 4.39122C29.9189 4.83595 29.2507 5.31517 28.5894 5.8136C27.2797 6.80075 25.954 7.79664 24.4334 8.43878C23.5678 8.80433 22.6517 9.07068 21.7892 9.44394C21.6214 9.58581 21.4757 9.74168 21.356 9.91309C21.3829 10.0447 21.332 10.1958 21.1694 10.2508C20.7749 10.3844 20.4316 10.4564 20.013 10.4411C20.0079 10.4409 20.0032 10.4386 19.9981 10.4381C19.7615 10.5783 19.5241 10.7174 19.2885 10.8592C18.0815 11.5851 16.906 12.4122 15.6525 13.0542C15.17 13.3012 14.6805 13.5329 14.1948 13.7727L13.9707 13.9021C13.6223 14.3519 13.1759 14.695 12.7533 15.0827C12.2392 15.5545 11.8378 16.0699 11.2352 16.4396C11.1801 16.4735 11.12 16.4829 11.0625 16.4753V47.007L13.3885 48.358C13.392 48.3598 13.3938 48.3616 13.3974 48.3634C13.8119 48.6175 14.394 48.5886 15.0374 48.2174L24.4787 42.7642C24.5886 42.7029 24.6949 42.6777 24.785 42.6939C25.3581 42.8038 25.9024 42.9462 26.4178 43.1246C26.4195 43.1246 26.4195 43.1246 26.4195 43.1264C26.4648 43.1684 26.5071 43.2139 26.5513 43.2573C26.6339 43.2363 26.7259 43.252 26.8057 43.3277C26.8854 43.4034 27.6597 44.1304 27.8663 44.4523C27.9927 44.3392 28.2045 44.3227 28.2916 44.5113C28.313 44.5575 28.3343 44.6036 28.3556 44.6498C28.3638 44.6674 28.3671 44.6842 28.3724 44.7013C28.525 44.9621 28.9233 45.1923 29.131 45.3777C29.5036 45.7104 29.9023 45.9556 30.3377 46.197C30.4182 46.2415 30.4599 46.3059 30.4725 46.3744L30.5428 46.4153C30.595 46.4477 30.6653 46.4351 30.7339 46.3955C30.8744 46.3144 31.0132 46.1143 31.0132 45.9143L30.9951 39.6303C30.9934 39.2843 31.2384 38.8626 31.5394 38.6896L37.8468 35.0475C39.1029 34.323 40.1175 32.5642 40.1139 31.1207L40.0382 4.70695Z" fill="#EDEEF2"/>
<path d="M30.4879 46.3575C29.8569 45.2564 28.996 44.4277 27.9505 43.8201L25.1562 42.1963C26.2017 42.8038 27.0626 43.6326 27.6937 44.7336C27.7087 44.7601 27.7274 44.779 27.7485 44.7913L30.5427 46.4151C30.5216 46.4029 30.503 46.3839 30.4879 46.3575Z" fill="url(#paint0_linear_347_42412)"/>
<path d="M36.5812 1.62421C36.1677 1.38394 35.5952 1.4177 34.9635 1.7824L12.153 14.952C10.8965 15.6775 9.88162 17.4354 9.88575 18.8792L9.96055 45.2925C9.96266 46.0098 10.2157 46.5144 10.6241 46.7516L13.4184 48.3755C13.0101 48.1382 12.7569 47.6336 12.7549 46.9164L12.68 20.503C12.6759 19.0593 13.6908 17.3013 14.9473 16.5759L37.7578 3.40626C38.3895 3.04156 38.962 3.0078 39.3755 3.24808L36.5812 1.62421Z" fill="url(#paint1_linear_347_42412)"/>
<path d="M37.7575 3.40618C39.0128 2.68144 40.0344 3.26359 40.0385 4.70603L40.1134 31.1207C40.1175 32.5644 39.1025 34.3224 37.8461 35.0478L31.5397 38.6888C31.2382 38.8629 30.9939 39.2846 30.9949 39.631L31.0127 45.9138C31.0133 46.1146 30.8743 46.3139 30.7338 46.395C30.6375 46.4506 30.5405 46.4507 30.4873 46.3575C29.3001 44.2858 27.2986 43.1781 24.786 42.694C24.6949 42.6777 24.5878 42.7025 24.4796 42.7649L15.0367 48.2168C13.7802 48.9422 12.7587 48.36 12.7546 46.9163L12.6797 20.503C12.6756 19.0592 13.6905 17.3012 14.947 16.5758L37.7575 3.40618Z" fill="#EDEEF2"/>
<path d="M40.1135 31.1206C40.1171 32.5641 39.1026 34.323 37.8464 35.0474L31.539 38.6895C31.2381 38.8625 30.993 39.2842 30.9948 39.6302L31.0128 45.9142C31.0128 46.1142 30.874 46.3143 30.7335 46.3954C30.638 46.4512 30.5406 46.4512 30.4866 46.3575C29.299 44.2851 27.2987 43.1786 24.7847 42.6938C24.6946 42.6776 24.5883 42.7028 24.4784 42.7641L15.037 48.2173C13.7791 48.9418 12.7591 48.3597 12.7537 46.9162L12.7051 29.3815C18.4412 29.3689 23.0871 24.8546 23.0871 19.2896C23.0871 16.9685 22.2797 14.8312 20.9209 13.1264L37.7563 3.40574C39.0125 2.68129 40.0342 3.26337 40.0379 4.70687L40.1135 31.1206Z" fill="#E0E1EC"/>
<path d="M36.808 27.6782L17.1982 38.9999V25.0148L36.808 13.6931V27.6782Z" fill="#F69524"/>
<path d="M17.1982 25.0148L27.0031 26.3465L36.808 13.6931L27.0031 24.112L17.1982 25.0148Z" fill="#D59B20"/>
<path d="M16 38.3083L17.1983 39.0001V25.015L16 24.3232V38.3083Z" fill="#D3D3DD"/>
<path d="M35.6098 13L36.808 13.6918L17.1982 25.0136L16 24.3218L35.6098 13Z" fill="#D5D5DF"/>
<defs>
<linearGradient id="paint0_linear_347_42412" x1="28.7797" y1="42.2072" x2="28.7797" y2="46.8328" gradientUnits="userSpaceOnUse">
<stop stop-color="#555C8B"/>
<stop offset="1" stop-color="#6C86DD"/>
</linearGradient>
<linearGradient id="paint1_linear_347_42412" x1="29.7234" y1="1.5916" x2="29.7234" y2="53.0192" gradientUnits="userSpaceOnUse">
<stop stop-color="#555C8B"/>
<stop offset="1" stop-color="#6C86DD"/>
</linearGradient>
</defs>
</svg>
