<svg width="50" height="50" viewBox="0 0 50 50" fill="none" xmlns="http://www.w3.org/2000/svg">
<path d="M40.0382 4.70695C40.0364 3.98971 39.7841 3.48511 39.375 3.24724L38.9783 3.01664C38.9042 3.1306 38.7617 3.19643 38.6124 3.10394C37.9749 2.70912 37.4478 2.14372 36.7918 1.78199C36.7091 1.73644 36.6271 1.69982 36.5454 1.66846C35.2605 2.2651 33.8698 2.63637 32.5937 3.26079C32.2302 3.43864 31.8758 3.62879 31.5283 3.82891C31.223 4.01812 30.9159 4.20445 30.6091 4.39122C29.9189 4.83595 29.2507 5.31517 28.5894 5.8136C27.2797 6.80075 25.954 7.79664 24.4334 8.43878C23.5678 8.80433 22.6517 9.07068 21.7892 9.44394C21.6214 9.58581 21.4757 9.74168 21.356 9.91309C21.3829 10.0447 21.332 10.1958 21.1694 10.2508C20.7749 10.3844 20.4316 10.4564 20.013 10.4411C20.0079 10.4409 20.0032 10.4386 19.9981 10.4381C19.7615 10.5783 19.5241 10.7174 19.2885 10.8592C18.0815 11.5851 16.906 12.4122 15.6525 13.0542C15.17 13.3012 14.6805 13.5329 14.1948 13.7727L13.9707 13.9021C13.6223 14.3519 13.1759 14.695 12.7533 15.0827C12.2392 15.5545 11.8378 16.0699 11.2352 16.4396C11.1801 16.4735 11.12 16.4829 11.0625 16.4753V47.007L13.3885 48.358C13.392 48.3598 13.3938 48.3616 13.3974 48.3634C13.8119 48.6175 14.394 48.5886 15.0374 48.2174L24.4787 42.7642C24.5886 42.7029 24.6949 42.6777 24.785 42.6939C25.3581 42.8038 25.9024 42.9462 26.4178 43.1246C26.4195 43.1246 26.4195 43.1246 26.4195 43.1264C26.4648 43.1684 26.5071 43.2139 26.5513 43.2573C26.6339 43.2363 26.7259 43.252 26.8057 43.3277C26.8854 43.4034 27.6597 44.1304 27.8663 44.4523C27.9927 44.3392 28.2045 44.3227 28.2916 44.5113C28.313 44.5575 28.3343 44.6036 28.3556 44.6498C28.3638 44.6674 28.3671 44.6842 28.3724 44.7013C28.525 44.9621 28.9233 45.1923 29.131 45.3777C29.5036 45.7104 29.9023 45.9556 30.3377 46.197C30.4182 46.2415 30.4599 46.3059 30.4725 46.3744L30.5428 46.4153C30.595 46.4477 30.6653 46.4351 30.7339 46.3955C30.8744 46.3144 31.0132 46.1143 31.0132 45.9143L30.9951 39.6303C30.9934 39.2843 31.2384 38.8626 31.5394 38.6896L37.8468 35.0475C39.1029 34.323 40.1175 32.5642 40.1139 31.1207L40.0382 4.70695Z" fill="#EDEEF2"/>
<path d="M30.4879 46.3575C29.8569 45.2564 28.996 44.4277 27.9505 43.8201L25.1562 42.1963C26.2017 42.8038 27.0626 43.6326 27.6937 44.7336C27.7087 44.7601 27.7274 44.779 27.7485 44.7913L30.5427 46.4151C30.5216 46.4029 30.503 46.3839 30.4879 46.3575Z" fill="url(#paint0_linear_347_42391)"/>
<path d="M36.5812 1.62421C36.1677 1.38394 35.5952 1.4177 34.9635 1.7824L12.153 14.952C10.8965 15.6775 9.88162 17.4354 9.88575 18.8792L9.96055 45.2925C9.96266 46.0098 10.2157 46.5144 10.6241 46.7516L13.4184 48.3755C13.0101 48.1382 12.7569 47.6336 12.7549 46.9164L12.68 20.503C12.6759 19.0593 13.6908 17.3013 14.9473 16.5759L37.7578 3.40626C38.3895 3.04156 38.962 3.0078 39.3755 3.24808L36.5812 1.62421Z" fill="url(#paint1_linear_347_42391)"/>
<path d="M37.7575 3.40618C39.0128 2.68144 40.0344 3.26359 40.0385 4.70603L40.1134 31.1207C40.1175 32.5644 39.1025 34.3224 37.8461 35.0478L31.5397 38.6888C31.2382 38.8629 30.9939 39.2846 30.9949 39.631L31.0127 45.9138C31.0133 46.1146 30.8743 46.3139 30.7338 46.395C30.6375 46.4506 30.5405 46.4507 30.4873 46.3575C29.3001 44.2858 27.2986 43.1781 24.786 42.694C24.6949 42.6777 24.5878 42.7025 24.4796 42.7649L15.0367 48.2168C13.7802 48.9422 12.7587 48.36 12.7546 46.9163L12.6797 20.503C12.6756 19.0592 13.6905 17.3012 14.947 16.5758L37.7575 3.40618Z" fill="#EDEEF2"/>
<path d="M40.1135 31.1206C40.1171 32.5641 39.1026 34.323 37.8464 35.0474L31.539 38.6895C31.2381 38.8625 30.993 39.2842 30.9948 39.6302L31.0128 45.9142C31.0128 46.1142 30.874 46.3143 30.7335 46.3954C30.638 46.4512 30.5406 46.4512 30.4866 46.3575C29.299 44.2851 27.2987 43.1786 24.7847 42.6938C24.6946 42.6776 24.5883 42.7028 24.4784 42.7641L15.037 48.2173C13.7791 48.9418 12.7591 48.3597 12.7537 46.9162L12.7051 29.3815C18.4412 29.3689 23.0871 24.8546 23.0871 19.2896C23.0871 16.9685 22.2797 14.8312 20.9209 13.1264L37.7563 3.40574C39.0125 2.68129 40.0342 3.26337 40.0379 4.70687L40.1135 31.1206Z" fill="#E0E1EC"/>
<path d="M29.2157 12.9499C28.9891 13.0808 28.7656 13.3266 28.6177 13.634C27.9007 15.1252 27.1582 16.6059 26.3906 18.0758C26.195 18.4501 26.1516 18.8439 26.2806 19.082C26.6407 19.7493 26.9914 20.4295 27.3314 21.1248C27.4527 21.3722 27.3962 21.7748 27.1917 22.1461C26.1373 24.0628 25.0424 25.9586 23.91 27.8309C23.7667 28.0674 23.5807 28.2566 23.392 28.3656C23.2909 28.4239 23.1891 28.4593 23.0926 28.4667C22.3168 28.5254 21.5488 28.5688 20.7879 28.5958C20.6845 28.5997 20.574 28.6362 20.4645 28.6995C20.2856 28.8027 20.109 28.9774 19.9685 29.1986C19.079 30.5996 18.1674 31.984 17.2344 33.3514C16.9072 33.8304 16.8447 34.4058 17.0943 34.6427C18.163 35.6572 19.2322 36.6714 20.3009 37.686C20.4502 37.8274 20.6775 37.8159 20.9072 37.6833C21.0681 37.5904 21.23 37.4382 21.3672 37.2376C26.1435 30.2461 30.4178 22.8428 34.0807 15.2162C34.3364 14.6849 34.2691 14.1722 33.932 14.0761C32.5109 13.6711 31.0899 13.2669 29.6695 12.8623C29.5332 12.8235 29.3737 12.8587 29.2157 12.9499Z" fill="#D3D3DD"/>
<path d="M30.0243 13.8122C29.7977 13.9431 29.5742 14.1889 29.4263 14.4963C28.7093 15.9875 27.9668 17.4682 27.1992 18.9381C27.0036 19.3124 26.9602 19.7062 27.0892 19.9444C27.4493 20.6116 27.8 21.2918 28.14 21.9871C28.2613 22.2345 28.2048 22.6371 28.0003 23.0084C26.9459 24.9251 25.851 26.8209 24.7186 28.6932C24.5753 28.9297 24.3893 29.1189 24.2006 29.2279C24.0995 29.2862 23.9977 29.3216 23.9012 29.329C23.1254 29.3877 22.3574 29.4311 21.5964 29.4581C21.4931 29.4621 21.3826 29.4985 21.2731 29.5618C21.0942 29.665 20.9176 29.8397 20.7771 30.0609C19.8876 31.4619 18.976 32.8463 18.043 34.2137C17.7158 34.6927 17.6533 35.2681 17.9029 35.505C18.9716 36.5195 20.0408 37.5337 21.1095 38.5483C21.2588 38.6897 21.4861 38.6782 21.7158 38.5456C21.8767 38.4527 22.0386 38.3005 22.1758 38.0999C26.9521 31.1084 31.2264 23.7051 34.8893 16.0785C35.145 15.5472 35.0777 15.0345 34.7405 14.9384C33.3195 14.5334 31.8985 14.1292 30.4781 13.7246C30.3418 13.6858 30.1823 13.7211 30.0243 13.8122Z" fill="#F69524"/>
<path d="M34.8907 16.0768C31.2289 23.7018 26.9495 31.1062 22.1774 38.0989C22.0378 38.2974 21.8758 38.4518 21.7141 38.5474C21.4863 38.6797 21.2583 38.6871 21.1111 38.5474C20.0376 37.5327 18.9715 36.518 17.9053 35.5033C17.6553 35.268 17.7141 34.6945 18.045 34.2165C18.8905 32.9812 19.7141 31.7239 20.523 30.4592C20.7435 30.8489 21.0377 31.1503 21.4053 31.3342C23.2804 32.29 26.3465 30.0033 28.2583 26.2312C30.1773 22.4665 30.2141 18.643 28.3391 17.6871C28.2068 17.621 28.0671 17.5695 27.9201 17.5327C28.4348 16.5253 28.9347 15.518 29.4273 14.496C29.5745 14.1871 29.795 13.9445 30.023 13.8121C30.1847 13.7239 30.3391 13.6871 30.4789 13.7239C31.898 14.1283 33.3171 14.5327 34.7435 14.9371C35.0745 15.0327 35.1479 15.5474 34.8907 16.0768Z" fill="#F69524"/>
<defs>
<linearGradient id="paint0_linear_347_42391" x1="28.7797" y1="42.2072" x2="28.7797" y2="46.8328" gradientUnits="userSpaceOnUse">
<stop stop-color="#555C8B"/>
<stop offset="1" stop-color="#6C86DD"/>
</linearGradient>
<linearGradient id="paint1_linear_347_42391" x1="29.7234" y1="1.5916" x2="29.7234" y2="53.0192" gradientUnits="userSpaceOnUse">
<stop stop-color="#555C8B"/>
<stop offset="1" stop-color="#6C86DD"/>
</linearGradient>
</defs>
</svg>
